<svg width="271" height="74" viewBox="0 0 271 74" fill="none" xmlns="http://www.w3.org/2000/svg">
<path fill-rule="evenodd" clip-rule="evenodd" d="M19.0998 0.322753C19.975 3.07313 20.1715 4.32614 20.1664 7.11694C20.1614 9.73522 20.0594 10.4469 19.4273 12.2684C17.9621 16.4916 16.1804 18.9881 9.79425 25.7665C2.19189 33.8356 -0.0156259 37.7301 8.3109e-05 43.0454C0.0109995 46.6303 1.21553 50.1466 3.75587 54.0089C4.99501 55.8928 7.01748 58.4508 7.15753 58.3116C7.21211 58.2574 7.01322 57.4453 6.71555 56.5072C5.86993 53.8425 5.77035 50.5254 6.45116 47.7048C7.50739 43.3297 10.1436 39.3054 15.822 33.4002C21.0541 27.9586 23.0508 25.4489 24.6616 22.2885C26.24 19.1921 26.6979 14.9895 25.826 11.608C25.0171 8.47139 22.0803 3.3558 19.3046 0.248783C18.9941 -0.0986138 18.9688 -0.0896316 19.0998 0.322753ZM31.0435 17.0897C31.8002 19.2618 31.9847 24.1132 31.3979 26.4089C30.2125 31.0464 27.6527 34.7935 20.8614 41.8326C14.2615 48.6735 11.9594 52.6003 11.6197 57.5975C11.4064 60.7328 12.0105 63.2676 13.8003 66.7458C15.048 69.1715 18.3269 73.9349 18.7582 73.9492C18.8482 73.9521 18.6845 73.271 18.394 72.4354C17.7142 70.48 17.4549 65.5261 17.9222 63.4198C18.9611 58.7348 21.4375 55.0754 28.6035 47.635C35.3115 40.6699 37.8819 36.0309 37.8937 30.8694C37.9032 26.614 35.6499 21.599 31.3361 16.2753C31.0222 15.8877 30.7088 15.5707 30.6396 15.5707C30.5706 15.5707 30.7522 16.2544 31.0435 17.0897ZM47.4828 50.5746V53.3484H52.2754H57.068V62.991V72.6336H62.5262H67.9844V62.991V53.3484H72.777H77.5695V50.5746V47.8007H62.5262H47.4828V50.5746ZM82.0959 57.3558C79.2403 62.6072 76.2047 68.193 75.35 69.7686L73.7964 72.6336H77.4106H81.025L82.0959 70.5201L83.1667 68.4067H90.7387H98.3105L99.4186 70.5201L100.527 72.6336H106.644H112.761L111.843 70.9825C111.338 70.0745 110.015 67.667 108.903 65.6328C107.792 63.5986 105.153 58.7839 103.04 54.9335L99.1982 47.9327L93.2431 47.8704L87.2878 47.8081L82.0959 57.3558ZM108.988 50.5746V53.3484H113.78H118.573V62.9963V72.6444L124.097 72.5728L129.622 72.5015L129.692 62.925L129.762 53.3484H134.152H138.542V50.5746V47.8007H123.765H108.988V50.5746ZM142.269 60.2171V72.6336H145.992H149.715L149.786 65.9091L149.858 59.1847L155.715 63.6604C158.937 66.1223 162.908 69.1483 164.54 70.3849L167.507 72.6336H171.529H175.551V60.2171V47.8007H171.824H168.096V53.8768C168.096 57.2187 168.029 59.9529 167.947 59.9529C167.864 59.9529 164.24 57.42 159.892 54.3238C155.545 51.2279 151.691 48.4936 151.329 48.2477C150.779 47.8744 149.98 47.8007 146.47 47.8007H142.269V60.2171ZM181.409 60.2147V72.6336H196.053H210.697V69.8597V67.0858H201.511H192.325V65.1044V63.1231H199.381H206.437V60.2171V57.3111H199.381H192.325V55.3332V53.3553L201.444 53.2858L210.564 53.2163V50.5746V47.9327L195.986 47.8643L181.409 47.7962V60.2147ZM215.489 60.2171V72.6336H221.081H226.672V68.1425V63.6515H232.53H238.387V60.8776V58.1037H232.53H226.672V55.7261V53.3484H238.387H250.102V62.991V72.6336H255.561H261.019V62.991V53.3484H265.944H270.87V50.5746V47.8007H243.18H215.489V60.2171ZM93.2157 58.5021C94.4218 60.9006 95.4086 62.9215 95.4086 62.9931C95.4086 63.0647 93.3118 63.1231 90.7491 63.1231C88.1864 63.1231 86.0897 63.0679 86.0897 63.0003C86.0897 62.6996 90.681 54.141 90.8423 54.141C90.9416 54.141 92.0096 56.1036 93.2157 58.5021Z" fill="#7AC5CD"/>
</svg>
