<svg width="15" height="14" viewBox="0 0 15 14" fill="none" xmlns="http://www.w3.org/2000/svg">
<g clip-path="url(#clip0_2052_556)">
<path d="M3.71758 13.9958C3.59871 13.9958 3.47707 13.9488 3.38585 13.8576C3.20341 13.6752 3.20341 13.3766 3.38585 13.1942L9.63022 6.94706L3.47707 0.793915C3.29463 0.611465 3.29463 0.312916 3.47707 0.130479C3.6595 -0.0519567 3.95804 -0.0519567 4.14048 0.130479L10.6253 6.61534C10.8078 6.79777 10.8078 7.09631 10.6253 7.27874L4.04926 13.8576C3.95804 13.9488 3.83643 13.9958 3.71756 13.9958L3.71758 13.9958Z" fill="white" fill-opacity="0.5"/>
<path d="M3.71758 14.1126H3.99208L3.94663 14.0654C4.01411 14.0366 4.07733 13.9947 4.13184 13.9402L4.13186 13.9401L10.7079 7.36133C10.936 7.13328 10.936 6.7608 10.7079 6.53276L4.22306 0.0478976C3.99501 -0.180147 3.62253 -0.180147 3.39449 0.0478976C3.16644 0.275944 3.16644 0.648437 3.39448 0.876493L3.39449 0.876496L9.46507 6.94708L3.30327 13.1116C3.30326 13.1116 3.30326 13.1116 3.30325 13.1116C3.07522 13.3397 3.07523 13.7122 3.30327 13.9402C3.41698 14.0539 3.56858 14.1126 3.71758 14.1126Z" stroke="white" stroke-opacity="0.5" stroke-width="0.233577"/>
</g>
<defs>
<clipPath id="clip0_2052_556">
<rect width="14.0146" height="14.0146" fill="white" transform="translate(0 -0.00732422)"/>
</clipPath>
</defs>
</svg>
