<svg width="24" height="24" viewBox="0 0 24 24" fill="none" xmlns="http://www.w3.org/2000/svg">
<g clip-path="url(#clip0_2052_398)">
<path fill-rule="evenodd" clip-rule="evenodd" d="M16.37 0.0267233C15.9783 0.0777874 15.3532 0.249314 14.9324 0.421263C13.9317 0.830198 14.1736 0.616188 7.71078 6.81094C2.22778 12.0666 1.46364 12.8269 1.08833 13.4002C0.286046 14.6258 -0.11236 16.2242 0.0275877 17.6562C0.195613 19.3761 0.878162 20.7764 2.13915 21.9886C3.50084 23.2976 5.27323 24 7.21438 24C8.90337 24 10.4405 23.4845 11.7312 22.4853C12.2381 22.0929 23.777 10.9881 23.8837 10.7901C23.9994 10.5751 24.034 10.2577 23.9638 10.0535C23.891 9.84187 23.6603 9.58111 23.4554 9.47912C23.2246 9.36424 22.8065 9.37615 22.5708 9.5044C22.4622 9.56348 19.7916 12.1048 16.5812 15.2039C13.3948 18.28 10.6264 20.915 10.4293 21.0593C9.08243 22.0461 7.37654 22.3559 5.75172 21.9089C3.97796 21.421 2.60441 20.0573 2.12958 18.3127C1.99769 17.8281 1.95257 16.8558 2.03642 16.305C2.14931 15.5636 2.42999 14.8817 2.89402 14.2212C3.17084 13.8272 14.6072 2.80608 15.0272 2.52854C16.3275 1.6694 17.9959 1.66706 19.2604 2.52263C20.5342 3.38458 21.0582 4.76997 20.5971 6.05689C20.3118 6.85323 20.2731 6.89408 15.1877 11.7669C10.7957 15.9752 10.4917 16.2565 10.2027 16.3776C9.13546 16.8249 8.00108 16.4858 7.72211 15.636C7.64901 15.4134 7.64418 15.3261 7.68935 15.046C7.7185 14.8652 7.8105 14.5748 7.89385 14.4008C8.03731 14.1011 8.25373 13.8848 11.973 10.3246C14.602 7.80803 15.9356 6.49916 16.0063 6.36599C16.1528 6.09041 16.124 5.70521 15.9368 5.43361C15.7824 5.20952 15.4015 5.01206 15.1222 5.01136C14.7114 5.01028 14.6575 5.0576 10.4364 9.12411C7.45867 11.9928 6.36468 13.0758 6.24417 13.274C5.85773 13.9097 5.70279 14.477 5.70147 15.2608C5.69898 16.7917 6.5539 17.8957 8.08297 18.3361C8.56014 18.4736 9.55603 18.5057 10.0993 18.4012C10.5768 18.3093 11.1204 18.0963 11.5361 17.8381C11.9356 17.5898 21.1629 8.75208 21.5995 8.19947C22.0972 7.56949 22.5041 6.71111 22.6512 5.9806C22.7424 5.52768 22.7322 4.58306 22.6311 4.13267C22.1779 2.11309 20.3177 0.431907 18.1311 0.0657365C17.7353 -0.00052029 16.7471 -0.0224183 16.37 0.0267233Z" fill="#45474D"/>
</g>
<defs>
<clipPath id="clip0_2052_398">
<rect width="24" height="24" fill="white"/>
</clipPath>
</defs>
</svg>
