<svg width="36" height="37" viewBox="0 0 36 37" fill="none" xmlns="http://www.w3.org/2000/svg">
<circle cx="18" cy="18.395" r="18" fill="white"/>
<circle cx="18" cy="18.395" r="17.5" stroke="black" stroke-opacity="0.1"/>
<path d="M24.4016 16.2934V21.995C24.4016 22.5254 24.1908 23.0341 23.8158 23.4092C23.4407 23.7843 22.932 23.995 22.4016 23.995H13.6016C13.0711 23.995 12.5624 23.7843 12.1873 23.4092C11.8123 23.0341 11.6016 22.5254 11.6016 21.995V16.2934L17.7984 19.9398C17.8599 19.9761 17.9301 19.9952 18.0016 19.9952C18.073 19.9952 18.1432 19.9761 18.2048 19.9398L24.4016 16.2934ZM22.4016 13.595C22.8937 13.5949 23.3686 13.7763 23.7353 14.1044C24.1021 14.4325 24.335 14.8843 24.3896 15.3734L18.0016 19.131L11.6136 15.3734C11.6681 14.8843 11.901 14.4325 12.2678 14.1044C12.6346 13.7763 13.1094 13.5949 13.6016 13.595H22.4016Z" fill="#7AC5CD"/>
</svg>
