<svg width="36" height="37" viewBox="0 0 36 37" fill="none" xmlns="http://www.w3.org/2000/svg">
<circle cx="18" cy="18.395" r="18" fill="white"/>
<circle cx="18" cy="18.395" r="17.5" stroke="black" stroke-opacity="0.1"/>
<path d="M14.4133 17.5884C15.3733 19.475 16.92 21.015 18.8067 21.9817L20.2733 20.515C20.4533 20.335 20.72 20.275 20.9533 20.355C21.7 20.6017 22.5067 20.735 23.3333 20.735C23.7 20.735 24 21.035 24 21.4017V23.7284C24 24.095 23.7 24.395 23.3333 24.395C17.0733 24.395 12 19.3217 12 13.0617C12 12.695 12.3 12.395 12.6667 12.395H15C15.3667 12.395 15.6667 12.695 15.6667 13.0617C15.6667 13.895 15.8 14.695 16.0467 15.4417C16.12 15.675 16.0667 15.935 15.88 16.1217L14.4133 17.5884Z" fill="#7AC5CD"/>
</svg>
