<svg width="36" height="37" viewBox="0 0 36 37" fill="none" xmlns="http://www.w3.org/2000/svg">
<circle cx="18" cy="18.395" r="18" fill="white"/>
<circle cx="18" cy="18.395" r="17.5" stroke="black" stroke-opacity="0.1"/>
<path d="M18.0026 11.7284C21.6846 11.7284 24.6693 14.7131 24.6693 18.3951C24.6693 22.0771 21.6846 25.0617 18.0026 25.0617C16.8245 25.0636 15.6671 24.7518 14.6493 24.1584L11.3386 25.0617L12.2399 21.7497C11.646 20.7316 11.334 19.5737 11.3359 18.3951C11.3359 14.7131 14.3206 11.7284 18.0026 11.7284ZM15.7306 15.2617L15.5973 15.2671C15.511 15.2723 15.4266 15.295 15.3493 15.3337C15.277 15.3747 15.2109 15.4259 15.1533 15.4857C15.0733 15.5611 15.0279 15.6264 14.9793 15.6897C14.7327 16.0103 14.5999 16.4039 14.6019 16.8084C14.6033 17.1351 14.6886 17.4531 14.8219 17.7504C15.0946 18.3517 15.5433 18.9884 16.1353 19.5784C16.2779 19.7204 16.4179 19.8631 16.5686 19.9957C17.3042 20.6434 18.1808 21.1104 19.1286 21.3597L19.5073 21.4177C19.6306 21.4244 19.7539 21.4151 19.8779 21.4091C20.0721 21.399 20.2617 21.3465 20.4333 21.2551C20.5206 21.2101 20.6058 21.1612 20.6886 21.1084C20.6886 21.1084 20.7173 21.0897 20.7719 21.0484C20.8619 20.9817 20.9173 20.9344 20.9919 20.8564C21.0473 20.7991 21.0953 20.7317 21.1319 20.6551C21.1839 20.5464 21.2359 20.3391 21.2573 20.1664C21.2733 20.0344 21.2686 19.9624 21.2666 19.9177C21.2639 19.8464 21.2046 19.7724 21.1399 19.7411L20.7519 19.5671C20.7519 19.5671 20.1719 19.3144 19.8173 19.1531C19.7802 19.1369 19.7404 19.1276 19.6999 19.1257C19.6543 19.121 19.6082 19.1262 19.5648 19.1408C19.5213 19.1554 19.4815 19.1791 19.4479 19.2104C19.4446 19.2091 19.3999 19.2471 18.9179 19.8311C18.8903 19.8682 18.8522 19.8963 18.8085 19.9118C18.7648 19.9272 18.7175 19.9293 18.6726 19.9177C18.6292 19.9061 18.5866 19.8914 18.5453 19.8737C18.4626 19.8391 18.4339 19.8257 18.3773 19.8017C17.9947 19.6348 17.6404 19.4092 17.3273 19.1331C17.2433 19.0597 17.1653 18.9797 17.0853 18.9024C16.823 18.6512 16.5944 18.3671 16.4053 18.0571L16.3659 17.9937C16.3377 17.9512 16.3149 17.9053 16.2979 17.8571C16.2726 17.7591 16.3386 17.6804 16.3386 17.6804C16.3386 17.6804 16.5006 17.5031 16.5759 17.4071C16.6493 17.3137 16.7113 17.2231 16.7513 17.1584C16.8299 17.0317 16.8546 16.9017 16.8133 16.8011C16.6266 16.3451 16.4333 15.8911 16.2346 15.4404C16.1953 15.3511 16.0786 15.2871 15.9726 15.2744C15.9366 15.2704 15.9006 15.2664 15.8646 15.2637C15.7751 15.2593 15.6854 15.2602 15.5959 15.2664L15.7306 15.2617Z" fill="#7AC5CD"/>
</svg>
