<svg width="27" height="28" viewBox="0 0 27 28" fill="none" xmlns="http://www.w3.org/2000/svg">
<path fill-rule="evenodd" clip-rule="evenodd" d="M9.81514 1.42857C8.1061 1.75048 6.7384 2.96795 6.38186 4.48479C6.3063 4.8061 6.29528 5.74211 6.29528 11.8225V18.7919L6.46131 18.9378C6.72822 19.1724 7.0802 19.1839 7.32787 18.9663C7.50403 18.8115 7.53306 18.6645 7.53306 17.9281V17.3163H12.8218H18.1105V18.0349C18.1105 18.6287 18.1271 18.7759 18.2063 18.8821C18.3967 19.1374 18.831 19.1968 19.0888 19.003C19.3569 18.8014 19.3483 19.0416 19.3483 11.7582C19.3483 6.98247 19.3669 4.83235 19.41 4.64957C19.648 3.63906 20.7188 2.69811 21.8688 2.48892C23.4988 2.19243 25.0889 2.99307 25.6153 4.37547C25.6645 4.50476 25.7291 4.79863 25.7588 5.02858C25.817 5.47834 25.9068 5.64965 26.1314 5.73959C26.3926 5.84415 26.6025 5.80974 26.8087 5.62854C26.9848 5.47384 27 5.43622 27 5.15678C27 4.25869 26.5518 3.30459 25.7964 2.59468C23.5709 0.503296 19.6573 1.1307 18.4021 3.78006C18.1255 4.3641 18.0542 4.85435 18.0542 6.17392V7.32929H12.7936H7.53306V6.10367C7.53306 4.75068 7.56794 4.5365 7.8811 3.96734C8.13743 3.50142 8.78018 2.94877 9.33347 2.71867C10.6158 2.18536 12.0286 2.38886 13.0252 3.25046C13.6143 3.75984 14.0033 4.53116 14.0033 5.19015C14.0033 5.5175 14.2937 5.79694 14.6334 5.79644C14.8534 5.79615 15.1112 5.62172 15.186 5.42272C15.3805 4.90463 14.9883 3.71386 14.3737 2.95703C13.372 1.72354 11.5294 1.10573 9.81514 1.42857ZM18.1105 9.33163V10.2463H12.8218H7.53306V9.33163V8.41699H12.8218H18.1105V9.33163ZM18.1105 12.2981V13.2127H12.8218H7.53306V12.2981V11.3834H12.8218H18.1105V12.2981ZM18.1105 15.215V16.1297H12.8218H7.53306V15.215V14.3004H12.8218H18.1105V15.215ZM2.78644 20.2399C1.7709 20.3545 0.387621 20.7949 0.147885 21.0798C-0.0625377 21.33 0.0484689 21.7313 0.362978 21.8572C0.589267 21.9478 0.743371 21.9266 1.32895 21.7246C2.27282 21.3989 2.57242 21.3456 3.454 21.3463C4.38763 21.3471 4.52103 21.3759 5.98583 21.8929C7.67405 22.4887 8.28974 22.6216 9.3616 22.6217C10.5125 22.6217 11.3563 22.452 12.9906 21.8921C14.5076 21.3723 14.6175 21.3492 15.5786 21.3475C16.5272 21.3458 16.6859 21.3781 17.9417 21.8284C19.7155 22.4644 20.4286 22.6228 21.5144 22.6221C22.5619 22.6215 23.4159 22.4665 24.6534 22.0526C25.3599 21.8162 25.5372 21.6779 25.5372 21.3628C25.5372 21.2109 25.4996 21.1321 25.3756 21.023C25.1075 20.7874 24.987 20.789 24.2541 21.0379C23.0938 21.4319 22.7289 21.4943 21.5988 21.4919C20.3958 21.4894 20.2795 21.4638 18.3918 20.7872C16.3093 20.0408 14.9723 20.0159 13.1031 20.6885C11.9488 21.1039 11.5732 21.2251 11.0405 21.3545C10.535 21.4772 10.3988 21.489 9.47413 21.4909C8.29052 21.4932 8.24962 21.4848 6.57659 20.8995C5.33802 20.4661 4.75407 20.312 4.07289 20.2386C3.50441 20.1774 3.33883 20.1776 2.78644 20.2399ZM2.44127 24.3138C1.52312 24.4641 0.323538 24.8717 0.115534 25.1041C-0.0983209 25.343 -0.0039119 25.725 0.304915 25.8702C0.52901 25.9756 0.814487 25.9472 1.28788 25.7724C2.22511 25.4263 3.22383 25.278 3.96706 25.3745C4.60081 25.4568 4.89146 25.5374 6.14286 25.9783C7.60738 26.4943 8.13349 26.6124 9.1217 26.6471C10.3616 26.6907 11.2391 26.5277 12.9547 25.935C14.495 25.4029 15.2733 25.2647 16.1167 25.3738C16.745 25.4551 16.868 25.4893 18.2066 25.9542C19.7956 26.506 20.2797 26.6137 21.3175 26.6469C22.0073 26.6689 22.2323 26.6562 22.7747 26.5649C23.4714 26.4476 24.5454 26.155 25.0518 25.9445C25.5031 25.7568 25.64 25.4954 25.4531 25.1778C25.2562 24.8433 24.9724 24.8055 24.3505 25.0309C23.2538 25.4283 22.2967 25.596 21.3456 25.5575C20.4873 25.5227 20.0904 25.4285 18.5946 24.9047C16.9848 24.341 16.6209 24.265 15.5505 24.2686C14.563 24.272 14.0275 24.3742 12.9711 24.7612C11.4109 25.3328 10.3662 25.5728 9.43879 25.5728C8.6254 25.5728 7.94158 25.423 6.58706 24.9479C5.92754 24.7166 5.14267 24.4715 4.84291 24.4034C4.14519 24.2447 3.10118 24.2058 2.44127 24.3138Z" fill="#45474D"/>
</svg>
