<svg width="27" height="28" viewBox="0 0 27 28" fill="none" xmlns="http://www.w3.org/2000/svg">
<path fill-rule="evenodd" clip-rule="evenodd" d="M1.18303 3.94607C0.928988 4.02285 0.512901 4.43324 0.373002 4.74508C0.0895946 5.37654 -0.0346081 7.31245 0.00826941 10.4308C0.0408104 12.7949 0.165232 15.3257 0.270949 15.7718C0.448639 16.5221 0.957591 17.1501 1.55892 17.3613C1.91369 17.4859 2.02756 17.487 13.5 17.487C24.9725 17.487 25.0864 17.4859 25.4412 17.3613C26.0425 17.1501 26.5514 16.5221 26.7291 15.7718C26.9219 14.958 27.0783 9.00658 26.9577 7.07359C26.8796 5.82199 26.7728 5.06973 26.6271 4.74508C26.4766 4.40961 26.0709 4.02428 25.7808 3.94129C25.4613 3.84984 1.48596 3.8545 1.18303 3.94607ZM25.7048 4.87191C25.9067 4.99469 26.0159 5.41453 26.1007 6.39358C26.2651 8.29094 26.2568 10.8446 26.0757 14.0988C26.0017 15.4283 25.9499 15.7348 25.7444 16.0573C25.5052 16.4326 25.2347 16.5514 24.6159 16.5531L24.11 16.5545L24.1088 15.2023C24.1077 13.9758 24.0972 13.8241 23.9961 13.5703C23.8461 13.1943 23.6976 13.0224 23.3717 12.8477L23.0983 12.7012H13.5H3.90181L3.62836 12.8477C3.30251 13.0224 3.15397 13.1943 3.00401 13.5703C2.90283 13.8241 2.89233 13.9758 2.89124 15.2023L2.89003 16.5545L2.38414 16.5531C1.64555 16.5511 1.2906 16.3223 1.08415 15.715C0.933473 15.2717 0.726796 10.238 0.784222 8.41024C0.829123 6.98121 0.956279 5.54639 1.0655 5.2361C1.11362 5.09939 1.20474 4.94633 1.26802 4.89597C1.36848 4.81596 2.91475 4.80439 13.4884 4.80439C22.09 4.80439 25.626 4.82391 25.7048 4.87191ZM22.5999 6.79258C22.4369 6.86744 22.2506 7.15609 22.2506 7.33377C22.2506 7.72407 22.5713 8.02777 22.8975 7.94627C23.3477 7.83393 23.4496 7.12731 23.0552 6.85388C22.8651 6.72215 22.7786 6.71052 22.5999 6.79258ZM7.87641 7.06203C7.72721 7.24257 7.72431 7.47589 7.86902 7.65246L7.98054 7.78854H13.5H19.0195L19.131 7.65246C19.2789 7.47216 19.2725 7.2205 19.116 7.05332L18.9894 6.91817H13.4924H7.99536L7.87641 7.06203ZM23.1631 13.7677C23.2877 13.9008 23.2897 13.9232 23.2897 15.2287V16.5545H13.5H3.71039V15.2374C3.71039 13.9707 3.71493 13.9148 3.82929 13.7764L3.94824 13.6325H13.4924H23.0365L23.1631 13.7677ZM6.52883 19.5542C6.40829 19.6738 6.37925 19.7753 6.32882 20.2536C6.21961 21.2889 5.89945 22.2075 5.37288 22.996C5.04649 23.4848 5.01061 23.6729 5.20422 23.8797C5.48812 24.1829 5.74401 24.0174 6.20216 23.2347C6.72178 22.347 7.05933 21.2563 7.1354 20.2191C7.16931 19.7572 7.16472 19.7295 7.02914 19.5754C6.855 19.3774 6.71303 19.3714 6.52883 19.5542ZM9.97002 19.5669C9.85337 19.6995 9.83576 19.7759 9.83576 20.1494C9.83576 21.1385 9.52506 22.3785 9.0942 23.1088C8.9606 23.3352 8.85132 23.5867 8.85132 23.6675C8.85132 23.9023 9.02601 24.0977 9.23585 24.0977C9.48514 24.0977 9.7162 23.7858 10.0569 22.9891C10.3723 22.2516 10.5272 21.6116 10.5991 20.7492C10.6639 19.9712 10.6303 19.6978 10.4499 19.5365C10.268 19.3738 10.1322 19.3825 9.97002 19.5669ZM13.2613 19.5432L13.1172 19.672V21.7717C13.1172 23.7968 13.1211 23.8753 13.2273 23.9845C13.2878 24.0468 13.4106 24.0977 13.5 24.0977C13.5895 24.0977 13.7122 24.0468 13.7728 23.9845C13.879 23.8753 13.8829 23.7968 13.8829 21.7717V19.672L13.7388 19.5432C13.6595 19.4723 13.5521 19.4143 13.5 19.4143C13.448 19.4143 13.3406 19.4723 13.2613 19.5432ZM16.549 19.5375C16.4732 19.6054 16.3961 19.7522 16.3776 19.8639C16.329 20.1592 16.4358 21.3032 16.5656 21.8747C16.7127 22.5235 17.1632 23.57 17.4351 23.895C17.6202 24.116 17.6744 24.148 17.8046 24.1129C17.995 24.0616 18.1487 23.8616 18.1487 23.6654C18.1487 23.5833 18.0501 23.3518 17.9295 23.151C17.4863 22.4129 17.2302 21.458 17.178 20.35C17.1513 19.7809 17.1319 19.6826 17.0217 19.5574C16.8673 19.3819 16.7296 19.3761 16.549 19.5375ZM19.9709 19.5754C19.8354 19.7295 19.8308 19.7572 19.8647 20.2191C19.9407 21.2563 20.2783 22.347 20.7979 23.2347C21.1441 23.8261 21.323 24.0149 21.5374 24.0149C21.7156 24.0149 21.9224 23.7827 21.9224 23.5826C21.9224 23.5032 21.7896 23.2392 21.6272 22.996C21.1006 22.2075 20.7805 21.2889 20.6712 20.2536C20.6208 19.7753 20.5918 19.6738 20.4712 19.5542C20.287 19.3714 20.1451 19.3774 19.9709 19.5754Z" fill="#45474D"/>
</svg>
