<svg width="21" height="26" viewBox="0 0 21 26" fill="none" xmlns="http://www.w3.org/2000/svg">
<path fill-rule="evenodd" clip-rule="evenodd" d="M2.87069 2.05828C2.39173 2.21085 2.00483 2.54997 1.7999 2.99668C1.69097 3.23408 1.67964 3.34145 1.66423 4.27928L1.64742 5.30276H1.05389C0.624575 5.30276 0.418403 5.32453 0.308645 5.38138C-0.00568275 5.5442 6.94506e-06 5.48414 6.94506e-06 8.64767C6.94506e-06 11.2103 0.00931734 11.5471 0.0835932 11.6731C0.229869 11.9212 0.3418 11.9577 1.01995 11.9787L1.65197 11.9984L1.66651 15.7891L1.68104 19.5797L1.82044 19.8444C2.01244 20.2091 2.16952 20.3827 2.47097 20.5635L2.72871 20.7181L2.75245 21.2118C2.78199 21.8267 2.94994 22.2451 3.29535 22.564C3.72699 22.9626 3.87233 23 4.99138 23H5.97414L6.30176 22.822C6.91123 22.491 7.18966 21.9941 7.18966 21.2375V20.7976H10.5H13.8103V21.2288C13.8103 21.4777 13.8434 21.7572 13.8885 21.8896C14.0158 22.2637 14.313 22.6068 14.6897 22.8145L15.0259 23H16.0086C17.1277 23 17.273 22.9626 17.7046 22.564C18.0501 22.2451 18.218 21.8267 18.2475 21.2118L18.2713 20.7181L18.529 20.5635C18.8305 20.3827 18.9876 20.2091 19.1796 19.8444L19.319 19.5797L19.3335 15.7891L19.348 11.9984L19.98 11.9787C20.6582 11.9577 20.7701 11.9212 20.9164 11.6731C20.9907 11.5471 21 11.2103 21 8.64767C21 5.48414 21.0057 5.5442 20.6914 5.38138C20.5816 5.32453 20.3754 5.30276 19.9461 5.30276H19.3526L19.3358 4.27928C19.3204 3.34171 19.309 3.23402 19.2001 2.99668C19.0449 2.65787 18.6706 2.28102 18.341 2.13151L18.0776 2.01206L10.5776 2.00221C4.62993 1.99439 3.03476 2.006 2.87069 2.05828ZM18.031 3.30243L18.2069 3.47862V4.39069V5.30276H10.5H2.79311V4.39069V3.47862L2.96897 3.30243L3.14483 3.12623H10.5H17.8552L18.031 3.30243ZM6.35592 3.72234C6.18073 3.81775 6.03461 4.12376 6.07645 4.30762C6.11473 4.47578 6.18957 4.57808 6.36068 4.69624C6.47845 4.77754 6.80467 4.78454 10.4906 4.78454C14.1355 4.78454 14.5057 4.77682 14.6388 4.69805C15.0089 4.479 15.0089 3.95 14.6388 3.73095C14.5056 3.65212 14.1379 3.64466 10.492 3.64653C7.13286 3.64829 6.46966 3.66042 6.35592 3.72234ZM1.65518 8.64529V10.8477H1.39656H1.13794V8.64529V6.44285H1.39656H1.65518V8.64529ZM18.2069 10.3036V14.1643H10.5H2.79311V10.3036V6.44285H10.5H18.2069V10.3036ZM19.8621 8.64529V10.8477H19.6034H19.3448V8.64529V6.44285H19.6034H19.8621V8.64529ZM18.2069 17.2763C18.2069 19.3764 18.1963 19.4727 17.9511 19.6041C17.8842 19.64 15.4433 19.6575 10.5 19.6575C5.55673 19.6575 3.11576 19.64 3.04888 19.6041C2.80366 19.4727 2.79311 19.3764 2.79311 17.2763V15.3044H10.5H18.2069V17.2763ZM5.01114 15.8911C4.57557 16.0542 4.24837 16.3449 4.02202 16.7698C3.92463 16.9526 3.90544 17.0696 3.90533 17.4809C3.90518 17.9289 3.91888 17.998 4.05714 18.2481C4.2298 18.5604 4.49669 18.8211 4.82095 18.9944C5.00768 19.0941 5.12147 19.113 5.53449 19.113C5.9475 19.113 6.0613 19.0941 6.24802 18.9944C6.57228 18.8211 6.83917 18.5604 7.01183 18.2481C7.15009 17.998 7.16379 17.9289 7.16364 17.4809C7.16348 16.9323 7.08631 16.7207 6.75052 16.3483C6.45269 16.018 6.09461 15.8573 5.61269 15.8378C5.35154 15.8273 5.12907 15.8469 5.01114 15.8911ZM14.9422 15.8911C14.5066 16.0542 14.1794 16.3449 13.953 16.7698C13.8557 16.9526 13.8365 17.0696 13.8364 17.4809C13.8362 17.9289 13.8499 17.998 13.9882 18.2481C14.1608 18.5604 14.4277 18.8211 14.752 18.9944C14.9387 19.0941 15.0525 19.113 15.4655 19.113C15.8785 19.113 15.9923 19.0941 16.179 18.9944C16.5033 18.8211 16.7702 18.5604 16.9429 18.2481C17.0811 17.998 17.0948 17.9289 17.0947 17.4809C17.0945 16.9323 17.0173 16.7207 16.6815 16.3483C16.3837 16.018 16.0256 15.8573 15.5437 15.8378C15.2826 15.8273 15.0601 15.8469 14.9422 15.8911ZM8.57395 16.992C8.41862 17.0765 8.27586 17.3106 8.27586 17.4809C8.27586 17.6565 8.42105 17.8877 8.5845 17.9724C8.71143 18.0381 9.02462 18.051 10.5 18.051C11.9754 18.051 12.2886 18.0381 12.4155 17.9724C12.5789 17.8877 12.7241 17.6565 12.7241 17.4809C12.7241 17.3054 12.5789 17.0742 12.4155 16.9895C12.1928 16.8742 8.78664 16.8764 8.57395 16.992ZM5.90054 17.1142C6.23369 17.448 6.00574 17.9992 5.53449 17.9992C5.36597 17.9992 5.28704 17.9665 5.16843 17.8477C4.83528 17.5139 5.06323 16.9627 5.53449 16.9627C5.703 16.9627 5.78193 16.9954 5.90054 17.1142ZM15.8316 17.1142C16.1647 17.448 15.9368 17.9992 15.4655 17.9992C15.297 17.9992 15.2181 17.9665 15.0995 17.8477C14.9809 17.7289 14.9483 17.6498 14.9483 17.4809C14.9483 17.3121 14.9809 17.233 15.0995 17.1142C15.2181 16.9954 15.297 16.9627 15.4655 16.9627C15.634 16.9627 15.713 16.9954 15.8316 17.1142ZM6.05173 21.1637C6.05173 21.8093 5.93762 21.8862 4.98104 21.885C4.55659 21.8846 4.27257 21.8611 4.18966 21.8195C4.00025 21.7248 3.87947 21.4429 3.87942 21.0955L3.87931 20.7976H4.96552H6.05173V21.1637ZM17.1206 21.0955C17.1205 21.4429 16.9998 21.7248 16.8103 21.8195C16.7274 21.8611 16.4434 21.8846 16.019 21.885C15.0624 21.8862 14.9483 21.8093 14.9483 21.1637V20.7976H16.0345H17.1207L17.1206 21.0955Z" fill="#45474D"/>
</svg>
