<svg width="29" height="30" viewBox="0 0 29 30" fill="none" xmlns="http://www.w3.org/2000/svg">
<path fill-rule="evenodd" clip-rule="evenodd" d="M14.1658 3.38308L14.0175 3.54735V6.69957V9.85178L14.1658 10.016C14.362 10.2335 14.6397 10.2335 14.8359 10.016L14.9843 9.85178V6.69957V3.54735L14.8359 3.38308C14.7424 3.27946 14.6186 3.21875 14.5009 3.21875C14.3832 3.21875 14.2593 3.27946 14.1658 3.38308ZM8.10633 7.32303C7.86717 7.60511 7.92385 7.77741 8.82738 9.51334C9.29622 10.4141 9.74325 11.2238 9.82077 11.3128C10.1043 11.6383 10.6337 11.4088 10.6337 10.9604C10.6337 10.8244 10.3581 10.2282 9.78041 9.11445C9.31115 8.20964 8.87131 7.40162 8.80309 7.31875C8.63209 7.11117 8.28422 7.11331 8.10633 7.32303ZM20.1986 7.31875C20.1304 7.40162 19.6906 8.20964 19.2213 9.11445C18.6437 10.2282 18.3681 10.8244 18.3681 10.9604C18.3681 11.409 18.8967 11.6378 19.182 11.3128C19.2601 11.2238 19.7071 10.4136 20.1754 9.51233C20.7684 8.37089 21.0268 7.81088 21.0268 7.6665C21.0268 7.22229 20.4706 6.98874 20.1986 7.31875ZM13.2622 10.8146C10.4891 11.3827 8.28773 13.3429 7.30933 16.1152C6.96303 17.0963 6.82671 17.8179 6.78538 18.8889C6.74061 20.0484 6.79076 20.522 6.98056 20.7322C7.17591 20.9486 7.4845 20.9453 7.67146 20.7248C7.80638 20.5657 7.81049 20.5302 7.77309 19.8379C7.683 18.171 8.06688 16.5178 8.85131 15.1944C9.22861 14.5579 10.2346 13.4434 10.8092 13.0255C12.9921 11.4376 15.856 11.4162 18.1199 12.9709C18.6975 13.3675 19.7562 14.5264 20.1511 15.1944C20.9323 16.5155 21.3183 18.1791 21.2286 19.8379C21.1912 20.5302 21.1953 20.5657 21.3303 20.7248C21.6172 21.0632 22.0731 20.882 22.1763 20.3885C22.2635 19.9718 22.245 18.5617 22.1437 17.9038C21.583 14.2619 19.0495 11.4458 15.7743 10.824C15.0962 10.6953 13.867 10.6907 13.2622 10.8146ZM2.02039 11.148C1.82951 11.3594 1.82419 11.6735 2.008 11.8755C2.08275 11.9577 3.19282 12.6943 4.47473 13.5125C6.09684 14.5477 6.86067 15 6.98696 15C7.39211 15 7.59882 14.4144 7.30528 14.0983C7.22498 14.0118 6.1169 13.2756 4.84296 12.4623C3.25046 11.4457 2.47068 10.9836 2.34765 10.9836C2.23822 10.9836 2.11109 11.0474 2.02039 11.148ZM24.1197 12.4847C22.8465 13.3041 21.7474 14.0379 21.6775 14.1154C21.4013 14.4214 21.6255 15.001 22.0192 14.999C22.1504 14.9984 22.8986 14.5553 24.5616 13.4935C25.8577 12.666 26.9658 11.9251 27.0239 11.8471C27.2753 11.5097 27.0336 10.9781 26.6339 10.9892C26.4894 10.9932 25.8 11.4032 24.1197 12.4847ZM2.08082 18.9129C1.98728 19.0164 1.93247 19.1537 1.93247 19.2841C1.93247 19.4145 1.98728 19.5517 2.08082 19.6552L2.2291 19.8196H4.10777H5.98644L6.13473 19.6552C6.33099 19.4379 6.33099 19.1302 6.13473 18.9129L5.98644 18.7485H4.10777H2.2291L2.08082 18.9129ZM22.867 18.9129C22.7735 19.0164 22.7187 19.1537 22.7187 19.2841C22.7187 19.4145 22.7735 19.5517 22.867 19.6552L23.0153 19.8196H24.894H26.7726L26.9209 19.6552C27.0145 19.5517 27.0693 19.4145 27.0693 19.2841C27.0693 19.1537 27.0145 19.0164 26.9209 18.9129L26.7726 18.7485H24.894H23.0153L22.867 18.9129ZM0.155376 21.0458C-0.0452956 21.2681 -0.0523049 21.5763 0.138517 21.7877C0.255862 21.9176 0.36789 21.9502 0.840111 21.9911C1.53735 22.0515 1.90214 22.1541 2.74881 22.5278C3.6993 22.9473 4.28893 23.0553 5.40691 23.0143C6.4145 22.9773 6.67275 22.9158 7.6978 22.4687C8.59529 22.0772 8.95543 21.9992 9.84814 22.003C10.707 22.0067 11.1565 22.1057 11.9364 22.4634C12.8724 22.8927 13.2335 22.9781 14.2666 23.0147C15.4073 23.0552 15.8987 22.9638 16.9031 22.5246C17.8984 22.0894 18.2688 22.005 19.1838 22.005C20.0731 22.005 20.491 22.0951 21.2804 22.4572C22.1892 22.8739 22.6072 22.9765 23.5531 23.0148C24.81 23.0656 25.1147 22.9989 26.8239 22.2988C27.1842 22.1512 27.5461 22.0645 28.0571 22.0031C28.6839 21.9279 28.7953 21.896 28.8917 21.7642C29.0514 21.5456 29.0329 21.2525 28.8464 21.0458C28.6919 20.8747 28.6809 20.8729 28.0155 20.9099C27.2826 20.9505 26.7735 21.0854 25.9671 21.4527C25.239 21.7843 24.6159 21.9208 23.8365 21.9196C23.0234 21.9182 22.6715 21.8381 21.6567 21.4232C20.4974 20.9493 20.0543 20.8662 18.9162 20.9092C17.9021 20.9476 17.5072 21.0385 16.6994 21.4195C15.8636 21.8138 15.397 21.9198 14.5009 21.9191C13.5835 21.9184 13.1543 21.8238 12.3598 21.4471C11.4292 21.0059 11.031 20.9241 9.81793 20.9243C8.59324 20.9246 8.30864 20.9831 7.32371 21.4372C6.48688 21.823 6.07255 21.9152 5.16521 21.917C4.27376 21.9189 3.84692 21.8268 3.04677 21.4598C2.2326 21.0864 1.72419 20.9508 0.986219 20.9099C0.320819 20.8729 0.309822 20.8747 0.155376 21.0458ZM8.85113 24.6793C8.78466 24.6969 8.53994 24.7601 8.30731 24.8199C8.07467 24.8796 7.63103 25.045 7.32141 25.1875C6.64532 25.4985 6.19116 25.6201 5.47042 25.6833C5.02049 25.7228 4.90629 25.7566 4.79064 25.8848C4.60042 26.0955 4.60767 26.4039 4.8081 26.626C4.96254 26.7971 4.97354 26.7989 5.63894 26.7619C6.37745 26.721 6.90509 26.58 7.72137 26.2057C8.51076 25.8437 8.92866 25.7536 9.81793 25.7536C10.7093 25.7536 11.1401 25.8468 11.9364 26.212C12.8724 26.6412 13.2335 26.7266 14.2666 26.7633C15.4073 26.8038 15.8987 26.7124 16.9031 26.2732C17.8803 25.8459 18.2711 25.7554 19.1536 25.7516C20.0463 25.7478 20.4064 25.8258 21.3039 26.2172C22.2443 26.6274 22.5923 26.7195 23.3628 26.7621C24.0281 26.7989 24.0392 26.797 24.1936 26.626C24.3938 26.4043 24.4013 26.0955 24.2117 25.8854C24.0966 25.758 23.9827 25.7244 23.5363 25.6863C22.8278 25.626 22.3783 25.5052 21.647 25.1786C20.6038 24.7127 20.406 24.6726 19.1536 24.6734C17.9143 24.6742 17.6102 24.7372 16.646 25.1929C15.8579 25.5653 15.3645 25.6735 14.4707 25.6699C13.5863 25.6663 13.2491 25.5895 12.3327 25.1826C11.375 24.7574 11.0777 24.6928 9.96899 24.6688C9.42064 24.6569 8.9176 24.6616 8.85113 24.6793Z" fill="#45474D"/>
</svg>
