<svg width="21" height="26" viewBox="0 0 21 26" fill="none" xmlns="http://www.w3.org/2000/svg">
<path fill-rule="evenodd" clip-rule="evenodd" d="M19.1757 2.00713C19.0615 2.03009 18.893 2.09317 18.7512 2.166C18.5381 2.27547 18.0498 2.76261 14.3841 6.52293L11.2063 9.78277L11.1343 9.72757C10.7777 9.45404 10.6366 9.39938 10.2833 9.39803C9.97076 9.39684 9.91734 9.41618 9.42513 9.70864C8.76896 10.0985 8.32513 10.3139 7.76737 10.5133C6.33607 11.0247 4.86479 11.1716 3.2607 10.9631C2.59928 10.8772 2.08631 10.7598 1.31306 10.5176C0.63887 10.3064 0.531917 10.2791 0.375639 10.2787C0.0520424 10.2777 -0.000332301 10.4787 1.57934e-06 11.7202C0.000224166 12.5366 0.0197451 12.7848 0.13411 13.4254C0.465987 15.2848 1.3649 17.2048 2.6468 18.7925C4.65309 21.2773 7.29444 22.9046 9.47087 22.9965C9.98013 23.018 10.4803 22.9384 10.5966 22.8172C10.6884 22.7216 11.0043 21.8603 11.8042 19.5249C12.0004 18.9521 12.4281 17.7059 12.7546 16.7555C13.9497 13.2765 13.9033 13.4253 13.9024 13.0802C13.9014 12.7308 13.8077 12.5021 13.5504 12.2217L13.4044 12.0626L16.5851 8.78441C20.4419 4.80924 20.7514 4.47611 20.8998 4.14063C21.0689 3.75808 21.0197 3.16484 20.7844 2.74824C20.5998 2.42149 20.2359 2.13164 19.9079 2.05016C19.7651 2.01469 19.2799 1.98617 19.1757 2.00713ZM19.7207 2.81875C19.8908 2.88419 20.069 3.05722 20.1582 3.24348C20.2186 3.36959 20.2291 3.41649 20.2283 3.5564C20.2267 3.85158 20.1775 3.94068 19.7896 4.35037C19.4969 4.65956 14.4368 9.8467 13.2604 11.0435L12.8319 11.4795L12.2865 10.919L11.7411 10.3586L13.9281 8.10781C17.2931 4.64471 18.9305 2.99345 19.1426 2.84922C19.2172 2.79843 19.4264 2.74853 19.5149 2.76041C19.5606 2.76657 19.6533 2.79282 19.7207 2.81875ZM10.482 10.2338C10.5961 10.3082 12.466 12.2047 12.8895 12.6756C13.1656 12.9826 13.1937 13.0422 13.1448 13.2158C13.0778 13.453 12.4917 15.1596 12.3983 15.3892L12.3629 15.4763L12.2776 15.4068C12.0145 15.1926 8.69803 11.8015 8.31787 11.358C8.21893 11.2426 8.20026 11.209 8.22576 11.1926C8.24337 11.1812 8.36294 11.1285 8.49149 11.0754C8.78127 10.9558 9.47746 10.5991 9.76023 10.4254C10.0469 10.2493 10.2254 10.1639 10.3068 10.1639C10.3444 10.1638 10.4227 10.1951 10.482 10.2338ZM1.01346 11.2838C1.26416 11.3638 2.07827 11.5567 2.51503 11.6397C4.03922 11.9293 5.57487 11.9014 7.03279 11.5578L7.32139 11.4898L9.68751 13.9228L12.0536 16.3557L11.6292 17.5913C10.657 20.4211 10.0677 22.0955 10.0257 22.1475C10.0136 22.1625 9.96141 22.1813 9.90977 22.1893C9.79841 22.2064 9.04019 22.1668 8.86786 22.1348C8.68972 22.1019 8.29116 21.9889 8.29116 21.9713C8.29116 21.963 8.37134 21.8456 8.46934 21.7105C8.9999 20.979 9.69517 19.5846 9.80702 19.0278C9.86625 18.733 9.71443 18.5178 9.44712 18.5178C9.23155 18.5178 9.14736 18.6189 8.99171 19.0647C8.78933 19.6443 8.40257 20.4096 7.99699 21.0328C7.80968 21.3207 7.5308 21.6763 7.49241 21.6763C7.43685 21.6763 6.90638 21.4042 6.55156 21.1937C6.29367 21.0408 5.86686 20.7657 5.82212 20.7236C5.81691 20.7187 6.03284 20.4856 6.30195 20.2056C6.86881 19.6158 7.22225 19.1904 7.50854 18.7533C7.64332 18.5475 7.75671 18.3105 7.75684 18.2344C7.75713 18.0616 7.54269 17.877 7.34158 17.877C7.19149 17.877 7.11508 17.9423 6.92828 18.2302C6.55002 18.8132 5.95186 19.5167 5.44568 19.9739C5.22253 20.1754 5.14895 20.1999 5.02414 20.114C4.89353 20.0241 4.46699 19.6223 4.00636 19.1554L3.58345 18.7266L3.92846 18.5572C4.583 18.2359 5.19827 17.8543 5.36895 17.6639C5.54511 17.4674 5.55078 17.278 5.3856 17.1082C5.29605 17.0161 5.27774 17.0072 5.17759 17.0072C5.05148 17.0072 4.86092 17.0996 4.45154 17.3591C4.17148 17.5366 3.40099 17.9359 3.21095 18.002L3.08332 18.0464L3.01407 17.9789C2.77889 17.7494 1.92518 16.4102 1.92518 16.2707C1.92518 16.1912 1.92297 16.1917 2.40113 16.1608C3.21932 16.1077 4.0296 15.9492 4.3146 15.7864C4.42701 15.7222 4.46267 15.6452 4.46267 15.4668C4.46267 15.305 4.40931 15.1919 4.30619 15.1352C4.22659 15.0914 3.95869 15.1143 3.56678 15.1984C3.38622 15.2372 3.1358 15.2836 3.01031 15.3016C2.73811 15.3406 1.8923 15.3886 1.6607 15.3782L1.49636 15.3708L1.4098 15.1419C1.22944 14.665 0.990313 13.8652 0.990313 13.7388C0.990313 13.6902 0.997992 13.6849 1.05152 13.6965C1.38783 13.7698 1.67842 13.7897 2.41487 13.79C3.66296 13.7904 4.38721 13.6921 4.57073 13.4974C4.74248 13.3152 4.68312 13.0027 4.45519 12.8893L4.36034 12.8421L4.08578 12.8881C3.64152 12.9626 3.31864 12.9815 2.48164 12.9819C1.41817 12.9824 0.921734 12.93 0.844719 12.8091C0.794036 12.7296 0.768126 12.467 0.752879 11.8783C0.739569 11.3652 0.746958 11.2167 0.785733 11.2167C0.795171 11.2167 0.89765 11.2469 1.01346 11.2838Z" fill="#45474D"/>
</svg>
