<svg width="21" height="26" viewBox="0 0 21 26" fill="none" xmlns="http://www.w3.org/2000/svg">
<g clip-path="url(#clip0_2052_1756)">
<mask id="path-1-outside-1_2052_1756" maskUnits="userSpaceOnUse" x="0" y="0" width="21" height="25" fill="black">
<rect fill="white" width="21" height="25"/>
<path fill-rule="evenodd" clip-rule="evenodd" d="M4.89125 1.07183C4.38524 1.14438 3.65973 1.31233 3.03624 1.50135C2.39248 1.69652 1.12482 2.2024 1.05709 2.2912C1.02571 2.33235 1 2.40961 1 2.46279C1 2.65882 1.12021 2.69902 2.00143 2.7977C3.61812 2.97873 5.01887 3.26189 5.77982 3.56159C6.30589 3.76876 6.30566 3.75753 5.78681 3.89417C4.80502 4.15277 3.70389 4.63115 2.91827 5.14035C2.4234 5.46116 1.78581 6.06366 1.52561 6.45643C0.901529 7.39847 0.846539 8.52445 1.36429 9.75818C1.53269 10.1595 1.61252 10.2546 1.78092 10.2546C1.97873 10.2546 2.05039 10.112 2.05117 9.71677C2.05459 7.98964 3.48361 6.88621 6.26263 6.46478L6.66109 6.40437L6.2984 6.78119C5.40727 7.70706 4.76269 8.98787 4.43731 10.4792C4.32308 11.0026 4.31472 11.1168 4.3139 12.1636C4.31308 13.2159 4.3208 13.3221 4.43626 13.8507C4.65289 14.8424 5.04979 15.8765 5.2317 15.9233C5.36826 15.9584 5.51848 15.8834 5.56799 15.7554C5.59275 15.6914 5.61339 15.4331 5.61389 15.1815C5.61609 14.0345 5.92584 12.7086 6.43875 11.65C6.83405 10.8343 7.15043 10.39 7.96003 9.51342C8.44366 8.98985 8.95479 8.3242 9.30227 7.76554L9.47236 7.49208L9.50163 7.76159C9.54909 8.19811 9.54434 10.3142 9.49442 10.9957C9.33684 13.1451 8.95319 15.283 8.34578 17.3967C8.10162 18.2464 7.6273 19.6588 7.4616 20.0298C7.36249 20.2516 7.35098 20.2609 7.13677 20.2906C6.77527 20.3409 5.72552 20.6216 5.25285 20.7945C4.33898 21.1287 3.36034 21.6681 2.57572 22.2702C2.1543 22.5935 1.20708 23.539 1.16077 23.6824C1.1414 23.7424 1.15753 23.8217 1.20288 23.8898L1.27632 24L9.18667 23.9886L17.0971 23.9773L17.1502 23.8724C17.1795 23.8148 17.1922 23.7256 17.1786 23.6743C17.145 23.5478 16.2686 22.6618 15.8444 22.3253C14.6241 21.3572 13.0096 20.6349 11.3512 20.3147L11.0835 20.263L11.1142 20.0763C11.4737 17.8949 11.6649 16.3646 11.8337 14.3197C11.9266 13.1946 11.9124 9.61359 11.8115 8.72734C11.7679 8.34441 11.7201 7.97046 11.7052 7.89635C11.6855 7.79869 11.7692 7.89154 12.0088 8.23324C12.4027 8.79508 12.5772 9.00885 13.1268 9.60326C13.8348 10.3688 14.1806 10.8627 14.56 11.65C15.0747 12.7184 15.3839 14.04 15.3861 15.1815C15.3866 15.4331 15.4073 15.6914 15.432 15.7554C15.4815 15.8834 15.6317 15.9584 15.7683 15.9233C15.9502 15.8765 16.3471 14.8424 16.5637 13.8507C16.6792 13.3221 16.6869 13.2159 16.6861 12.1636C16.6853 11.1168 16.6769 11.0026 16.5627 10.4792C16.2373 8.98787 15.5927 7.70706 14.7016 6.78119L14.3389 6.40437L14.7374 6.46478C16.4185 6.71974 17.5635 7.19979 18.2513 7.93803C18.7132 8.43375 18.947 9.03755 18.9487 9.73923C18.9497 10.1108 19.0251 10.2546 19.2191 10.2546C19.3874 10.2546 19.4674 10.1594 19.6351 9.75931C20.1509 8.52912 20.0957 7.39429 19.4744 6.45643C19.2142 6.06366 18.5766 5.46116 18.0817 5.14035C17.2961 4.63115 16.195 4.15277 15.2132 3.89417C14.6943 3.75753 14.6941 3.76876 15.2202 3.56159C15.9811 3.26189 17.3819 2.97873 18.9986 2.7977C19.8798 2.69902 20 2.65882 20 2.46279C20 2.40961 19.9743 2.3336 19.9429 2.29394C19.8159 2.13349 18.2538 1.55848 17.2825 1.31458C14.5334 0.624353 12.4649 1.07444 11.2802 2.62068C11.0119 2.97087 10.6296 3.67304 10.566 3.93226C10.5494 4.00022 10.5224 4.05579 10.5061 4.05579C10.4897 4.05579 10.4298 3.92809 10.3728 3.77204C10.3159 3.61594 10.18 3.33394 10.0707 3.14538C9.39841 1.98517 8.36606 1.2852 7.00601 1.06748C6.5016 0.986713 5.47039 0.988869 4.89125 1.07183ZM6.70443 1.56482C7.59492 1.63642 8.4966 2.06207 9.07404 2.68343C9.4624 3.1014 9.83801 3.76853 10.0203 4.36434L10.0529 4.47079L9.85395 4.34933C9.52196 4.14657 9.02805 3.93096 8.67563 3.83492C8.27467 3.72564 7.4473 3.63171 7.23332 3.67119C7.10325 3.69523 7.0462 3.67461 6.86369 3.53756C6.16563 3.01349 4.73218 2.6081 2.57572 2.32484L2.34736 2.29484L2.64423 2.1847C3.49338 1.86964 4.70002 1.59761 5.4988 1.5411C5.94881 1.50925 6.03413 1.51096 6.70443 1.56482ZM15.9579 1.58979C16.5272 1.66081 17.2679 1.83397 17.9801 2.06256C18.3386 2.17765 18.6258 2.27795 18.6182 2.28541C18.6106 2.29291 18.3076 2.34164 17.9448 2.39379C16.0874 2.66066 14.7841 3.05123 14.1416 3.53361C13.967 3.66468 13.9045 3.68746 13.7756 3.66688C13.5521 3.63122 12.7156 3.72829 12.3213 3.83569C11.974 3.93024 11.3707 4.19639 11.0996 4.37462L10.9454 4.47591L10.9788 4.3669C11.0782 4.04258 11.3066 3.54542 11.4878 3.25889C12.3636 1.8739 13.834 1.32491 15.9579 1.58979ZM8.01895 4.23834C8.21543 4.26462 8.54533 4.34291 8.75205 4.41235C9.14986 4.5459 9.78681 4.88984 9.74872 4.95044C9.7363 4.97025 9.60855 5.00003 9.46482 5.0166C9.07518 5.06166 8.27727 5.33791 7.83913 5.57948C7.45922 5.78889 7.44009 5.7941 6.77244 5.86786C5.06029 6.05706 3.74157 6.47808 2.86698 7.11471C2.28844 7.53583 1.94552 7.98789 1.66075 8.70488C1.55228 8.97795 1.5156 7.99247 1.61828 7.56408C1.8365 6.65362 2.692 5.78507 4.0105 5.13541C5.50875 4.39713 6.89192 4.08759 8.01895 4.23834ZM14.3137 4.25873C15.1868 4.3881 16.0428 4.66898 16.9975 5.13932C18.3076 5.78489 19.164 6.65582 19.3817 7.56408C19.456 7.87402 19.4685 8.32676 19.4106 8.61505C19.3809 8.7635 19.3684 8.77909 19.3391 8.70488C18.9577 7.74021 18.4134 7.1798 17.3522 6.65897C16.5832 6.28161 15.5065 6.00917 14.224 5.86745C13.5837 5.79671 13.5216 5.78125 13.242 5.62301C12.713 5.32353 11.7597 4.99908 11.4088 4.99908C11.1758 4.99908 11.2247 4.91495 11.5746 4.71345C12.3671 4.25725 13.2803 4.10565 14.3137 4.25873ZM9.76096 5.97607C8.81594 7.61515 8.20511 8.49089 7.47124 9.25891C6.38093 10.3999 5.71958 11.6048 5.33593 13.1492C5.26262 13.4442 5.18941 13.8131 5.17315 13.969C5.15693 14.1248 5.12592 14.2524 5.10427 14.2524C5.08262 14.2524 5.0649 14.2445 5.0649 14.2348C5.0649 14.2252 5.02439 14.0236 4.97484 13.7869C4.30819 10.6003 5.70867 7.23114 8.21635 5.989C8.79708 5.70134 9.455 5.5055 9.87003 5.49674L10.0394 5.49319L9.76096 5.97607ZM11.8777 5.63262C13.0664 5.95527 14.1474 6.76731 14.951 7.94126C16.0232 9.50754 16.4429 11.7902 16.0255 13.7851C15.9758 14.0228 15.9351 14.2252 15.9351 14.2348C15.9351 14.2445 15.9169 14.2524 15.8947 14.2524C15.8726 14.2524 15.8397 14.1173 15.8217 13.9523C15.7414 13.2146 15.3815 12.0757 14.9785 11.2841C14.5774 10.496 14.1748 9.93503 13.5144 9.24391C13.0135 8.71971 12.8079 8.45612 12.2692 7.6479C11.8375 7.00026 11.0024 5.59875 11.0024 5.52198C11.0024 5.46453 11.4814 5.52508 11.8777 5.63262ZM10.7053 6.10817C10.8771 6.4156 10.9833 6.80486 11.1145 7.60747C11.4858 9.8796 11.477 13.0559 11.0903 16.4309C10.9474 17.6782 10.5836 20.1143 10.5329 20.1643C10.5248 20.1722 10.211 20.1583 9.83546 20.1333C9.41549 20.1055 8.93287 20.103 8.58173 20.1271C8.26773 20.1485 8.00675 20.1639 8.00177 20.1612C7.99675 20.1585 8.07197 19.9447 8.16894 19.6861C9.05093 17.3327 9.70428 14.47 9.98312 11.7369C10.0826 10.762 10.0973 8.00006 10.0072 7.2121L9.94955 6.70752L10.2117 6.25757C10.3559 6.01012 10.4881 5.80762 10.5055 5.80762C10.523 5.80762 10.6129 5.94287 10.7053 6.10817ZM10.6827 20.7439C12.77 21.0301 14.5644 21.8499 16.0264 23.1853L16.3233 23.4565L9.1869 23.4586C5.26189 23.4598 2.05048 23.4515 2.05048 23.4402C2.05048 23.4289 2.24957 23.2453 2.49287 23.0323C4.08184 21.641 6.01267 20.8706 8.44471 20.6579C8.84883 20.6226 10.1668 20.6732 10.6827 20.7439Z"/>
</mask>
<path fill-rule="evenodd" clip-rule="evenodd" d="M4.89125 1.07183C4.38524 1.14438 3.65973 1.31233 3.03624 1.50135C2.39248 1.69652 1.12482 2.2024 1.05709 2.2912C1.02571 2.33235 1 2.40961 1 2.46279C1 2.65882 1.12021 2.69902 2.00143 2.7977C3.61812 2.97873 5.01887 3.26189 5.77982 3.56159C6.30589 3.76876 6.30566 3.75753 5.78681 3.89417C4.80502 4.15277 3.70389 4.63115 2.91827 5.14035C2.4234 5.46116 1.78581 6.06366 1.52561 6.45643C0.901529 7.39847 0.846539 8.52445 1.36429 9.75818C1.53269 10.1595 1.61252 10.2546 1.78092 10.2546C1.97873 10.2546 2.05039 10.112 2.05117 9.71677C2.05459 7.98964 3.48361 6.88621 6.26263 6.46478L6.66109 6.40437L6.2984 6.78119C5.40727 7.70706 4.76269 8.98787 4.43731 10.4792C4.32308 11.0026 4.31472 11.1168 4.3139 12.1636C4.31308 13.2159 4.3208 13.3221 4.43626 13.8507C4.65289 14.8424 5.04979 15.8765 5.2317 15.9233C5.36826 15.9584 5.51848 15.8834 5.56799 15.7554C5.59275 15.6914 5.61339 15.4331 5.61389 15.1815C5.61609 14.0345 5.92584 12.7086 6.43875 11.65C6.83405 10.8343 7.15043 10.39 7.96003 9.51342C8.44366 8.98985 8.95479 8.3242 9.30227 7.76554L9.47236 7.49208L9.50163 7.76159C9.54909 8.19811 9.54434 10.3142 9.49442 10.9957C9.33684 13.1451 8.95319 15.283 8.34578 17.3967C8.10162 18.2464 7.6273 19.6588 7.4616 20.0298C7.36249 20.2516 7.35098 20.2609 7.13677 20.2906C6.77527 20.3409 5.72552 20.6216 5.25285 20.7945C4.33898 21.1287 3.36034 21.6681 2.57572 22.2702C2.1543 22.5935 1.20708 23.539 1.16077 23.6824C1.1414 23.7424 1.15753 23.8217 1.20288 23.8898L1.27632 24L9.18667 23.9886L17.0971 23.9773L17.1502 23.8724C17.1795 23.8148 17.1922 23.7256 17.1786 23.6743C17.145 23.5478 16.2686 22.6618 15.8444 22.3253C14.6241 21.3572 13.0096 20.6349 11.3512 20.3147L11.0835 20.263L11.1142 20.0763C11.4737 17.8949 11.6649 16.3646 11.8337 14.3197C11.9266 13.1946 11.9124 9.61359 11.8115 8.72734C11.7679 8.34441 11.7201 7.97046 11.7052 7.89635C11.6855 7.79869 11.7692 7.89154 12.0088 8.23324C12.4027 8.79508 12.5772 9.00885 13.1268 9.60326C13.8348 10.3688 14.1806 10.8627 14.56 11.65C15.0747 12.7184 15.3839 14.04 15.3861 15.1815C15.3866 15.4331 15.4073 15.6914 15.432 15.7554C15.4815 15.8834 15.6317 15.9584 15.7683 15.9233C15.9502 15.8765 16.3471 14.8424 16.5637 13.8507C16.6792 13.3221 16.6869 13.2159 16.6861 12.1636C16.6853 11.1168 16.6769 11.0026 16.5627 10.4792C16.2373 8.98787 15.5927 7.70706 14.7016 6.78119L14.3389 6.40437L14.7374 6.46478C16.4185 6.71974 17.5635 7.19979 18.2513 7.93803C18.7132 8.43375 18.947 9.03755 18.9487 9.73923C18.9497 10.1108 19.0251 10.2546 19.2191 10.2546C19.3874 10.2546 19.4674 10.1594 19.6351 9.75931C20.1509 8.52912 20.0957 7.39429 19.4744 6.45643C19.2142 6.06366 18.5766 5.46116 18.0817 5.14035C17.2961 4.63115 16.195 4.15277 15.2132 3.89417C14.6943 3.75753 14.6941 3.76876 15.2202 3.56159C15.9811 3.26189 17.3819 2.97873 18.9986 2.7977C19.8798 2.69902 20 2.65882 20 2.46279C20 2.40961 19.9743 2.3336 19.9429 2.29394C19.8159 2.13349 18.2538 1.55848 17.2825 1.31458C14.5334 0.624353 12.4649 1.07444 11.2802 2.62068C11.0119 2.97087 10.6296 3.67304 10.566 3.93226C10.5494 4.00022 10.5224 4.05579 10.5061 4.05579C10.4897 4.05579 10.4298 3.92809 10.3728 3.77204C10.3159 3.61594 10.18 3.33394 10.0707 3.14538C9.39841 1.98517 8.36606 1.2852 7.00601 1.06748C6.5016 0.986713 5.47039 0.988869 4.89125 1.07183ZM6.70443 1.56482C7.59492 1.63642 8.4966 2.06207 9.07404 2.68343C9.4624 3.1014 9.83801 3.76853 10.0203 4.36434L10.0529 4.47079L9.85395 4.34933C9.52196 4.14657 9.02805 3.93096 8.67563 3.83492C8.27467 3.72564 7.4473 3.63171 7.23332 3.67119C7.10325 3.69523 7.0462 3.67461 6.86369 3.53756C6.16563 3.01349 4.73218 2.6081 2.57572 2.32484L2.34736 2.29484L2.64423 2.1847C3.49338 1.86964 4.70002 1.59761 5.4988 1.5411C5.94881 1.50925 6.03413 1.51096 6.70443 1.56482ZM15.9579 1.58979C16.5272 1.66081 17.2679 1.83397 17.9801 2.06256C18.3386 2.17765 18.6258 2.27795 18.6182 2.28541C18.6106 2.29291 18.3076 2.34164 17.9448 2.39379C16.0874 2.66066 14.7841 3.05123 14.1416 3.53361C13.967 3.66468 13.9045 3.68746 13.7756 3.66688C13.5521 3.63122 12.7156 3.72829 12.3213 3.83569C11.974 3.93024 11.3707 4.19639 11.0996 4.37462L10.9454 4.47591L10.9788 4.3669C11.0782 4.04258 11.3066 3.54542 11.4878 3.25889C12.3636 1.8739 13.834 1.32491 15.9579 1.58979ZM8.01895 4.23834C8.21543 4.26462 8.54533 4.34291 8.75205 4.41235C9.14986 4.5459 9.78681 4.88984 9.74872 4.95044C9.7363 4.97025 9.60855 5.00003 9.46482 5.0166C9.07518 5.06166 8.27727 5.33791 7.83913 5.57948C7.45922 5.78889 7.44009 5.7941 6.77244 5.86786C5.06029 6.05706 3.74157 6.47808 2.86698 7.11471C2.28844 7.53583 1.94552 7.98789 1.66075 8.70488C1.55228 8.97795 1.5156 7.99247 1.61828 7.56408C1.8365 6.65362 2.692 5.78507 4.0105 5.13541C5.50875 4.39713 6.89192 4.08759 8.01895 4.23834ZM14.3137 4.25873C15.1868 4.3881 16.0428 4.66898 16.9975 5.13932C18.3076 5.78489 19.164 6.65582 19.3817 7.56408C19.456 7.87402 19.4685 8.32676 19.4106 8.61505C19.3809 8.7635 19.3684 8.77909 19.3391 8.70488C18.9577 7.74021 18.4134 7.1798 17.3522 6.65897C16.5832 6.28161 15.5065 6.00917 14.224 5.86745C13.5837 5.79671 13.5216 5.78125 13.242 5.62301C12.713 5.32353 11.7597 4.99908 11.4088 4.99908C11.1758 4.99908 11.2247 4.91495 11.5746 4.71345C12.3671 4.25725 13.2803 4.10565 14.3137 4.25873ZM9.76096 5.97607C8.81594 7.61515 8.20511 8.49089 7.47124 9.25891C6.38093 10.3999 5.71958 11.6048 5.33593 13.1492C5.26262 13.4442 5.18941 13.8131 5.17315 13.969C5.15693 14.1248 5.12592 14.2524 5.10427 14.2524C5.08262 14.2524 5.0649 14.2445 5.0649 14.2348C5.0649 14.2252 5.02439 14.0236 4.97484 13.7869C4.30819 10.6003 5.70867 7.23114 8.21635 5.989C8.79708 5.70134 9.455 5.5055 9.87003 5.49674L10.0394 5.49319L9.76096 5.97607ZM11.8777 5.63262C13.0664 5.95527 14.1474 6.76731 14.951 7.94126C16.0232 9.50754 16.4429 11.7902 16.0255 13.7851C15.9758 14.0228 15.9351 14.2252 15.9351 14.2348C15.9351 14.2445 15.9169 14.2524 15.8947 14.2524C15.8726 14.2524 15.8397 14.1173 15.8217 13.9523C15.7414 13.2146 15.3815 12.0757 14.9785 11.2841C14.5774 10.496 14.1748 9.93503 13.5144 9.24391C13.0135 8.71971 12.8079 8.45612 12.2692 7.6479C11.8375 7.00026 11.0024 5.59875 11.0024 5.52198C11.0024 5.46453 11.4814 5.52508 11.8777 5.63262ZM10.7053 6.10817C10.8771 6.4156 10.9833 6.80486 11.1145 7.60747C11.4858 9.8796 11.477 13.0559 11.0903 16.4309C10.9474 17.6782 10.5836 20.1143 10.5329 20.1643C10.5248 20.1722 10.211 20.1583 9.83546 20.1333C9.41549 20.1055 8.93287 20.103 8.58173 20.1271C8.26773 20.1485 8.00675 20.1639 8.00177 20.1612C7.99675 20.1585 8.07197 19.9447 8.16894 19.6861C9.05093 17.3327 9.70428 14.47 9.98312 11.7369C10.0826 10.762 10.0973 8.00006 10.0072 7.2121L9.94955 6.70752L10.2117 6.25757C10.3559 6.01012 10.4881 5.80762 10.5055 5.80762C10.523 5.80762 10.6129 5.94287 10.7053 6.10817ZM10.6827 20.7439C12.77 21.0301 14.5644 21.8499 16.0264 23.1853L16.3233 23.4565L9.1869 23.4586C5.26189 23.4598 2.05048 23.4515 2.05048 23.4402C2.05048 23.4289 2.24957 23.2453 2.49287 23.0323C4.08184 21.641 6.01267 20.8706 8.44471 20.6579C8.84883 20.6226 10.1668 20.6732 10.6827 20.7439Z" fill="#45474D"/>
<path fill-rule="evenodd" clip-rule="evenodd" d="M4.89125 1.07183C4.38524 1.14438 3.65973 1.31233 3.03624 1.50135C2.39248 1.69652 1.12482 2.2024 1.05709 2.2912C1.02571 2.33235 1 2.40961 1 2.46279C1 2.65882 1.12021 2.69902 2.00143 2.7977C3.61812 2.97873 5.01887 3.26189 5.77982 3.56159C6.30589 3.76876 6.30566 3.75753 5.78681 3.89417C4.80502 4.15277 3.70389 4.63115 2.91827 5.14035C2.4234 5.46116 1.78581 6.06366 1.52561 6.45643C0.901529 7.39847 0.846539 8.52445 1.36429 9.75818C1.53269 10.1595 1.61252 10.2546 1.78092 10.2546C1.97873 10.2546 2.05039 10.112 2.05117 9.71677C2.05459 7.98964 3.48361 6.88621 6.26263 6.46478L6.66109 6.40437L6.2984 6.78119C5.40727 7.70706 4.76269 8.98787 4.43731 10.4792C4.32308 11.0026 4.31472 11.1168 4.3139 12.1636C4.31308 13.2159 4.3208 13.3221 4.43626 13.8507C4.65289 14.8424 5.04979 15.8765 5.2317 15.9233C5.36826 15.9584 5.51848 15.8834 5.56799 15.7554C5.59275 15.6914 5.61339 15.4331 5.61389 15.1815C5.61609 14.0345 5.92584 12.7086 6.43875 11.65C6.83405 10.8343 7.15043 10.39 7.96003 9.51342C8.44366 8.98985 8.95479 8.3242 9.30227 7.76554L9.47236 7.49208L9.50163 7.76159C9.54909 8.19811 9.54434 10.3142 9.49442 10.9957C9.33684 13.1451 8.95319 15.283 8.34578 17.3967C8.10162 18.2464 7.6273 19.6588 7.4616 20.0298C7.36249 20.2516 7.35098 20.2609 7.13677 20.2906C6.77527 20.3409 5.72552 20.6216 5.25285 20.7945C4.33898 21.1287 3.36034 21.6681 2.57572 22.2702C2.1543 22.5935 1.20708 23.539 1.16077 23.6824C1.1414 23.7424 1.15753 23.8217 1.20288 23.8898L1.27632 24L9.18667 23.9886L17.0971 23.9773L17.1502 23.8724C17.1795 23.8148 17.1922 23.7256 17.1786 23.6743C17.145 23.5478 16.2686 22.6618 15.8444 22.3253C14.6241 21.3572 13.0096 20.6349 11.3512 20.3147L11.0835 20.263L11.1142 20.0763C11.4737 17.8949 11.6649 16.3646 11.8337 14.3197C11.9266 13.1946 11.9124 9.61359 11.8115 8.72734C11.7679 8.34441 11.7201 7.97046 11.7052 7.89635C11.6855 7.79869 11.7692 7.89154 12.0088 8.23324C12.4027 8.79508 12.5772 9.00885 13.1268 9.60326C13.8348 10.3688 14.1806 10.8627 14.56 11.65C15.0747 12.7184 15.3839 14.04 15.3861 15.1815C15.3866 15.4331 15.4073 15.6914 15.432 15.7554C15.4815 15.8834 15.6317 15.9584 15.7683 15.9233C15.9502 15.8765 16.3471 14.8424 16.5637 13.8507C16.6792 13.3221 16.6869 13.2159 16.6861 12.1636C16.6853 11.1168 16.6769 11.0026 16.5627 10.4792C16.2373 8.98787 15.5927 7.70706 14.7016 6.78119L14.3389 6.40437L14.7374 6.46478C16.4185 6.71974 17.5635 7.19979 18.2513 7.93803C18.7132 8.43375 18.947 9.03755 18.9487 9.73923C18.9497 10.1108 19.0251 10.2546 19.2191 10.2546C19.3874 10.2546 19.4674 10.1594 19.6351 9.75931C20.1509 8.52912 20.0957 7.39429 19.4744 6.45643C19.2142 6.06366 18.5766 5.46116 18.0817 5.14035C17.2961 4.63115 16.195 4.15277 15.2132 3.89417C14.6943 3.75753 14.6941 3.76876 15.2202 3.56159C15.9811 3.26189 17.3819 2.97873 18.9986 2.7977C19.8798 2.69902 20 2.65882 20 2.46279C20 2.40961 19.9743 2.3336 19.9429 2.29394C19.8159 2.13349 18.2538 1.55848 17.2825 1.31458C14.5334 0.624353 12.4649 1.07444 11.2802 2.62068C11.0119 2.97087 10.6296 3.67304 10.566 3.93226C10.5494 4.00022 10.5224 4.05579 10.5061 4.05579C10.4897 4.05579 10.4298 3.92809 10.3728 3.77204C10.3159 3.61594 10.18 3.33394 10.0707 3.14538C9.39841 1.98517 8.36606 1.2852 7.00601 1.06748C6.5016 0.986713 5.47039 0.988869 4.89125 1.07183ZM6.70443 1.56482C7.59492 1.63642 8.4966 2.06207 9.07404 2.68343C9.4624 3.1014 9.83801 3.76853 10.0203 4.36434L10.0529 4.47079L9.85395 4.34933C9.52196 4.14657 9.02805 3.93096 8.67563 3.83492C8.27467 3.72564 7.4473 3.63171 7.23332 3.67119C7.10325 3.69523 7.0462 3.67461 6.86369 3.53756C6.16563 3.01349 4.73218 2.6081 2.57572 2.32484L2.34736 2.29484L2.64423 2.1847C3.49338 1.86964 4.70002 1.59761 5.4988 1.5411C5.94881 1.50925 6.03413 1.51096 6.70443 1.56482ZM15.9579 1.58979C16.5272 1.66081 17.2679 1.83397 17.9801 2.06256C18.3386 2.17765 18.6258 2.27795 18.6182 2.28541C18.6106 2.29291 18.3076 2.34164 17.9448 2.39379C16.0874 2.66066 14.7841 3.05123 14.1416 3.53361C13.967 3.66468 13.9045 3.68746 13.7756 3.66688C13.5521 3.63122 12.7156 3.72829 12.3213 3.83569C11.974 3.93024 11.3707 4.19639 11.0996 4.37462L10.9454 4.47591L10.9788 4.3669C11.0782 4.04258 11.3066 3.54542 11.4878 3.25889C12.3636 1.8739 13.834 1.32491 15.9579 1.58979ZM8.01895 4.23834C8.21543 4.26462 8.54533 4.34291 8.75205 4.41235C9.14986 4.5459 9.78681 4.88984 9.74872 4.95044C9.7363 4.97025 9.60855 5.00003 9.46482 5.0166C9.07518 5.06166 8.27727 5.33791 7.83913 5.57948C7.45922 5.78889 7.44009 5.7941 6.77244 5.86786C5.06029 6.05706 3.74157 6.47808 2.86698 7.11471C2.28844 7.53583 1.94552 7.98789 1.66075 8.70488C1.55228 8.97795 1.5156 7.99247 1.61828 7.56408C1.8365 6.65362 2.692 5.78507 4.0105 5.13541C5.50875 4.39713 6.89192 4.08759 8.01895 4.23834ZM14.3137 4.25873C15.1868 4.3881 16.0428 4.66898 16.9975 5.13932C18.3076 5.78489 19.164 6.65582 19.3817 7.56408C19.456 7.87402 19.4685 8.32676 19.4106 8.61505C19.3809 8.7635 19.3684 8.77909 19.3391 8.70488C18.9577 7.74021 18.4134 7.1798 17.3522 6.65897C16.5832 6.28161 15.5065 6.00917 14.224 5.86745C13.5837 5.79671 13.5216 5.78125 13.242 5.62301C12.713 5.32353 11.7597 4.99908 11.4088 4.99908C11.1758 4.99908 11.2247 4.91495 11.5746 4.71345C12.3671 4.25725 13.2803 4.10565 14.3137 4.25873ZM9.76096 5.97607C8.81594 7.61515 8.20511 8.49089 7.47124 9.25891C6.38093 10.3999 5.71958 11.6048 5.33593 13.1492C5.26262 13.4442 5.18941 13.8131 5.17315 13.969C5.15693 14.1248 5.12592 14.2524 5.10427 14.2524C5.08262 14.2524 5.0649 14.2445 5.0649 14.2348C5.0649 14.2252 5.02439 14.0236 4.97484 13.7869C4.30819 10.6003 5.70867 7.23114 8.21635 5.989C8.79708 5.70134 9.455 5.5055 9.87003 5.49674L10.0394 5.49319L9.76096 5.97607ZM11.8777 5.63262C13.0664 5.95527 14.1474 6.76731 14.951 7.94126C16.0232 9.50754 16.4429 11.7902 16.0255 13.7851C15.9758 14.0228 15.9351 14.2252 15.9351 14.2348C15.9351 14.2445 15.9169 14.2524 15.8947 14.2524C15.8726 14.2524 15.8397 14.1173 15.8217 13.9523C15.7414 13.2146 15.3815 12.0757 14.9785 11.2841C14.5774 10.496 14.1748 9.93503 13.5144 9.24391C13.0135 8.71971 12.8079 8.45612 12.2692 7.6479C11.8375 7.00026 11.0024 5.59875 11.0024 5.52198C11.0024 5.46453 11.4814 5.52508 11.8777 5.63262ZM10.7053 6.10817C10.8771 6.4156 10.9833 6.80486 11.1145 7.60747C11.4858 9.8796 11.477 13.0559 11.0903 16.4309C10.9474 17.6782 10.5836 20.1143 10.5329 20.1643C10.5248 20.1722 10.211 20.1583 9.83546 20.1333C9.41549 20.1055 8.93287 20.103 8.58173 20.1271C8.26773 20.1485 8.00675 20.1639 8.00177 20.1612C7.99675 20.1585 8.07197 19.9447 8.16894 19.6861C9.05093 17.3327 9.70428 14.47 9.98312 11.7369C10.0826 10.762 10.0973 8.00006 10.0072 7.2121L9.94955 6.70752L10.2117 6.25757C10.3559 6.01012 10.4881 5.80762 10.5055 5.80762C10.523 5.80762 10.6129 5.94287 10.7053 6.10817ZM10.6827 20.7439C12.77 21.0301 14.5644 21.8499 16.0264 23.1853L16.3233 23.4565L9.1869 23.4586C5.26189 23.4598 2.05048 23.4515 2.05048 23.4402C2.05048 23.4289 2.24957 23.2453 2.49287 23.0323C4.08184 21.641 6.01267 20.8706 8.44471 20.6579C8.84883 20.6226 10.1668 20.6732 10.6827 20.7439Z" stroke="#45474D" stroke-width="0.2" mask="url(#path-1-outside-1_2052_1756)"/>
</g>
<defs>
<clipPath id="clip0_2052_1756">
<rect width="21" height="25.8462" fill="white" transform="translate(0 0.0769043)"/>
</clipPath>
</defs>
</svg>
