<svg width="21" height="26" viewBox="0 0 21 26" fill="none" xmlns="http://www.w3.org/2000/svg">
<mask id="path-1-outside-1_2052_1765" maskUnits="userSpaceOnUse" x="0" y="3" width="21" height="20" fill="black">
<rect fill="white" y="3" width="21" height="20"/>
<path fill-rule="evenodd" clip-rule="evenodd" d="M4.33587 4.07998C3.79003 4.28228 3.40523 4.73009 3.28231 5.30608L3.24047 5.50226L2.85129 5.54761C2.63727 5.57257 2.40342 5.61891 2.33166 5.65061C1.98959 5.80167 1.7435 6.19105 1.74286 6.58228C1.74242 6.84312 1.80627 7.4244 1.85086 7.56566C1.88138 7.66226 1.87414 7.66959 1.70262 7.71605C1.29005 7.82783 1 8.22545 1 8.67934C1 9.02313 1.06612 9.5565 1.13224 9.74594C1.21454 9.98194 1.50051 10.25 1.75252 10.3274C1.9443 10.3863 2.0047 10.3844 2.80515 10.2941C3.27218 10.2414 3.66269 10.2128 3.67294 10.2304C3.70527 10.2863 4.27618 16.119 4.25178 16.1448C4.23898 16.1583 3.85711 16.2107 3.40315 16.2611C2.67681 16.3419 2.5533 16.3658 2.37361 16.4608C2.1453 16.5814 1.95904 16.8301 1.88735 17.11C1.8431 17.2829 1.89359 18.0402 1.96851 18.327C2.06344 18.6902 2.46962 19.0192 2.82334 19.0192H3.00473V19.1973C3.00473 19.5503 3.08655 20.1412 3.16069 20.3235C3.24426 20.5289 3.4656 20.7628 3.65605 20.8469C3.81416 20.9167 4.01597 20.9271 4.44123 20.8872L4.78256 20.8553L4.8401 21.0008C5.16921 21.8333 6.17265 22.2386 6.95123 21.8536C7.40523 21.629 7.77937 21.1481 7.85061 20.6975C7.88202 20.499 7.91268 20.4723 8.10993 20.4715C8.25564 20.4709 8.26362 20.4782 8.46261 20.7946C8.88409 21.4645 9.34027 21.8416 9.87279 21.9603C10.0221 21.9936 11.0751 22.0026 13.7894 21.9937L17.5019 21.9815L17.7149 21.8906C18.0652 21.7411 18.364 21.5035 18.6077 21.1807C19.5043 19.9934 19.9554 18.6853 19.9959 17.1554C20.0127 16.5213 19.9944 16.2885 19.6244 12.4275C19.2729 8.75879 19.2259 8.33814 19.1381 8.07271C18.999 7.65209 18.8405 7.3898 18.5219 7.05311C18.2081 6.72149 17.951 6.54634 17.5515 6.3921L17.2792 6.28698L13.7806 6.27619C9.86373 6.26415 10.0374 6.25328 9.47812 6.54508C9.3121 6.63171 9.07762 6.79694 8.95704 6.91225C8.74234 7.11762 8.73566 7.12075 8.6335 7.06418C8.57614 7.03239 8.43889 6.99657 8.32855 6.98453L8.12793 6.96263V6.79003C8.12793 6.09488 7.98556 5.55538 7.74551 5.34092C7.49722 5.11912 7.34078 5.0769 6.87579 5.10628C6.64443 5.12088 6.43479 5.14081 6.40984 5.15058C6.38322 5.16098 6.32063 5.0716 6.25811 4.9338C6.1098 4.60696 5.83478 4.32462 5.50211 4.15767C5.2713 4.0418 5.18012 4.01842 4.90607 4.00473C4.6364 3.99123 4.54147 4.00378 4.33587 4.07998ZM5.21446 4.77132C5.3646 4.8434 5.57461 5.03848 5.63906 5.16573C5.67091 5.22866 5.60943 5.24102 4.86824 5.32079C4.42523 5.36846 4.03286 5.41409 3.99629 5.42218C3.94332 5.43391 3.93474 5.41959 3.95412 5.35186C3.98968 5.22756 4.10136 5.04245 4.1997 4.94491C4.43882 4.70761 4.9129 4.62654 5.21446 4.77132ZM7.32378 5.87226C7.40044 5.95171 7.47198 6.44436 7.4526 6.75951C7.43307 7.07732 7.53212 7.05374 5.08371 7.32337C3.88923 7.45489 2.85111 7.56244 2.77682 7.56232C2.5517 7.56205 2.48461 7.47008 2.44281 7.10447C2.38839 6.62897 2.40933 6.4278 2.52211 6.34191C2.59825 6.28388 3.01483 6.22578 4.8424 6.0181C6.06751 5.87885 7.11164 5.77318 7.16269 5.78323C7.21374 5.79327 7.2862 5.83333 7.32378 5.87226ZM17.0378 6.97538C17.7314 7.09152 18.3752 7.6989 18.5551 8.40672C18.5954 8.56551 19.0532 13.2767 19.0341 13.3372C19.0284 13.3554 18.9239 13.2243 18.8018 13.046C18.6798 12.8677 18.4576 12.5863 18.3079 12.4207L18.0359 12.1197L17.8334 10.6943C17.7219 9.91034 17.6121 9.20714 17.5891 9.13161C17.4066 8.53004 16.9159 8.06898 16.3367 7.95472C16.0534 7.89885 11.2912 7.90199 11.0026 7.95821C10.4421 8.06753 9.96738 8.493 9.77924 9.05483C9.74701 9.151 9.62907 9.87306 9.51706 10.6594L9.31347 12.0891L9.13791 12.2877C8.86092 12.601 8.6345 12.8959 8.44732 13.1869C8.27446 13.4556 8.27431 13.4557 8.29484 13.3046C8.31482 13.1575 8.64768 9.69493 8.64768 9.63439C8.64768 9.61767 8.71287 9.5689 8.79257 9.5259C9.0709 9.37586 9.27976 8.99637 9.27798 8.64399C9.27753 8.5561 9.2537 8.29882 9.225 8.07223L9.1728 7.66025L9.32788 7.49103C9.51639 7.28535 9.99853 7.02592 10.2812 6.97809C10.5779 6.92791 16.7394 6.9254 17.0378 6.97538ZM8.43276 7.73335C8.52932 7.81092 8.56274 7.94087 8.59192 8.3523C8.62013 8.74992 8.59611 8.85959 8.4645 8.93402C8.42597 8.95584 7.5117 9.07154 6.43278 9.19118C5.3539 9.31077 3.92616 9.46991 3.26011 9.54477C2.59402 9.61967 2.02278 9.68092 1.99067 9.68092C1.95852 9.68092 1.88598 9.63886 1.8294 9.58742C1.73637 9.50283 1.72248 9.45524 1.68346 9.08716C1.63472 8.62708 1.66965 8.45549 1.82265 8.40323C1.93536 8.3647 7.89672 7.69043 8.16506 7.68584C8.28025 7.68387 8.3969 7.70459 8.43276 7.73335ZM16.3883 8.68652C16.6278 8.77276 16.8621 9.02258 16.9378 9.27247C16.9965 9.46591 17.2741 11.3468 17.2532 11.4091C17.247 11.4274 17.1501 11.3802 17.0378 11.3042C15.0599 9.96578 12.4544 9.93651 10.4245 11.2299C10.237 11.3493 10.0807 11.4425 10.0771 11.437C10.0606 11.4116 10.3574 9.40902 10.3971 9.27832C10.4793 9.00735 10.7398 8.74937 11.0234 8.65819C11.0746 8.64175 12.262 8.62676 13.6622 8.62492C15.9397 8.6219 16.2269 8.62837 16.3883 8.68652ZM7.95961 9.94577C7.94669 10.0698 7.82299 11.3455 7.68474 12.7806C7.54645 14.2157 7.42412 15.3633 7.41287 15.3309C7.38332 15.246 6.85552 9.87475 6.87471 9.85447C6.89105 9.83724 7.68878 9.7346 7.8792 9.72526L7.98311 9.72016L7.95961 9.94577ZM6.21278 10.0635C6.26286 10.4008 6.79493 15.8504 6.77938 15.8668C6.7515 15.8963 4.97204 16.0892 4.94936 16.0652C4.9266 16.0412 4.33019 10.1503 4.34857 10.1309C4.35952 10.1193 5.95113 9.92952 6.11065 9.92073C6.17584 9.91716 6.19504 9.94396 6.21278 10.0635ZM14.8023 11.0876C15.9525 11.3502 16.8419 11.8621 17.6714 12.7388C18.6887 13.8139 19.2223 15.0309 19.3392 16.5422C19.4407 17.8551 19.1015 19.2002 18.3786 20.3519C18.0816 20.8251 17.8116 21.1043 17.539 21.2199L17.3163 21.3145L13.8266 21.326C11.3793 21.3341 10.2648 21.3245 10.0956 21.2938C9.67945 21.2182 9.37629 20.9824 9.04925 20.4801L8.93944 20.3114L9.12027 20.1023C9.318 19.8736 9.39017 19.6822 9.39017 19.3863C9.39017 19.1392 9.32398 18.5606 9.27969 18.4208C9.24936 18.325 9.25466 18.3128 9.32713 18.312C9.56737 18.3095 9.91842 18.0324 10.0448 17.7456C10.1437 17.5212 10.1549 17.288 10.0939 16.7238C10.0482 16.3007 9.95951 16.09 9.74193 15.8876C9.47611 15.6403 9.22586 15.5998 8.51295 15.6887C8.31957 15.7128 8.15165 15.7222 8.13981 15.7097C8.10477 15.6727 8.23359 15.1841 8.38981 14.7616C8.99706 13.1188 10.2822 11.8357 11.8847 11.272C12.2144 11.1561 12.5674 11.0708 13.0098 11.0002C13.0711 10.9905 13.4219 10.9884 13.7894 10.9957C14.28 11.0054 14.5493 11.0299 14.8023 11.0876ZM13.5296 11.6459C13.4887 11.6711 13.4345 11.7194 13.4089 11.7532C13.3598 11.8183 13.347 12.0252 13.3856 12.1314C13.4242 12.2378 13.607 12.3098 13.8384 12.3098C13.9593 12.3098 14.201 12.3361 14.3756 12.3683C15.3205 12.5424 16.1433 12.9987 16.8195 13.7236C17.4795 14.4311 17.8726 15.2543 18.0372 16.2738C18.0802 16.54 18.1321 16.7382 18.1705 16.7831C18.3201 16.9579 18.618 16.8957 18.7059 16.6714C18.7902 16.4564 18.5976 15.5291 18.3348 14.884C17.6645 13.2393 16.2499 12.0372 14.5939 11.7052C14.1644 11.6191 13.622 11.5889 13.5296 11.6459ZM9.30289 16.405C9.39615 16.4898 9.40947 16.5367 9.45076 16.9249C9.50132 17.4006 9.47853 17.513 9.31559 17.5918C9.26473 17.6164 7.78642 17.7957 6.03043 17.9903C2.50403 18.3811 2.68156 18.375 2.60107 18.1076C2.57984 18.0371 2.55125 17.8095 2.53755 17.6019C2.51443 17.2515 2.51825 17.2184 2.59068 17.1418C2.6336 17.0965 2.70673 17.0504 2.75321 17.0395C2.79965 17.0285 3.73145 16.9204 4.82384 16.7992C5.91623 16.678 7.31119 16.521 7.92375 16.4502C9.30445 16.2907 9.18157 16.2947 9.30289 16.405ZM8.53953 18.4809C8.65016 18.5707 8.68298 18.6966 8.70682 19.1227C8.73013 19.5394 8.72865 19.5508 8.63999 19.6375C8.55483 19.7208 8.41078 19.7416 6.25562 19.9825C4.12055 20.2212 3.95568 20.2346 3.87148 20.1763C3.74986 20.0921 3.72131 19.9978 3.6902 19.5775C3.65931 19.1603 3.68021 19.0389 3.79408 18.9743C3.87248 18.9297 7.95634 18.4438 8.31356 18.4365C8.40544 18.4347 8.50712 18.4546 8.53953 18.4809ZM7.19982 20.6098C7.19982 20.6865 7.03305 20.95 6.91036 21.0672C6.62401 21.3406 6.20796 21.3912 5.86559 21.1943C5.6835 21.0895 5.49208 20.8869 5.49208 20.7989C5.49208 20.7783 5.81366 20.7251 6.20673 20.6806C6.98394 20.5926 7.19982 20.5772 7.19982 20.6098Z"/>
</mask>
<path fill-rule="evenodd" clip-rule="evenodd" d="M4.33587 4.07998C3.79003 4.28228 3.40523 4.73009 3.28231 5.30608L3.24047 5.50226L2.85129 5.54761C2.63727 5.57257 2.40342 5.61891 2.33166 5.65061C1.98959 5.80167 1.7435 6.19105 1.74286 6.58228C1.74242 6.84312 1.80627 7.4244 1.85086 7.56566C1.88138 7.66226 1.87414 7.66959 1.70262 7.71605C1.29005 7.82783 1 8.22545 1 8.67934C1 9.02313 1.06612 9.5565 1.13224 9.74594C1.21454 9.98194 1.50051 10.25 1.75252 10.3274C1.9443 10.3863 2.0047 10.3844 2.80515 10.2941C3.27218 10.2414 3.66269 10.2128 3.67294 10.2304C3.70527 10.2863 4.27618 16.119 4.25178 16.1448C4.23898 16.1583 3.85711 16.2107 3.40315 16.2611C2.67681 16.3419 2.5533 16.3658 2.37361 16.4608C2.1453 16.5814 1.95904 16.8301 1.88735 17.11C1.8431 17.2829 1.89359 18.0402 1.96851 18.327C2.06344 18.6902 2.46962 19.0192 2.82334 19.0192H3.00473V19.1973C3.00473 19.5503 3.08655 20.1412 3.16069 20.3235C3.24426 20.5289 3.4656 20.7628 3.65605 20.8469C3.81416 20.9167 4.01597 20.9271 4.44123 20.8872L4.78256 20.8553L4.8401 21.0008C5.16921 21.8333 6.17265 22.2386 6.95123 21.8536C7.40523 21.629 7.77937 21.1481 7.85061 20.6975C7.88202 20.499 7.91268 20.4723 8.10993 20.4715C8.25564 20.4709 8.26362 20.4782 8.46261 20.7946C8.88409 21.4645 9.34027 21.8416 9.87279 21.9603C10.0221 21.9936 11.0751 22.0026 13.7894 21.9937L17.5019 21.9815L17.7149 21.8906C18.0652 21.7411 18.364 21.5035 18.6077 21.1807C19.5043 19.9934 19.9554 18.6853 19.9959 17.1554C20.0127 16.5213 19.9944 16.2885 19.6244 12.4275C19.2729 8.75879 19.2259 8.33814 19.1381 8.07271C18.999 7.65209 18.8405 7.3898 18.5219 7.05311C18.2081 6.72149 17.951 6.54634 17.5515 6.3921L17.2792 6.28698L13.7806 6.27619C9.86373 6.26415 10.0374 6.25328 9.47812 6.54508C9.3121 6.63171 9.07762 6.79694 8.95704 6.91225C8.74234 7.11762 8.73566 7.12075 8.6335 7.06418C8.57614 7.03239 8.43889 6.99657 8.32855 6.98453L8.12793 6.96263V6.79003C8.12793 6.09488 7.98556 5.55538 7.74551 5.34092C7.49722 5.11912 7.34078 5.0769 6.87579 5.10628C6.64443 5.12088 6.43479 5.14081 6.40984 5.15058C6.38322 5.16098 6.32063 5.0716 6.25811 4.9338C6.1098 4.60696 5.83478 4.32462 5.50211 4.15767C5.2713 4.0418 5.18012 4.01842 4.90607 4.00473C4.6364 3.99123 4.54147 4.00378 4.33587 4.07998ZM5.21446 4.77132C5.3646 4.8434 5.57461 5.03848 5.63906 5.16573C5.67091 5.22866 5.60943 5.24102 4.86824 5.32079C4.42523 5.36846 4.03286 5.41409 3.99629 5.42218C3.94332 5.43391 3.93474 5.41959 3.95412 5.35186C3.98968 5.22756 4.10136 5.04245 4.1997 4.94491C4.43882 4.70761 4.9129 4.62654 5.21446 4.77132ZM7.32378 5.87226C7.40044 5.95171 7.47198 6.44436 7.4526 6.75951C7.43307 7.07732 7.53212 7.05374 5.08371 7.32337C3.88923 7.45489 2.85111 7.56244 2.77682 7.56232C2.5517 7.56205 2.48461 7.47008 2.44281 7.10447C2.38839 6.62897 2.40933 6.4278 2.52211 6.34191C2.59825 6.28388 3.01483 6.22578 4.8424 6.0181C6.06751 5.87885 7.11164 5.77318 7.16269 5.78323C7.21374 5.79327 7.2862 5.83333 7.32378 5.87226ZM17.0378 6.97538C17.7314 7.09152 18.3752 7.6989 18.5551 8.40672C18.5954 8.56551 19.0532 13.2767 19.0341 13.3372C19.0284 13.3554 18.9239 13.2243 18.8018 13.046C18.6798 12.8677 18.4576 12.5863 18.3079 12.4207L18.0359 12.1197L17.8334 10.6943C17.7219 9.91034 17.6121 9.20714 17.5891 9.13161C17.4066 8.53004 16.9159 8.06898 16.3367 7.95472C16.0534 7.89885 11.2912 7.90199 11.0026 7.95821C10.4421 8.06753 9.96738 8.493 9.77924 9.05483C9.74701 9.151 9.62907 9.87306 9.51706 10.6594L9.31347 12.0891L9.13791 12.2877C8.86092 12.601 8.6345 12.8959 8.44732 13.1869C8.27446 13.4556 8.27431 13.4557 8.29484 13.3046C8.31482 13.1575 8.64768 9.69493 8.64768 9.63439C8.64768 9.61767 8.71287 9.5689 8.79257 9.5259C9.0709 9.37586 9.27976 8.99637 9.27798 8.64399C9.27753 8.5561 9.2537 8.29882 9.225 8.07223L9.1728 7.66025L9.32788 7.49103C9.51639 7.28535 9.99853 7.02592 10.2812 6.97809C10.5779 6.92791 16.7394 6.9254 17.0378 6.97538ZM8.43276 7.73335C8.52932 7.81092 8.56274 7.94087 8.59192 8.3523C8.62013 8.74992 8.59611 8.85959 8.4645 8.93402C8.42597 8.95584 7.5117 9.07154 6.43278 9.19118C5.3539 9.31077 3.92616 9.46991 3.26011 9.54477C2.59402 9.61967 2.02278 9.68092 1.99067 9.68092C1.95852 9.68092 1.88598 9.63886 1.8294 9.58742C1.73637 9.50283 1.72248 9.45524 1.68346 9.08716C1.63472 8.62708 1.66965 8.45549 1.82265 8.40323C1.93536 8.3647 7.89672 7.69043 8.16506 7.68584C8.28025 7.68387 8.3969 7.70459 8.43276 7.73335ZM16.3883 8.68652C16.6278 8.77276 16.8621 9.02258 16.9378 9.27247C16.9965 9.46591 17.2741 11.3468 17.2532 11.4091C17.247 11.4274 17.1501 11.3802 17.0378 11.3042C15.0599 9.96578 12.4544 9.93651 10.4245 11.2299C10.237 11.3493 10.0807 11.4425 10.0771 11.437C10.0606 11.4116 10.3574 9.40902 10.3971 9.27832C10.4793 9.00735 10.7398 8.74937 11.0234 8.65819C11.0746 8.64175 12.262 8.62676 13.6622 8.62492C15.9397 8.6219 16.2269 8.62837 16.3883 8.68652ZM7.95961 9.94577C7.94669 10.0698 7.82299 11.3455 7.68474 12.7806C7.54645 14.2157 7.42412 15.3633 7.41287 15.3309C7.38332 15.246 6.85552 9.87475 6.87471 9.85447C6.89105 9.83724 7.68878 9.7346 7.8792 9.72526L7.98311 9.72016L7.95961 9.94577ZM6.21278 10.0635C6.26286 10.4008 6.79493 15.8504 6.77938 15.8668C6.7515 15.8963 4.97204 16.0892 4.94936 16.0652C4.9266 16.0412 4.33019 10.1503 4.34857 10.1309C4.35952 10.1193 5.95113 9.92952 6.11065 9.92073C6.17584 9.91716 6.19504 9.94396 6.21278 10.0635ZM14.8023 11.0876C15.9525 11.3502 16.8419 11.8621 17.6714 12.7388C18.6887 13.8139 19.2223 15.0309 19.3392 16.5422C19.4407 17.8551 19.1015 19.2002 18.3786 20.3519C18.0816 20.8251 17.8116 21.1043 17.539 21.2199L17.3163 21.3145L13.8266 21.326C11.3793 21.3341 10.2648 21.3245 10.0956 21.2938C9.67945 21.2182 9.37629 20.9824 9.04925 20.4801L8.93944 20.3114L9.12027 20.1023C9.318 19.8736 9.39017 19.6822 9.39017 19.3863C9.39017 19.1392 9.32398 18.5606 9.27969 18.4208C9.24936 18.325 9.25466 18.3128 9.32713 18.312C9.56737 18.3095 9.91842 18.0324 10.0448 17.7456C10.1437 17.5212 10.1549 17.288 10.0939 16.7238C10.0482 16.3007 9.95951 16.09 9.74193 15.8876C9.47611 15.6403 9.22586 15.5998 8.51295 15.6887C8.31957 15.7128 8.15165 15.7222 8.13981 15.7097C8.10477 15.6727 8.23359 15.1841 8.38981 14.7616C8.99706 13.1188 10.2822 11.8357 11.8847 11.272C12.2144 11.1561 12.5674 11.0708 13.0098 11.0002C13.0711 10.9905 13.4219 10.9884 13.7894 10.9957C14.28 11.0054 14.5493 11.0299 14.8023 11.0876ZM13.5296 11.6459C13.4887 11.6711 13.4345 11.7194 13.4089 11.7532C13.3598 11.8183 13.347 12.0252 13.3856 12.1314C13.4242 12.2378 13.607 12.3098 13.8384 12.3098C13.9593 12.3098 14.201 12.3361 14.3756 12.3683C15.3205 12.5424 16.1433 12.9987 16.8195 13.7236C17.4795 14.4311 17.8726 15.2543 18.0372 16.2738C18.0802 16.54 18.1321 16.7382 18.1705 16.7831C18.3201 16.9579 18.618 16.8957 18.7059 16.6714C18.7902 16.4564 18.5976 15.5291 18.3348 14.884C17.6645 13.2393 16.2499 12.0372 14.5939 11.7052C14.1644 11.6191 13.622 11.5889 13.5296 11.6459ZM9.30289 16.405C9.39615 16.4898 9.40947 16.5367 9.45076 16.9249C9.50132 17.4006 9.47853 17.513 9.31559 17.5918C9.26473 17.6164 7.78642 17.7957 6.03043 17.9903C2.50403 18.3811 2.68156 18.375 2.60107 18.1076C2.57984 18.0371 2.55125 17.8095 2.53755 17.6019C2.51443 17.2515 2.51825 17.2184 2.59068 17.1418C2.6336 17.0965 2.70673 17.0504 2.75321 17.0395C2.79965 17.0285 3.73145 16.9204 4.82384 16.7992C5.91623 16.678 7.31119 16.521 7.92375 16.4502C9.30445 16.2907 9.18157 16.2947 9.30289 16.405ZM8.53953 18.4809C8.65016 18.5707 8.68298 18.6966 8.70682 19.1227C8.73013 19.5394 8.72865 19.5508 8.63999 19.6375C8.55483 19.7208 8.41078 19.7416 6.25562 19.9825C4.12055 20.2212 3.95568 20.2346 3.87148 20.1763C3.74986 20.0921 3.72131 19.9978 3.6902 19.5775C3.65931 19.1603 3.68021 19.0389 3.79408 18.9743C3.87248 18.9297 7.95634 18.4438 8.31356 18.4365C8.40544 18.4347 8.50712 18.4546 8.53953 18.4809ZM7.19982 20.6098C7.19982 20.6865 7.03305 20.95 6.91036 21.0672C6.62401 21.3406 6.20796 21.3912 5.86559 21.1943C5.6835 21.0895 5.49208 20.8869 5.49208 20.7989C5.49208 20.7783 5.81366 20.7251 6.20673 20.6806C6.98394 20.5926 7.19982 20.5772 7.19982 20.6098Z" fill="#45474D"/>
<path fill-rule="evenodd" clip-rule="evenodd" d="M4.33587 4.07998C3.79003 4.28228 3.40523 4.73009 3.28231 5.30608L3.24047 5.50226L2.85129 5.54761C2.63727 5.57257 2.40342 5.61891 2.33166 5.65061C1.98959 5.80167 1.7435 6.19105 1.74286 6.58228C1.74242 6.84312 1.80627 7.4244 1.85086 7.56566C1.88138 7.66226 1.87414 7.66959 1.70262 7.71605C1.29005 7.82783 1 8.22545 1 8.67934C1 9.02313 1.06612 9.5565 1.13224 9.74594C1.21454 9.98194 1.50051 10.25 1.75252 10.3274C1.9443 10.3863 2.0047 10.3844 2.80515 10.2941C3.27218 10.2414 3.66269 10.2128 3.67294 10.2304C3.70527 10.2863 4.27618 16.119 4.25178 16.1448C4.23898 16.1583 3.85711 16.2107 3.40315 16.2611C2.67681 16.3419 2.5533 16.3658 2.37361 16.4608C2.1453 16.5814 1.95904 16.8301 1.88735 17.11C1.8431 17.2829 1.89359 18.0402 1.96851 18.327C2.06344 18.6902 2.46962 19.0192 2.82334 19.0192H3.00473V19.1973C3.00473 19.5503 3.08655 20.1412 3.16069 20.3235C3.24426 20.5289 3.4656 20.7628 3.65605 20.8469C3.81416 20.9167 4.01597 20.9271 4.44123 20.8872L4.78256 20.8553L4.8401 21.0008C5.16921 21.8333 6.17265 22.2386 6.95123 21.8536C7.40523 21.629 7.77937 21.1481 7.85061 20.6975C7.88202 20.499 7.91268 20.4723 8.10993 20.4715C8.25564 20.4709 8.26362 20.4782 8.46261 20.7946C8.88409 21.4645 9.34027 21.8416 9.87279 21.9603C10.0221 21.9936 11.0751 22.0026 13.7894 21.9937L17.5019 21.9815L17.7149 21.8906C18.0652 21.7411 18.364 21.5035 18.6077 21.1807C19.5043 19.9934 19.9554 18.6853 19.9959 17.1554C20.0127 16.5213 19.9944 16.2885 19.6244 12.4275C19.2729 8.75879 19.2259 8.33814 19.1381 8.07271C18.999 7.65209 18.8405 7.3898 18.5219 7.05311C18.2081 6.72149 17.951 6.54634 17.5515 6.3921L17.2792 6.28698L13.7806 6.27619C9.86373 6.26415 10.0374 6.25328 9.47812 6.54508C9.3121 6.63171 9.07762 6.79694 8.95704 6.91225C8.74234 7.11762 8.73566 7.12075 8.6335 7.06418C8.57614 7.03239 8.43889 6.99657 8.32855 6.98453L8.12793 6.96263V6.79003C8.12793 6.09488 7.98556 5.55538 7.74551 5.34092C7.49722 5.11912 7.34078 5.0769 6.87579 5.10628C6.64443 5.12088 6.43479 5.14081 6.40984 5.15058C6.38322 5.16098 6.32063 5.0716 6.25811 4.9338C6.1098 4.60696 5.83478 4.32462 5.50211 4.15767C5.2713 4.0418 5.18012 4.01842 4.90607 4.00473C4.6364 3.99123 4.54147 4.00378 4.33587 4.07998ZM5.21446 4.77132C5.3646 4.8434 5.57461 5.03848 5.63906 5.16573C5.67091 5.22866 5.60943 5.24102 4.86824 5.32079C4.42523 5.36846 4.03286 5.41409 3.99629 5.42218C3.94332 5.43391 3.93474 5.41959 3.95412 5.35186C3.98968 5.22756 4.10136 5.04245 4.1997 4.94491C4.43882 4.70761 4.9129 4.62654 5.21446 4.77132ZM7.32378 5.87226C7.40044 5.95171 7.47198 6.44436 7.4526 6.75951C7.43307 7.07732 7.53212 7.05374 5.08371 7.32337C3.88923 7.45489 2.85111 7.56244 2.77682 7.56232C2.5517 7.56205 2.48461 7.47008 2.44281 7.10447C2.38839 6.62897 2.40933 6.4278 2.52211 6.34191C2.59825 6.28388 3.01483 6.22578 4.8424 6.0181C6.06751 5.87885 7.11164 5.77318 7.16269 5.78323C7.21374 5.79327 7.2862 5.83333 7.32378 5.87226ZM17.0378 6.97538C17.7314 7.09152 18.3752 7.6989 18.5551 8.40672C18.5954 8.56551 19.0532 13.2767 19.0341 13.3372C19.0284 13.3554 18.9239 13.2243 18.8018 13.046C18.6798 12.8677 18.4576 12.5863 18.3079 12.4207L18.0359 12.1197L17.8334 10.6943C17.7219 9.91034 17.6121 9.20714 17.5891 9.13161C17.4066 8.53004 16.9159 8.06898 16.3367 7.95472C16.0534 7.89885 11.2912 7.90199 11.0026 7.95821C10.4421 8.06753 9.96738 8.493 9.77924 9.05483C9.74701 9.151 9.62907 9.87306 9.51706 10.6594L9.31347 12.0891L9.13791 12.2877C8.86092 12.601 8.6345 12.8959 8.44732 13.1869C8.27446 13.4556 8.27431 13.4557 8.29484 13.3046C8.31482 13.1575 8.64768 9.69493 8.64768 9.63439C8.64768 9.61767 8.71287 9.5689 8.79257 9.5259C9.0709 9.37586 9.27976 8.99637 9.27798 8.64399C9.27753 8.5561 9.2537 8.29882 9.225 8.07223L9.1728 7.66025L9.32788 7.49103C9.51639 7.28535 9.99853 7.02592 10.2812 6.97809C10.5779 6.92791 16.7394 6.9254 17.0378 6.97538ZM8.43276 7.73335C8.52932 7.81092 8.56274 7.94087 8.59192 8.3523C8.62013 8.74992 8.59611 8.85959 8.4645 8.93402C8.42597 8.95584 7.5117 9.07154 6.43278 9.19118C5.3539 9.31077 3.92616 9.46991 3.26011 9.54477C2.59402 9.61967 2.02278 9.68092 1.99067 9.68092C1.95852 9.68092 1.88598 9.63886 1.8294 9.58742C1.73637 9.50283 1.72248 9.45524 1.68346 9.08716C1.63472 8.62708 1.66965 8.45549 1.82265 8.40323C1.93536 8.3647 7.89672 7.69043 8.16506 7.68584C8.28025 7.68387 8.3969 7.70459 8.43276 7.73335ZM16.3883 8.68652C16.6278 8.77276 16.8621 9.02258 16.9378 9.27247C16.9965 9.46591 17.2741 11.3468 17.2532 11.4091C17.247 11.4274 17.1501 11.3802 17.0378 11.3042C15.0599 9.96578 12.4544 9.93651 10.4245 11.2299C10.237 11.3493 10.0807 11.4425 10.0771 11.437C10.0606 11.4116 10.3574 9.40902 10.3971 9.27832C10.4793 9.00735 10.7398 8.74937 11.0234 8.65819C11.0746 8.64175 12.262 8.62676 13.6622 8.62492C15.9397 8.6219 16.2269 8.62837 16.3883 8.68652ZM7.95961 9.94577C7.94669 10.0698 7.82299 11.3455 7.68474 12.7806C7.54645 14.2157 7.42412 15.3633 7.41287 15.3309C7.38332 15.246 6.85552 9.87475 6.87471 9.85447C6.89105 9.83724 7.68878 9.7346 7.8792 9.72526L7.98311 9.72016L7.95961 9.94577ZM6.21278 10.0635C6.26286 10.4008 6.79493 15.8504 6.77938 15.8668C6.7515 15.8963 4.97204 16.0892 4.94936 16.0652C4.9266 16.0412 4.33019 10.1503 4.34857 10.1309C4.35952 10.1193 5.95113 9.92952 6.11065 9.92073C6.17584 9.91716 6.19504 9.94396 6.21278 10.0635ZM14.8023 11.0876C15.9525 11.3502 16.8419 11.8621 17.6714 12.7388C18.6887 13.8139 19.2223 15.0309 19.3392 16.5422C19.4407 17.8551 19.1015 19.2002 18.3786 20.3519C18.0816 20.8251 17.8116 21.1043 17.539 21.2199L17.3163 21.3145L13.8266 21.326C11.3793 21.3341 10.2648 21.3245 10.0956 21.2938C9.67945 21.2182 9.37629 20.9824 9.04925 20.4801L8.93944 20.3114L9.12027 20.1023C9.318 19.8736 9.39017 19.6822 9.39017 19.3863C9.39017 19.1392 9.32398 18.5606 9.27969 18.4208C9.24936 18.325 9.25466 18.3128 9.32713 18.312C9.56737 18.3095 9.91842 18.0324 10.0448 17.7456C10.1437 17.5212 10.1549 17.288 10.0939 16.7238C10.0482 16.3007 9.95951 16.09 9.74193 15.8876C9.47611 15.6403 9.22586 15.5998 8.51295 15.6887C8.31957 15.7128 8.15165 15.7222 8.13981 15.7097C8.10477 15.6727 8.23359 15.1841 8.38981 14.7616C8.99706 13.1188 10.2822 11.8357 11.8847 11.272C12.2144 11.1561 12.5674 11.0708 13.0098 11.0002C13.0711 10.9905 13.4219 10.9884 13.7894 10.9957C14.28 11.0054 14.5493 11.0299 14.8023 11.0876ZM13.5296 11.6459C13.4887 11.6711 13.4345 11.7194 13.4089 11.7532C13.3598 11.8183 13.347 12.0252 13.3856 12.1314C13.4242 12.2378 13.607 12.3098 13.8384 12.3098C13.9593 12.3098 14.201 12.3361 14.3756 12.3683C15.3205 12.5424 16.1433 12.9987 16.8195 13.7236C17.4795 14.4311 17.8726 15.2543 18.0372 16.2738C18.0802 16.54 18.1321 16.7382 18.1705 16.7831C18.3201 16.9579 18.618 16.8957 18.7059 16.6714C18.7902 16.4564 18.5976 15.5291 18.3348 14.884C17.6645 13.2393 16.2499 12.0372 14.5939 11.7052C14.1644 11.6191 13.622 11.5889 13.5296 11.6459ZM9.30289 16.405C9.39615 16.4898 9.40947 16.5367 9.45076 16.9249C9.50132 17.4006 9.47853 17.513 9.31559 17.5918C9.26473 17.6164 7.78642 17.7957 6.03043 17.9903C2.50403 18.3811 2.68156 18.375 2.60107 18.1076C2.57984 18.0371 2.55125 17.8095 2.53755 17.6019C2.51443 17.2515 2.51825 17.2184 2.59068 17.1418C2.6336 17.0965 2.70673 17.0504 2.75321 17.0395C2.79965 17.0285 3.73145 16.9204 4.82384 16.7992C5.91623 16.678 7.31119 16.521 7.92375 16.4502C9.30445 16.2907 9.18157 16.2947 9.30289 16.405ZM8.53953 18.4809C8.65016 18.5707 8.68298 18.6966 8.70682 19.1227C8.73013 19.5394 8.72865 19.5508 8.63999 19.6375C8.55483 19.7208 8.41078 19.7416 6.25562 19.9825C4.12055 20.2212 3.95568 20.2346 3.87148 20.1763C3.74986 20.0921 3.72131 19.9978 3.6902 19.5775C3.65931 19.1603 3.68021 19.0389 3.79408 18.9743C3.87248 18.9297 7.95634 18.4438 8.31356 18.4365C8.40544 18.4347 8.50712 18.4546 8.53953 18.4809ZM7.19982 20.6098C7.19982 20.6865 7.03305 20.95 6.91036 21.0672C6.62401 21.3406 6.20796 21.3912 5.86559 21.1943C5.6835 21.0895 5.49208 20.8869 5.49208 20.7989C5.49208 20.7783 5.81366 20.7251 6.20673 20.6806C6.98394 20.5926 7.19982 20.5772 7.19982 20.6098Z" stroke="#45474D" stroke-width="0.2" mask="url(#path-1-outside-1_2052_1765)"/>
</svg>
