<svg width="21" height="26" viewBox="0 0 21 26" fill="none" xmlns="http://www.w3.org/2000/svg">
<mask id="path-1-outside-1_2052_1805" maskUnits="userSpaceOnUse" x="0" y="4" width="21" height="18" fill="black">
<rect fill="white" y="4" width="21" height="18"/>
<path fill-rule="evenodd" clip-rule="evenodd" d="M11.6482 5.00849C11.2312 5.08447 10.8922 5.46605 10.7872 5.97759C10.7734 6.04479 10.7718 6.09503 10.774 6.37191C10.7755 6.54643 10.7724 7.96761 10.7673 9.53009C10.7594 11.9304 10.7561 12.3725 10.7458 12.3809C10.5724 12.5217 10.4027 12.6615 10.2691 12.7734C9.6289 13.3099 9.25426 13.494 8.71696 13.536C8.50318 13.5527 8.23135 13.5255 8.02775 13.467C7.84469 13.4144 7.62697 13.3117 7.44798 13.1935C7.26137 13.0702 7.14185 12.9741 6.63426 12.539C6.32898 12.2773 6.05402 12.0799 5.81916 11.9538C5.46939 11.766 5.05621 11.6493 4.71823 11.6429C4.66522 11.6419 4.61887 11.639 4.61522 11.6364C4.60836 11.6317 4.27641 11.6492 4.23744 11.6564C4.22532 11.6586 4.17972 11.6656 4.1361 11.6718C3.61563 11.7463 3.01016 12.0148 2.45304 12.418C2.03391 12.7214 1.639 13.0851 1.18874 13.5827L1 13.7912L1.12291 13.9237C1.1905 13.9966 1.29755 14.1132 1.36077 14.1829C1.424 14.2525 1.47905 14.3095 1.4831 14.3095C1.48715 14.3095 1.58281 14.2073 1.69566 14.0824C2.24213 13.4777 2.74856 13.0522 3.25492 12.7724C3.72607 12.512 4.13284 12.3948 4.56788 12.3941C4.91509 12.3935 5.20195 12.4632 5.50946 12.623C5.75941 12.7529 5.92939 12.8822 6.55495 13.4186C7.05494 13.8472 7.44225 14.0761 7.87876 14.2008C7.98214 14.2304 8.14678 14.2641 8.23801 14.2745C8.26467 14.2775 8.30631 14.2828 8.33054 14.2863C8.41933 14.299 8.79463 14.2922 8.91212 14.2758C9.41359 14.2057 9.84381 14.0147 10.3396 13.642C10.457 13.5538 10.6125 13.4275 10.8772 13.2054C11.5736 12.6209 11.9613 12.4432 12.5426 12.4418C12.923 12.441 13.2289 12.5218 13.5709 12.7135C13.813 12.8493 14.0086 13.0001 14.4636 13.4021C14.8995 13.7872 15.1156 13.9486 15.4122 14.1105C15.8005 14.3226 16.1447 14.4108 16.5916 14.4127C16.8207 14.4137 16.9049 14.4084 17.0513 14.3837C17.7238 14.2703 18.3679 13.9282 19.0325 13.3317C19.3316 13.0633 19.6001 12.7759 19.9385 12.3621C19.9737 12.3191 20.0013 12.2808 20 12.2769C19.9986 12.273 19.9578 12.2306 19.9093 12.1825C19.8608 12.1345 19.7914 12.0653 19.7551 12.0288C19.7187 11.9923 19.6474 11.9212 19.5965 11.8708L19.504 11.7791L19.425 11.8767C18.4673 13.0609 17.518 13.6647 16.6137 13.6648C16.0905 13.6648 15.6739 13.4844 15.1169 13.0166L15.0212 12.9362L15.0586 12.9331L15.096 12.9299L15.0928 9.54681L15.0896 6.16368L15.1185 6.08235C15.1528 5.9861 15.2116 5.89713 15.2787 5.84027C15.3536 5.77672 15.3962 5.75862 15.4725 5.75782C15.5569 5.75694 15.618 5.78851 15.6912 5.87091C15.7829 5.97407 15.8334 6.11519 15.8337 6.26868L15.8338 6.34396L16.0167 6.3658C16.1172 6.37782 16.2213 6.39013 16.248 6.39317C16.2746 6.3962 16.34 6.40455 16.3933 6.41171C16.4667 6.42159 16.4918 6.42194 16.4967 6.4132C16.508 6.39324 16.504 6.16782 16.4906 6.06948C16.422 5.56633 16.1048 5.14998 15.6972 5.0283C15.6066 5.00124 15.4471 4.99185 15.3484 5.00777C14.8918 5.08148 14.5003 5.54018 14.4283 6.08597C14.4163 6.17745 14.4144 6.29809 14.4156 6.91706L14.4171 7.64113L13.1009 7.64609L11.7848 7.65105V8.02289V8.39473L13.1041 8.39724L14.4235 8.39976L14.4237 9.13349L14.4239 9.86723H13.1374H11.8509V10.244V10.6208H13.1374H14.4239V11.5187C14.4239 12.2347 14.4217 12.415 14.4129 12.4086C14.4069 12.4042 14.3425 12.3562 14.2698 12.3019C14.0376 12.1284 13.8503 12.0157 13.6282 11.9156C13.1236 11.6882 12.5484 11.6245 12.0227 11.7375C11.8487 11.775 11.6438 11.8425 11.4948 11.9116C11.4613 11.9271 11.4328 11.9386 11.4315 11.9371C11.4301 11.9355 11.4332 10.7497 11.4382 9.30184C11.4432 7.85398 11.4451 6.5556 11.4424 6.41653C11.4382 6.20724 11.4397 6.15342 11.451 6.10418C11.471 6.01702 11.5134 5.93338 11.5705 5.86834C11.6724 5.75242 11.7888 5.72496 11.9051 5.78937C12.0467 5.86784 12.1383 6.03035 12.1483 6.22085C12.1537 6.32197 12.1375 6.31059 12.3003 6.32744C12.3609 6.3337 12.4203 6.34031 12.4325 6.34211C12.4446 6.34392 12.4822 6.34826 12.5162 6.35177C12.5879 6.3592 12.6202 6.36309 12.7258 6.37714C12.7684 6.38281 12.8068 6.38497 12.8112 6.38194C12.8233 6.37349 12.8202 6.14423 12.8066 6.04964C12.7473 5.6375 12.5226 5.29062 12.1989 5.11172C12.0652 5.0378 11.958 5.0078 11.8112 5.00323C11.7482 5.00127 11.6749 5.00364 11.6482 5.00849ZM4.81021 14.1775C4.02989 14.2431 3.26474 14.6356 2.52388 15.3503C2.39088 15.4786 2.12259 15.7578 2.12259 15.768C2.12259 15.7764 2.3002 16.0518 2.38912 16.1813C2.51804 16.3689 2.71884 16.6376 2.88372 16.8429C3.03196 17.0276 3.08225 17.0871 3.28484 17.3178C3.46619 17.5242 3.54218 17.6067 3.78803 17.864C3.81469 17.8919 3.89796 17.975 3.97308 18.0486C5.04014 19.0947 6.16649 19.8657 7.36564 20.371C8.04442 20.657 8.88376 20.8797 9.53776 20.9475C9.56684 20.9505 9.63227 20.9574 9.68316 20.9627C9.79882 20.975 10.0501 20.9902 10.2691 20.9982C10.5462 21.0082 11.1242 20.9755 11.4235 20.9327C11.4623 20.9272 11.5099 20.9205 11.5292 20.9178C11.795 20.8808 12.2313 20.788 12.5294 20.705C14.0181 20.2907 15.4997 19.4286 16.7811 18.2312C17.0825 17.9495 17.2243 17.8034 17.5259 17.4634C17.783 17.1737 17.8261 17.1227 17.9495 16.962C18.2816 16.5297 18.4709 16.2108 18.5174 16.0051C18.5406 15.9029 18.5324 15.7867 18.4962 15.704C18.4098 15.5064 18.2295 15.4283 18.025 15.4997C17.9951 15.5102 17.8775 15.5706 17.7636 15.6339C17.361 15.858 17.1366 15.9432 16.7943 16.0021C16.647 16.0275 16.2731 16.0272 16.1378 16.0017C15.9191 15.9604 15.7287 15.8918 15.5463 15.7888C15.3154 15.6585 15.1297 15.5092 14.7235 15.1276C14.3179 14.7465 14.0398 14.5413 13.7454 14.4056C13.1303 14.1222 12.3965 14.1523 11.7206 14.4888C11.4277 14.6346 11.2165 14.7821 10.6674 15.2241C10.3202 15.5037 10.2153 15.5824 10.0348 15.699C9.83054 15.831 9.59769 15.9413 9.40809 15.9958C8.98002 16.1187 8.53205 16.0907 8.13371 15.916C7.85879 15.7955 7.63059 15.633 7.17178 15.2313C6.87696 14.9732 6.74438 14.862 6.61663 14.7658C6.16682 14.4271 5.78957 14.2606 5.31248 14.1901C5.24019 14.1795 4.89134 14.1707 4.81021 14.1775ZM5.26842 14.9443C5.45075 14.9702 5.64774 15.0338 5.82938 15.1254C6.06661 15.245 6.28472 15.4077 6.70622 15.7793C7.15121 16.1716 7.33522 16.3134 7.59973 16.4676C7.88994 16.6369 8.12275 16.7267 8.41425 16.7821C8.87305 16.8691 9.34981 16.8249 9.7889 16.6545C9.91908 16.6039 10.0735 16.5291 10.2079 16.4514C10.4793 16.2945 10.6509 16.1682 11.2076 15.7161C11.7664 15.2623 12.1003 15.0778 12.5074 14.9978C12.6104 14.9776 12.9 14.9655 13.0228 14.9763C13.2379 14.9952 13.4772 15.0788 13.6837 15.2071C13.8489 15.3096 14.0157 15.447 14.3261 15.7364C14.6393 16.0282 14.7442 16.1192 14.9174 16.2496C15.289 16.5293 15.6563 16.688 16.085 16.7541C16.2847 16.7849 16.659 16.7842 16.856 16.7526C16.9729 16.7339 17.0614 16.7158 17.1641 16.6898C17.229 16.6733 17.2832 16.6611 17.2846 16.6626C17.2939 16.6731 16.9026 17.1071 16.6798 17.3335C16.1257 17.8962 15.4663 18.4329 14.8007 18.8629C14.5736 19.0096 14.0917 19.284 13.8688 19.3937C13.0001 19.8209 12.1595 20.0812 11.2995 20.1891C10.8102 20.2505 10.2193 20.26 9.76246 20.2139C9.73581 20.2112 9.69417 20.207 9.66994 20.2045C8.17935 20.0517 6.69619 19.3938 5.29045 18.262C4.49337 17.6202 3.7028 16.7926 3.08868 15.9571L3.02058 15.8644L3.12013 15.7758C3.25272 15.6578 3.38879 15.5493 3.52808 15.4505C3.66442 15.3538 3.99132 15.1699 4.12729 15.1134C4.36634 15.0141 4.60476 14.9524 4.8058 14.9379C4.85427 14.9344 4.8959 14.9294 4.89832 14.9267C4.90518 14.9191 5.18477 14.9324 5.26842 14.9443Z"/>
</mask>
<path fill-rule="evenodd" clip-rule="evenodd" d="M11.6482 5.00849C11.2312 5.08447 10.8922 5.46605 10.7872 5.97759C10.7734 6.04479 10.7718 6.09503 10.774 6.37191C10.7755 6.54643 10.7724 7.96761 10.7673 9.53009C10.7594 11.9304 10.7561 12.3725 10.7458 12.3809C10.5724 12.5217 10.4027 12.6615 10.2691 12.7734C9.6289 13.3099 9.25426 13.494 8.71696 13.536C8.50318 13.5527 8.23135 13.5255 8.02775 13.467C7.84469 13.4144 7.62697 13.3117 7.44798 13.1935C7.26137 13.0702 7.14185 12.9741 6.63426 12.539C6.32898 12.2773 6.05402 12.0799 5.81916 11.9538C5.46939 11.766 5.05621 11.6493 4.71823 11.6429C4.66522 11.6419 4.61887 11.639 4.61522 11.6364C4.60836 11.6317 4.27641 11.6492 4.23744 11.6564C4.22532 11.6586 4.17972 11.6656 4.1361 11.6718C3.61563 11.7463 3.01016 12.0148 2.45304 12.418C2.03391 12.7214 1.639 13.0851 1.18874 13.5827L1 13.7912L1.12291 13.9237C1.1905 13.9966 1.29755 14.1132 1.36077 14.1829C1.424 14.2525 1.47905 14.3095 1.4831 14.3095C1.48715 14.3095 1.58281 14.2073 1.69566 14.0824C2.24213 13.4777 2.74856 13.0522 3.25492 12.7724C3.72607 12.512 4.13284 12.3948 4.56788 12.3941C4.91509 12.3935 5.20195 12.4632 5.50946 12.623C5.75941 12.7529 5.92939 12.8822 6.55495 13.4186C7.05494 13.8472 7.44225 14.0761 7.87876 14.2008C7.98214 14.2304 8.14678 14.2641 8.23801 14.2745C8.26467 14.2775 8.30631 14.2828 8.33054 14.2863C8.41933 14.299 8.79463 14.2922 8.91212 14.2758C9.41359 14.2057 9.84381 14.0147 10.3396 13.642C10.457 13.5538 10.6125 13.4275 10.8772 13.2054C11.5736 12.6209 11.9613 12.4432 12.5426 12.4418C12.923 12.441 13.2289 12.5218 13.5709 12.7135C13.813 12.8493 14.0086 13.0001 14.4636 13.4021C14.8995 13.7872 15.1156 13.9486 15.4122 14.1105C15.8005 14.3226 16.1447 14.4108 16.5916 14.4127C16.8207 14.4137 16.9049 14.4084 17.0513 14.3837C17.7238 14.2703 18.3679 13.9282 19.0325 13.3317C19.3316 13.0633 19.6001 12.7759 19.9385 12.3621C19.9737 12.3191 20.0013 12.2808 20 12.2769C19.9986 12.273 19.9578 12.2306 19.9093 12.1825C19.8608 12.1345 19.7914 12.0653 19.7551 12.0288C19.7187 11.9923 19.6474 11.9212 19.5965 11.8708L19.504 11.7791L19.425 11.8767C18.4673 13.0609 17.518 13.6647 16.6137 13.6648C16.0905 13.6648 15.6739 13.4844 15.1169 13.0166L15.0212 12.9362L15.0586 12.9331L15.096 12.9299L15.0928 9.54681L15.0896 6.16368L15.1185 6.08235C15.1528 5.9861 15.2116 5.89713 15.2787 5.84027C15.3536 5.77672 15.3962 5.75862 15.4725 5.75782C15.5569 5.75694 15.618 5.78851 15.6912 5.87091C15.7829 5.97407 15.8334 6.11519 15.8337 6.26868L15.8338 6.34396L16.0167 6.3658C16.1172 6.37782 16.2213 6.39013 16.248 6.39317C16.2746 6.3962 16.34 6.40455 16.3933 6.41171C16.4667 6.42159 16.4918 6.42194 16.4967 6.4132C16.508 6.39324 16.504 6.16782 16.4906 6.06948C16.422 5.56633 16.1048 5.14998 15.6972 5.0283C15.6066 5.00124 15.4471 4.99185 15.3484 5.00777C14.8918 5.08148 14.5003 5.54018 14.4283 6.08597C14.4163 6.17745 14.4144 6.29809 14.4156 6.91706L14.4171 7.64113L13.1009 7.64609L11.7848 7.65105V8.02289V8.39473L13.1041 8.39724L14.4235 8.39976L14.4237 9.13349L14.4239 9.86723H13.1374H11.8509V10.244V10.6208H13.1374H14.4239V11.5187C14.4239 12.2347 14.4217 12.415 14.4129 12.4086C14.4069 12.4042 14.3425 12.3562 14.2698 12.3019C14.0376 12.1284 13.8503 12.0157 13.6282 11.9156C13.1236 11.6882 12.5484 11.6245 12.0227 11.7375C11.8487 11.775 11.6438 11.8425 11.4948 11.9116C11.4613 11.9271 11.4328 11.9386 11.4315 11.9371C11.4301 11.9355 11.4332 10.7497 11.4382 9.30184C11.4432 7.85398 11.4451 6.5556 11.4424 6.41653C11.4382 6.20724 11.4397 6.15342 11.451 6.10418C11.471 6.01702 11.5134 5.93338 11.5705 5.86834C11.6724 5.75242 11.7888 5.72496 11.9051 5.78937C12.0467 5.86784 12.1383 6.03035 12.1483 6.22085C12.1537 6.32197 12.1375 6.31059 12.3003 6.32744C12.3609 6.3337 12.4203 6.34031 12.4325 6.34211C12.4446 6.34392 12.4822 6.34826 12.5162 6.35177C12.5879 6.3592 12.6202 6.36309 12.7258 6.37714C12.7684 6.38281 12.8068 6.38497 12.8112 6.38194C12.8233 6.37349 12.8202 6.14423 12.8066 6.04964C12.7473 5.6375 12.5226 5.29062 12.1989 5.11172C12.0652 5.0378 11.958 5.0078 11.8112 5.00323C11.7482 5.00127 11.6749 5.00364 11.6482 5.00849ZM4.81021 14.1775C4.02989 14.2431 3.26474 14.6356 2.52388 15.3503C2.39088 15.4786 2.12259 15.7578 2.12259 15.768C2.12259 15.7764 2.3002 16.0518 2.38912 16.1813C2.51804 16.3689 2.71884 16.6376 2.88372 16.8429C3.03196 17.0276 3.08225 17.0871 3.28484 17.3178C3.46619 17.5242 3.54218 17.6067 3.78803 17.864C3.81469 17.8919 3.89796 17.975 3.97308 18.0486C5.04014 19.0947 6.16649 19.8657 7.36564 20.371C8.04442 20.657 8.88376 20.8797 9.53776 20.9475C9.56684 20.9505 9.63227 20.9574 9.68316 20.9627C9.79882 20.975 10.0501 20.9902 10.2691 20.9982C10.5462 21.0082 11.1242 20.9755 11.4235 20.9327C11.4623 20.9272 11.5099 20.9205 11.5292 20.9178C11.795 20.8808 12.2313 20.788 12.5294 20.705C14.0181 20.2907 15.4997 19.4286 16.7811 18.2312C17.0825 17.9495 17.2243 17.8034 17.5259 17.4634C17.783 17.1737 17.8261 17.1227 17.9495 16.962C18.2816 16.5297 18.4709 16.2108 18.5174 16.0051C18.5406 15.9029 18.5324 15.7867 18.4962 15.704C18.4098 15.5064 18.2295 15.4283 18.025 15.4997C17.9951 15.5102 17.8775 15.5706 17.7636 15.6339C17.361 15.858 17.1366 15.9432 16.7943 16.0021C16.647 16.0275 16.2731 16.0272 16.1378 16.0017C15.9191 15.9604 15.7287 15.8918 15.5463 15.7888C15.3154 15.6585 15.1297 15.5092 14.7235 15.1276C14.3179 14.7465 14.0398 14.5413 13.7454 14.4056C13.1303 14.1222 12.3965 14.1523 11.7206 14.4888C11.4277 14.6346 11.2165 14.7821 10.6674 15.2241C10.3202 15.5037 10.2153 15.5824 10.0348 15.699C9.83054 15.831 9.59769 15.9413 9.40809 15.9958C8.98002 16.1187 8.53205 16.0907 8.13371 15.916C7.85879 15.7955 7.63059 15.633 7.17178 15.2313C6.87696 14.9732 6.74438 14.862 6.61663 14.7658C6.16682 14.4271 5.78957 14.2606 5.31248 14.1901C5.24019 14.1795 4.89134 14.1707 4.81021 14.1775ZM5.26842 14.9443C5.45075 14.9702 5.64774 15.0338 5.82938 15.1254C6.06661 15.245 6.28472 15.4077 6.70622 15.7793C7.15121 16.1716 7.33522 16.3134 7.59973 16.4676C7.88994 16.6369 8.12275 16.7267 8.41425 16.7821C8.87305 16.8691 9.34981 16.8249 9.7889 16.6545C9.91908 16.6039 10.0735 16.5291 10.2079 16.4514C10.4793 16.2945 10.6509 16.1682 11.2076 15.7161C11.7664 15.2623 12.1003 15.0778 12.5074 14.9978C12.6104 14.9776 12.9 14.9655 13.0228 14.9763C13.2379 14.9952 13.4772 15.0788 13.6837 15.2071C13.8489 15.3096 14.0157 15.447 14.3261 15.7364C14.6393 16.0282 14.7442 16.1192 14.9174 16.2496C15.289 16.5293 15.6563 16.688 16.085 16.7541C16.2847 16.7849 16.659 16.7842 16.856 16.7526C16.9729 16.7339 17.0614 16.7158 17.1641 16.6898C17.229 16.6733 17.2832 16.6611 17.2846 16.6626C17.2939 16.6731 16.9026 17.1071 16.6798 17.3335C16.1257 17.8962 15.4663 18.4329 14.8007 18.8629C14.5736 19.0096 14.0917 19.284 13.8688 19.3937C13.0001 19.8209 12.1595 20.0812 11.2995 20.1891C10.8102 20.2505 10.2193 20.26 9.76246 20.2139C9.73581 20.2112 9.69417 20.207 9.66994 20.2045C8.17935 20.0517 6.69619 19.3938 5.29045 18.262C4.49337 17.6202 3.7028 16.7926 3.08868 15.9571L3.02058 15.8644L3.12013 15.7758C3.25272 15.6578 3.38879 15.5493 3.52808 15.4505C3.66442 15.3538 3.99132 15.1699 4.12729 15.1134C4.36634 15.0141 4.60476 14.9524 4.8058 14.9379C4.85427 14.9344 4.8959 14.9294 4.89832 14.9267C4.90518 14.9191 5.18477 14.9324 5.26842 14.9443Z" fill="#45474D"/>
<path fill-rule="evenodd" clip-rule="evenodd" d="M11.6482 5.00849C11.2312 5.08447 10.8922 5.46605 10.7872 5.97759C10.7734 6.04479 10.7718 6.09503 10.774 6.37191C10.7755 6.54643 10.7724 7.96761 10.7673 9.53009C10.7594 11.9304 10.7561 12.3725 10.7458 12.3809C10.5724 12.5217 10.4027 12.6615 10.2691 12.7734C9.6289 13.3099 9.25426 13.494 8.71696 13.536C8.50318 13.5527 8.23135 13.5255 8.02775 13.467C7.84469 13.4144 7.62697 13.3117 7.44798 13.1935C7.26137 13.0702 7.14185 12.9741 6.63426 12.539C6.32898 12.2773 6.05402 12.0799 5.81916 11.9538C5.46939 11.766 5.05621 11.6493 4.71823 11.6429C4.66522 11.6419 4.61887 11.639 4.61522 11.6364C4.60836 11.6317 4.27641 11.6492 4.23744 11.6564C4.22532 11.6586 4.17972 11.6656 4.1361 11.6718C3.61563 11.7463 3.01016 12.0148 2.45304 12.418C2.03391 12.7214 1.639 13.0851 1.18874 13.5827L1 13.7912L1.12291 13.9237C1.1905 13.9966 1.29755 14.1132 1.36077 14.1829C1.424 14.2525 1.47905 14.3095 1.4831 14.3095C1.48715 14.3095 1.58281 14.2073 1.69566 14.0824C2.24213 13.4777 2.74856 13.0522 3.25492 12.7724C3.72607 12.512 4.13284 12.3948 4.56788 12.3941C4.91509 12.3935 5.20195 12.4632 5.50946 12.623C5.75941 12.7529 5.92939 12.8822 6.55495 13.4186C7.05494 13.8472 7.44225 14.0761 7.87876 14.2008C7.98214 14.2304 8.14678 14.2641 8.23801 14.2745C8.26467 14.2775 8.30631 14.2828 8.33054 14.2863C8.41933 14.299 8.79463 14.2922 8.91212 14.2758C9.41359 14.2057 9.84381 14.0147 10.3396 13.642C10.457 13.5538 10.6125 13.4275 10.8772 13.2054C11.5736 12.6209 11.9613 12.4432 12.5426 12.4418C12.923 12.441 13.2289 12.5218 13.5709 12.7135C13.813 12.8493 14.0086 13.0001 14.4636 13.4021C14.8995 13.7872 15.1156 13.9486 15.4122 14.1105C15.8005 14.3226 16.1447 14.4108 16.5916 14.4127C16.8207 14.4137 16.9049 14.4084 17.0513 14.3837C17.7238 14.2703 18.3679 13.9282 19.0325 13.3317C19.3316 13.0633 19.6001 12.7759 19.9385 12.3621C19.9737 12.3191 20.0013 12.2808 20 12.2769C19.9986 12.273 19.9578 12.2306 19.9093 12.1825C19.8608 12.1345 19.7914 12.0653 19.7551 12.0288C19.7187 11.9923 19.6474 11.9212 19.5965 11.8708L19.504 11.7791L19.425 11.8767C18.4673 13.0609 17.518 13.6647 16.6137 13.6648C16.0905 13.6648 15.6739 13.4844 15.1169 13.0166L15.0212 12.9362L15.0586 12.9331L15.096 12.9299L15.0928 9.54681L15.0896 6.16368L15.1185 6.08235C15.1528 5.9861 15.2116 5.89713 15.2787 5.84027C15.3536 5.77672 15.3962 5.75862 15.4725 5.75782C15.5569 5.75694 15.618 5.78851 15.6912 5.87091C15.7829 5.97407 15.8334 6.11519 15.8337 6.26868L15.8338 6.34396L16.0167 6.3658C16.1172 6.37782 16.2213 6.39013 16.248 6.39317C16.2746 6.3962 16.34 6.40455 16.3933 6.41171C16.4667 6.42159 16.4918 6.42194 16.4967 6.4132C16.508 6.39324 16.504 6.16782 16.4906 6.06948C16.422 5.56633 16.1048 5.14998 15.6972 5.0283C15.6066 5.00124 15.4471 4.99185 15.3484 5.00777C14.8918 5.08148 14.5003 5.54018 14.4283 6.08597C14.4163 6.17745 14.4144 6.29809 14.4156 6.91706L14.4171 7.64113L13.1009 7.64609L11.7848 7.65105V8.02289V8.39473L13.1041 8.39724L14.4235 8.39976L14.4237 9.13349L14.4239 9.86723H13.1374H11.8509V10.244V10.6208H13.1374H14.4239V11.5187C14.4239 12.2347 14.4217 12.415 14.4129 12.4086C14.4069 12.4042 14.3425 12.3562 14.2698 12.3019C14.0376 12.1284 13.8503 12.0157 13.6282 11.9156C13.1236 11.6882 12.5484 11.6245 12.0227 11.7375C11.8487 11.775 11.6438 11.8425 11.4948 11.9116C11.4613 11.9271 11.4328 11.9386 11.4315 11.9371C11.4301 11.9355 11.4332 10.7497 11.4382 9.30184C11.4432 7.85398 11.4451 6.5556 11.4424 6.41653C11.4382 6.20724 11.4397 6.15342 11.451 6.10418C11.471 6.01702 11.5134 5.93338 11.5705 5.86834C11.6724 5.75242 11.7888 5.72496 11.9051 5.78937C12.0467 5.86784 12.1383 6.03035 12.1483 6.22085C12.1537 6.32197 12.1375 6.31059 12.3003 6.32744C12.3609 6.3337 12.4203 6.34031 12.4325 6.34211C12.4446 6.34392 12.4822 6.34826 12.5162 6.35177C12.5879 6.3592 12.6202 6.36309 12.7258 6.37714C12.7684 6.38281 12.8068 6.38497 12.8112 6.38194C12.8233 6.37349 12.8202 6.14423 12.8066 6.04964C12.7473 5.6375 12.5226 5.29062 12.1989 5.11172C12.0652 5.0378 11.958 5.0078 11.8112 5.00323C11.7482 5.00127 11.6749 5.00364 11.6482 5.00849ZM4.81021 14.1775C4.02989 14.2431 3.26474 14.6356 2.52388 15.3503C2.39088 15.4786 2.12259 15.7578 2.12259 15.768C2.12259 15.7764 2.3002 16.0518 2.38912 16.1813C2.51804 16.3689 2.71884 16.6376 2.88372 16.8429C3.03196 17.0276 3.08225 17.0871 3.28484 17.3178C3.46619 17.5242 3.54218 17.6067 3.78803 17.864C3.81469 17.8919 3.89796 17.975 3.97308 18.0486C5.04014 19.0947 6.16649 19.8657 7.36564 20.371C8.04442 20.657 8.88376 20.8797 9.53776 20.9475C9.56684 20.9505 9.63227 20.9574 9.68316 20.9627C9.79882 20.975 10.0501 20.9902 10.2691 20.9982C10.5462 21.0082 11.1242 20.9755 11.4235 20.9327C11.4623 20.9272 11.5099 20.9205 11.5292 20.9178C11.795 20.8808 12.2313 20.788 12.5294 20.705C14.0181 20.2907 15.4997 19.4286 16.7811 18.2312C17.0825 17.9495 17.2243 17.8034 17.5259 17.4634C17.783 17.1737 17.8261 17.1227 17.9495 16.962C18.2816 16.5297 18.4709 16.2108 18.5174 16.0051C18.5406 15.9029 18.5324 15.7867 18.4962 15.704C18.4098 15.5064 18.2295 15.4283 18.025 15.4997C17.9951 15.5102 17.8775 15.5706 17.7636 15.6339C17.361 15.858 17.1366 15.9432 16.7943 16.0021C16.647 16.0275 16.2731 16.0272 16.1378 16.0017C15.9191 15.9604 15.7287 15.8918 15.5463 15.7888C15.3154 15.6585 15.1297 15.5092 14.7235 15.1276C14.3179 14.7465 14.0398 14.5413 13.7454 14.4056C13.1303 14.1222 12.3965 14.1523 11.7206 14.4888C11.4277 14.6346 11.2165 14.7821 10.6674 15.2241C10.3202 15.5037 10.2153 15.5824 10.0348 15.699C9.83054 15.831 9.59769 15.9413 9.40809 15.9958C8.98002 16.1187 8.53205 16.0907 8.13371 15.916C7.85879 15.7955 7.63059 15.633 7.17178 15.2313C6.87696 14.9732 6.74438 14.862 6.61663 14.7658C6.16682 14.4271 5.78957 14.2606 5.31248 14.1901C5.24019 14.1795 4.89134 14.1707 4.81021 14.1775ZM5.26842 14.9443C5.45075 14.9702 5.64774 15.0338 5.82938 15.1254C6.06661 15.245 6.28472 15.4077 6.70622 15.7793C7.15121 16.1716 7.33522 16.3134 7.59973 16.4676C7.88994 16.6369 8.12275 16.7267 8.41425 16.7821C8.87305 16.8691 9.34981 16.8249 9.7889 16.6545C9.91908 16.6039 10.0735 16.5291 10.2079 16.4514C10.4793 16.2945 10.6509 16.1682 11.2076 15.7161C11.7664 15.2623 12.1003 15.0778 12.5074 14.9978C12.6104 14.9776 12.9 14.9655 13.0228 14.9763C13.2379 14.9952 13.4772 15.0788 13.6837 15.2071C13.8489 15.3096 14.0157 15.447 14.3261 15.7364C14.6393 16.0282 14.7442 16.1192 14.9174 16.2496C15.289 16.5293 15.6563 16.688 16.085 16.7541C16.2847 16.7849 16.659 16.7842 16.856 16.7526C16.9729 16.7339 17.0614 16.7158 17.1641 16.6898C17.229 16.6733 17.2832 16.6611 17.2846 16.6626C17.2939 16.6731 16.9026 17.1071 16.6798 17.3335C16.1257 17.8962 15.4663 18.4329 14.8007 18.8629C14.5736 19.0096 14.0917 19.284 13.8688 19.3937C13.0001 19.8209 12.1595 20.0812 11.2995 20.1891C10.8102 20.2505 10.2193 20.26 9.76246 20.2139C9.73581 20.2112 9.69417 20.207 9.66994 20.2045C8.17935 20.0517 6.69619 19.3938 5.29045 18.262C4.49337 17.6202 3.7028 16.7926 3.08868 15.9571L3.02058 15.8644L3.12013 15.7758C3.25272 15.6578 3.38879 15.5493 3.52808 15.4505C3.66442 15.3538 3.99132 15.1699 4.12729 15.1134C4.36634 15.0141 4.60476 14.9524 4.8058 14.9379C4.85427 14.9344 4.8959 14.9294 4.89832 14.9267C4.90518 14.9191 5.18477 14.9324 5.26842 14.9443Z" stroke="#45474D" stroke-width="0.4" mask="url(#path-1-outside-1_2052_1805)"/>
</svg>
