<svg width="21" height="26" viewBox="0 0 21 26" fill="none" xmlns="http://www.w3.org/2000/svg">
<g clip-path="url(#clip0_2052_1834)">
<path fill-rule="evenodd" clip-rule="evenodd" d="M12.4174 3.04886C11.1251 3.3501 10.1403 4.39884 9.87797 5.75317C9.78715 6.22191 9.81886 6.9135 9.95104 7.34741C10.1897 8.13096 10.6966 8.82857 11.3204 9.23231C11.5002 9.34868 11.5288 9.38302 11.5288 9.48249C11.5288 9.64995 11.3974 9.90771 11.2447 10.0399C11.0118 10.2413 10.856 10.2661 9.82535 10.2661C8.78681 10.2661 8.61653 10.2383 8.39106 10.0312C8.20429 9.85969 8.12535 9.66838 8.08972 9.3008C8.03586 8.74488 7.769 8.3264 7.3316 8.11197C7.15328 8.02456 7.07825 8.01076 6.78083 8.01076C6.48341 8.01076 6.40839 8.02456 6.23007 8.11197C5.96668 8.24107 5.71438 8.50494 5.59094 8.7804L5.49416 8.99631L5.49514 10.9105L5.49612 12.8248L5.59315 13.196C6.01989 14.8292 7.18742 16.0519 8.75614 16.5083L9.11859 16.6137L11.6557 16.6263C14.2771 16.6393 14.5937 16.6266 15.2302 16.4829C17.0157 16.0798 18.2289 14.8345 18.4888 13.1384C18.5524 12.7227 18.5181 11.9619 18.4174 11.5549C18.1988 10.672 17.7011 9.91378 16.8472 9.16226C16.6032 8.9476 16.2917 8.65519 16.1549 8.51248C15.927 8.27485 15.908 8.24301 15.9289 8.13372C15.9915 7.80629 16.4714 7.61495 17.3823 7.55426C17.6015 7.53963 17.8255 7.50388 17.88 7.47481C18.2316 7.28714 18.1135 6.70995 17.6302 6.25375L17.3938 6.03068L17.5104 5.67569C17.6556 5.23344 17.6951 4.77319 17.6038 4.58848C17.4881 4.35445 17.223 4.29122 16.9556 4.4339C16.7129 4.56342 16.3115 4.69499 16.0956 4.7158L15.8963 4.73502L15.7694 4.51722C15.6996 4.3974 15.5202 4.1692 15.3707 4.01011C14.953 3.56559 14.5609 3.31231 13.9934 3.12028C13.7305 3.03135 13.611 3.01414 13.1779 3.00296C12.8115 2.99348 12.6002 3.00626 12.4174 3.04886ZM13.688 3.9948C14.3533 4.17519 14.9585 4.7116 15.2643 5.39193C15.3872 5.6653 15.5043 5.72679 15.86 5.7045C16.0195 5.69453 16.2511 5.65276 16.3747 5.61171L16.5996 5.53699L16.4744 5.79687C16.2874 6.18533 16.3201 6.41815 16.5859 6.58998C16.6572 6.63603 16.7106 6.67875 16.7046 6.68489C16.6986 6.69099 16.5469 6.73239 16.3675 6.77685C15.9308 6.88507 15.6988 7.00216 15.4674 7.23104C15.2016 7.49395 15.0732 7.77768 15.0521 8.14885C15.0378 8.40013 15.0477 8.46548 15.1262 8.64162C15.2536 8.92743 15.4142 9.10642 16.0385 9.65848C17.0399 10.544 17.3722 11.0102 17.5654 11.8013C17.6586 12.1827 17.6513 12.9137 17.5504 13.3095C17.2527 14.4775 16.3335 15.2897 14.9665 15.5927C14.4553 15.706 13.7785 15.7301 11.5469 15.7141C9.1981 15.6973 9.19618 15.6972 8.66473 15.5041C7.70495 15.1554 6.89015 14.3032 6.55674 13.2994C6.38102 12.7705 6.37345 12.6809 6.35775 10.9485C6.34079 9.08084 6.33793 9.10305 6.61469 8.96174C6.7435 8.89597 6.77003 8.89423 6.90138 8.94278C7.11189 9.02064 7.18264 9.14418 7.21739 9.49446C7.23367 9.65829 7.27176 9.86465 7.30213 9.95309C7.49089 10.5031 7.94532 10.9509 8.48185 11.1155C8.77118 11.2043 10.8795 11.2043 11.1688 11.1155C11.7407 10.94 12.2094 10.4498 12.3772 9.85176C12.4103 9.73376 12.4349 9.50728 12.4348 9.32108C12.4346 8.9374 12.3652 8.77892 12.1574 8.68813C11.7398 8.50566 11.2524 8.05393 11.0254 7.63902C10.4978 6.67454 10.6439 5.46387 11.3838 4.66933C11.9855 4.0233 12.8547 3.76884 13.688 3.9948ZM4.6243 18.4998C4.58443 18.5238 4.47095 18.6101 4.37212 18.6917C3.94849 19.0411 3.28758 19.2888 2.63087 19.3442C2.45146 19.3593 2.26009 19.3957 2.20562 19.4251C1.9236 19.5772 1.934 20.0649 2.22254 20.221C2.3183 20.2728 2.40822 20.2799 2.73841 20.2618C3.36656 20.2274 3.93592 20.048 4.51017 19.7037L4.82491 19.5149L5.10885 19.6875C5.46357 19.903 5.8076 20.0505 6.22289 20.165C6.50538 20.2429 6.62821 20.2539 7.21576 20.2539C7.80332 20.2539 7.92615 20.2429 8.20864 20.165C8.62414 20.0504 8.96795 19.903 9.32329 19.687L9.60788 19.5141L9.89247 19.687C10.2478 19.903 10.5916 20.0504 11.0071 20.165C11.2896 20.2429 11.4124 20.2539 12 20.2539C12.5876 20.2539 12.7104 20.2429 12.9929 20.165C13.4084 20.0504 13.7522 19.903 14.1075 19.687L14.3921 19.5141L14.6767 19.687C15.032 19.903 15.3759 20.0504 15.7914 20.165C16.0738 20.2429 16.1967 20.2539 16.7842 20.2539C17.3718 20.2539 17.4946 20.2429 17.7771 20.165C18.1924 20.0505 18.5364 19.903 18.8911 19.6875L19.1751 19.5149L19.4898 19.7037C20.0641 20.048 20.6334 20.2274 21.2616 20.2618C21.5918 20.2799 21.6817 20.2728 21.7775 20.221C22.066 20.0649 22.0764 19.5772 21.7944 19.4251C21.7399 19.3957 21.5485 19.3593 21.3691 19.3442C20.7305 19.2903 20.0715 19.0483 19.6517 18.7133C19.3742 18.4919 19.3061 18.4542 19.183 18.454C19.0402 18.4537 18.9655 18.4924 18.7256 18.6907C18.4607 18.9097 18.0144 19.131 17.6202 19.2389C17.1245 19.3744 16.4439 19.3744 15.9483 19.2389C15.5747 19.1367 15.1225 18.9168 14.8674 18.7133C14.5899 18.4919 14.5218 18.4542 14.3988 18.454C14.256 18.4537 14.1812 18.4924 13.9413 18.6907C13.6765 18.9097 13.2302 19.131 12.8359 19.2389C12.3403 19.3744 11.6597 19.3744 11.1641 19.2389C10.7905 19.1367 10.3383 18.9168 10.0832 18.7133C9.8057 18.4919 9.7376 18.4542 9.61455 18.454C9.47175 18.4537 9.39701 18.4924 9.15711 18.6907C8.89224 18.9097 8.44593 19.131 8.0517 19.2389C7.55606 19.3744 6.87547 19.3744 6.37983 19.2389C6.00626 19.1367 5.55404 18.9168 5.29895 18.7133C5.21153 18.6435 5.09736 18.5567 5.04524 18.5203C4.93745 18.4451 4.73173 18.4351 4.6243 18.4998ZM4.6243 21.229C4.58443 21.253 4.47095 21.3394 4.37212 21.4209C3.94849 21.7703 3.28758 22.018 2.63087 22.0734C2.45146 22.0885 2.26009 22.1249 2.20562 22.1543C1.9236 22.3064 1.934 22.7941 2.22254 22.9502C2.3183 23.002 2.40822 23.0091 2.73841 22.991C3.36656 22.9566 3.93592 22.7772 4.51017 22.4329L4.82491 22.2441L5.10885 22.4167C5.46357 22.6322 5.8076 22.7797 6.22289 22.8942C6.50538 22.9721 6.62821 22.9831 7.21576 22.9831C7.80332 22.9831 7.92615 22.9721 8.20864 22.8942C8.62414 22.7796 8.96795 22.6322 9.32329 22.4163L9.60788 22.2433L9.89247 22.4163C10.2478 22.6322 10.5916 22.7796 11.0071 22.8942C11.2896 22.9721 11.4124 22.9831 12 22.9831C12.5876 22.9831 12.7104 22.9721 12.9929 22.8942C13.4084 22.7796 13.7522 22.6322 14.1075 22.4163L14.3921 22.2433L14.6767 22.4163C15.032 22.6322 15.3759 22.7796 15.7914 22.8942C16.0738 22.9721 16.1967 22.9831 16.7842 22.9831C17.3718 22.9831 17.4946 22.9721 17.7771 22.8942C18.1924 22.7797 18.5364 22.6322 18.8911 22.4167L19.1751 22.2441L19.4898 22.4329C20.0641 22.7772 20.6334 22.9566 21.2616 22.991C21.5918 23.0091 21.6817 23.002 21.7775 22.9502C22.066 22.7941 22.0764 22.3064 21.7944 22.1543C21.7399 22.1249 21.5485 22.0885 21.3691 22.0734C20.7305 22.0195 20.0715 21.7775 19.6517 21.4425C19.3742 21.2211 19.3061 21.1834 19.183 21.1832C19.0402 21.183 18.9655 21.2216 18.7256 21.4199C18.4607 21.6389 18.0144 21.8602 17.6202 21.9681C17.1245 22.1037 16.4439 22.1037 15.9483 21.9681C15.5747 21.8659 15.1225 21.646 14.8674 21.4425C14.5899 21.2211 14.5218 21.1834 14.3988 21.1832C14.256 21.183 14.1812 21.2216 13.9413 21.4199C13.6765 21.6389 13.2302 21.8602 12.8359 21.9681C12.5487 22.0466 12.4055 22.0629 12 22.0629C11.5945 22.0629 11.4513 22.0466 11.1641 21.9681C10.7905 21.8659 10.3383 21.646 10.0832 21.4425C9.8057 21.2211 9.7376 21.1834 9.61455 21.1832C9.47175 21.183 9.39701 21.2216 9.15711 21.4199C8.89224 21.6389 8.44593 21.8602 8.0517 21.9681C7.55606 22.1037 6.87547 22.1037 6.37983 21.9681C6.00626 21.8659 5.55404 21.646 5.29895 21.4425C5.21153 21.3727 5.09736 21.2859 5.04524 21.2495C4.93745 21.1743 4.73173 21.1643 4.6243 21.229Z" fill="#45474D"/>
</g>
<defs>
<clipPath id="clip0_2052_1834">
<rect width="21" height="25.8462" fill="white" transform="translate(0 0.0769043)"/>
</clipPath>
</defs>
</svg>
