<svg width="28" height="28" viewBox="0 0 28 28" fill="none" xmlns="http://www.w3.org/2000/svg">
<path fill-rule="evenodd" clip-rule="evenodd" d="M19.3291 3.0463C18.0743 3.32443 17.069 3.89824 16.1889 4.83868C15.4743 5.60234 14.9831 6.49151 14.7104 7.51532C14.5798 8.00539 14.5678 8.13718 14.5659 9.10206C14.5644 9.84167 14.5459 10.1544 14.5037 10.1544C14.4707 10.1544 14.0972 10.1125 13.6738 10.0614C13.1047 9.99265 12.45 9.96773 11.1637 9.9657C9.01586 9.96237 8.05015 10.0529 6.18932 10.4323C4.9718 10.6805 4.73685 10.7659 4.42967 11.0716C4.18937 11.3107 4.13337 11.4241 3.66642 12.6185L3.16247 13.9073L2.93111 13.7269C2.59325 13.4637 2.39766 13.4228 1.57502 13.4433C0.873395 13.4609 0.838485 13.4674 0.585922 13.627C0.423901 13.7293 0.262308 13.8944 0.162021 14.06C0.018633 14.2969 0 14.3757 0 14.7462C0 15.1166 0.018633 15.1954 0.162021 15.4323C0.262308 15.5979 0.423901 15.763 0.585922 15.8653C0.832435 16.0211 0.884693 16.0318 1.48132 16.049C1.82984 16.059 2.11495 16.077 2.11495 16.0888C2.11495 16.1007 1.90051 16.4412 1.63842 16.8455C1.16869 17.57 0.982998 17.9646 0.879767 18.4581C0.847587 18.612 0.832917 20.0564 0.841912 22.1848L0.85669 25.6603L1.01871 25.9279C1.11916 26.0937 1.28048 26.2583 1.44288 26.3609L1.70497 26.5263H2.97164H4.23831L4.50041 26.3609C4.66259 26.2585 4.82429 26.0935 4.92457 25.9281C5.08451 25.6642 5.08681 25.6497 5.10368 24.7953L5.12076 23.9298H11.1102H17.0996L17.1167 24.7953C17.1336 25.6497 17.1359 25.6642 17.2958 25.9281C17.3961 26.0935 17.5578 26.2585 17.72 26.3609L17.9821 26.5263H19.2487H20.5154L20.7775 26.3609C20.9399 26.2583 21.1012 26.0937 21.2017 25.9279L21.3637 25.6603L21.3785 22.1848C21.3875 20.0564 21.3728 18.612 21.3406 18.4581C21.2301 17.9297 21.0355 17.5458 20.3146 16.433C19.9051 15.8009 19.57 15.2517 19.57 15.2126C19.57 15.1565 19.7146 15.1475 20.2575 15.17C21.9428 15.2398 23.4193 14.6856 24.6386 13.5255C25.5991 12.6115 26.2286 11.4223 26.4545 10.095C26.5807 9.35352 26.5366 8.23279 26.3531 7.5192C25.8076 5.39763 24.1372 3.68827 22.0598 3.12589C21.315 2.92429 20.0464 2.88733 19.3291 3.0463ZM21.8188 4.01019C23.5997 4.47101 25.0187 5.92601 25.492 7.77645C25.6093 8.23536 25.6318 8.4415 25.6318 9.06106C25.6318 9.68063 25.6093 9.88677 25.492 10.3457C25.0161 12.2058 23.6176 13.634 21.792 14.124C21.0284 14.329 20.047 14.3286 19.2755 14.123C17.4533 13.6374 16.0513 12.2061 15.5757 10.3457C15.3743 9.55807 15.3739 8.55608 15.5747 7.77645C16.1122 5.68888 17.7983 4.16719 19.9046 3.86856C20.3992 3.79842 21.2413 3.86074 21.8188 4.01019ZM19.9066 4.76412C19.349 4.94965 18.8164 5.43453 18.5623 5.98795L18.4188 6.30052V8.18644V10.0724L18.5632 10.3868C18.7568 10.8086 19.1866 11.2621 19.5858 11.4657C19.7632 11.5562 19.9527 11.6303 20.0069 11.6303C20.0948 11.6303 20.1054 11.6802 20.1054 12.0949V12.5596H19.2487H18.3921V12.9969V13.4342H20.5338H22.6755V12.9969V12.5596H21.8188H20.9621V12.0949C20.9621 11.6802 20.9727 11.6303 21.0606 11.6303C21.1148 11.6303 21.3044 11.5562 21.4818 11.4657C21.881 11.2621 22.3108 10.8086 22.5044 10.3868L22.6487 10.0724V8.18529V6.29822L22.4756 5.93919C22.2634 5.49908 21.8313 5.06609 21.404 4.8652C21.0317 4.69022 20.281 4.63954 19.9066 4.76412ZM20.9038 5.64815C21.2865 5.76421 21.6213 6.10602 21.735 6.49671C21.7811 6.65529 21.8188 6.80512 21.8188 6.82978C21.8188 6.85438 21.6261 6.87449 21.3905 6.87449H20.9621V7.31181V7.74912H21.3905H21.8188V8.18644V8.62375H21.3905H20.9621V9.06106V9.49838H21.3905C21.6261 9.49838 21.8188 9.5185 21.8188 9.54309C21.8188 9.56775 21.7811 9.71758 21.735 9.87616C21.5532 10.5009 20.898 10.8987 20.2824 10.7581C19.7774 10.6427 19.381 10.2169 19.275 9.67604L19.2402 9.49838H19.6729H20.1054V9.06106V8.62375H19.6771H19.2487V8.18644V7.74912H19.6771H20.1054V7.31181V6.87449H19.6771C19.4415 6.87449 19.2487 6.85438 19.2487 6.82978C19.2487 6.80512 19.2865 6.65529 19.3326 6.49671C19.4423 6.11969 19.7827 5.76377 20.1413 5.65127C20.4776 5.54582 20.5651 5.54544 20.9038 5.64815ZM12.1324 10.8654C13.0649 10.9099 14.8496 11.0941 14.8791 11.149C14.884 11.1582 14.9641 11.3448 15.0569 11.5638L15.2257 11.9618L15.0554 11.9326C13.5313 11.6712 9.93674 11.6139 8.03468 11.8206C6.78048 11.957 5.86752 12.1066 5.73034 12.1984C5.59906 12.2863 5.49095 12.5478 4.83939 14.3544L4.49762 15.3019L4.06928 15.2652C3.83369 15.245 3.63531 15.2229 3.62851 15.216C3.58626 15.1738 4.93769 11.8512 5.04574 11.7316C5.14539 11.6212 5.29295 11.5594 5.66695 11.4715C7.13355 11.1267 8.79911 10.9024 10.307 10.8468C10.5279 10.8387 10.7809 10.8277 10.8693 10.8224C10.9576 10.817 11.526 10.8364 12.1324 10.8654ZM13.4125 12.6719C14.4926 12.759 15.8439 12.9443 15.9093 13.0142C15.9683 13.0772 16.7858 15.2602 16.7858 15.3547C16.7858 15.3807 16.667 15.4021 16.5219 15.4021H16.2579L16.1995 15.1151C16.0304 14.2843 15.3116 13.5974 14.4429 13.4366C13.311 13.2271 12.1196 14.1206 11.9851 15.28L11.9532 15.5552L11.6789 15.5889C11.172 15.6509 5.53148 15.4527 5.44068 15.3697C5.42927 15.3592 5.6179 14.8119 5.85986 14.1533L6.29977 12.956L6.95145 12.8689C9.17322 12.5718 11.3501 12.5055 13.4125 12.6719ZM2.38679 14.4686C2.51867 14.6033 2.5433 14.6721 2.5433 14.9059V15.1835H1.84311H1.14293L0.986425 15.0237C0.788476 14.8216 0.788476 14.6707 0.986425 14.4686C1.13886 14.313 1.15712 14.3088 1.68661 14.3088C2.2161 14.3088 2.23435 14.313 2.38679 14.4686ZM14.6856 14.4666C14.8043 14.5284 14.9767 14.672 15.0687 14.7856C15.2387 14.9955 15.3858 15.3737 15.3225 15.4383C15.2798 15.482 14.0555 15.5593 13.3446 15.5632L12.8215 15.5661L12.8564 15.4158C12.9858 14.8592 13.2776 14.527 13.787 14.3567C13.9952 14.2871 14.4471 14.3424 14.6856 14.4666ZM17.9638 14.5922C18.3915 14.8064 18.4831 14.8755 18.5384 15.0254C18.5747 15.1234 18.5988 15.2092 18.5919 15.216C18.5851 15.2229 18.3867 15.2455 18.1511 15.2662L17.7228 15.3039L17.5621 14.8496C17.4738 14.5998 17.3925 14.3728 17.3814 14.3452C17.3577 14.2859 17.3252 14.2722 17.9638 14.5922ZM4.87242 16.2472C7.03144 16.4346 7.97846 16.4681 11.1102 16.4681C14.3436 16.4681 15.1548 16.4373 17.6656 16.2194C18.341 16.1607 18.925 16.1128 18.9636 16.1128C19.0505 16.1128 20.279 17.9815 20.2249 18.0314C20.2034 18.0514 19.581 18.1702 18.8418 18.2955C17.2643 18.5628 17.1932 18.5823 16.8621 18.8402C16.3418 19.2454 16.1188 19.9987 16.3285 20.6432C16.4597 21.0465 16.8687 21.487 17.2457 21.631C17.5163 21.7344 17.6578 21.7432 19.0439 21.7432H20.5485L20.5208 22.0951C20.4887 22.5031 20.3574 22.7575 20.0957 22.9185C19.92 23.0266 19.8231 23.0278 11.1102 23.0278C2.39729 23.0278 2.30043 23.0266 2.12464 22.9185C1.86303 22.7575 1.73169 22.5031 1.69962 22.0951L1.67194 21.7432H3.1765C4.96125 21.7432 5.07963 21.7176 5.52704 21.2346C6.35835 20.3372 5.96069 18.8761 4.79757 18.5542C4.6326 18.5085 3.94345 18.3796 3.26613 18.2678C2.58881 18.1559 2.01702 18.0489 1.99544 18.0298C1.97392 18.0108 2.23521 17.5685 2.57612 17.0469L3.19599 16.0986L3.57909 16.1334C3.78978 16.1526 4.37179 16.2038 4.87242 16.2472ZM3.28123 19.1934C4.75067 19.4487 4.84758 19.4848 5.02266 19.8441C5.20498 20.2182 4.98936 20.6981 4.58789 20.812C4.47738 20.8433 3.79551 20.8681 3.03857 20.8682L1.68661 20.8686V19.9119C1.68661 18.9559 1.68666 18.9553 1.80708 18.9568C1.87331 18.9577 2.53671 19.0641 3.28123 19.1934ZM20.5217 19.9256L20.5363 20.8686L19.1831 20.8682C18.4253 20.8681 17.743 20.8433 17.6325 20.812C17.231 20.6981 17.0154 20.2182 17.1977 19.8441C17.3717 19.4871 17.4712 19.4495 18.9116 19.1972C19.6418 19.0693 20.2995 18.9687 20.3732 18.9736L20.507 18.9826L20.5217 19.9256ZM6.95407 19.695C6.82059 19.8312 6.81877 19.8444 6.83601 20.5605C6.85288 21.2599 6.85973 21.2979 7.01554 21.555C7.11583 21.7204 7.27753 21.8854 7.43971 21.9878L7.7018 22.1532H11.1102H14.5186L14.7807 21.9878C14.9429 21.8854 15.1046 21.7204 15.2049 21.555C15.3607 21.2979 15.3675 21.2599 15.3844 20.5605C15.4016 19.8444 15.3998 19.8312 15.2663 19.695L15.1308 19.5566H11.1102H7.08959L6.95407 19.695ZM14.537 20.7088C14.537 20.9426 14.5123 21.0114 14.3804 21.1461L14.2239 21.3059H11.1102H7.99645L7.83994 21.1461C7.70807 21.0114 7.68344 20.9426 7.68344 20.7088V20.4312H11.1102H14.537V20.7088ZM3.23995 23.9298H4.25668V24.6446V25.3594L4.10017 25.5192L3.94366 25.679H2.97164H1.99962L1.84311 25.5192L1.68661 25.3594V24.5405V23.7216L1.95491 23.8257C2.18445 23.9147 2.36993 23.9298 3.23995 23.9298ZM20.5338 24.5353V25.3594L20.3773 25.5192L20.2208 25.679H19.2487H18.2767L18.1202 25.5192L17.9637 25.3594V24.6446V23.9298L18.9944 23.9268C20.0283 23.9238 20.033 23.9231 20.5204 23.7168C20.5277 23.7137 20.5338 24.082 20.5338 24.5353Z" fill="#45474D"/>
<ellipse cx="20.632" cy="9.2842" rx="4.42105" ry="4.86316" fill="white"/>
<path d="M17.6836 12.6737V5.89474H21.0748C21.4389 5.89474 21.7727 5.95839 22.0762 6.08569C22.3797 6.213 22.6452 6.38168 22.8728 6.59173C23.1004 6.80178 23.2749 7.03729 23.3963 7.29827C23.5176 7.55924 23.5783 7.82658 23.5783 8.10028C23.5783 8.47583 23.4759 8.83546 23.2711 9.17918C23.0738 9.51654 22.7893 9.79025 22.4176 10.0003C22.0534 10.2103 21.6286 10.3154 21.1431 10.3154H18.9581V12.6737H17.6836ZM18.9581 9.37014H21.0634C21.3062 9.37014 21.5186 9.31604 21.7007 9.20783C21.8827 9.09325 22.0231 8.94049 22.1217 8.74953C22.2279 8.55858 22.281 8.34216 22.281 8.10028C22.281 7.85204 22.2203 7.63244 22.099 7.44148C21.9776 7.25053 21.8183 7.10413 21.621 7.00228C21.4313 6.89408 21.2227 6.83997 20.9951 6.83997H18.9581V9.37014Z" fill="#45474D"/>
</svg>
