<svg width="21" height="26" viewBox="0 0 21 26" fill="none" xmlns="http://www.w3.org/2000/svg">
<g clip-path="url(#clip0_2052_1809)">
<mask id="path-1-outside-1_2052_1809" maskUnits="userSpaceOnUse" x="-3.76879" y="-1.83414" width="28.2843" height="28.2843" fill="black">
<rect fill="white" x="-3.76879" y="-1.83414" width="28.2843" height="28.2843"/>
<path fill-rule="evenodd" clip-rule="evenodd" d="M11.3543 3.43527C10.9516 3.17797 10.379 3.16411 9.97443 3.40187C9.89068 3.45109 9.77152 3.55253 9.62313 3.70092L9.39857 3.92547L8.87149 3.39838C8.28175 2.80865 8.22532 2.7656 7.91667 2.67002C7.57022 2.56273 7.1701 2.61405 6.8441 2.80759C6.68981 2.89918 6.62282 2.96158 5.86173 3.72268L5.04494 4.53947L4.70138 4.19591C4.4044 3.89893 4.33872 3.84244 4.21689 3.77917C3.96794 3.64988 3.68916 3.6453 3.42108 3.76608C3.31737 3.81279 3.24622 3.87878 2.56534 4.55966C1.85539 5.26961 1.8201 5.30796 1.76401 5.43083C1.64726 5.68645 1.65888 5.98812 1.79503 6.23732C1.8447 6.32821 1.93881 6.43476 2.20097 6.69692L2.54226 7.0382L1.69048 7.90144C0.860158 8.74294 0.836804 8.76849 0.763207 8.9158C0.607587 9.22734 0.577786 9.61908 0.684788 9.94672C0.774543 10.2215 0.833696 10.2973 1.4045 10.8681L1.9267 11.3903L1.66755 11.6634C1.43512 11.9083 1.40219 11.9516 1.34815 12.0834C1.18697 12.4764 1.19389 12.8307 1.37048 13.2298C1.43828 13.383 1.44414 13.3897 2.01424 13.9714C2.66084 14.6311 2.76691 14.7165 3.05892 14.8124C3.25162 14.8756 3.57034 14.8921 3.76705 14.8489C3.84369 14.832 3.97687 14.7872 4.06302 14.7492L4.21967 14.6801L5.71554 13.1937L7.2114 11.7074L9.06386 13.5598L10.9163 15.4123L9.47247 16.8561C8.4905 17.8381 8.00591 18.3345 7.95758 18.4079C7.75225 18.7201 7.689 19.2238 7.81171 19.5698C7.91316 19.8558 7.99033 19.9534 8.59052 20.5542C9.07021 21.0344 9.14875 21.1057 9.29091 21.1898C9.59405 21.3692 9.88463 21.4244 10.2168 21.3658C10.5489 21.3073 10.6404 21.2566 10.959 20.9548L11.2323 20.6959L11.7488 21.2119C12.3156 21.7782 12.4073 21.8501 12.6718 21.9365C13.0035 22.0448 13.3932 22.0159 13.707 21.8596C13.8547 21.786 13.8784 21.7643 14.7212 20.9322L15.5842 20.0801L15.9268 20.4228C16.223 20.7189 16.2887 20.7754 16.4105 20.8387C16.6671 20.9719 16.9851 20.9707 17.2363 20.8354C17.39 20.7527 18.7575 19.3853 18.8402 19.2316C18.9754 18.9804 18.9767 18.6623 18.8434 18.4057C18.7802 18.2839 18.7237 18.2182 18.4276 17.9221L18.0849 17.5794L18.9369 16.7164C19.7643 15.8785 19.7911 15.8492 19.8628 15.7052C19.9545 15.5207 20.0128 15.2584 20.0103 15.0411C20.008 14.8475 19.9024 14.512 19.7941 14.3545C19.7534 14.2954 19.4907 14.0176 19.2104 13.7373L18.7007 13.2276L18.9596 12.9542C19.2613 12.6357 19.312 12.5441 19.3706 12.212C19.4105 11.9859 19.3949 11.7676 19.3235 11.555C19.2317 11.281 19.2056 11.2487 18.5325 10.5756C17.9249 9.968 17.9054 9.95042 17.7574 9.87865C17.377 9.69404 16.9312 9.69351 16.5374 9.87721C16.4108 9.93626 16.3721 9.97305 14.9118 11.4241L13.416 12.9105L11.564 11.0586L9.71211 9.20664L11.1984 7.71071L12.6848 6.21475L12.7469 6.07682C12.8366 5.87771 12.873 5.71973 12.8786 5.50521C12.8846 5.27859 12.8519 5.11507 12.7569 4.89551L12.6859 4.73151L12.0921 4.12935C11.6082 3.63867 11.4716 3.51019 11.3543 3.43527ZM11.9773 5.35444C12.0169 5.47715 11.9987 5.59264 11.9215 5.70839C11.888 5.75857 10.0808 7.57678 7.7876 9.86732L3.71316 13.9371L3.60496 13.9711C3.53647 13.9926 3.45417 13.994 3.38069 13.9749L3.26462 13.9448L2.72393 13.4041C2.38184 13.062 2.17246 12.8393 2.15386 12.7979C2.11205 12.7049 2.11227 12.594 2.15448 12.4798C2.18963 12.3847 2.3408 12.2312 6.28437 8.28697C10.7397 3.83081 10.433 4.125 10.6326 4.11649C10.7901 4.10977 10.8196 4.13271 11.4008 4.71247C11.9108 5.22119 11.9474 5.26201 11.9773 5.35444ZM18.4976 11.9223C18.5058 11.9841 18.4954 12.0801 18.4745 12.1357C18.4376 12.2335 18.3047 12.3684 14.339 16.3342C10.3732 20.3 10.2383 20.4329 10.1405 20.4697C10.0849 20.4906 9.98886 20.501 9.92705 20.4928L9.81466 20.4779L9.24671 19.9197L8.67879 19.3615L8.64818 19.2437C8.62867 19.1685 8.62989 19.0867 8.65156 19.0177L8.68553 18.9095L12.7553 14.835C15.0458 12.5419 16.8641 10.7346 16.9142 10.7011C17.0278 10.6254 17.1438 10.6058 17.2641 10.6422C17.3536 10.6693 17.3909 10.7033 17.9208 11.2404L18.4827 11.8099L18.4976 11.9223ZM5.66441 7.65964L2.55541 10.7686L2.07186 10.2836C1.48231 9.69225 1.45108 9.64118 1.53013 9.39832C1.55998 9.30658 1.6481 9.21654 4.4357 6.42894C7.57115 3.29349 7.35978 3.49237 7.55061 3.49805C7.70747 3.5027 7.77267 3.553 8.28835 4.06709L8.7734 4.55065L5.66441 7.65964ZM19.0841 14.9223C19.1107 14.9825 19.1243 15.0736 19.1169 15.1423L19.1043 15.2595L16.212 18.1605C13.3555 21.0256 13.3185 21.0618 13.2205 21.0937C13.1118 21.1292 13.0041 21.1183 12.8859 21.0601C12.8351 21.0351 12.6478 20.8611 12.3316 20.5448L11.854 20.0672L14.963 16.9582L18.072 13.8492L18.5554 14.3344C18.968 14.7487 19.0454 14.8347 19.0841 14.9223ZM3.79666 5.78771L3.17784 6.40653L2.87358 6.10437L2.56931 5.80223L3.18711 5.18444L3.8049 4.56668L4.11019 4.86778L4.41552 5.16888L3.79666 5.78771ZM12.1662 14.1624L11.549 14.7795L9.6965 12.9261L7.84399 11.0727L8.46088 10.4558L9.07776 9.8389L10.9306 11.692L12.7834 13.5452L12.1662 14.1624ZM17.4413 19.4323L16.8225 20.0512L16.5182 19.749L16.214 19.4469L16.8317 18.8291L17.4495 18.2113L17.7548 18.5124L18.0602 18.8135L17.4413 19.4323Z"/>
</mask>
<path fill-rule="evenodd" clip-rule="evenodd" d="M11.3543 3.43527C10.9516 3.17797 10.379 3.16411 9.97443 3.40187C9.89068 3.45109 9.77152 3.55253 9.62313 3.70092L9.39857 3.92547L8.87149 3.39838C8.28175 2.80865 8.22532 2.7656 7.91667 2.67002C7.57022 2.56273 7.1701 2.61405 6.8441 2.80759C6.68981 2.89918 6.62282 2.96158 5.86173 3.72268L5.04494 4.53947L4.70138 4.19591C4.4044 3.89893 4.33872 3.84244 4.21689 3.77917C3.96794 3.64988 3.68916 3.6453 3.42108 3.76608C3.31737 3.81279 3.24622 3.87878 2.56534 4.55966C1.85539 5.26961 1.8201 5.30796 1.76401 5.43083C1.64726 5.68645 1.65888 5.98812 1.79503 6.23732C1.8447 6.32821 1.93881 6.43476 2.20097 6.69692L2.54226 7.0382L1.69048 7.90144C0.860158 8.74294 0.836804 8.76849 0.763207 8.9158C0.607587 9.22734 0.577786 9.61908 0.684788 9.94672C0.774543 10.2215 0.833696 10.2973 1.4045 10.8681L1.9267 11.3903L1.66755 11.6634C1.43512 11.9083 1.40219 11.9516 1.34815 12.0834C1.18697 12.4764 1.19389 12.8307 1.37048 13.2298C1.43828 13.383 1.44414 13.3897 2.01424 13.9714C2.66084 14.6311 2.76691 14.7165 3.05892 14.8124C3.25162 14.8756 3.57034 14.8921 3.76705 14.8489C3.84369 14.832 3.97687 14.7872 4.06302 14.7492L4.21967 14.6801L5.71554 13.1937L7.2114 11.7074L9.06386 13.5598L10.9163 15.4123L9.47247 16.8561C8.4905 17.8381 8.00591 18.3345 7.95758 18.4079C7.75225 18.7201 7.689 19.2238 7.81171 19.5698C7.91316 19.8558 7.99033 19.9534 8.59052 20.5542C9.07021 21.0344 9.14875 21.1057 9.29091 21.1898C9.59405 21.3692 9.88463 21.4244 10.2168 21.3658C10.5489 21.3073 10.6404 21.2566 10.959 20.9548L11.2323 20.6959L11.7488 21.2119C12.3156 21.7782 12.4073 21.8501 12.6718 21.9365C13.0035 22.0448 13.3932 22.0159 13.707 21.8596C13.8547 21.786 13.8784 21.7643 14.7212 20.9322L15.5842 20.0801L15.9268 20.4228C16.223 20.7189 16.2887 20.7754 16.4105 20.8387C16.6671 20.9719 16.9851 20.9707 17.2363 20.8354C17.39 20.7527 18.7575 19.3853 18.8402 19.2316C18.9754 18.9804 18.9767 18.6623 18.8434 18.4057C18.7802 18.2839 18.7237 18.2182 18.4276 17.9221L18.0849 17.5794L18.9369 16.7164C19.7643 15.8785 19.7911 15.8492 19.8628 15.7052C19.9545 15.5207 20.0128 15.2584 20.0103 15.0411C20.008 14.8475 19.9024 14.512 19.7941 14.3545C19.7534 14.2954 19.4907 14.0176 19.2104 13.7373L18.7007 13.2276L18.9596 12.9542C19.2613 12.6357 19.312 12.5441 19.3706 12.212C19.4105 11.9859 19.3949 11.7676 19.3235 11.555C19.2317 11.281 19.2056 11.2487 18.5325 10.5756C17.9249 9.968 17.9054 9.95042 17.7574 9.87865C17.377 9.69404 16.9312 9.69351 16.5374 9.87721C16.4108 9.93626 16.3721 9.97305 14.9118 11.4241L13.416 12.9105L11.564 11.0586L9.71211 9.20664L11.1984 7.71071L12.6848 6.21475L12.7469 6.07682C12.8366 5.87771 12.873 5.71973 12.8786 5.50521C12.8846 5.27859 12.8519 5.11507 12.7569 4.89551L12.6859 4.73151L12.0921 4.12935C11.6082 3.63867 11.4716 3.51019 11.3543 3.43527ZM11.9773 5.35444C12.0169 5.47715 11.9987 5.59264 11.9215 5.70839C11.888 5.75857 10.0808 7.57678 7.7876 9.86732L3.71316 13.9371L3.60496 13.9711C3.53647 13.9926 3.45417 13.994 3.38069 13.9749L3.26462 13.9448L2.72393 13.4041C2.38184 13.062 2.17246 12.8393 2.15386 12.7979C2.11205 12.7049 2.11227 12.594 2.15448 12.4798C2.18963 12.3847 2.3408 12.2312 6.28437 8.28697C10.7397 3.83081 10.433 4.125 10.6326 4.11649C10.7901 4.10977 10.8196 4.13271 11.4008 4.71247C11.9108 5.22119 11.9474 5.26201 11.9773 5.35444ZM18.4976 11.9223C18.5058 11.9841 18.4954 12.0801 18.4745 12.1357C18.4376 12.2335 18.3047 12.3684 14.339 16.3342C10.3732 20.3 10.2383 20.4329 10.1405 20.4697C10.0849 20.4906 9.98886 20.501 9.92705 20.4928L9.81466 20.4779L9.24671 19.9197L8.67879 19.3615L8.64818 19.2437C8.62867 19.1685 8.62989 19.0867 8.65156 19.0177L8.68553 18.9095L12.7553 14.835C15.0458 12.5419 16.8641 10.7346 16.9142 10.7011C17.0278 10.6254 17.1438 10.6058 17.2641 10.6422C17.3536 10.6693 17.3909 10.7033 17.9208 11.2404L18.4827 11.8099L18.4976 11.9223ZM5.66441 7.65964L2.55541 10.7686L2.07186 10.2836C1.48231 9.69225 1.45108 9.64118 1.53013 9.39832C1.55998 9.30658 1.6481 9.21654 4.4357 6.42894C7.57115 3.29349 7.35978 3.49237 7.55061 3.49805C7.70747 3.5027 7.77267 3.553 8.28835 4.06709L8.7734 4.55065L5.66441 7.65964ZM19.0841 14.9223C19.1107 14.9825 19.1243 15.0736 19.1169 15.1423L19.1043 15.2595L16.212 18.1605C13.3555 21.0256 13.3185 21.0618 13.2205 21.0937C13.1118 21.1292 13.0041 21.1183 12.8859 21.0601C12.8351 21.0351 12.6478 20.8611 12.3316 20.5448L11.854 20.0672L14.963 16.9582L18.072 13.8492L18.5554 14.3344C18.968 14.7487 19.0454 14.8347 19.0841 14.9223ZM3.79666 5.78771L3.17784 6.40653L2.87358 6.10437L2.56931 5.80223L3.18711 5.18444L3.8049 4.56668L4.11019 4.86778L4.41552 5.16888L3.79666 5.78771ZM12.1662 14.1624L11.549 14.7795L9.6965 12.9261L7.84399 11.0727L8.46088 10.4558L9.07776 9.8389L10.9306 11.692L12.7834 13.5452L12.1662 14.1624ZM17.4413 19.4323L16.8225 20.0512L16.5182 19.749L16.214 19.4469L16.8317 18.8291L17.4495 18.2113L17.7548 18.5124L18.0602 18.8135L17.4413 19.4323Z" fill="#45474D"/>
<path fill-rule="evenodd" clip-rule="evenodd" d="M11.3543 3.43527C10.9516 3.17797 10.379 3.16411 9.97443 3.40187C9.89068 3.45109 9.77152 3.55253 9.62313 3.70092L9.39857 3.92547L8.87149 3.39838C8.28175 2.80865 8.22532 2.7656 7.91667 2.67002C7.57022 2.56273 7.1701 2.61405 6.8441 2.80759C6.68981 2.89918 6.62282 2.96158 5.86173 3.72268L5.04494 4.53947L4.70138 4.19591C4.4044 3.89893 4.33872 3.84244 4.21689 3.77917C3.96794 3.64988 3.68916 3.6453 3.42108 3.76608C3.31737 3.81279 3.24622 3.87878 2.56534 4.55966C1.85539 5.26961 1.8201 5.30796 1.76401 5.43083C1.64726 5.68645 1.65888 5.98812 1.79503 6.23732C1.8447 6.32821 1.93881 6.43476 2.20097 6.69692L2.54226 7.0382L1.69048 7.90144C0.860158 8.74294 0.836804 8.76849 0.763207 8.9158C0.607587 9.22734 0.577786 9.61908 0.684788 9.94672C0.774543 10.2215 0.833696 10.2973 1.4045 10.8681L1.9267 11.3903L1.66755 11.6634C1.43512 11.9083 1.40219 11.9516 1.34815 12.0834C1.18697 12.4764 1.19389 12.8307 1.37048 13.2298C1.43828 13.383 1.44414 13.3897 2.01424 13.9714C2.66084 14.6311 2.76691 14.7165 3.05892 14.8124C3.25162 14.8756 3.57034 14.8921 3.76705 14.8489C3.84369 14.832 3.97687 14.7872 4.06302 14.7492L4.21967 14.6801L5.71554 13.1937L7.2114 11.7074L9.06386 13.5598L10.9163 15.4123L9.47247 16.8561C8.4905 17.8381 8.00591 18.3345 7.95758 18.4079C7.75225 18.7201 7.689 19.2238 7.81171 19.5698C7.91316 19.8558 7.99033 19.9534 8.59052 20.5542C9.07021 21.0344 9.14875 21.1057 9.29091 21.1898C9.59405 21.3692 9.88463 21.4244 10.2168 21.3658C10.5489 21.3073 10.6404 21.2566 10.959 20.9548L11.2323 20.6959L11.7488 21.2119C12.3156 21.7782 12.4073 21.8501 12.6718 21.9365C13.0035 22.0448 13.3932 22.0159 13.707 21.8596C13.8547 21.786 13.8784 21.7643 14.7212 20.9322L15.5842 20.0801L15.9268 20.4228C16.223 20.7189 16.2887 20.7754 16.4105 20.8387C16.6671 20.9719 16.9851 20.9707 17.2363 20.8354C17.39 20.7527 18.7575 19.3853 18.8402 19.2316C18.9754 18.9804 18.9767 18.6623 18.8434 18.4057C18.7802 18.2839 18.7237 18.2182 18.4276 17.9221L18.0849 17.5794L18.9369 16.7164C19.7643 15.8785 19.7911 15.8492 19.8628 15.7052C19.9545 15.5207 20.0128 15.2584 20.0103 15.0411C20.008 14.8475 19.9024 14.512 19.7941 14.3545C19.7534 14.2954 19.4907 14.0176 19.2104 13.7373L18.7007 13.2276L18.9596 12.9542C19.2613 12.6357 19.312 12.5441 19.3706 12.212C19.4105 11.9859 19.3949 11.7676 19.3235 11.555C19.2317 11.281 19.2056 11.2487 18.5325 10.5756C17.9249 9.968 17.9054 9.95042 17.7574 9.87865C17.377 9.69404 16.9312 9.69351 16.5374 9.87721C16.4108 9.93626 16.3721 9.97305 14.9118 11.4241L13.416 12.9105L11.564 11.0586L9.71211 9.20664L11.1984 7.71071L12.6848 6.21475L12.7469 6.07682C12.8366 5.87771 12.873 5.71973 12.8786 5.50521C12.8846 5.27859 12.8519 5.11507 12.7569 4.89551L12.6859 4.73151L12.0921 4.12935C11.6082 3.63867 11.4716 3.51019 11.3543 3.43527ZM11.9773 5.35444C12.0169 5.47715 11.9987 5.59264 11.9215 5.70839C11.888 5.75857 10.0808 7.57678 7.7876 9.86732L3.71316 13.9371L3.60496 13.9711C3.53647 13.9926 3.45417 13.994 3.38069 13.9749L3.26462 13.9448L2.72393 13.4041C2.38184 13.062 2.17246 12.8393 2.15386 12.7979C2.11205 12.7049 2.11227 12.594 2.15448 12.4798C2.18963 12.3847 2.3408 12.2312 6.28437 8.28697C10.7397 3.83081 10.433 4.125 10.6326 4.11649C10.7901 4.10977 10.8196 4.13271 11.4008 4.71247C11.9108 5.22119 11.9474 5.26201 11.9773 5.35444ZM18.4976 11.9223C18.5058 11.9841 18.4954 12.0801 18.4745 12.1357C18.4376 12.2335 18.3047 12.3684 14.339 16.3342C10.3732 20.3 10.2383 20.4329 10.1405 20.4697C10.0849 20.4906 9.98886 20.501 9.92705 20.4928L9.81466 20.4779L9.24671 19.9197L8.67879 19.3615L8.64818 19.2437C8.62867 19.1685 8.62989 19.0867 8.65156 19.0177L8.68553 18.9095L12.7553 14.835C15.0458 12.5419 16.8641 10.7346 16.9142 10.7011C17.0278 10.6254 17.1438 10.6058 17.2641 10.6422C17.3536 10.6693 17.3909 10.7033 17.9208 11.2404L18.4827 11.8099L18.4976 11.9223ZM5.66441 7.65964L2.55541 10.7686L2.07186 10.2836C1.48231 9.69225 1.45108 9.64118 1.53013 9.39832C1.55998 9.30658 1.6481 9.21654 4.4357 6.42894C7.57115 3.29349 7.35978 3.49237 7.55061 3.49805C7.70747 3.5027 7.77267 3.553 8.28835 4.06709L8.7734 4.55065L5.66441 7.65964ZM19.0841 14.9223C19.1107 14.9825 19.1243 15.0736 19.1169 15.1423L19.1043 15.2595L16.212 18.1605C13.3555 21.0256 13.3185 21.0618 13.2205 21.0937C13.1118 21.1292 13.0041 21.1183 12.8859 21.0601C12.8351 21.0351 12.6478 20.8611 12.3316 20.5448L11.854 20.0672L14.963 16.9582L18.072 13.8492L18.5554 14.3344C18.968 14.7487 19.0454 14.8347 19.0841 14.9223ZM3.79666 5.78771L3.17784 6.40653L2.87358 6.10437L2.56931 5.80223L3.18711 5.18444L3.8049 4.56668L4.11019 4.86778L4.41552 5.16888L3.79666 5.78771ZM12.1662 14.1624L11.549 14.7795L9.6965 12.9261L7.84399 11.0727L8.46088 10.4558L9.07776 9.8389L10.9306 11.692L12.7834 13.5452L12.1662 14.1624ZM17.4413 19.4323L16.8225 20.0512L16.5182 19.749L16.214 19.4469L16.8317 18.8291L17.4495 18.2113L17.7548 18.5124L18.0602 18.8135L17.4413 19.4323Z" stroke="#45474D" stroke-width="0.2" mask="url(#path-1-outside-1_2052_1809)"/>
</g>
<defs>
<clipPath id="clip0_2052_1809">
<rect width="21" height="25.8462" fill="white" transform="translate(0 0.0769043)"/>
</clipPath>
</defs>
</svg>
