<svg width="21" height="26" viewBox="0 0 21 26" fill="none" xmlns="http://www.w3.org/2000/svg">
<mask id="path-1-outside-1_2052_1760" maskUnits="userSpaceOnUse" x="1" y="3" width="19" height="20" fill="black">
<rect fill="white" x="1" y="3" width="19" height="20"/>
<path fill-rule="evenodd" clip-rule="evenodd" d="M12.8543 4.00923C12.0833 4.16028 11.4799 4.48528 11.0102 5.00237C10.8729 5.15359 10.6992 5.3899 10.6243 5.52751L10.4881 5.77771L7.79844 5.78922C4.79837 5.80206 5.00503 5.78538 4.49594 6.05554C4.15792 6.23491 3.72189 6.69299 3.55101 7.04822C3.38405 7.39529 3.32134 7.66481 3.32134 8.03517C3.32134 8.41341 3.41217 8.7951 3.58305 9.13471C3.68771 9.34273 3.82267 9.50581 4.33772 10.0465L4.96496 10.705L4.89578 10.8734C4.85771 10.966 4.81604 11.1234 4.80321 11.2233C4.75238 11.6174 4.9748 12.114 5.3075 12.3492C5.77673 12.681 6.42525 12.6079 6.81297 12.1796C7.04979 11.9179 7.11639 11.738 7.117 11.3584C7.11744 11.0888 7.10413 11.0123 7.02736 10.843C6.91255 10.59 6.70351 10.3739 6.45865 10.2553C6.20006 10.13 5.73938 10.1216 5.49585 10.2376L5.33814 10.3128L5.07871 10.0431L4.81928 9.77343L5.73009 8.83722C6.44138 8.10603 6.67001 7.89137 6.77395 7.85706C6.97268 7.79147 7.2489 7.80509 7.41596 7.88869C7.51531 7.93837 8.08004 8.50063 9.23006 9.69482C11.0269 11.5606 11.016 11.5473 11.1384 12.0445C11.2338 12.4326 11.1933 12.6984 10.9151 13.5082C10.7832 13.8919 10.6754 14.2489 10.6754 14.3014C10.6754 14.4968 10.9762 14.6189 11.112 14.4785C11.1986 14.389 11.6573 13.0006 11.6978 12.7056C11.7573 12.272 11.6718 11.8081 11.4496 11.3584C11.3178 11.0916 11.2233 10.9863 9.6396 9.34107C8.72059 8.38632 7.90613 7.5601 7.82966 7.505C7.46002 7.23854 6.91769 7.18695 6.50468 7.379C6.32855 7.46091 6.17214 7.60594 5.37025 8.431L4.4401 9.38804L4.28396 9.21212C3.84657 8.71928 3.72925 7.93848 4.00342 7.3448C4.13876 7.05177 4.45256 6.70404 4.70767 6.56446C5.12263 6.33744 5.0239 6.34451 7.77485 6.34451H10.2753L10.2528 6.45886C10.07 7.38941 10.2191 8.24878 10.6951 9.00776C10.7723 9.1307 11.428 9.84046 12.341 10.7891C13.9357 12.4462 14.1359 12.6258 14.6221 12.8357C15.5294 13.2275 16.5984 13.1638 17.4483 12.6674C17.7207 12.5082 18.224 12.0403 18.4207 11.7633C19.1711 10.7069 19.1947 9.17904 18.4784 8.03341C18.3356 7.80502 15.6096 4.95525 15.2415 4.64942C14.937 4.39651 14.625 4.22956 14.226 4.10606C13.9741 4.02809 13.8487 4.0118 13.4331 4.003C13.1616 3.99723 12.9011 4.00004 12.8543 4.00923ZM13.9721 4.60368C14.2628 4.67441 14.6321 4.85688 14.8801 5.05216C15.2304 5.32801 17.9629 8.19976 18.0925 8.42822C18.61 9.34023 18.5968 10.4772 18.059 11.3302C17.8427 11.6734 17.4089 12.0767 17.0708 12.249C16.6838 12.4462 16.4479 12.5066 15.9811 12.5277C15.3696 12.5553 14.8973 12.4257 14.4281 12.1018C14.1043 11.8782 11.2455 8.90076 11.0887 8.62378C10.9329 8.34874 10.8169 8.04178 10.7548 7.7406C10.6944 7.4475 10.7108 6.82346 10.7863 6.53803L10.8329 6.36211L11.5403 6.34451C12.233 6.32727 12.249 6.3252 12.3127 6.24385C12.3957 6.13776 12.3957 5.9883 12.3127 5.88221C12.2498 5.80185 12.2291 5.79879 11.6828 5.78799C11.3722 5.78183 11.118 5.76811 11.118 5.75752C11.118 5.71065 11.3678 5.393 11.5217 5.24427C11.8531 4.9239 12.3403 4.66783 12.7692 4.58862C12.8816 4.56786 13.0118 4.5439 13.0586 4.53539C13.206 4.50854 13.7476 4.549 13.9721 4.60368ZM13.1357 7.02229C11.8525 8.34835 11.6627 8.55806 11.6626 8.64961C11.6625 8.7413 11.8482 8.94612 13.1181 10.2549C14.5612 11.7422 14.5762 11.7562 14.8631 11.8962C15.2489 12.0844 15.4578 12.132 15.8845 12.1293C16.5363 12.1252 16.988 11.9329 17.4374 11.4681C17.8294 11.0626 18.0242 10.631 18.0824 10.039C18.1268 9.58783 17.9894 9.01606 17.7382 8.60704C17.601 8.38361 14.98 5.63588 14.8222 5.55006C14.7716 5.52255 14.7029 5.50006 14.6695 5.50006C14.6347 5.50006 13.9778 6.15201 13.1357 7.02229ZM17.3576 9.02461C17.6153 9.58082 17.6165 10.1604 17.361 10.6815C17.246 10.916 16.8691 11.3038 16.6578 11.405C16.1414 11.6525 15.5552 11.647 15.0583 11.3901C14.9216 11.3194 14.5809 10.9899 13.5944 9.97416L12.3087 8.65038L13.5093 7.40841L14.7099 6.16644L15.9875 7.49578C17.0444 8.59535 17.2812 8.85956 17.3576 9.02461ZM14.5044 7.50394C14.3996 7.54785 14.341 7.63835 14.341 7.75654C14.341 7.84918 14.477 8.00354 15.3934 8.95094C16.0039 9.58206 16.4719 10.039 16.5079 10.039C16.6631 10.039 16.801 9.90031 16.8026 9.7424C16.8036 9.65383 16.6639 9.49406 15.8079 8.60492C14.9125 7.67491 14.6892 7.46545 14.6009 7.47266C14.5859 7.47389 14.5425 7.48797 14.5044 7.50394ZM13.6529 8.36609C13.4871 8.53737 13.5172 8.59036 14.1566 9.25529C14.4796 9.59117 14.7767 9.87452 14.8168 9.88497C14.9038 9.90763 15.0845 9.8185 15.1143 9.73831C15.1824 9.55496 15.149 9.50489 14.5459 8.88535C14.0268 8.35198 13.9433 8.27971 13.8464 8.27971C13.7751 8.27971 13.7071 8.31004 13.6529 8.36609ZM3.50859 10.3901C3.47114 10.4063 3.17027 10.702 2.83999 11.0473C2.18858 11.7283 2.09471 11.8685 2.02389 12.2655C1.99254 12.4415 1.99213 12.5431 2.02216 12.6978C2.11476 13.1742 2.09253 13.147 3.97813 15.0923C5.67527 16.8431 5.72903 16.8947 6.00123 17.0336C6.38718 17.2304 6.71866 17.3019 7.13154 17.2773C7.45563 17.2579 7.62324 17.2094 8.53044 16.8718L8.71769 16.8021L11.169 19.3274C13.4938 21.7224 13.6306 21.8566 13.8174 21.9274C14.0483 22.0148 14.1812 22.0183 15.2035 21.9643C15.9509 21.9249 16.1016 21.8975 16.1566 21.7914C16.2112 21.686 16.2981 19.8423 16.2573 19.6544C16.1882 19.3357 16.0699 19.1848 15.125 18.2091C14.4096 17.4706 14.1746 17.2483 14.0911 17.2312C13.9956 17.2116 13.9625 17.2288 13.8087 17.3775L13.6343 17.546L13.3989 17.3046L13.1635 17.0632L13.2972 16.9134C13.4373 16.7563 13.4868 16.6326 13.4533 16.5235C13.4424 16.4877 13.0917 16.1066 12.674 15.6765C11.9614 14.9427 11.9069 14.8945 11.79 14.8945C11.6363 14.8945 11.5265 15.0035 11.5265 15.1559C11.5265 15.2485 11.6171 15.3571 12.1811 15.9405L12.8357 16.6176L12.6748 16.7865C12.4192 17.0546 12.4249 17.0695 13.0173 17.6817C13.6116 18.2958 13.6353 18.3056 13.9048 18.0451L14.0671 17.8882L14.385 18.2181L14.703 18.548L14.5787 18.698C14.4296 18.8781 14.4173 19.0111 14.5381 19.136C14.6589 19.2608 14.7877 19.2481 14.9618 19.0941L15.1068 18.9658L15.362 19.226C15.7549 19.6266 15.7589 19.6392 15.7296 20.3704C15.7162 20.7066 15.6958 20.9816 15.6844 20.9816C15.673 20.9816 14.3841 19.6595 12.8201 18.0436C10.4661 15.6115 9.96076 15.1057 9.88521 15.1057C9.74831 15.1057 9.60859 15.2465 9.60859 15.3844C9.60859 15.4886 9.85491 15.753 12.4656 18.4511C14.4159 20.4668 15.301 21.4042 15.2545 21.4048C15.2171 21.4053 14.9611 21.42 14.6855 21.4375C14.3577 21.4582 14.1399 21.4569 14.0556 21.4337C13.948 21.404 13.5157 20.9745 11.4244 18.8195C10.0481 17.4013 8.89327 16.2306 8.8582 16.2181C8.81881 16.204 8.53204 16.2928 8.10918 16.4501L7.42393 16.7049L6.99835 16.7057C6.58489 16.7066 6.56552 16.7031 6.31742 16.5857C6.07086 16.4688 6.00436 16.4054 4.38144 14.7384C2.586 12.8942 2.53932 12.8376 2.53861 12.506C2.53789 12.1705 2.57991 12.1036 3.20439 11.4464C3.91824 10.6951 3.94166 10.6566 3.78947 10.4836C3.69946 10.3813 3.60331 10.3493 3.50859 10.3901ZM6.30598 10.797C6.6489 11.0047 6.7062 11.5461 6.41428 11.8205C6.20153 12.0205 5.93368 12.0621 5.67905 11.9347C5.31404 11.7521 5.22191 11.246 5.49302 10.913C5.67588 10.6885 6.04083 10.6364 6.30598 10.797Z"/>
</mask>
<path fill-rule="evenodd" clip-rule="evenodd" d="M12.8543 4.00923C12.0833 4.16028 11.4799 4.48528 11.0102 5.00237C10.8729 5.15359 10.6992 5.3899 10.6243 5.52751L10.4881 5.77771L7.79844 5.78922C4.79837 5.80206 5.00503 5.78538 4.49594 6.05554C4.15792 6.23491 3.72189 6.69299 3.55101 7.04822C3.38405 7.39529 3.32134 7.66481 3.32134 8.03517C3.32134 8.41341 3.41217 8.7951 3.58305 9.13471C3.68771 9.34273 3.82267 9.50581 4.33772 10.0465L4.96496 10.705L4.89578 10.8734C4.85771 10.966 4.81604 11.1234 4.80321 11.2233C4.75238 11.6174 4.9748 12.114 5.3075 12.3492C5.77673 12.681 6.42525 12.6079 6.81297 12.1796C7.04979 11.9179 7.11639 11.738 7.117 11.3584C7.11744 11.0888 7.10413 11.0123 7.02736 10.843C6.91255 10.59 6.70351 10.3739 6.45865 10.2553C6.20006 10.13 5.73938 10.1216 5.49585 10.2376L5.33814 10.3128L5.07871 10.0431L4.81928 9.77343L5.73009 8.83722C6.44138 8.10603 6.67001 7.89137 6.77395 7.85706C6.97268 7.79147 7.2489 7.80509 7.41596 7.88869C7.51531 7.93837 8.08004 8.50063 9.23006 9.69482C11.0269 11.5606 11.016 11.5473 11.1384 12.0445C11.2338 12.4326 11.1933 12.6984 10.9151 13.5082C10.7832 13.8919 10.6754 14.2489 10.6754 14.3014C10.6754 14.4968 10.9762 14.6189 11.112 14.4785C11.1986 14.389 11.6573 13.0006 11.6978 12.7056C11.7573 12.272 11.6718 11.8081 11.4496 11.3584C11.3178 11.0916 11.2233 10.9863 9.6396 9.34107C8.72059 8.38632 7.90613 7.5601 7.82966 7.505C7.46002 7.23854 6.91769 7.18695 6.50468 7.379C6.32855 7.46091 6.17214 7.60594 5.37025 8.431L4.4401 9.38804L4.28396 9.21212C3.84657 8.71928 3.72925 7.93848 4.00342 7.3448C4.13876 7.05177 4.45256 6.70404 4.70767 6.56446C5.12263 6.33744 5.0239 6.34451 7.77485 6.34451H10.2753L10.2528 6.45886C10.07 7.38941 10.2191 8.24878 10.6951 9.00776C10.7723 9.1307 11.428 9.84046 12.341 10.7891C13.9357 12.4462 14.1359 12.6258 14.6221 12.8357C15.5294 13.2275 16.5984 13.1638 17.4483 12.6674C17.7207 12.5082 18.224 12.0403 18.4207 11.7633C19.1711 10.7069 19.1947 9.17904 18.4784 8.03341C18.3356 7.80502 15.6096 4.95525 15.2415 4.64942C14.937 4.39651 14.625 4.22956 14.226 4.10606C13.9741 4.02809 13.8487 4.0118 13.4331 4.003C13.1616 3.99723 12.9011 4.00004 12.8543 4.00923ZM13.9721 4.60368C14.2628 4.67441 14.6321 4.85688 14.8801 5.05216C15.2304 5.32801 17.9629 8.19976 18.0925 8.42822C18.61 9.34023 18.5968 10.4772 18.059 11.3302C17.8427 11.6734 17.4089 12.0767 17.0708 12.249C16.6838 12.4462 16.4479 12.5066 15.9811 12.5277C15.3696 12.5553 14.8973 12.4257 14.4281 12.1018C14.1043 11.8782 11.2455 8.90076 11.0887 8.62378C10.9329 8.34874 10.8169 8.04178 10.7548 7.7406C10.6944 7.4475 10.7108 6.82346 10.7863 6.53803L10.8329 6.36211L11.5403 6.34451C12.233 6.32727 12.249 6.3252 12.3127 6.24385C12.3957 6.13776 12.3957 5.9883 12.3127 5.88221C12.2498 5.80185 12.2291 5.79879 11.6828 5.78799C11.3722 5.78183 11.118 5.76811 11.118 5.75752C11.118 5.71065 11.3678 5.393 11.5217 5.24427C11.8531 4.9239 12.3403 4.66783 12.7692 4.58862C12.8816 4.56786 13.0118 4.5439 13.0586 4.53539C13.206 4.50854 13.7476 4.549 13.9721 4.60368ZM13.1357 7.02229C11.8525 8.34835 11.6627 8.55806 11.6626 8.64961C11.6625 8.7413 11.8482 8.94612 13.1181 10.2549C14.5612 11.7422 14.5762 11.7562 14.8631 11.8962C15.2489 12.0844 15.4578 12.132 15.8845 12.1293C16.5363 12.1252 16.988 11.9329 17.4374 11.4681C17.8294 11.0626 18.0242 10.631 18.0824 10.039C18.1268 9.58783 17.9894 9.01606 17.7382 8.60704C17.601 8.38361 14.98 5.63588 14.8222 5.55006C14.7716 5.52255 14.7029 5.50006 14.6695 5.50006C14.6347 5.50006 13.9778 6.15201 13.1357 7.02229ZM17.3576 9.02461C17.6153 9.58082 17.6165 10.1604 17.361 10.6815C17.246 10.916 16.8691 11.3038 16.6578 11.405C16.1414 11.6525 15.5552 11.647 15.0583 11.3901C14.9216 11.3194 14.5809 10.9899 13.5944 9.97416L12.3087 8.65038L13.5093 7.40841L14.7099 6.16644L15.9875 7.49578C17.0444 8.59535 17.2812 8.85956 17.3576 9.02461ZM14.5044 7.50394C14.3996 7.54785 14.341 7.63835 14.341 7.75654C14.341 7.84918 14.477 8.00354 15.3934 8.95094C16.0039 9.58206 16.4719 10.039 16.5079 10.039C16.6631 10.039 16.801 9.90031 16.8026 9.7424C16.8036 9.65383 16.6639 9.49406 15.8079 8.60492C14.9125 7.67491 14.6892 7.46545 14.6009 7.47266C14.5859 7.47389 14.5425 7.48797 14.5044 7.50394ZM13.6529 8.36609C13.4871 8.53737 13.5172 8.59036 14.1566 9.25529C14.4796 9.59117 14.7767 9.87452 14.8168 9.88497C14.9038 9.90763 15.0845 9.8185 15.1143 9.73831C15.1824 9.55496 15.149 9.50489 14.5459 8.88535C14.0268 8.35198 13.9433 8.27971 13.8464 8.27971C13.7751 8.27971 13.7071 8.31004 13.6529 8.36609ZM3.50859 10.3901C3.47114 10.4063 3.17027 10.702 2.83999 11.0473C2.18858 11.7283 2.09471 11.8685 2.02389 12.2655C1.99254 12.4415 1.99213 12.5431 2.02216 12.6978C2.11476 13.1742 2.09253 13.147 3.97813 15.0923C5.67527 16.8431 5.72903 16.8947 6.00123 17.0336C6.38718 17.2304 6.71866 17.3019 7.13154 17.2773C7.45563 17.2579 7.62324 17.2094 8.53044 16.8718L8.71769 16.8021L11.169 19.3274C13.4938 21.7224 13.6306 21.8566 13.8174 21.9274C14.0483 22.0148 14.1812 22.0183 15.2035 21.9643C15.9509 21.9249 16.1016 21.8975 16.1566 21.7914C16.2112 21.686 16.2981 19.8423 16.2573 19.6544C16.1882 19.3357 16.0699 19.1848 15.125 18.2091C14.4096 17.4706 14.1746 17.2483 14.0911 17.2312C13.9956 17.2116 13.9625 17.2288 13.8087 17.3775L13.6343 17.546L13.3989 17.3046L13.1635 17.0632L13.2972 16.9134C13.4373 16.7563 13.4868 16.6326 13.4533 16.5235C13.4424 16.4877 13.0917 16.1066 12.674 15.6765C11.9614 14.9427 11.9069 14.8945 11.79 14.8945C11.6363 14.8945 11.5265 15.0035 11.5265 15.1559C11.5265 15.2485 11.6171 15.3571 12.1811 15.9405L12.8357 16.6176L12.6748 16.7865C12.4192 17.0546 12.4249 17.0695 13.0173 17.6817C13.6116 18.2958 13.6353 18.3056 13.9048 18.0451L14.0671 17.8882L14.385 18.2181L14.703 18.548L14.5787 18.698C14.4296 18.8781 14.4173 19.0111 14.5381 19.136C14.6589 19.2608 14.7877 19.2481 14.9618 19.0941L15.1068 18.9658L15.362 19.226C15.7549 19.6266 15.7589 19.6392 15.7296 20.3704C15.7162 20.7066 15.6958 20.9816 15.6844 20.9816C15.673 20.9816 14.3841 19.6595 12.8201 18.0436C10.4661 15.6115 9.96076 15.1057 9.88521 15.1057C9.74831 15.1057 9.60859 15.2465 9.60859 15.3844C9.60859 15.4886 9.85491 15.753 12.4656 18.4511C14.4159 20.4668 15.301 21.4042 15.2545 21.4048C15.2171 21.4053 14.9611 21.42 14.6855 21.4375C14.3577 21.4582 14.1399 21.4569 14.0556 21.4337C13.948 21.404 13.5157 20.9745 11.4244 18.8195C10.0481 17.4013 8.89327 16.2306 8.8582 16.2181C8.81881 16.204 8.53204 16.2928 8.10918 16.4501L7.42393 16.7049L6.99835 16.7057C6.58489 16.7066 6.56552 16.7031 6.31742 16.5857C6.07086 16.4688 6.00436 16.4054 4.38144 14.7384C2.586 12.8942 2.53932 12.8376 2.53861 12.506C2.53789 12.1705 2.57991 12.1036 3.20439 11.4464C3.91824 10.6951 3.94166 10.6566 3.78947 10.4836C3.69946 10.3813 3.60331 10.3493 3.50859 10.3901ZM6.30598 10.797C6.6489 11.0047 6.7062 11.5461 6.41428 11.8205C6.20153 12.0205 5.93368 12.0621 5.67905 11.9347C5.31404 11.7521 5.22191 11.246 5.49302 10.913C5.67588 10.6885 6.04083 10.6364 6.30598 10.797Z" fill="#45474D"/>
<path fill-rule="evenodd" clip-rule="evenodd" d="M12.8543 4.00923C12.0833 4.16028 11.4799 4.48528 11.0102 5.00237C10.8729 5.15359 10.6992 5.3899 10.6243 5.52751L10.4881 5.77771L7.79844 5.78922C4.79837 5.80206 5.00503 5.78538 4.49594 6.05554C4.15792 6.23491 3.72189 6.69299 3.55101 7.04822C3.38405 7.39529 3.32134 7.66481 3.32134 8.03517C3.32134 8.41341 3.41217 8.7951 3.58305 9.13471C3.68771 9.34273 3.82267 9.50581 4.33772 10.0465L4.96496 10.705L4.89578 10.8734C4.85771 10.966 4.81604 11.1234 4.80321 11.2233C4.75238 11.6174 4.9748 12.114 5.3075 12.3492C5.77673 12.681 6.42525 12.6079 6.81297 12.1796C7.04979 11.9179 7.11639 11.738 7.117 11.3584C7.11744 11.0888 7.10413 11.0123 7.02736 10.843C6.91255 10.59 6.70351 10.3739 6.45865 10.2553C6.20006 10.13 5.73938 10.1216 5.49585 10.2376L5.33814 10.3128L5.07871 10.0431L4.81928 9.77343L5.73009 8.83722C6.44138 8.10603 6.67001 7.89137 6.77395 7.85706C6.97268 7.79147 7.2489 7.80509 7.41596 7.88869C7.51531 7.93837 8.08004 8.50063 9.23006 9.69482C11.0269 11.5606 11.016 11.5473 11.1384 12.0445C11.2338 12.4326 11.1933 12.6984 10.9151 13.5082C10.7832 13.8919 10.6754 14.2489 10.6754 14.3014C10.6754 14.4968 10.9762 14.6189 11.112 14.4785C11.1986 14.389 11.6573 13.0006 11.6978 12.7056C11.7573 12.272 11.6718 11.8081 11.4496 11.3584C11.3178 11.0916 11.2233 10.9863 9.6396 9.34107C8.72059 8.38632 7.90613 7.5601 7.82966 7.505C7.46002 7.23854 6.91769 7.18695 6.50468 7.379C6.32855 7.46091 6.17214 7.60594 5.37025 8.431L4.4401 9.38804L4.28396 9.21212C3.84657 8.71928 3.72925 7.93848 4.00342 7.3448C4.13876 7.05177 4.45256 6.70404 4.70767 6.56446C5.12263 6.33744 5.0239 6.34451 7.77485 6.34451H10.2753L10.2528 6.45886C10.07 7.38941 10.2191 8.24878 10.6951 9.00776C10.7723 9.1307 11.428 9.84046 12.341 10.7891C13.9357 12.4462 14.1359 12.6258 14.6221 12.8357C15.5294 13.2275 16.5984 13.1638 17.4483 12.6674C17.7207 12.5082 18.224 12.0403 18.4207 11.7633C19.1711 10.7069 19.1947 9.17904 18.4784 8.03341C18.3356 7.80502 15.6096 4.95525 15.2415 4.64942C14.937 4.39651 14.625 4.22956 14.226 4.10606C13.9741 4.02809 13.8487 4.0118 13.4331 4.003C13.1616 3.99723 12.9011 4.00004 12.8543 4.00923ZM13.9721 4.60368C14.2628 4.67441 14.6321 4.85688 14.8801 5.05216C15.2304 5.32801 17.9629 8.19976 18.0925 8.42822C18.61 9.34023 18.5968 10.4772 18.059 11.3302C17.8427 11.6734 17.4089 12.0767 17.0708 12.249C16.6838 12.4462 16.4479 12.5066 15.9811 12.5277C15.3696 12.5553 14.8973 12.4257 14.4281 12.1018C14.1043 11.8782 11.2455 8.90076 11.0887 8.62378C10.9329 8.34874 10.8169 8.04178 10.7548 7.7406C10.6944 7.4475 10.7108 6.82346 10.7863 6.53803L10.8329 6.36211L11.5403 6.34451C12.233 6.32727 12.249 6.3252 12.3127 6.24385C12.3957 6.13776 12.3957 5.9883 12.3127 5.88221C12.2498 5.80185 12.2291 5.79879 11.6828 5.78799C11.3722 5.78183 11.118 5.76811 11.118 5.75752C11.118 5.71065 11.3678 5.393 11.5217 5.24427C11.8531 4.9239 12.3403 4.66783 12.7692 4.58862C12.8816 4.56786 13.0118 4.5439 13.0586 4.53539C13.206 4.50854 13.7476 4.549 13.9721 4.60368ZM13.1357 7.02229C11.8525 8.34835 11.6627 8.55806 11.6626 8.64961C11.6625 8.7413 11.8482 8.94612 13.1181 10.2549C14.5612 11.7422 14.5762 11.7562 14.8631 11.8962C15.2489 12.0844 15.4578 12.132 15.8845 12.1293C16.5363 12.1252 16.988 11.9329 17.4374 11.4681C17.8294 11.0626 18.0242 10.631 18.0824 10.039C18.1268 9.58783 17.9894 9.01606 17.7382 8.60704C17.601 8.38361 14.98 5.63588 14.8222 5.55006C14.7716 5.52255 14.7029 5.50006 14.6695 5.50006C14.6347 5.50006 13.9778 6.15201 13.1357 7.02229ZM17.3576 9.02461C17.6153 9.58082 17.6165 10.1604 17.361 10.6815C17.246 10.916 16.8691 11.3038 16.6578 11.405C16.1414 11.6525 15.5552 11.647 15.0583 11.3901C14.9216 11.3194 14.5809 10.9899 13.5944 9.97416L12.3087 8.65038L13.5093 7.40841L14.7099 6.16644L15.9875 7.49578C17.0444 8.59535 17.2812 8.85956 17.3576 9.02461ZM14.5044 7.50394C14.3996 7.54785 14.341 7.63835 14.341 7.75654C14.341 7.84918 14.477 8.00354 15.3934 8.95094C16.0039 9.58206 16.4719 10.039 16.5079 10.039C16.6631 10.039 16.801 9.90031 16.8026 9.7424C16.8036 9.65383 16.6639 9.49406 15.8079 8.60492C14.9125 7.67491 14.6892 7.46545 14.6009 7.47266C14.5859 7.47389 14.5425 7.48797 14.5044 7.50394ZM13.6529 8.36609C13.4871 8.53737 13.5172 8.59036 14.1566 9.25529C14.4796 9.59117 14.7767 9.87452 14.8168 9.88497C14.9038 9.90763 15.0845 9.8185 15.1143 9.73831C15.1824 9.55496 15.149 9.50489 14.5459 8.88535C14.0268 8.35198 13.9433 8.27971 13.8464 8.27971C13.7751 8.27971 13.7071 8.31004 13.6529 8.36609ZM3.50859 10.3901C3.47114 10.4063 3.17027 10.702 2.83999 11.0473C2.18858 11.7283 2.09471 11.8685 2.02389 12.2655C1.99254 12.4415 1.99213 12.5431 2.02216 12.6978C2.11476 13.1742 2.09253 13.147 3.97813 15.0923C5.67527 16.8431 5.72903 16.8947 6.00123 17.0336C6.38718 17.2304 6.71866 17.3019 7.13154 17.2773C7.45563 17.2579 7.62324 17.2094 8.53044 16.8718L8.71769 16.8021L11.169 19.3274C13.4938 21.7224 13.6306 21.8566 13.8174 21.9274C14.0483 22.0148 14.1812 22.0183 15.2035 21.9643C15.9509 21.9249 16.1016 21.8975 16.1566 21.7914C16.2112 21.686 16.2981 19.8423 16.2573 19.6544C16.1882 19.3357 16.0699 19.1848 15.125 18.2091C14.4096 17.4706 14.1746 17.2483 14.0911 17.2312C13.9956 17.2116 13.9625 17.2288 13.8087 17.3775L13.6343 17.546L13.3989 17.3046L13.1635 17.0632L13.2972 16.9134C13.4373 16.7563 13.4868 16.6326 13.4533 16.5235C13.4424 16.4877 13.0917 16.1066 12.674 15.6765C11.9614 14.9427 11.9069 14.8945 11.79 14.8945C11.6363 14.8945 11.5265 15.0035 11.5265 15.1559C11.5265 15.2485 11.6171 15.3571 12.1811 15.9405L12.8357 16.6176L12.6748 16.7865C12.4192 17.0546 12.4249 17.0695 13.0173 17.6817C13.6116 18.2958 13.6353 18.3056 13.9048 18.0451L14.0671 17.8882L14.385 18.2181L14.703 18.548L14.5787 18.698C14.4296 18.8781 14.4173 19.0111 14.5381 19.136C14.6589 19.2608 14.7877 19.2481 14.9618 19.0941L15.1068 18.9658L15.362 19.226C15.7549 19.6266 15.7589 19.6392 15.7296 20.3704C15.7162 20.7066 15.6958 20.9816 15.6844 20.9816C15.673 20.9816 14.3841 19.6595 12.8201 18.0436C10.4661 15.6115 9.96076 15.1057 9.88521 15.1057C9.74831 15.1057 9.60859 15.2465 9.60859 15.3844C9.60859 15.4886 9.85491 15.753 12.4656 18.4511C14.4159 20.4668 15.301 21.4042 15.2545 21.4048C15.2171 21.4053 14.9611 21.42 14.6855 21.4375C14.3577 21.4582 14.1399 21.4569 14.0556 21.4337C13.948 21.404 13.5157 20.9745 11.4244 18.8195C10.0481 17.4013 8.89327 16.2306 8.8582 16.2181C8.81881 16.204 8.53204 16.2928 8.10918 16.4501L7.42393 16.7049L6.99835 16.7057C6.58489 16.7066 6.56552 16.7031 6.31742 16.5857C6.07086 16.4688 6.00436 16.4054 4.38144 14.7384C2.586 12.8942 2.53932 12.8376 2.53861 12.506C2.53789 12.1705 2.57991 12.1036 3.20439 11.4464C3.91824 10.6951 3.94166 10.6566 3.78947 10.4836C3.69946 10.3813 3.60331 10.3493 3.50859 10.3901ZM6.30598 10.797C6.6489 11.0047 6.7062 11.5461 6.41428 11.8205C6.20153 12.0205 5.93368 12.0621 5.67905 11.9347C5.31404 11.7521 5.22191 11.246 5.49302 10.913C5.67588 10.6885 6.04083 10.6364 6.30598 10.797Z" stroke="#45474D" stroke-width="0.2" mask="url(#path-1-outside-1_2052_1760)"/>
</svg>
