<svg width="21" height="26" viewBox="0 0 21 26" fill="none" xmlns="http://www.w3.org/2000/svg">
<path d="M16.3018 17.8468L16.3018 17.8469C16.2342 17.9884 16.0869 18.1777 15.9074 18.3581L15.872 18.3228L15.9074 18.3581C15.6653 18.6015 15.5374 18.6905 15.1271 18.9045C14.0107 19.4868 12.8494 19.8492 11.6025 20.0043C11.0533 20.0726 9.82419 20.0627 9.25733 19.9855C8.0757 19.8245 7.04919 19.5032 5.97631 18.9586C5.70806 18.8224 5.54899 18.7381 5.4251 18.6552C5.29994 18.5713 5.21154 18.4894 5.08347 18.3598C4.90566 18.1799 4.75622 17.9871 4.68923 17.8468C4.63757 17.7387 4.59691 17.6531 4.56636 17.5513C4.53571 17.4491 4.5157 17.3324 4.50242 17.1606C4.47599 16.8187 4.47566 16.2489 4.47541 15.1228L4.47497 13.0731L3.04266 12.4613C2.54313 12.2479 2.16332 12.0806 1.8936 11.955C1.75877 11.8922 1.65104 11.8395 1.56943 11.7966C1.48882 11.7542 1.43073 11.7198 1.39745 11.6933C1.28442 11.6032 1.1672 11.4544 1.08462 11.299C1.0257 11.188 0.990498 11.1155 0.971409 11.0318C0.95251 10.9491 0.95 10.858 0.95 10.7113C0.95 10.5649 0.952542 10.4738 0.971274 10.3912L16.3018 17.8468ZM16.3018 17.8468C16.3534 17.7388 16.394 17.6531 16.4246 17.5513C16.4553 17.4491 16.4753 17.3324 16.4886 17.1606C16.5151 16.8185 16.5156 16.2488 16.5162 15.1228L16.5172 13.073L17.0741 12.8336L17.5923 12.6107L17.602 13.4698C17.6067 13.8937 17.6078 14.1261 17.6007 14.257C17.5971 14.323 17.5915 14.3586 17.5852 14.3788C17.5803 14.3942 17.5764 14.3965 17.5738 14.3979C17.5737 14.398 17.5735 14.3981 17.5733 14.3982C16.9629 14.7622 16.824 15.5781 17.2975 16.0755L17.3819 16.1641L17.2975 16.2527C17.1756 16.3808 17.1021 16.4849 17.0616 16.6581C17.0224 16.8261 17.0144 17.0585 17.0139 17.4415L17.0131 18.1319L17.0131 18.1508M16.3018 17.8468L17.0131 18.1508M17.0131 18.1508L17.0256 18.165L17.1344 18.2887L17.2432 18.4124L17.2578 18.4289L17.2799 18.4293L18.0013 18.4417L18.0241 18.4421C18.2778 18.4464 18.4727 18.4498 18.6204 18.4377C18.7716 18.4254 18.8849 18.3963 18.9634 18.3253C19.0429 18.2535 19.0772 18.1477 19.0936 18.0073C19.1095 17.8709 19.1095 17.6909 19.1095 17.4579V17.4363C19.1095 17.0773 19.1039 16.8637 19.0712 16.7056C19.0376 16.5431 18.9756 16.44 18.8707 16.3005L18.8307 16.3306M17.0131 18.1508L18.8307 16.3306M18.8307 16.3306L18.8707 16.3005L18.7658 16.1611M18.8307 16.3306L18.7658 16.1611M18.7658 16.1611L18.8367 16.0757C19.2536 15.5729 19.1771 14.8168 18.6604 14.4932L18.6339 14.5356L18.6604 14.4932L18.5331 14.4135L18.533 13.3052L18.5328 12.2026L18.9022 12.05L18.8831 12.0038L18.9022 12.05C19.2519 11.9056 19.4941 11.7748 19.6662 11.6174C19.8401 11.4584 19.9394 11.275 20.0091 11.0316L19.9611 11.0178L20.0091 11.0316C20.0741 10.805 20.0588 10.5485 19.9831 10.315C19.9074 10.0815 19.7699 9.86669 19.5854 9.7253L19.555 9.76499L19.5854 9.7253C19.5659 9.71037 19.5281 9.68917 19.4761 9.66246C19.4226 9.635 19.3503 9.59981 19.2585 9.55666C19.0749 9.47031 18.8123 9.35143 18.4651 9.19753C17.7705 8.88968 16.7365 8.44122 15.3167 7.83169C14.1941 7.34975 13.1552 6.90604 12.3856 6.57939C12.0008 6.41606 11.6833 6.28198 11.4563 6.18701C11.3428 6.13953 11.2518 6.10179 11.1864 6.07504C11.1226 6.04895 11.0799 6.03202 11.0657 6.02773C10.8275 5.95555 10.438 5.92901 10.1893 5.96791C10.0741 5.98591 9.91121 6.02564 9.82528 6.05711C9.74147 6.0878 7.84332 6.89928 5.60966 7.85911C4.12744 8.49607 3.10073 8.9415 2.43035 9.2395C2.0952 9.38848 1.84878 9.50076 1.67891 9.58178C1.594 9.62227 1.52782 9.65514 1.47906 9.681C1.4318 9.70606 1.39703 9.72653 1.37829 9.74211C1.28643 9.81847 1.15546 9.99034 1.08332 10.1261L18.7658 16.1611ZM1.93529 10.4916C1.93536 10.4916 1.93543 10.4916 1.93552 10.4915L1.93529 10.4916ZM1.93529 10.4916L1.93509 10.4918C1.93504 10.4918 1.93471 10.492 1.93477 10.492C1.93476 10.492 1.93485 10.4919 1.93504 10.4918C1.93511 10.4918 1.93519 10.4917 1.93529 10.4916ZM10.3111 14.5284L10.3111 14.5284C10.311 14.5284 10.3111 14.5284 10.3109 14.5283L10.3102 14.5282L10.3078 14.5275L10.2997 14.5251C10.2971 14.5243 10.294 14.5233 10.2907 14.5222C10.2857 14.5205 10.28 14.5185 10.2735 14.5162C10.252 14.5086 10.2231 14.4978 10.1874 14.4839C10.1159 14.4563 10.0177 14.417 9.89661 14.3677C9.65444 14.2691 9.32127 14.1305 8.92764 13.9652C8.14042 13.6345 7.11191 13.1968 6.08715 12.7573C5.06238 12.3177 4.04147 11.8763 3.26946 11.5382C2.88344 11.3692 2.55978 11.226 2.32902 11.1218C2.2136 11.0697 2.12166 11.0274 2.05686 10.9966C2.02441 10.9811 1.99912 10.9687 1.98122 10.9595C1.97223 10.9548 1.96551 10.9512 1.96086 10.9485C1.95858 10.9472 1.95726 10.9464 1.95664 10.946C1.83199 10.8318 1.8206 10.6332 1.93755 10.4903L1.93764 10.4902C1.94145 10.488 1.94739 10.4847 1.95578 10.4803C1.97244 10.4717 1.99662 10.4598 2.02815 10.4448C2.09107 10.4148 2.18163 10.373 2.29612 10.3212C2.525 10.2176 2.84853 10.074 3.23559 9.90378C4.00967 9.56344 5.03732 9.11707 6.06898 8.67227C7.10065 8.22748 8.13621 7.7843 8.92611 7.45034C9.32108 7.28335 9.65451 7.14372 9.89527 7.04487C10.0157 6.99543 10.1127 6.95627 10.1826 6.92901C10.2176 6.91537 10.2455 6.90482 10.2659 6.89749C10.2762 6.89382 10.2843 6.89107 10.2903 6.88917C10.295 6.8877 10.2974 6.88708 10.2982 6.88688C10.2985 6.88678 10.2985 6.88678 10.2983 6.88682C10.3821 6.87319 10.4432 6.86468 10.5537 6.88518C10.6674 6.90629 10.8335 6.95826 11.1241 7.06997C11.7044 7.29309 12.7687 7.74935 14.8776 8.65452C16.0007 9.13661 17.0312 9.58334 17.7865 9.91473C18.1642 10.0804 18.473 10.2173 18.6902 10.3152C18.7988 10.3642 18.8843 10.4034 18.944 10.4316C18.9739 10.4457 18.997 10.4569 19.0131 10.4651C19.0213 10.4692 19.0272 10.4724 19.0313 10.4747C19.0325 10.4754 19.0334 10.4759 19.034 10.4763C19.1684 10.6 19.1683 10.8232 19.0337 10.9466C19.033 10.947 19.0317 10.9478 19.0296 10.949C19.025 10.9517 19.0183 10.9553 19.0094 10.9599C18.9916 10.9691 18.9664 10.9814 18.9341 10.9967C18.8696 11.0273 18.778 11.0694 18.6629 11.1213C18.4329 11.225 18.1101 11.3678 17.725 11.5363C16.9549 11.8735 15.9361 12.3139 14.9131 12.7528C13.89 13.1916 12.8628 13.6288 12.0759 13.9596C11.6824 14.125 11.3491 14.2637 11.1064 14.3627C10.9851 14.4122 10.8866 14.4517 10.8147 14.4796C10.7787 14.4936 10.7496 14.5045 10.7278 14.5124C10.7047 14.5206 10.6926 14.5243 10.6887 14.5251C10.5549 14.5533 10.4435 14.5543 10.3111 14.5284ZM11.0323 15.4051L11.0324 15.4051C11.0634 15.3958 11.1551 15.3598 11.2902 15.3049C11.4267 15.2494 11.6107 15.1731 11.8289 15.0818C12.2653 14.899 12.839 14.6555 13.4445 14.3953L15.5768 13.4791L15.5861 15.2654L15.5867 15.379C15.5919 16.3716 15.5945 16.8619 15.5601 17.1451C15.5424 17.2903 15.5155 17.3765 15.4765 17.4464C15.4395 17.5128 15.3907 17.567 15.3201 17.6452C15.3147 17.6512 15.3092 17.6573 15.3035 17.6636L15.3035 17.6636C15.1546 17.829 15.0416 17.905 14.5842 18.1371C13.2546 18.8116 11.9837 19.1159 10.4955 19.1159C9.01231 19.1159 7.79942 18.8292 6.46402 18.1629C5.94603 17.9044 5.84363 17.837 5.68984 17.6662C5.68386 17.6596 5.67801 17.6531 5.67232 17.6468C5.60202 17.5689 5.5533 17.5149 5.51623 17.4487C5.47704 17.3788 5.44975 17.2926 5.43145 17.1473C5.39583 16.8644 5.39586 16.3748 5.39591 15.3837C5.39591 15.3444 5.39592 15.3043 5.39592 15.2635C5.39592 14.522 5.39834 14.0557 5.40537 13.7769C5.40889 13.6371 5.41354 13.5459 5.4194 13.491C5.41991 13.4863 5.42041 13.482 5.42091 13.478C5.63268 13.5691 6.51481 13.9492 7.54642 14.3939C8.71458 14.8974 9.7755 15.345 9.9013 15.3869L9.91711 15.3395L9.9013 15.3869C10.0521 15.4371 10.261 15.4635 10.4669 15.4669C10.6727 15.4702 10.8816 15.4506 11.0323 15.4051ZM18.163 15.2742C18.1971 15.3088 18.2051 15.3337 18.2038 15.3532C18.2024 15.3749 18.1888 15.405 18.147 15.4474C18.105 15.49 18.0756 15.5035 18.055 15.5048C18.0366 15.5061 18.0125 15.4984 17.9783 15.4637C17.9539 15.4389 17.9382 15.3991 17.936 15.3568C17.9339 15.3139 17.946 15.2788 17.9644 15.2601C17.9827 15.2416 18.0169 15.2294 18.0585 15.2316C18.0997 15.2337 18.1387 15.2495 18.163 15.2742ZM18.147 16.8808C18.1714 16.9056 18.1854 16.9281 18.1943 16.9759C18.2041 17.0281 18.2072 17.1068 18.2072 17.2433V17.5152H18.0706H17.934V17.2073C17.934 17.0559 17.9368 16.9692 17.9454 16.9166C17.9497 16.8908 17.9548 16.877 17.9594 16.8691C17.9632 16.8624 17.9674 16.8583 17.9748 16.8539C18.0202 16.8271 18.0453 16.8219 18.0638 16.8247C18.083 16.8276 18.1074 16.8407 18.147 16.8808Z" fill="#45474D" stroke="#45474D" stroke-width="0.1"/>
</svg>
