<svg width="21" height="26" viewBox="0 0 21 26" fill="none" xmlns="http://www.w3.org/2000/svg">
<mask id="path-1-outside-1_2052_1793" maskUnits="userSpaceOnUse" x="0" y="2" width="21" height="21" fill="black">
<rect fill="white" y="2" width="21" height="21"/>
<path fill-rule="evenodd" clip-rule="evenodd" d="M7.70655 3.04832C7.64097 3.10376 7.12172 3.83268 6.8068 4.31141C6.2046 5.22685 6.08845 5.82429 6.38959 6.45707C6.6064 6.91253 7.07063 7.31194 7.47514 7.39095L7.60098 7.41554V7.79519C7.60098 8.12324 7.59214 8.17763 7.536 8.19521C7.50024 8.20639 6.8589 8.37176 6.11076 8.56265C5.36263 8.75354 4.69043 8.93589 4.61698 8.96782C4.395 9.06438 4.12253 9.36003 4.0375 9.59665C3.9632 9.80339 3.96204 9.87684 3.96204 14.4826V19.1587H2.55103C1.16756 19.1587 1.13849 19.1603 1.06211 19.2398C0.999134 19.3054 0.989071 19.3479 1.00964 19.4621C1.02364 19.5397 1.04655 19.9164 1.06059 20.2991C1.0848 20.9595 1.09141 21.0054 1.18966 21.2013C1.33484 21.4908 1.54657 21.7159 1.8176 21.869L2.04975 22H9.73607H17.4224L17.6331 21.8972C17.928 21.7533 18.1612 21.5156 18.3043 21.2133C18.4225 20.9634 18.4252 20.946 18.4374 20.3514L18.45 19.7445L19.1556 19.7319C19.8455 19.7195 19.8628 19.7172 19.9321 19.628C20.0244 19.5093 20.0224 19.3495 19.9274 19.2433C19.8528 19.16 19.8353 19.1587 18.7544 19.1587H17.6572L17.8851 18.8997C18.54 18.1557 18.6958 17.0959 18.2868 16.1684C18.0892 15.7201 17.7812 15.3634 17.3539 15.0874C17.2282 15.0063 17.1295 14.9238 17.1346 14.904C17.1396 14.8843 17.2004 14.7854 17.2695 14.6843C17.585 14.2231 17.7637 13.6837 17.8004 13.0818C17.8278 12.6324 17.8034 12.5773 17.4973 12.3974C17.2765 12.2677 16.6828 12.0458 16.5566 12.0458C16.5015 12.0458 16.475 12.0122 16.4573 11.9201C16.371 11.4705 16.0839 10.8087 15.9294 10.7033C15.8038 10.6177 15.1357 10.6563 14.7926 10.769L14.5392 10.8523L14.2537 10.5683C13.9193 10.2357 13.5626 9.99695 13.4 9.99695C13.2321 9.99695 12.865 10.2385 12.5369 10.5648L12.249 10.8512L12.0508 10.7876C11.9418 10.7527 11.8324 10.7179 11.8077 10.7103C11.774 10.6999 11.76 10.3873 11.752 9.46723C11.7413 8.24721 11.7405 8.23666 11.6496 8.05133C11.5399 7.82782 11.3273 7.61899 11.1052 7.5167C10.7784 7.36621 10.6861 7.3768 9.39104 7.71362C8.73154 7.88511 8.17597 8.02543 8.1564 8.02543C8.13672 8.02543 8.12083 7.88905 8.12083 7.72047V7.41554L8.25777 7.38879C8.83978 7.2751 9.40537 6.62975 9.48862 5.98441C9.56961 5.35673 9.35733 4.88504 8.37611 3.51221C8.03476 3.0346 8.00167 3 7.88686 3C7.81913 3 7.738 3.02176 7.70655 3.04832ZM8.13123 4.11139C8.48729 4.61189 8.70477 4.96023 8.83718 5.24212C9.06506 5.7273 8.96989 6.23429 8.58468 6.58731C7.89551 7.21885 6.78107 6.71399 6.77253 5.76635C6.76926 5.40506 6.92325 5.08861 7.52141 4.22737C7.69489 3.97752 7.84895 3.77314 7.86373 3.77314C7.87847 3.77314 7.99885 3.92538 8.13123 4.11139ZM10.9924 8.08686C11.0462 8.12749 11.124 8.23147 11.1651 8.31791C11.2348 8.46423 11.2399 8.55024 11.2399 9.56461V10.6541H11.0778C10.9729 10.6541 10.883 10.6809 10.823 10.7301C10.6928 10.8367 10.4755 11.3135 10.3779 11.7066L10.2955 12.0386L10.1514 12.0626C9.78037 12.1243 9.14556 12.4278 9.0309 12.5982C8.99451 12.6523 8.97487 12.7721 8.97487 12.9401C8.97487 13.4676 9.14894 14.097 9.41885 14.5455L9.56229 14.7838L9.37069 14.8486C9.01597 14.9685 8.74038 15.1503 8.43363 15.4668C8.11437 15.7962 7.99543 15.9873 7.83536 16.4283C7.74569 16.6754 7.73521 16.7561 7.7344 17.2065C7.73358 17.6541 7.74424 17.7401 7.83168 17.9926C7.95875 18.3594 8.12785 18.6518 8.37548 18.9329L8.5744 19.1587H6.54673H4.51903L4.51917 14.4908C4.51928 9.92938 4.52096 9.82017 4.5918 9.69925C4.63165 9.63117 4.71337 9.54903 4.77338 9.51671C4.83342 9.48439 5.89937 9.19624 7.14222 8.87635C8.38502 8.55647 9.66088 8.22626 9.97743 8.14253C10.6036 7.97692 10.8302 7.96451 10.9924 8.08686ZM13.6535 10.7663C13.7862 10.8702 13.9249 10.9897 13.9615 11.0319C14.0265 11.1067 14.0241 11.1119 13.8687 11.2359C13.781 11.3058 13.6298 11.4421 13.5328 11.5387C13.4358 11.6353 13.3564 11.6943 13.3564 11.6698C13.3564 11.6262 12.9358 11.2353 12.8097 11.1618C12.7494 11.1267 12.75 11.1189 12.8188 11.0379C12.8923 10.9514 13.3586 10.5782 13.3936 10.5778C13.4038 10.5777 13.5208 10.6625 13.6535 10.7663ZM11.5741 11.2501C12.0825 11.3451 12.5553 11.6042 12.9049 11.9794L13.066 12.1523L13.0033 12.2785C12.9688 12.3479 12.9043 12.5054 12.8598 12.6284L12.7791 12.8521L12.5386 12.6574C12.1275 12.3244 11.6941 12.1284 11.1774 12.0416C11.0178 12.0148 10.8819 11.9891 10.8754 11.9845C10.8426 11.9612 11.0623 11.3391 11.137 11.2436C11.1835 11.1841 11.2244 11.1847 11.5741 11.2501ZM15.7096 11.3789C15.7916 11.5477 15.9305 11.9721 15.9092 11.9887C15.9041 11.9927 15.7688 12.0174 15.6084 12.0436C14.7191 12.1892 13.9411 12.7439 13.4971 13.5491L13.3822 13.7574L13.3152 13.6264C13.2331 13.466 13.2295 13.3278 13.3002 13.0509C13.5341 12.1346 14.3236 11.3961 15.2412 11.2353C15.5966 11.173 15.6116 11.1776 15.7096 11.3789ZM11.2956 12.6494C11.9099 12.8043 12.4457 13.2181 12.7915 13.8047C12.903 13.9938 13.0965 14.5316 13.0965 14.6523C13.0965 14.7066 12.9413 14.7131 11.6515 14.7131H10.2065L10.0309 14.4715C9.72408 14.0495 9.53185 13.5217 9.53185 13.1015C9.53185 12.9048 9.53664 12.8953 9.67109 12.825C10.1509 12.5742 10.7433 12.5101 11.2956 12.6494ZM16.6441 12.6468C16.7658 12.6797 16.9555 12.7495 17.0657 12.8018L17.266 12.897L17.2456 13.1769C17.2104 13.6605 16.9685 14.2433 16.6576 14.5933L16.5408 14.7248L15.1256 14.7163C14.3472 14.7116 13.704 14.7013 13.6963 14.6932C13.6609 14.6565 13.7866 14.2378 13.9214 13.943C14.1988 13.3363 14.806 12.8294 15.473 12.6477C15.7496 12.5723 16.3668 12.5718 16.6441 12.6468ZM10.051 15.4548C9.89596 15.6775 9.8139 15.988 9.8178 16.3367C9.82519 16.9903 10.204 17.5683 10.785 17.8125L10.9986 17.9023L13.4404 17.9133L15.8823 17.9243L15.9747 17.8281C16.0852 17.7131 16.093 17.5769 15.9961 17.4524L15.9252 17.3611L13.4804 17.3418C11.0626 17.3227 11.0341 17.3216 10.8872 17.2389C10.7117 17.1401 10.5325 16.9503 10.437 16.762C10.3868 16.663 10.3684 16.5436 10.3684 16.3174C10.3684 16.0912 10.3868 15.9718 10.437 15.8728C10.5325 15.6845 10.7117 15.4947 10.8872 15.3959C11.0348 15.3128 11.0515 15.3122 13.6164 15.3014C15.323 15.2942 16.2846 15.3045 16.4556 15.332C17.692 15.5306 18.3614 17.031 17.7296 18.1871C17.4743 18.6541 16.9576 19.0272 16.4384 19.1194C16.271 19.1491 15.2078 19.1587 12.9666 19.1508C9.73752 19.1394 9.73596 19.1393 9.51892 19.054C9.11162 18.8938 8.77287 18.612 8.52687 18.2287C8.17426 17.6792 8.17556 16.788 8.5298 16.2067C8.8439 15.6913 9.47095 15.3093 10.0241 15.2963L10.1636 15.293L10.051 15.4548ZM17.8865 20.2813C17.8865 20.7446 17.8759 20.8459 17.8135 20.973C17.7144 21.1752 17.4711 21.3837 17.2738 21.4355C17.1578 21.4659 14.9951 21.4781 9.74495 21.4781C1.56904 21.4781 2.13853 21.4967 1.86572 21.2209C1.6482 21.0009 1.61137 20.8725 1.59321 20.2701L1.57717 19.7386H9.73188H17.8865V20.2813Z"/>
</mask>
<path fill-rule="evenodd" clip-rule="evenodd" d="M7.70655 3.04832C7.64097 3.10376 7.12172 3.83268 6.8068 4.31141C6.2046 5.22685 6.08845 5.82429 6.38959 6.45707C6.6064 6.91253 7.07063 7.31194 7.47514 7.39095L7.60098 7.41554V7.79519C7.60098 8.12324 7.59214 8.17763 7.536 8.19521C7.50024 8.20639 6.8589 8.37176 6.11076 8.56265C5.36263 8.75354 4.69043 8.93589 4.61698 8.96782C4.395 9.06438 4.12253 9.36003 4.0375 9.59665C3.9632 9.80339 3.96204 9.87684 3.96204 14.4826V19.1587H2.55103C1.16756 19.1587 1.13849 19.1603 1.06211 19.2398C0.999134 19.3054 0.989071 19.3479 1.00964 19.4621C1.02364 19.5397 1.04655 19.9164 1.06059 20.2991C1.0848 20.9595 1.09141 21.0054 1.18966 21.2013C1.33484 21.4908 1.54657 21.7159 1.8176 21.869L2.04975 22H9.73607H17.4224L17.6331 21.8972C17.928 21.7533 18.1612 21.5156 18.3043 21.2133C18.4225 20.9634 18.4252 20.946 18.4374 20.3514L18.45 19.7445L19.1556 19.7319C19.8455 19.7195 19.8628 19.7172 19.9321 19.628C20.0244 19.5093 20.0224 19.3495 19.9274 19.2433C19.8528 19.16 19.8353 19.1587 18.7544 19.1587H17.6572L17.8851 18.8997C18.54 18.1557 18.6958 17.0959 18.2868 16.1684C18.0892 15.7201 17.7812 15.3634 17.3539 15.0874C17.2282 15.0063 17.1295 14.9238 17.1346 14.904C17.1396 14.8843 17.2004 14.7854 17.2695 14.6843C17.585 14.2231 17.7637 13.6837 17.8004 13.0818C17.8278 12.6324 17.8034 12.5773 17.4973 12.3974C17.2765 12.2677 16.6828 12.0458 16.5566 12.0458C16.5015 12.0458 16.475 12.0122 16.4573 11.9201C16.371 11.4705 16.0839 10.8087 15.9294 10.7033C15.8038 10.6177 15.1357 10.6563 14.7926 10.769L14.5392 10.8523L14.2537 10.5683C13.9193 10.2357 13.5626 9.99695 13.4 9.99695C13.2321 9.99695 12.865 10.2385 12.5369 10.5648L12.249 10.8512L12.0508 10.7876C11.9418 10.7527 11.8324 10.7179 11.8077 10.7103C11.774 10.6999 11.76 10.3873 11.752 9.46723C11.7413 8.24721 11.7405 8.23666 11.6496 8.05133C11.5399 7.82782 11.3273 7.61899 11.1052 7.5167C10.7784 7.36621 10.6861 7.3768 9.39104 7.71362C8.73154 7.88511 8.17597 8.02543 8.1564 8.02543C8.13672 8.02543 8.12083 7.88905 8.12083 7.72047V7.41554L8.25777 7.38879C8.83978 7.2751 9.40537 6.62975 9.48862 5.98441C9.56961 5.35673 9.35733 4.88504 8.37611 3.51221C8.03476 3.0346 8.00167 3 7.88686 3C7.81913 3 7.738 3.02176 7.70655 3.04832ZM8.13123 4.11139C8.48729 4.61189 8.70477 4.96023 8.83718 5.24212C9.06506 5.7273 8.96989 6.23429 8.58468 6.58731C7.89551 7.21885 6.78107 6.71399 6.77253 5.76635C6.76926 5.40506 6.92325 5.08861 7.52141 4.22737C7.69489 3.97752 7.84895 3.77314 7.86373 3.77314C7.87847 3.77314 7.99885 3.92538 8.13123 4.11139ZM10.9924 8.08686C11.0462 8.12749 11.124 8.23147 11.1651 8.31791C11.2348 8.46423 11.2399 8.55024 11.2399 9.56461V10.6541H11.0778C10.9729 10.6541 10.883 10.6809 10.823 10.7301C10.6928 10.8367 10.4755 11.3135 10.3779 11.7066L10.2955 12.0386L10.1514 12.0626C9.78037 12.1243 9.14556 12.4278 9.0309 12.5982C8.99451 12.6523 8.97487 12.7721 8.97487 12.9401C8.97487 13.4676 9.14894 14.097 9.41885 14.5455L9.56229 14.7838L9.37069 14.8486C9.01597 14.9685 8.74038 15.1503 8.43363 15.4668C8.11437 15.7962 7.99543 15.9873 7.83536 16.4283C7.74569 16.6754 7.73521 16.7561 7.7344 17.2065C7.73358 17.6541 7.74424 17.7401 7.83168 17.9926C7.95875 18.3594 8.12785 18.6518 8.37548 18.9329L8.5744 19.1587H6.54673H4.51903L4.51917 14.4908C4.51928 9.92938 4.52096 9.82017 4.5918 9.69925C4.63165 9.63117 4.71337 9.54903 4.77338 9.51671C4.83342 9.48439 5.89937 9.19624 7.14222 8.87635C8.38502 8.55647 9.66088 8.22626 9.97743 8.14253C10.6036 7.97692 10.8302 7.96451 10.9924 8.08686ZM13.6535 10.7663C13.7862 10.8702 13.9249 10.9897 13.9615 11.0319C14.0265 11.1067 14.0241 11.1119 13.8687 11.2359C13.781 11.3058 13.6298 11.4421 13.5328 11.5387C13.4358 11.6353 13.3564 11.6943 13.3564 11.6698C13.3564 11.6262 12.9358 11.2353 12.8097 11.1618C12.7494 11.1267 12.75 11.1189 12.8188 11.0379C12.8923 10.9514 13.3586 10.5782 13.3936 10.5778C13.4038 10.5777 13.5208 10.6625 13.6535 10.7663ZM11.5741 11.2501C12.0825 11.3451 12.5553 11.6042 12.9049 11.9794L13.066 12.1523L13.0033 12.2785C12.9688 12.3479 12.9043 12.5054 12.8598 12.6284L12.7791 12.8521L12.5386 12.6574C12.1275 12.3244 11.6941 12.1284 11.1774 12.0416C11.0178 12.0148 10.8819 11.9891 10.8754 11.9845C10.8426 11.9612 11.0623 11.3391 11.137 11.2436C11.1835 11.1841 11.2244 11.1847 11.5741 11.2501ZM15.7096 11.3789C15.7916 11.5477 15.9305 11.9721 15.9092 11.9887C15.9041 11.9927 15.7688 12.0174 15.6084 12.0436C14.7191 12.1892 13.9411 12.7439 13.4971 13.5491L13.3822 13.7574L13.3152 13.6264C13.2331 13.466 13.2295 13.3278 13.3002 13.0509C13.5341 12.1346 14.3236 11.3961 15.2412 11.2353C15.5966 11.173 15.6116 11.1776 15.7096 11.3789ZM11.2956 12.6494C11.9099 12.8043 12.4457 13.2181 12.7915 13.8047C12.903 13.9938 13.0965 14.5316 13.0965 14.6523C13.0965 14.7066 12.9413 14.7131 11.6515 14.7131H10.2065L10.0309 14.4715C9.72408 14.0495 9.53185 13.5217 9.53185 13.1015C9.53185 12.9048 9.53664 12.8953 9.67109 12.825C10.1509 12.5742 10.7433 12.5101 11.2956 12.6494ZM16.6441 12.6468C16.7658 12.6797 16.9555 12.7495 17.0657 12.8018L17.266 12.897L17.2456 13.1769C17.2104 13.6605 16.9685 14.2433 16.6576 14.5933L16.5408 14.7248L15.1256 14.7163C14.3472 14.7116 13.704 14.7013 13.6963 14.6932C13.6609 14.6565 13.7866 14.2378 13.9214 13.943C14.1988 13.3363 14.806 12.8294 15.473 12.6477C15.7496 12.5723 16.3668 12.5718 16.6441 12.6468ZM10.051 15.4548C9.89596 15.6775 9.8139 15.988 9.8178 16.3367C9.82519 16.9903 10.204 17.5683 10.785 17.8125L10.9986 17.9023L13.4404 17.9133L15.8823 17.9243L15.9747 17.8281C16.0852 17.7131 16.093 17.5769 15.9961 17.4524L15.9252 17.3611L13.4804 17.3418C11.0626 17.3227 11.0341 17.3216 10.8872 17.2389C10.7117 17.1401 10.5325 16.9503 10.437 16.762C10.3868 16.663 10.3684 16.5436 10.3684 16.3174C10.3684 16.0912 10.3868 15.9718 10.437 15.8728C10.5325 15.6845 10.7117 15.4947 10.8872 15.3959C11.0348 15.3128 11.0515 15.3122 13.6164 15.3014C15.323 15.2942 16.2846 15.3045 16.4556 15.332C17.692 15.5306 18.3614 17.031 17.7296 18.1871C17.4743 18.6541 16.9576 19.0272 16.4384 19.1194C16.271 19.1491 15.2078 19.1587 12.9666 19.1508C9.73752 19.1394 9.73596 19.1393 9.51892 19.054C9.11162 18.8938 8.77287 18.612 8.52687 18.2287C8.17426 17.6792 8.17556 16.788 8.5298 16.2067C8.8439 15.6913 9.47095 15.3093 10.0241 15.2963L10.1636 15.293L10.051 15.4548ZM17.8865 20.2813C17.8865 20.7446 17.8759 20.8459 17.8135 20.973C17.7144 21.1752 17.4711 21.3837 17.2738 21.4355C17.1578 21.4659 14.9951 21.4781 9.74495 21.4781C1.56904 21.4781 2.13853 21.4967 1.86572 21.2209C1.6482 21.0009 1.61137 20.8725 1.59321 20.2701L1.57717 19.7386H9.73188H17.8865V20.2813Z" fill="#45474D"/>
<path fill-rule="evenodd" clip-rule="evenodd" d="M7.70655 3.04832C7.64097 3.10376 7.12172 3.83268 6.8068 4.31141C6.2046 5.22685 6.08845 5.82429 6.38959 6.45707C6.6064 6.91253 7.07063 7.31194 7.47514 7.39095L7.60098 7.41554V7.79519C7.60098 8.12324 7.59214 8.17763 7.536 8.19521C7.50024 8.20639 6.8589 8.37176 6.11076 8.56265C5.36263 8.75354 4.69043 8.93589 4.61698 8.96782C4.395 9.06438 4.12253 9.36003 4.0375 9.59665C3.9632 9.80339 3.96204 9.87684 3.96204 14.4826V19.1587H2.55103C1.16756 19.1587 1.13849 19.1603 1.06211 19.2398C0.999134 19.3054 0.989071 19.3479 1.00964 19.4621C1.02364 19.5397 1.04655 19.9164 1.06059 20.2991C1.0848 20.9595 1.09141 21.0054 1.18966 21.2013C1.33484 21.4908 1.54657 21.7159 1.8176 21.869L2.04975 22H9.73607H17.4224L17.6331 21.8972C17.928 21.7533 18.1612 21.5156 18.3043 21.2133C18.4225 20.9634 18.4252 20.946 18.4374 20.3514L18.45 19.7445L19.1556 19.7319C19.8455 19.7195 19.8628 19.7172 19.9321 19.628C20.0244 19.5093 20.0224 19.3495 19.9274 19.2433C19.8528 19.16 19.8353 19.1587 18.7544 19.1587H17.6572L17.8851 18.8997C18.54 18.1557 18.6958 17.0959 18.2868 16.1684C18.0892 15.7201 17.7812 15.3634 17.3539 15.0874C17.2282 15.0063 17.1295 14.9238 17.1346 14.904C17.1396 14.8843 17.2004 14.7854 17.2695 14.6843C17.585 14.2231 17.7637 13.6837 17.8004 13.0818C17.8278 12.6324 17.8034 12.5773 17.4973 12.3974C17.2765 12.2677 16.6828 12.0458 16.5566 12.0458C16.5015 12.0458 16.475 12.0122 16.4573 11.9201C16.371 11.4705 16.0839 10.8087 15.9294 10.7033C15.8038 10.6177 15.1357 10.6563 14.7926 10.769L14.5392 10.8523L14.2537 10.5683C13.9193 10.2357 13.5626 9.99695 13.4 9.99695C13.2321 9.99695 12.865 10.2385 12.5369 10.5648L12.249 10.8512L12.0508 10.7876C11.9418 10.7527 11.8324 10.7179 11.8077 10.7103C11.774 10.6999 11.76 10.3873 11.752 9.46723C11.7413 8.24721 11.7405 8.23666 11.6496 8.05133C11.5399 7.82782 11.3273 7.61899 11.1052 7.5167C10.7784 7.36621 10.6861 7.3768 9.39104 7.71362C8.73154 7.88511 8.17597 8.02543 8.1564 8.02543C8.13672 8.02543 8.12083 7.88905 8.12083 7.72047V7.41554L8.25777 7.38879C8.83978 7.2751 9.40537 6.62975 9.48862 5.98441C9.56961 5.35673 9.35733 4.88504 8.37611 3.51221C8.03476 3.0346 8.00167 3 7.88686 3C7.81913 3 7.738 3.02176 7.70655 3.04832ZM8.13123 4.11139C8.48729 4.61189 8.70477 4.96023 8.83718 5.24212C9.06506 5.7273 8.96989 6.23429 8.58468 6.58731C7.89551 7.21885 6.78107 6.71399 6.77253 5.76635C6.76926 5.40506 6.92325 5.08861 7.52141 4.22737C7.69489 3.97752 7.84895 3.77314 7.86373 3.77314C7.87847 3.77314 7.99885 3.92538 8.13123 4.11139ZM10.9924 8.08686C11.0462 8.12749 11.124 8.23147 11.1651 8.31791C11.2348 8.46423 11.2399 8.55024 11.2399 9.56461V10.6541H11.0778C10.9729 10.6541 10.883 10.6809 10.823 10.7301C10.6928 10.8367 10.4755 11.3135 10.3779 11.7066L10.2955 12.0386L10.1514 12.0626C9.78037 12.1243 9.14556 12.4278 9.0309 12.5982C8.99451 12.6523 8.97487 12.7721 8.97487 12.9401C8.97487 13.4676 9.14894 14.097 9.41885 14.5455L9.56229 14.7838L9.37069 14.8486C9.01597 14.9685 8.74038 15.1503 8.43363 15.4668C8.11437 15.7962 7.99543 15.9873 7.83536 16.4283C7.74569 16.6754 7.73521 16.7561 7.7344 17.2065C7.73358 17.6541 7.74424 17.7401 7.83168 17.9926C7.95875 18.3594 8.12785 18.6518 8.37548 18.9329L8.5744 19.1587H6.54673H4.51903L4.51917 14.4908C4.51928 9.92938 4.52096 9.82017 4.5918 9.69925C4.63165 9.63117 4.71337 9.54903 4.77338 9.51671C4.83342 9.48439 5.89937 9.19624 7.14222 8.87635C8.38502 8.55647 9.66088 8.22626 9.97743 8.14253C10.6036 7.97692 10.8302 7.96451 10.9924 8.08686ZM13.6535 10.7663C13.7862 10.8702 13.9249 10.9897 13.9615 11.0319C14.0265 11.1067 14.0241 11.1119 13.8687 11.2359C13.781 11.3058 13.6298 11.4421 13.5328 11.5387C13.4358 11.6353 13.3564 11.6943 13.3564 11.6698C13.3564 11.6262 12.9358 11.2353 12.8097 11.1618C12.7494 11.1267 12.75 11.1189 12.8188 11.0379C12.8923 10.9514 13.3586 10.5782 13.3936 10.5778C13.4038 10.5777 13.5208 10.6625 13.6535 10.7663ZM11.5741 11.2501C12.0825 11.3451 12.5553 11.6042 12.9049 11.9794L13.066 12.1523L13.0033 12.2785C12.9688 12.3479 12.9043 12.5054 12.8598 12.6284L12.7791 12.8521L12.5386 12.6574C12.1275 12.3244 11.6941 12.1284 11.1774 12.0416C11.0178 12.0148 10.8819 11.9891 10.8754 11.9845C10.8426 11.9612 11.0623 11.3391 11.137 11.2436C11.1835 11.1841 11.2244 11.1847 11.5741 11.2501ZM15.7096 11.3789C15.7916 11.5477 15.9305 11.9721 15.9092 11.9887C15.9041 11.9927 15.7688 12.0174 15.6084 12.0436C14.7191 12.1892 13.9411 12.7439 13.4971 13.5491L13.3822 13.7574L13.3152 13.6264C13.2331 13.466 13.2295 13.3278 13.3002 13.0509C13.5341 12.1346 14.3236 11.3961 15.2412 11.2353C15.5966 11.173 15.6116 11.1776 15.7096 11.3789ZM11.2956 12.6494C11.9099 12.8043 12.4457 13.2181 12.7915 13.8047C12.903 13.9938 13.0965 14.5316 13.0965 14.6523C13.0965 14.7066 12.9413 14.7131 11.6515 14.7131H10.2065L10.0309 14.4715C9.72408 14.0495 9.53185 13.5217 9.53185 13.1015C9.53185 12.9048 9.53664 12.8953 9.67109 12.825C10.1509 12.5742 10.7433 12.5101 11.2956 12.6494ZM16.6441 12.6468C16.7658 12.6797 16.9555 12.7495 17.0657 12.8018L17.266 12.897L17.2456 13.1769C17.2104 13.6605 16.9685 14.2433 16.6576 14.5933L16.5408 14.7248L15.1256 14.7163C14.3472 14.7116 13.704 14.7013 13.6963 14.6932C13.6609 14.6565 13.7866 14.2378 13.9214 13.943C14.1988 13.3363 14.806 12.8294 15.473 12.6477C15.7496 12.5723 16.3668 12.5718 16.6441 12.6468ZM10.051 15.4548C9.89596 15.6775 9.8139 15.988 9.8178 16.3367C9.82519 16.9903 10.204 17.5683 10.785 17.8125L10.9986 17.9023L13.4404 17.9133L15.8823 17.9243L15.9747 17.8281C16.0852 17.7131 16.093 17.5769 15.9961 17.4524L15.9252 17.3611L13.4804 17.3418C11.0626 17.3227 11.0341 17.3216 10.8872 17.2389C10.7117 17.1401 10.5325 16.9503 10.437 16.762C10.3868 16.663 10.3684 16.5436 10.3684 16.3174C10.3684 16.0912 10.3868 15.9718 10.437 15.8728C10.5325 15.6845 10.7117 15.4947 10.8872 15.3959C11.0348 15.3128 11.0515 15.3122 13.6164 15.3014C15.323 15.2942 16.2846 15.3045 16.4556 15.332C17.692 15.5306 18.3614 17.031 17.7296 18.1871C17.4743 18.6541 16.9576 19.0272 16.4384 19.1194C16.271 19.1491 15.2078 19.1587 12.9666 19.1508C9.73752 19.1394 9.73596 19.1393 9.51892 19.054C9.11162 18.8938 8.77287 18.612 8.52687 18.2287C8.17426 17.6792 8.17556 16.788 8.5298 16.2067C8.8439 15.6913 9.47095 15.3093 10.0241 15.2963L10.1636 15.293L10.051 15.4548ZM17.8865 20.2813C17.8865 20.7446 17.8759 20.8459 17.8135 20.973C17.7144 21.1752 17.4711 21.3837 17.2738 21.4355C17.1578 21.4659 14.9951 21.4781 9.74495 21.4781C1.56904 21.4781 2.13853 21.4967 1.86572 21.2209C1.6482 21.0009 1.61137 20.8725 1.59321 20.2701L1.57717 19.7386H9.73188H17.8865V20.2813Z" stroke="#45474D" stroke-width="0.4" mask="url(#path-1-outside-1_2052_1793)"/>
</svg>
