<svg width="21" height="26" viewBox="0 0 21 26" fill="none" xmlns="http://www.w3.org/2000/svg">
<path fill-rule="evenodd" clip-rule="evenodd" d="M2.5795 2.51177C2.54736 2.52255 2.44924 2.5468 2.3614 2.56568C2.14722 2.61179 1.79167 2.92418 1.69419 3.15195C1.62891 3.30446 1.61523 5.01916 1.61523 13.0399C1.61523 21.6834 1.62517 22.7665 1.70599 22.9555C1.82574 23.2354 2.05629 23.4641 2.29694 23.5415C2.48068 23.6008 2.4919 23.6197 2.49272 23.871C2.49371 24.1701 2.52393 24.2346 2.7072 24.3287C2.86008 24.4073 3.10056 24.3353 3.15596 24.1943C3.17642 24.1423 3.19313 23.9863 3.19313 23.8476V23.5955H10.4982H17.8033L17.8042 23.8665C17.8052 24.1714 17.8347 24.2342 18.0224 24.3307C18.1238 24.3829 18.1841 24.3829 18.2854 24.3307C18.4727 24.2345 18.5026 24.1713 18.5037 23.871C18.5045 23.6199 18.5159 23.6007 18.6987 23.5418C18.9266 23.4684 19.2311 23.1779 19.3192 22.9499C19.4063 22.7241 19.4062 3.41219 19.319 3.18693C19.242 2.98774 18.9992 2.73275 18.7676 2.60757C18.6068 2.52067 17.9275 2.51194 10.6151 2.50252C6.22766 2.49687 2.61165 2.50104 2.5795 2.51177ZM10.1476 10.5008V17.7757H6.26126H2.37496V10.5905C2.37496 4.13459 2.38425 3.39621 2.46677 3.31565C2.54841 3.236 2.98152 3.22601 6.35307 3.22601H10.1476V10.5008ZM18.5372 3.30698C18.6483 3.38629 18.651 3.53566 18.6662 10.5818L18.6817 17.7757H14.7653H10.8489V10.5008V3.22601H14.6363C17.815 3.22601 18.442 3.23902 18.5372 3.30698ZM9.1833 9.8558C8.99775 9.95851 8.98062 10.0157 8.97963 10.5348C8.97864 11.075 9.05233 11.2141 9.33957 11.2141C9.60325 11.2141 9.68016 11.058 9.67916 10.5249C9.67817 10.0087 9.6607 9.95394 9.46475 9.85323C9.31286 9.77518 9.32916 9.77501 9.1833 9.8558ZM11.5209 9.8558C11.3354 9.95851 11.3182 10.0157 11.3173 10.5348C11.3163 11.075 11.39 11.2141 11.6772 11.2141C11.9409 11.2141 12.0178 11.058 12.0168 10.5249C12.0158 10.0087 11.9983 9.95394 11.8024 9.85323C11.6505 9.77518 11.6668 9.77501 11.5209 9.8558ZM10.1476 20.7141V22.9108H6.39118C3.08589 22.9108 2.61913 22.9002 2.50488 22.822L2.37496 22.7332V20.6253V18.5174H6.26126H10.1476V20.7141ZM18.6215 20.6253V22.7332L18.4915 22.822C18.3773 22.9002 17.9105 22.9108 14.6052 22.9108H10.8489V20.7141V18.5174H14.7352H18.6215V20.6253ZM9.17044 20.402C8.91716 20.5004 8.91628 20.8879 9.16909 21.026C9.31309 21.1046 9.34576 21.1046 9.49011 21.0262C9.88838 20.8096 9.59501 20.2369 9.17044 20.402ZM11.5081 20.402C11.2548 20.5004 11.2539 20.8879 11.5067 21.026C11.6507 21.1046 11.6834 21.1046 11.8277 21.0262C12.226 20.8096 11.9326 20.2369 11.5081 20.402Z" fill="#45474D"/>
</svg>
