<svg width="21" height="26" viewBox="0 0 21 26" fill="none" xmlns="http://www.w3.org/2000/svg">
<path fill-rule="evenodd" clip-rule="evenodd" d="M8.43498 5.02346C8.28512 5.05948 8.18119 5.14093 8.11211 5.27648C8.04825 5.40169 8.04536 5.42684 8.04675 5.84552C8.04806 6.24418 8.0546 6.30456 8.11927 6.517C8.20217 6.78918 8.27953 6.9511 8.45601 7.22174C8.67427 7.5564 8.75194 7.92766 8.678 8.28269C8.65313 8.40212 8.60847 8.52055 8.56435 8.58392C8.40867 8.80768 8.3744 8.88158 8.37395 8.99457C8.37282 9.29522 8.62123 9.50895 8.92036 9.46472C9.02469 9.44926 9.06542 9.42353 9.19169 9.2932C9.37125 9.10785 9.53043 8.79019 9.59573 8.48681C9.65064 8.23175 9.63646 7.70218 9.56758 7.43654C9.51233 7.22344 9.36245 6.89464 9.21892 6.67176C9.01253 6.35118 8.92798 5.99453 8.97593 5.6466C9.00733 5.41865 8.98065 5.29882 8.87021 5.17183C8.80546 5.09738 8.59347 4.98985 8.53297 5.00077C8.5247 5.00228 8.48062 5.01249 8.43498 5.02346ZM10.356 5.01082C10.3416 5.01583 10.2975 5.02712 10.258 5.03589C10.2186 5.04466 10.1447 5.08871 10.0939 5.1338C9.9572 5.2549 9.91101 5.43569 9.91177 5.84623C9.91275 6.36738 10.0291 6.75509 10.3183 7.20025C10.492 7.46771 10.5565 7.65913 10.5727 7.95498C10.5887 8.24635 10.5384 8.45066 10.4058 8.63304C10.3566 8.70071 10.2976 8.80148 10.2746 8.85695C10.1601 9.13359 10.3991 9.47487 10.7088 9.47686C10.9984 9.47874 11.3106 9.1017 11.4515 8.58008C11.4941 8.42248 11.5062 8.30093 11.5057 8.03291C11.5049 7.49856 11.3928 7.14236 11.0513 6.58891C10.8828 6.31588 10.8585 6.20991 10.8566 5.74021C10.8551 5.36461 10.85 5.32135 10.7972 5.23561C10.716 5.10388 10.4615 4.97419 10.356 5.01082ZM3.949 6.80416C3.31318 6.87665 2.61227 7.12988 2.07153 7.4825C1.04908 8.14924 0.357227 9.14538 0.0876852 10.3389C0.029628 10.596 0.0134528 10.7438 0.00326459 11.1103C-0.0114138 11.6396 0.0222231 11.9881 0.128254 12.4055C0.82909 15.1641 1.00809 15.855 1.06557 16.0232C1.60277 17.5946 2.9348 18.9843 4.5076 19.6141C5.03384 19.8248 5.49788 19.9326 6.05243 19.973C6.55099 20.0093 14.4925 20.0089 14.9644 19.9726C15.4181 19.9376 15.7523 19.8687 16.2117 19.7152C17.8857 19.1561 19.3721 17.6825 19.9357 16.0234C20.0114 15.8004 20.8196 12.6497 20.9179 12.1942C21.0044 11.7931 21.0254 11.1745 20.9673 10.7364C20.8348 9.73674 20.4322 8.88685 19.7574 8.18176C19.1437 7.54063 18.4578 7.13306 17.6359 6.92115C17.0882 6.77993 16.8934 6.77018 14.8049 6.77911L12.9255 6.78717L12.8303 6.85298C12.5816 7.02502 12.548 7.3892 12.7627 7.58563C12.9091 7.71948 12.8213 7.71387 15.0169 7.73001C16.9927 7.74456 17.0874 7.74747 17.3014 7.80067C18.8519 8.18619 19.923 9.44197 20.054 11.028C20.1178 11.7998 19.9266 12.5832 19.5193 13.219C18.9909 14.0438 18.1996 14.5973 17.2437 14.8108L16.9731 14.8712H10.5005C4.29238 14.8712 4.01867 14.8692 3.80458 14.822C2.97227 14.6385 2.30281 14.2468 1.79506 13.6461C1.21567 12.9607 0.940163 12.2035 0.934018 11.2798C0.927821 10.3443 1.26388 9.50728 1.91923 8.82578C2.32414 8.40472 2.7882 8.10164 3.30985 7.91756C3.7976 7.74543 3.77452 7.74739 5.49824 7.7304C7.17103 7.71389 7.12201 7.71789 7.26661 7.58563C7.48285 7.38785 7.44948 7.02624 7.19902 6.85298L7.10389 6.78717L5.63148 6.78369C4.82165 6.78178 4.06454 6.79098 3.949 6.80416ZM7.84837 10.1514C7.32598 10.2517 6.85328 10.6476 6.85113 10.9865C6.85031 11.1135 6.94718 11.3018 7.04452 11.3623C7.28292 11.5105 7.45544 11.485 7.69082 11.2665C7.86924 11.101 8.00064 11.0537 8.21249 11.0787C8.41828 11.1031 8.58938 11.1876 8.81284 11.3751C9.16835 11.6734 9.48256 11.8042 9.90269 11.8286C10.2281 11.8475 10.4262 11.8093 10.7066 11.6735C10.8839 11.5876 10.967 11.525 11.1412 11.3465C11.3853 11.0961 11.4872 11.0499 11.7311 11.0787C11.9369 11.1031 12.108 11.1876 12.3315 11.3751C12.687 11.6734 13.0012 11.8042 13.4213 11.8286C13.7452 11.8474 13.9448 11.8093 14.2199 11.676C14.3904 11.5935 14.4787 11.527 14.6541 11.3492C14.904 11.0958 15.0055 11.0498 15.2511 11.0789C15.4332 11.1005 15.5859 11.1693 15.7822 11.3182C15.8682 11.3835 15.9798 11.4447 16.0301 11.4542C16.4313 11.5302 16.7394 11.0632 16.5064 10.7325C16.381 10.5546 16.0547 10.3378 15.7516 10.2309C15.3584 10.0922 14.939 10.0946 14.5908 10.2373C14.3782 10.3245 14.2525 10.4145 14.0462 10.6271C13.8355 10.8442 13.7496 10.887 13.5212 10.8884C13.296 10.8898 13.1266 10.8152 12.8602 10.597C12.6194 10.3999 12.4779 10.3172 12.233 10.2309C11.8398 10.0922 11.4204 10.0946 11.0722 10.2373C10.855 10.3265 10.7224 10.4222 10.5102 10.6433C10.3111 10.8509 10.2302 10.8888 9.98761 10.8888C9.77696 10.8888 9.60072 10.8092 9.3416 10.597C9.0009 10.318 8.69867 10.1837 8.3103 10.1386C8.06009 10.1096 8.06726 10.1094 7.84837 10.1514ZM4.31987 12.1541C3.92847 12.2257 3.48265 12.5308 3.36932 12.8046C3.22327 13.1574 3.51773 13.5134 3.89633 13.4417C3.95738 13.4302 4.04301 13.3763 4.13738 13.29C4.31877 13.1242 4.41577 13.0821 4.61675 13.0821C4.84481 13.0821 5.02483 13.1608 5.28902 13.3759C5.76763 13.7655 6.25055 13.9092 6.76568 13.8151C7.09557 13.7548 7.34473 13.6196 7.5908 13.3673C7.82153 13.1308 7.91433 13.0821 8.13537 13.0821C8.36342 13.0821 8.54345 13.1608 8.80764 13.3759C9.28625 13.7655 9.76917 13.9092 10.2843 13.8151C10.6146 13.7547 10.8637 13.6194 11.1069 13.3683C11.2166 13.255 11.3492 13.1443 11.4015 13.1222C11.6318 13.0251 11.9952 13.1023 12.2372 13.2998C12.3928 13.4268 12.4554 13.4563 12.5722 13.458C12.7028 13.4598 12.7794 13.4347 12.8834 13.356C13.0552 13.2261 13.1071 12.9774 13.0047 12.7753C12.9067 12.5821 12.4858 12.3056 12.1126 12.1896C11.9014 12.1238 11.3851 12.1258 11.1963 12.193C10.9082 12.2956 10.7752 12.3807 10.5443 12.6103C10.2788 12.8742 10.205 12.9089 9.94814 12.8904C9.72781 12.8745 9.60384 12.8146 9.33196 12.5927C9.10722 12.4093 8.8512 12.2691 8.59673 12.1902C8.38259 12.1238 7.86759 12.1254 7.67769 12.193C7.38866 12.2959 7.25695 12.3804 7.02787 12.6096C6.76405 12.8736 6.68846 12.9091 6.42952 12.8904C6.20919 12.8745 6.08522 12.8146 5.81334 12.5927C5.59204 12.4121 5.332 12.269 5.09124 12.1952C4.92124 12.1431 4.50198 12.1208 4.31987 12.1541ZM2.49195 15.3525C3.04923 15.6292 3.54105 15.7623 4.18533 15.8108C4.65617 15.8462 16.3334 15.8477 16.8025 15.8124C16.983 15.7988 17.2337 15.7694 17.3597 15.7469C17.8764 15.6549 18.5608 15.3682 19.041 15.0425C19.1674 14.9568 19.2708 14.8913 19.2708 14.897C19.2708 14.9617 19.0413 15.7482 18.9713 15.9233C18.4479 17.2334 17.2466 18.3691 15.9094 18.818C15.2199 19.0495 15.6463 19.0325 10.5005 19.0325C6.23445 19.0325 5.92878 19.0295 5.69518 18.9851C4.10025 18.682 2.62479 17.4443 2.01683 15.8994C1.95342 15.7383 1.73017 14.9606 1.73017 14.9008C1.73017 14.8936 1.83962 14.9616 1.97335 15.0518C2.10711 15.142 2.34049 15.2773 2.49195 15.3525Z" fill="#45474D"/>
</svg>
