<svg width="21" height="26" viewBox="0 0 21 26" fill="none" xmlns="http://www.w3.org/2000/svg">
<mask id="path-1-outside-1_2052_1784" maskUnits="userSpaceOnUse" x="0" y="4" width="21" height="18" fill="black">
<rect fill="white" y="4" width="21" height="18"/>
<path fill-rule="evenodd" clip-rule="evenodd" d="M7.05555 5.06987C6.31897 5.3341 5.77024 6.00367 5.50573 6.96102C5.40838 7.31344 5.39634 7.42923 5.39449 8.03147C5.39265 8.61599 5.40506 8.75211 5.48664 9.04439C6.02861 10.9854 7.71322 11.7045 8.93736 10.5173C9.54575 9.92731 9.87884 9.05536 9.87958 8.05105C9.88057 6.70469 9.31565 5.59683 8.40531 5.1598C8.12507 5.02526 8.07004 5.01322 7.68831 5.00261C7.35645 4.99344 7.23161 5.00671 7.05555 5.06987ZM12.8055 5.06196C11.9835 5.34622 11.4171 6.08573 11.1886 7.17282C10.8579 8.74639 11.4704 10.3753 12.5944 10.9109C13.3134 11.2536 14.0525 11.1128 14.6622 10.517C14.9674 10.2188 15.1507 9.94455 15.3293 9.51908C15.7456 8.52736 15.691 7.20031 15.194 6.22615C14.9632 5.77387 14.5302 5.34089 14.1171 5.14915C13.861 5.03034 13.7864 5.01473 13.4206 5.00349C13.1055 4.99384 12.9634 5.00734 12.8055 5.06196ZM8.15207 5.76918C8.71981 6.06877 9.11039 6.80308 9.17574 7.69382C9.2653 8.91402 8.84305 9.9608 8.1231 10.3036C7.33301 10.6797 6.52129 10.1339 6.18905 9.00304C6.07568 8.61714 6.03528 7.85196 6.10588 7.42732C6.33163 6.06849 7.27327 5.30546 8.15207 5.76918ZM13.7515 5.71226C14.0562 5.82277 14.4122 6.16426 14.5817 6.50874C14.8297 7.0125 14.8943 7.32718 14.8943 8.03147C14.8943 8.57587 14.8808 8.71263 14.8002 8.98481C14.5301 9.89621 14.0087 10.4135 13.3591 10.4144C12.548 10.4156 11.9045 9.57414 11.8102 8.38897C11.7033 7.04634 12.185 5.97463 13.0265 5.6831C13.2446 5.60755 13.4901 5.6174 13.7515 5.71226ZM2.37552 9.12424C2.11441 9.1671 1.86818 9.29778 1.62034 9.52504C1.3725 9.75225 1.23439 9.98419 1.10218 10.395C0.967339 10.8138 0.965701 11.7161 1.09878 12.2304C1.55266 13.9845 2.75025 14.9067 3.87643 14.3691C4.51169 14.0659 4.87711 13.3167 4.87776 12.316C4.87879 10.7424 3.98086 9.32988 2.85079 9.12733C2.71813 9.10358 2.59914 9.08622 2.58636 9.0888C2.57362 9.09135 2.47873 9.10731 2.37552 9.12424ZM18.0708 9.13945C17.36 9.2929 16.6813 9.99035 16.3443 10.9138C15.9989 11.8601 16.0207 12.9727 16.3982 13.6593C16.8921 14.5578 17.8964 14.7672 18.7589 14.1517C19.6728 13.4993 20.2205 11.7997 19.9149 10.5639C19.6614 9.53894 18.9097 8.95832 18.0708 9.13945ZM3.0636 9.90109C3.77162 10.2362 4.33981 11.6251 4.18731 12.6478C4.12344 13.0761 4.0136 13.3578 3.82886 13.5671C3.64059 13.7803 3.49666 13.8509 3.25149 13.8504C2.50659 13.849 1.81975 12.8629 1.68598 11.6029C1.59531 10.7488 1.83269 10.0745 2.30616 9.84127C2.52154 9.73517 2.75143 9.75332 3.0636 9.90109ZM18.7797 9.90459C19.1626 10.1431 19.3238 10.6494 19.2889 11.5033C19.2709 11.9434 19.2466 12.1021 19.1579 12.3602C18.9231 13.043 18.5307 13.5777 18.1324 13.7575C17.472 14.0557 16.925 13.6167 16.7989 12.6871C16.6623 11.6798 17.1134 10.4314 17.7732 9.99126C18.1381 9.74788 18.4809 9.71837 18.7797 9.90459ZM9.80862 12.4769C9.2621 12.578 8.7523 12.7847 8.2758 13.0981C8.06017 13.24 5.34172 15.6984 4.59092 16.4305C4.05346 16.9546 3.82255 17.4391 3.78354 18.1247C3.75388 18.646 3.83722 19.0283 4.09025 19.5312C4.5386 20.4222 5.47418 20.9983 6.47593 21C6.88991 21.0007 7.49862 20.8981 8.24597 20.7016C9.42046 20.3927 9.59856 20.3613 10.3067 20.3379C11.1077 20.3113 11.5908 20.3721 12.6216 20.6287C14.0524 20.9849 14.4959 21.0435 15.0184 20.945C15.5286 20.8488 15.9752 20.6151 16.3486 20.2489C16.7124 19.8922 16.8883 19.6182 17.0555 19.148C17.3489 18.3227 17.2076 17.4033 16.6855 16.7394C16.6024 16.6338 16.1289 16.1759 15.6331 15.7218C15.1373 15.2676 14.3261 14.5245 13.8303 14.0703C13.3346 13.6161 12.8221 13.1742 12.6916 13.0882C12.3502 12.8635 11.8327 12.6331 11.4539 12.5374C11.031 12.4304 10.2207 12.4006 9.80862 12.4769ZM11.4747 13.2524C11.9949 13.4207 12.3284 13.6195 12.7899 14.0365C14.7872 15.8415 16.0535 17.0349 16.1936 17.2443C16.5927 17.8405 16.6249 18.609 16.2787 19.2718C16.0333 19.7417 15.4369 20.1769 14.8867 20.2877C14.5283 20.3598 14.2082 20.3182 13.0928 20.0543C11.6425 19.7111 11.4123 19.6762 10.5935 19.6749C9.80354 19.6737 9.65346 19.6966 8.27609 20.0276C7.31855 20.2577 6.90765 20.3259 6.48322 20.3251C5.94421 20.3242 5.45599 20.1268 5.06025 19.7496C4.48989 19.2061 4.29388 18.4065 4.55241 17.6781C4.72101 17.203 4.7939 17.1272 7.11857 15.0098C8.68342 13.5845 8.82412 13.477 9.36769 13.2919C9.83755 13.132 10.0801 13.0963 10.5938 13.1118C11.0115 13.1243 11.1443 13.1456 11.4747 13.2524Z"/>
</mask>
<path fill-rule="evenodd" clip-rule="evenodd" d="M7.05555 5.06987C6.31897 5.3341 5.77024 6.00367 5.50573 6.96102C5.40838 7.31344 5.39634 7.42923 5.39449 8.03147C5.39265 8.61599 5.40506 8.75211 5.48664 9.04439C6.02861 10.9854 7.71322 11.7045 8.93736 10.5173C9.54575 9.92731 9.87884 9.05536 9.87958 8.05105C9.88057 6.70469 9.31565 5.59683 8.40531 5.1598C8.12507 5.02526 8.07004 5.01322 7.68831 5.00261C7.35645 4.99344 7.23161 5.00671 7.05555 5.06987ZM12.8055 5.06196C11.9835 5.34622 11.4171 6.08573 11.1886 7.17282C10.8579 8.74639 11.4704 10.3753 12.5944 10.9109C13.3134 11.2536 14.0525 11.1128 14.6622 10.517C14.9674 10.2188 15.1507 9.94455 15.3293 9.51908C15.7456 8.52736 15.691 7.20031 15.194 6.22615C14.9632 5.77387 14.5302 5.34089 14.1171 5.14915C13.861 5.03034 13.7864 5.01473 13.4206 5.00349C13.1055 4.99384 12.9634 5.00734 12.8055 5.06196ZM8.15207 5.76918C8.71981 6.06877 9.11039 6.80308 9.17574 7.69382C9.2653 8.91402 8.84305 9.9608 8.1231 10.3036C7.33301 10.6797 6.52129 10.1339 6.18905 9.00304C6.07568 8.61714 6.03528 7.85196 6.10588 7.42732C6.33163 6.06849 7.27327 5.30546 8.15207 5.76918ZM13.7515 5.71226C14.0562 5.82277 14.4122 6.16426 14.5817 6.50874C14.8297 7.0125 14.8943 7.32718 14.8943 8.03147C14.8943 8.57587 14.8808 8.71263 14.8002 8.98481C14.5301 9.89621 14.0087 10.4135 13.3591 10.4144C12.548 10.4156 11.9045 9.57414 11.8102 8.38897C11.7033 7.04634 12.185 5.97463 13.0265 5.6831C13.2446 5.60755 13.4901 5.6174 13.7515 5.71226ZM2.37552 9.12424C2.11441 9.1671 1.86818 9.29778 1.62034 9.52504C1.3725 9.75225 1.23439 9.98419 1.10218 10.395C0.967339 10.8138 0.965701 11.7161 1.09878 12.2304C1.55266 13.9845 2.75025 14.9067 3.87643 14.3691C4.51169 14.0659 4.87711 13.3167 4.87776 12.316C4.87879 10.7424 3.98086 9.32988 2.85079 9.12733C2.71813 9.10358 2.59914 9.08622 2.58636 9.0888C2.57362 9.09135 2.47873 9.10731 2.37552 9.12424ZM18.0708 9.13945C17.36 9.2929 16.6813 9.99035 16.3443 10.9138C15.9989 11.8601 16.0207 12.9727 16.3982 13.6593C16.8921 14.5578 17.8964 14.7672 18.7589 14.1517C19.6728 13.4993 20.2205 11.7997 19.9149 10.5639C19.6614 9.53894 18.9097 8.95832 18.0708 9.13945ZM3.0636 9.90109C3.77162 10.2362 4.33981 11.6251 4.18731 12.6478C4.12344 13.0761 4.0136 13.3578 3.82886 13.5671C3.64059 13.7803 3.49666 13.8509 3.25149 13.8504C2.50659 13.849 1.81975 12.8629 1.68598 11.6029C1.59531 10.7488 1.83269 10.0745 2.30616 9.84127C2.52154 9.73517 2.75143 9.75332 3.0636 9.90109ZM18.7797 9.90459C19.1626 10.1431 19.3238 10.6494 19.2889 11.5033C19.2709 11.9434 19.2466 12.1021 19.1579 12.3602C18.9231 13.043 18.5307 13.5777 18.1324 13.7575C17.472 14.0557 16.925 13.6167 16.7989 12.6871C16.6623 11.6798 17.1134 10.4314 17.7732 9.99126C18.1381 9.74788 18.4809 9.71837 18.7797 9.90459ZM9.80862 12.4769C9.2621 12.578 8.7523 12.7847 8.2758 13.0981C8.06017 13.24 5.34172 15.6984 4.59092 16.4305C4.05346 16.9546 3.82255 17.4391 3.78354 18.1247C3.75388 18.646 3.83722 19.0283 4.09025 19.5312C4.5386 20.4222 5.47418 20.9983 6.47593 21C6.88991 21.0007 7.49862 20.8981 8.24597 20.7016C9.42046 20.3927 9.59856 20.3613 10.3067 20.3379C11.1077 20.3113 11.5908 20.3721 12.6216 20.6287C14.0524 20.9849 14.4959 21.0435 15.0184 20.945C15.5286 20.8488 15.9752 20.6151 16.3486 20.2489C16.7124 19.8922 16.8883 19.6182 17.0555 19.148C17.3489 18.3227 17.2076 17.4033 16.6855 16.7394C16.6024 16.6338 16.1289 16.1759 15.6331 15.7218C15.1373 15.2676 14.3261 14.5245 13.8303 14.0703C13.3346 13.6161 12.8221 13.1742 12.6916 13.0882C12.3502 12.8635 11.8327 12.6331 11.4539 12.5374C11.031 12.4304 10.2207 12.4006 9.80862 12.4769ZM11.4747 13.2524C11.9949 13.4207 12.3284 13.6195 12.7899 14.0365C14.7872 15.8415 16.0535 17.0349 16.1936 17.2443C16.5927 17.8405 16.6249 18.609 16.2787 19.2718C16.0333 19.7417 15.4369 20.1769 14.8867 20.2877C14.5283 20.3598 14.2082 20.3182 13.0928 20.0543C11.6425 19.7111 11.4123 19.6762 10.5935 19.6749C9.80354 19.6737 9.65346 19.6966 8.27609 20.0276C7.31855 20.2577 6.90765 20.3259 6.48322 20.3251C5.94421 20.3242 5.45599 20.1268 5.06025 19.7496C4.48989 19.2061 4.29388 18.4065 4.55241 17.6781C4.72101 17.203 4.7939 17.1272 7.11857 15.0098C8.68342 13.5845 8.82412 13.477 9.36769 13.2919C9.83755 13.132 10.0801 13.0963 10.5938 13.1118C11.0115 13.1243 11.1443 13.1456 11.4747 13.2524Z" fill="#45474D"/>
<path d="M7.05555 5.06987L7.12309 5.25812L7.12309 5.25812L7.05555 5.06987ZM5.50573 6.96102L5.31295 6.90776L5.31295 6.90777L5.50573 6.96102ZM5.39449 8.03147L5.59449 8.0321V8.03208L5.39449 8.03147ZM5.48664 9.04439L5.294 9.09816L5.29401 9.09818L5.48664 9.04439ZM8.93736 10.5173L8.79813 10.3737L8.79813 10.3737L8.93736 10.5173ZM9.87958 8.05105L10.0796 8.0512V8.0512L9.87958 8.05105ZM8.40531 5.1598L8.31875 5.3401L8.31875 5.3401L8.40531 5.1598ZM7.68831 5.00261L7.69387 4.80269L7.69384 4.80269L7.68831 5.00261ZM12.8055 5.06196L12.7401 4.87294L12.7401 4.87294L12.8055 5.06196ZM11.1886 7.17282L11.3843 7.21396V7.21396L11.1886 7.17282ZM12.5944 10.9109L12.6804 10.7304L12.6804 10.7304L12.5944 10.9109ZM14.6622 10.517L14.802 10.6601L14.802 10.6601L14.6622 10.517ZM15.3293 9.51908L15.5137 9.59649L15.5137 9.59649L15.3293 9.51908ZM15.194 6.22615L15.3721 6.13525L15.3721 6.13525L15.194 6.22615ZM14.1171 5.14915L14.2013 4.96774L14.2012 4.96772L14.1171 5.14915ZM13.4206 5.00349L13.4267 4.80358L13.4267 4.80358L13.4206 5.00349ZM8.15207 5.76918L8.24541 5.5923L8.24541 5.5923L8.15207 5.76918ZM9.17574 7.69382L8.97627 7.70846L8.97627 7.70846L9.17574 7.69382ZM8.1231 10.3036L8.20907 10.4842L8.20908 10.4842L8.1231 10.3036ZM6.18905 9.00304L5.99716 9.05941L5.99716 9.05942L6.18905 9.00304ZM6.10588 7.42732L6.30317 7.46012L6.30317 7.4601L6.10588 7.42732ZM13.7515 5.71226L13.6833 5.90027L13.6833 5.90028L13.7515 5.71226ZM14.5817 6.50874L14.4022 6.59706L14.4023 6.59707L14.5817 6.50874ZM14.8002 8.98481L14.9919 9.04163L14.9919 9.04162L14.8002 8.98481ZM13.3591 10.4144L13.3588 10.2144H13.3588L13.3591 10.4144ZM11.8102 8.38897L12.0096 8.3731V8.3731L11.8102 8.38897ZM13.0265 5.6831L12.961 5.49412L12.961 5.49412L13.0265 5.6831ZM2.37552 9.12424L2.34316 8.92687L2.34313 8.92688L2.37552 9.12424ZM1.62034 9.52504L1.7555 9.67246L1.75551 9.67245L1.62034 9.52504ZM1.10218 10.395L1.29255 10.4563L1.29256 10.4562L1.10218 10.395ZM1.09878 12.2304L1.2924 12.1803L1.2924 12.1803L1.09878 12.2304ZM3.87643 14.3691L3.79028 14.1886L3.79027 14.1886L3.87643 14.3691ZM4.87776 12.316L5.07776 12.3161V12.3161L4.87776 12.316ZM2.85079 9.12733L2.88607 8.93047L2.88604 8.93047L2.85079 9.12733ZM2.58636 9.0888L2.62549 9.28494L2.62596 9.28484L2.58636 9.0888ZM18.0708 9.13945L18.113 9.33495L18.113 9.33495L18.0708 9.13945ZM16.3443 10.9138L16.5322 10.9824L16.5322 10.9824L16.3443 10.9138ZM16.3982 13.6593L16.5735 13.5629L16.5735 13.5629L16.3982 13.6593ZM18.7589 14.1517L18.8751 14.3144L18.8751 14.3144L18.7589 14.1517ZM19.9149 10.5639L20.109 10.5159V10.5159L19.9149 10.5639ZM3.0636 9.90109L2.97802 10.0819L2.97804 10.0819L3.0636 9.90109ZM4.18731 12.6478L4.38513 12.6773L4.38513 12.6773L4.18731 12.6478ZM3.82886 13.5671L3.97878 13.6994L3.97879 13.6994L3.82886 13.5671ZM3.25149 13.8504L3.2511 14.0504H3.2511L3.25149 13.8504ZM1.68598 11.6029L1.48709 11.624L1.48709 11.624L1.68598 11.6029ZM2.30616 9.84127L2.39453 10.0207L2.39454 10.0207L2.30616 9.84127ZM18.7797 9.90459L18.674 10.0743L18.674 10.0743L18.7797 9.90459ZM19.2889 11.5033L19.4887 11.5115V11.5115L19.2889 11.5033ZM19.1579 12.3602L18.9687 12.2951L18.9687 12.2951L19.1579 12.3602ZM18.1324 13.7575L18.2147 13.9398L18.2147 13.9398L18.1324 13.7575ZM16.7989 12.6871L16.9971 12.6602L16.9971 12.6602L16.7989 12.6871ZM17.7732 9.99126L17.8842 10.1576L17.8842 10.1576L17.7732 9.99126ZM9.80862 12.4769L9.84501 12.6736L9.84502 12.6736L9.80862 12.4769ZM8.2758 13.0981L8.16589 12.931L8.16588 12.931L8.2758 13.0981ZM4.59092 16.4305L4.73055 16.5737L4.73056 16.5737L4.59092 16.4305ZM3.78354 18.1247L3.98322 18.136V18.136L3.78354 18.1247ZM4.09025 19.5312L4.26891 19.4413L4.26891 19.4413L4.09025 19.5312ZM6.47593 21L6.47628 20.8H6.47627L6.47593 21ZM8.24597 20.7016L8.29683 20.895L8.29684 20.895L8.24597 20.7016ZM10.3067 20.3379L10.3134 20.5378L10.3134 20.5378L10.3067 20.3379ZM12.6216 20.6287L12.6699 20.4346L12.6216 20.6287ZM15.0184 20.945L14.9814 20.7484H14.9814L15.0184 20.945ZM16.3486 20.2489L16.2086 20.1061L16.2086 20.1061L16.3486 20.2489ZM17.0555 19.148L16.867 19.081L16.867 19.081L17.0555 19.148ZM16.6855 16.7394L16.8427 16.6158L16.8427 16.6158L16.6855 16.7394ZM15.6331 15.7218L15.498 15.8692L15.498 15.8693L15.6331 15.7218ZM13.8303 14.0703L13.6952 14.2178L13.6952 14.2178L13.8303 14.0703ZM12.6916 13.0882L12.8016 12.9212L12.8015 12.9211L12.6916 13.0882ZM11.4539 12.5374L11.4049 12.7313L11.4049 12.7313L11.4539 12.5374ZM11.4747 13.2524L11.5362 13.0621L11.5362 13.0621L11.4747 13.2524ZM12.7899 14.0365L12.924 13.8881L12.9239 13.8881L12.7899 14.0365ZM16.1936 17.2443L16.0274 17.3555L16.0274 17.3555L16.1936 17.2443ZM16.2787 19.2718L16.1015 19.1792L16.1014 19.1792L16.2787 19.2718ZM14.8867 20.2877L14.9262 20.4838L14.9262 20.4838L14.8867 20.2877ZM13.0928 20.0543L13.0467 20.2489H13.0467L13.0928 20.0543ZM10.5935 19.6749L10.5932 19.8749H10.5932L10.5935 19.6749ZM8.27609 20.0276L8.32282 20.2221H8.32282L8.27609 20.0276ZM6.48322 20.3251L6.48358 20.1251H6.48356L6.48322 20.3251ZM5.06025 19.7496L5.19823 19.6049L5.19822 19.6049L5.06025 19.7496ZM4.55241 17.6781L4.74089 17.745L4.74089 17.745L4.55241 17.6781ZM7.11857 15.0098L7.25324 15.1577L7.25324 15.1577L7.11857 15.0098ZM9.36769 13.2919L9.30323 13.1026L9.30323 13.1026L9.36769 13.2919ZM10.5938 13.1118L10.5878 13.3117H10.5878L10.5938 13.1118ZM6.98802 4.88161C6.17389 5.17366 5.58958 5.90655 5.31295 6.90776L5.69851 7.01428C5.9509 6.10078 6.46405 5.49454 7.12309 5.25812L6.98802 4.88161ZM5.31295 6.90777C5.26319 7.0879 5.23247 7.21733 5.21537 7.38189C5.19875 7.54176 5.19541 7.73118 5.19449 8.03085L5.59449 8.03208C5.59542 7.72952 5.59902 7.55993 5.61323 7.42324C5.62695 7.29124 5.65092 7.18656 5.69851 7.01427L5.31295 6.90777ZM5.19449 8.03084C5.19264 8.6201 5.20482 8.77862 5.294 9.09816L5.67928 8.99063C5.60531 8.72561 5.59266 8.61187 5.59449 8.0321L5.19449 8.03084ZM5.29401 9.09818C5.57686 10.1112 6.16631 10.8342 6.87767 11.1379C7.599 11.4457 8.41097 11.3064 9.0766 10.6608L8.79813 10.3737C8.23962 10.9154 7.59721 11.0101 7.0347 10.77C6.46223 10.5256 5.93839 9.9186 5.67927 8.99061L5.29401 9.09818ZM9.0766 10.6608C9.73092 10.0263 10.0788 9.09875 10.0796 8.0512L9.67958 8.0509C9.67888 9.01196 9.36058 9.82828 8.79813 10.3737L9.0766 10.6608ZM10.0796 8.0512C10.0806 6.65811 9.49523 5.46118 8.49187 4.9795L8.31875 5.3401C9.13608 5.73247 9.68053 6.75127 9.67958 8.0509L10.0796 8.0512ZM8.49187 4.9795C8.3521 4.91239 8.24942 4.86605 8.12769 4.83937C8.00968 4.8135 7.88147 4.8079 7.69387 4.80269L7.68276 5.20254C7.87689 5.20793 7.96705 5.21365 8.04205 5.23009C8.11332 5.24571 8.17828 5.27266 8.31875 5.3401L8.49187 4.9795ZM7.69384 4.80269C7.35333 4.79328 7.19902 4.80591 6.98802 4.88161L7.12309 5.25812C7.26419 5.2075 7.35956 5.1936 7.68279 5.20254L7.69384 4.80269ZM12.7401 4.87294C11.833 5.18664 11.2312 5.99772 10.9929 7.13168L11.3843 7.21396C11.603 6.17375 12.134 5.50579 12.8708 5.25098L12.7401 4.87294ZM10.9929 7.13168C10.8198 7.95518 10.8929 8.79451 11.1588 9.50149C11.4241 10.2069 11.8878 10.7957 12.5083 11.0915L12.6804 10.7304C12.177 10.4904 11.7725 9.99701 11.5332 9.36069C11.2945 8.72593 11.2267 7.96404 11.3843 7.21396L10.9929 7.13168ZM12.5083 11.0915C13.3099 11.4735 14.138 11.309 14.802 10.6601L14.5225 10.374C13.9671 10.9166 13.3169 11.0337 12.6804 10.7304L12.5083 11.0915ZM14.802 10.6601C15.1278 10.3417 15.3256 10.0446 15.5137 9.59649L15.1449 9.44167C14.9758 9.84453 14.807 10.0959 14.5225 10.374L14.802 10.6601ZM15.5137 9.59649C15.9532 8.54944 15.8954 7.16084 15.3721 6.13525L15.0158 6.31705C15.4866 7.23978 15.5379 8.50529 15.1449 9.44167L15.5137 9.59649ZM15.3721 6.13525C15.1235 5.64797 14.6596 5.18046 14.2013 4.96774L14.0329 5.33057C14.4008 5.50133 14.8029 5.89977 15.0158 6.31706L15.3721 6.13525ZM14.2012 4.96772C14.0708 4.90719 13.9709 4.8653 13.8509 4.84022C13.735 4.81597 13.6081 4.80916 13.4267 4.80358L13.4144 5.20339C13.5988 5.20906 13.6922 5.21568 13.769 5.23175C13.8419 5.24698 13.9073 5.2723 14.0329 5.33058L14.2012 4.96772ZM13.4267 4.80358C13.105 4.79373 12.9332 4.80615 12.7401 4.87294L12.8708 5.25098C12.9936 5.20853 13.1061 5.19395 13.4144 5.20339L13.4267 4.80358ZM8.05873 5.94607C8.54313 6.20168 8.91379 6.85678 8.97627 7.70846L9.3752 7.67919C9.30698 6.74938 8.89648 5.93586 8.24541 5.5923L8.05873 5.94607ZM8.97627 7.70846C9.01917 8.29286 8.93876 8.82835 8.76751 9.25292C8.59565 9.67899 8.33875 9.9794 8.03712 10.123L8.20908 10.4842C8.6274 10.285 8.9416 9.89062 9.13846 9.40255C9.33593 8.91298 9.42187 8.31499 9.3752 7.67918L8.97627 7.70846ZM8.03713 10.123C7.70834 10.2795 7.38283 10.2454 7.09598 10.0525C6.802 9.85479 6.53798 9.48119 6.38094 8.94667L5.99716 9.05942C6.17236 9.65576 6.48032 10.1205 6.87278 10.3844C7.27237 10.6531 7.74777 10.7038 8.20907 10.4842L8.03713 10.123ZM6.38094 8.94667C6.3306 8.77532 6.2933 8.50522 6.2782 8.21916C6.26314 7.93383 6.2712 7.65242 6.30317 7.46012L5.90859 7.39453C5.86996 7.62686 5.86293 7.94036 5.87876 8.24025C5.89455 8.53941 5.93413 8.84486 5.99716 9.05941L6.38094 8.94667ZM6.30317 7.4601C6.41025 6.81558 6.68382 6.3345 7.01 6.07018C7.32877 5.81187 7.69828 5.75587 8.05873 5.94607L8.24541 5.5923C7.72706 5.31878 7.18635 5.41243 6.75817 5.75941C6.33739 6.10038 6.02726 6.68023 5.90858 7.39455L6.30317 7.4601ZM13.6833 5.90028C13.8013 5.94305 13.9433 6.03703 14.0788 6.16708C14.2132 6.296 14.3294 6.44908 14.4022 6.59706L14.7611 6.42042C14.6644 6.22392 14.5179 6.03402 14.3557 5.87844C14.1948 5.724 14.0064 5.59197 13.8197 5.52424L13.6833 5.90028ZM14.4023 6.59707C14.5216 6.83953 14.5925 7.02749 14.6351 7.23513C14.6782 7.44513 14.6943 7.68411 14.6943 8.03147H15.0943C15.0943 7.67454 15.0781 7.40404 15.0269 7.15469C14.9752 6.90297 14.8898 6.68171 14.7611 6.4204L14.4023 6.59707ZM14.6943 8.03147C14.6943 8.57083 14.6806 8.68418 14.6084 8.928L14.9919 9.04162C15.0809 8.74108 15.0943 8.5809 15.0943 8.03147H14.6943ZM14.6084 8.92799C14.3491 9.80301 13.878 10.2137 13.3588 10.2144L13.3594 10.6144C14.1393 10.6133 14.7111 9.98941 14.9919 9.04163L14.6084 8.92799ZM13.3588 10.2144C13.0289 10.2149 12.7197 10.0455 12.4747 9.72509C12.2286 9.40324 12.0543 8.93552 12.0096 8.3731L11.6108 8.40484C11.6604 9.02758 11.855 9.57319 12.157 9.96807C12.4601 10.3644 12.8782 10.6151 13.3594 10.6144L13.3588 10.2144ZM12.0096 8.3731C11.9053 7.0636 12.3812 6.11833 13.092 5.87208L12.961 5.49412C11.9889 5.83092 11.5013 7.02909 11.6108 8.40484L12.0096 8.3731ZM13.092 5.87208C13.2583 5.81446 13.4558 5.81774 13.6833 5.90027L13.8197 5.52425C13.5243 5.41707 13.2309 5.40065 12.961 5.49412L13.092 5.87208ZM2.34313 8.92688C2.03446 8.97754 1.75396 9.13116 1.48517 9.37763L1.75551 9.67245C1.98239 9.46441 2.19437 9.35665 2.40792 9.3216L2.34313 8.92688ZM1.48519 9.37762C1.20551 9.63402 1.05168 9.89907 0.911795 10.3337L1.29256 10.4562C1.4171 10.0693 1.5395 9.87048 1.7555 9.67246L1.48519 9.37762ZM0.9118 10.3337C0.834876 10.5726 0.800652 10.9274 0.800009 11.2765C0.799362 11.6283 0.832811 12.001 0.905152 12.2805L1.2924 12.1803C1.23167 11.9456 1.1994 11.61 1.20001 11.2773C1.20063 10.9419 1.23464 10.6361 1.29255 10.4563L0.9118 10.3337ZM0.905152 12.2805C1.13977 13.1873 1.57171 13.9005 2.11347 14.3176C2.66207 14.74 3.32282 14.855 3.96258 14.5496L3.79027 14.1886C3.30385 14.4208 2.80272 14.3435 2.3575 14.0007C1.90546 13.6526 1.51166 13.0277 1.2924 12.1803L0.905152 12.2805ZM3.96257 14.5496C4.69569 14.1997 5.07708 13.3565 5.07776 12.3161L4.67776 12.3158C4.67713 13.2769 4.32768 13.9321 3.79028 14.1886L3.96257 14.5496ZM5.07776 12.3161C5.0783 11.4927 4.84401 10.7087 4.45722 10.1002C4.07176 9.49386 3.52241 9.04452 2.88607 8.93047L2.81551 9.3242C3.30924 9.41269 3.77389 9.7709 4.11965 10.3148C4.46409 10.8566 4.67825 11.5656 4.67776 12.3158L5.07776 12.3161ZM2.88604 8.93047C2.81807 8.9183 2.75298 8.90765 2.70247 8.90028C2.67743 8.89664 2.65453 8.89358 2.63606 8.89157C2.62704 8.89059 2.61706 8.88963 2.6075 8.88908C2.6028 8.88881 2.59624 8.88851 2.58887 8.88855C2.58459 8.88858 2.56739 8.8886 2.54676 8.89276L2.62596 9.28484C2.60694 9.28869 2.59216 9.28854 2.59109 9.28855C2.58881 9.28856 2.58711 9.28852 2.58617 9.28849C2.58519 9.28845 2.58458 9.28842 2.5844 9.28841C2.58432 9.2884 2.58677 9.28857 2.59277 9.28922C2.60435 9.29048 2.62188 9.29276 2.64477 9.2961C2.69011 9.30271 2.75084 9.31262 2.81554 9.3242L2.88604 8.93047ZM2.54723 8.89267C2.54799 8.89252 2.54706 8.89271 2.54291 8.89344C2.53937 8.89407 2.53458 8.89491 2.5286 8.89594C2.51667 8.89799 2.50068 8.90071 2.48171 8.9039C2.44379 8.91027 2.39454 8.91845 2.34316 8.92687L2.40788 9.3216C2.50857 9.30509 2.60838 9.28835 2.62549 9.28494L2.54723 8.89267ZM18.0286 8.94395C17.228 9.11679 16.5078 9.88255 16.1564 10.8452L16.5322 10.9824C16.8549 10.0981 17.492 9.46901 18.113 9.33495L18.0286 8.94395ZM16.1564 10.8452C15.7973 11.8292 15.8102 13.0049 16.2229 13.7556L16.5735 13.5629C16.2313 12.9406 16.2005 11.8911 16.5322 10.9824L16.1564 10.8452ZM16.2229 13.7556C16.4953 14.251 16.9163 14.5682 17.3995 14.669C17.8818 14.7696 18.4046 14.6502 18.8751 14.3144L18.6427 13.9889C18.2506 14.2687 17.84 14.3523 17.4812 14.2775C17.1232 14.2028 16.7951 13.9661 16.5735 13.5629L16.2229 13.7556ZM18.8751 14.3144C19.3789 13.9549 19.7637 13.3233 19.9846 12.6379C20.2061 11.9503 20.2727 11.1778 20.109 10.5159L19.7207 10.6119C19.8626 11.1858 19.8082 11.881 19.6038 12.5153C19.3988 13.1517 19.0528 13.6961 18.6427 13.9889L18.8751 14.3144ZM20.109 10.5159C19.839 9.42377 19.0076 8.73258 18.0286 8.94396L18.113 9.33495C18.8119 9.18405 19.4839 9.65412 19.7207 10.6119L20.109 10.5159ZM2.97804 10.0819C3.26497 10.2177 3.55863 10.5927 3.76304 11.0923C3.96448 11.5847 4.05921 12.1508 3.9895 12.6183L4.38513 12.6773C4.46792 12.122 4.3548 11.4823 4.13326 10.9408C3.91469 10.4066 3.57024 9.91961 3.14915 9.72032L2.97804 10.0819ZM3.9895 12.6183C3.92842 13.0278 3.82763 13.2662 3.67892 13.4347L3.97879 13.6994C4.19956 13.4493 4.31846 13.1243 4.38513 12.6773L3.9895 12.6183ZM3.67893 13.4347C3.59328 13.5317 3.53049 13.5813 3.4734 13.6093C3.41881 13.6361 3.3542 13.6506 3.25188 13.6504L3.2511 14.0504C3.39395 14.0507 3.52389 14.0301 3.64963 13.9684C3.77287 13.9079 3.87617 13.8156 3.97878 13.6994L3.67893 13.4347ZM3.25188 13.6504C2.97148 13.6499 2.66639 13.4615 2.40367 13.0843C2.14424 12.7118 1.94876 12.1836 1.88486 11.5818L1.48709 11.624C1.55697 12.2821 1.77179 12.877 2.07545 13.3129C2.37582 13.7442 2.7866 14.0495 3.2511 14.0504L3.25188 13.6504ZM1.88486 11.5818C1.84186 11.1768 1.87809 10.8257 1.97317 10.5557C2.06823 10.2857 2.21716 10.1081 2.39453 10.0207L2.21778 9.66185C1.92169 9.8077 1.7152 10.0839 1.59587 10.4228C1.47655 10.7618 1.43942 11.1749 1.48709 11.624L1.88486 11.5818ZM2.39454 10.0207C2.53427 9.95185 2.69579 9.94826 2.97802 10.0819L3.14917 9.72032C2.80708 9.55839 2.50882 9.51849 2.21778 9.66186L2.39454 10.0207ZM18.674 10.0743C18.9564 10.2503 19.1236 10.6501 19.0891 11.4952L19.4887 11.5115C19.524 10.6486 19.3687 10.0359 18.8855 9.73483L18.674 10.0743ZM19.0891 11.4952C19.0714 11.9262 19.0485 12.0631 18.9687 12.2951L19.347 12.4252C19.4447 12.1411 19.4703 11.9607 19.4887 11.5115L19.0891 11.4952ZM18.9687 12.2951C18.857 12.6202 18.7089 12.906 18.5452 13.1291C18.3799 13.3545 18.207 13.5044 18.0501 13.5752L18.2147 13.9398C18.4561 13.8308 18.6786 13.6235 18.8677 13.3658C19.0584 13.1059 19.224 12.783 19.347 12.4252L18.9687 12.2951ZM18.0501 13.5752C17.779 13.6976 17.5592 13.6621 17.3905 13.5267C17.21 13.3819 17.0563 13.0964 16.9971 12.6602L16.6008 12.714C16.6677 13.2073 16.8505 13.6062 17.1401 13.8387C17.4415 14.0806 17.8253 14.1156 18.2147 13.9398L18.0501 13.5752ZM16.9971 12.6602C16.9338 12.1935 17.0064 11.6622 17.1755 11.1945C17.346 10.7226 17.6036 10.3448 17.8842 10.1576L17.6623 9.82488C17.283 10.0778 16.9852 10.5443 16.7993 11.0585C16.612 11.5767 16.5274 12.1733 16.6008 12.714L16.9971 12.6602ZM17.8842 10.1576C18.2033 9.94478 18.4596 9.94079 18.674 10.0743L18.8855 9.73484C18.5021 9.49594 18.0729 9.55098 17.6622 9.82488L17.8842 10.1576ZM9.77223 12.2802C9.19877 12.3864 8.66407 12.6033 8.16589 12.931L8.38572 13.2652C8.84053 12.966 9.32543 12.7697 9.84501 12.6736L9.77223 12.2802ZM8.16588 12.931C8.12605 12.9572 8.04895 13.0211 7.95659 13.0998C7.85892 13.1831 7.73116 13.2945 7.58236 13.4257C7.28461 13.6883 6.90046 14.0324 6.4999 14.3946C5.69979 15.1182 4.82978 15.9183 4.45129 16.2874L4.73056 16.5737C5.10287 16.2107 5.96748 15.4154 6.7682 14.6913C7.16805 14.3297 7.55087 13.9868 7.84694 13.7257C7.99505 13.5951 8.12091 13.4854 8.21612 13.4042C8.26378 13.3636 8.30309 13.3306 8.33333 13.306C8.34846 13.2937 8.36073 13.284 8.37029 13.2766C8.37504 13.273 8.37879 13.2702 8.38164 13.2681C8.38461 13.2659 8.38585 13.2651 8.38572 13.2652L8.16588 12.931ZM4.45129 16.2874C3.88167 16.8428 3.62599 17.373 3.58387 18.1133L3.98322 18.136C4.01911 17.5052 4.22525 17.0665 4.73055 16.5737L4.45129 16.2874ZM3.58387 18.1133C3.55206 18.6724 3.64406 19.0894 3.9116 19.6211L4.26891 19.4413C4.03037 18.9672 3.9557 18.6196 3.98322 18.136L3.58387 18.1133ZM3.9116 19.6211C4.39404 20.5799 5.39879 21.1982 6.47559 21.2L6.47627 20.8C5.54957 20.7984 4.68317 20.2646 4.26891 19.4413L3.9116 19.6211ZM6.47559 21.2C6.91582 21.2008 7.54454 21.0928 8.29683 20.895L8.19512 20.5081C7.45269 20.7033 6.86399 20.8007 6.47628 20.8L6.47559 21.2ZM8.29684 20.895C9.46554 20.5877 9.62701 20.5605 10.3134 20.5378L10.3001 20.138C9.57011 20.1621 9.37537 20.1978 8.19511 20.5081L8.29684 20.895ZM10.3134 20.5378C11.0909 20.512 11.555 20.5692 12.5733 20.8228L12.6699 20.4346C11.6267 20.1749 11.1245 20.1107 10.3001 20.138L10.3134 20.5378ZM12.5733 20.8228C13.9986 21.1777 14.4837 21.2493 15.0555 21.1415L14.9814 20.7484C14.5081 20.8377 14.1062 20.7922 12.6699 20.4346L12.5733 20.8228ZM15.0555 21.1415C15.6048 21.038 16.0872 20.7854 16.4887 20.3917L16.2086 20.1061C15.8632 20.4448 15.4523 20.6597 14.9814 20.7484L15.0555 21.1415ZM16.4886 20.3917C16.8737 20.0142 17.0664 19.7144 17.2439 19.215L16.867 19.081C16.7102 19.522 16.5512 19.7702 16.2086 20.1061L16.4886 20.3917ZM17.2439 19.215C17.5593 18.3279 17.4091 17.336 16.8427 16.6158L16.5283 16.8631C17.0061 17.4706 17.1385 18.3175 16.867 19.081L17.2439 19.215ZM16.8427 16.6158C16.7907 16.5497 16.6395 16.3978 16.4531 16.2175C16.2609 16.0317 16.0172 15.8024 15.7682 15.5743L15.498 15.8693C15.7447 16.0953 15.9857 16.322 16.175 16.5051C16.3701 16.6937 16.4972 16.8236 16.5283 16.8631L16.8427 16.6158ZM15.7682 15.5743C15.5203 15.3472 15.1935 15.0479 14.8668 14.7486C14.54 14.4492 14.2133 14.1499 13.9654 13.9228L13.6952 14.2178C13.9431 14.4448 14.2698 14.7442 14.5966 15.0435C14.9233 15.3428 15.2501 15.6422 15.498 15.8692L15.7682 15.5743ZM13.9654 13.9228C13.7162 13.6945 13.4627 13.4692 13.2546 13.2897C13.0517 13.1148 12.8801 12.9729 12.8016 12.9212L12.5816 13.2552C12.6336 13.2895 12.7835 13.4116 12.9934 13.5926C13.1981 13.7692 13.4487 13.9919 13.6952 14.2178L13.9654 13.9228ZM12.8015 12.9211C12.4424 12.6847 11.9044 12.445 11.503 12.3435L11.4049 12.7313C11.761 12.8213 12.2581 13.0423 12.5816 13.2552L12.8015 12.9211ZM11.503 12.3435C11.272 12.2851 10.9479 12.2501 10.6345 12.2386C10.3216 12.2271 9.99923 12.2382 9.77222 12.2802L9.84502 12.6736C10.0301 12.6393 10.3189 12.6272 10.6199 12.6383C10.9204 12.6493 11.2129 12.6827 11.4049 12.7313L11.503 12.3435ZM11.4131 13.4427C11.9031 13.6012 12.2123 13.7842 12.6558 14.1849L12.9239 13.8881C12.4444 13.4547 12.0868 13.2402 11.5362 13.0621L11.4131 13.4427ZM12.6558 14.1849C13.654 15.087 14.4687 15.8355 15.0511 16.3843C15.3423 16.6588 15.5746 16.8825 15.7422 17.05C15.9169 17.2246 16.0058 17.3231 16.0274 17.3555L16.3599 17.133C16.3115 17.0607 16.1895 16.9315 16.025 16.7671C15.8533 16.5956 15.6179 16.3688 15.3254 16.0932C14.7402 15.5417 13.9231 14.7911 12.924 13.8881L12.6558 14.1849ZM16.0274 17.3555C16.3837 17.8878 16.4156 18.5778 16.1015 19.1792L16.456 19.3644C16.8343 18.6401 16.8017 17.7932 16.3598 17.133L16.0274 17.3555ZM16.1014 19.1792C15.9963 19.3805 15.8095 19.5848 15.5791 19.7529C15.3492 19.9207 15.0888 20.043 14.8473 20.0916L14.9262 20.4838C15.2348 20.4216 15.5477 20.271 15.8149 20.076C16.0816 19.8813 16.3157 19.6331 16.456 19.3644L16.1014 19.1792ZM14.8473 20.0916C14.5394 20.1536 14.2637 20.1258 13.1388 19.8597L13.0467 20.2489C14.1527 20.5106 14.5171 20.5661 14.9262 20.4838L14.8473 20.0916ZM13.1388 19.8597C11.6836 19.5153 11.4358 19.4762 10.5938 19.4749L10.5932 19.8749C11.3889 19.8761 11.6013 19.9069 13.0467 20.2489L13.1388 19.8597ZM10.5938 19.4749C10.1968 19.4743 9.94921 19.4796 9.62499 19.529C9.30639 19.5774 8.91547 19.6682 8.22935 19.8331L8.32282 20.2221C9.01407 20.0559 9.38688 19.9698 9.68517 19.9244C9.97784 19.8799 10.2003 19.8743 10.5932 19.8749L10.5938 19.4749ZM8.22935 19.8331C7.27239 20.0631 6.88194 20.1259 6.48358 20.1251L6.48287 20.5251C6.93336 20.526 7.3647 20.4523 8.32282 20.2221L8.22935 19.8331ZM6.48356 20.1251C5.99661 20.1243 5.55745 19.9472 5.19823 19.6049L4.92227 19.8944C5.35454 20.3064 5.8918 20.5241 6.48289 20.5251L6.48356 20.1251ZM5.19822 19.6049C4.68355 19.1144 4.5094 18.3973 4.74089 17.745L4.36393 17.6112C4.07836 18.4158 4.29623 19.2978 4.92228 19.8944L5.19822 19.6049ZM4.74089 17.745C4.78199 17.6291 4.81233 17.5523 4.8672 17.4645C4.92347 17.3744 5.01026 17.2657 5.17111 17.0984C5.49513 16.7615 6.08787 16.2191 7.25324 15.1577L6.98389 14.862C5.8246 15.9179 5.21855 16.4721 4.88281 16.8212C4.71378 16.9969 4.60545 17.1285 4.52799 17.2525C4.44912 17.3787 4.40712 17.4895 4.36393 17.6112L4.74089 17.745ZM7.25324 15.1577C8.03862 14.4423 8.45736 14.0663 8.74751 13.8447C9.02552 13.6324 9.17621 13.5684 9.43215 13.4813L9.30323 13.1026C9.01559 13.2005 8.82416 13.2828 8.50471 13.5268C8.19741 13.7616 7.76337 14.152 6.98389 14.862L7.25324 15.1577ZM9.43214 13.4813C9.87854 13.3293 10.0972 13.2969 10.5878 13.3117L10.5998 12.9119C10.0631 12.8957 9.79655 12.9347 9.30323 13.1026L9.43214 13.4813ZM10.5878 13.3117C10.7954 13.3179 10.9222 13.3262 11.0355 13.3442C11.1471 13.3621 11.2515 13.3904 11.4131 13.4427L11.5362 13.0621C11.3675 13.0076 11.2403 12.9719 11.0985 12.9492C10.9583 12.9269 10.8099 12.9182 10.5998 12.9119L10.5878 13.3117Z" fill="#45474D" mask="url(#path-1-outside-1_2052_1784)"/>
</svg>
