<svg width="21" height="26" viewBox="0 0 21 26" fill="none" xmlns="http://www.w3.org/2000/svg">
<path fill-rule="evenodd" clip-rule="evenodd" d="M9.99926 5.97057C9.83143 6.01579 4.532 8.27726 2.81427 9.03672C1.50809 9.61422 1.40358 9.66968 1.25798 9.86264C1.04689 10.1424 1.00081 10.2797 1.00002 10.6315C0.999404 10.9076 1.00987 10.9643 1.09352 11.1387C1.25854 11.4826 1.38327 11.5939 1.86249 11.8247C2.09818 11.9382 2.78595 12.2425 3.39088 12.501L4.49073 12.9709L4.50872 15.0488C4.52049 16.412 4.53953 17.1875 4.56402 17.3034C4.64633 17.6934 4.92545 18.114 5.31602 18.4367C5.50589 18.5935 6.24382 18.984 6.73858 19.1895C7.61511 19.5535 8.64629 19.8131 9.541 19.8949C10.1767 19.9531 11.516 19.9166 12.0201 19.8274C13.2412 19.6113 14.5975 19.124 15.4404 18.5984C15.7303 18.4176 16.1397 17.9931 16.2663 17.742C16.4521 17.3735 16.4462 17.4506 16.4657 15.1325L16.484 12.9747L17.0381 12.7356C17.3429 12.6042 17.5967 12.4966 17.6022 12.4966C17.6077 12.4966 17.6122 12.9017 17.6122 13.3968C17.6122 14.2893 17.6116 14.2974 17.5392 14.3539C17.0064 14.7695 16.8761 15.4009 17.2271 15.8657C17.286 15.9437 17.3479 16.0259 17.3646 16.0483C17.3855 16.0765 17.3546 16.1348 17.2645 16.2373C17.0711 16.4571 17.0517 16.5486 17.0325 17.3311L17.0155 18.0264L17.1379 18.1758L17.2603 18.3252L18.0331 18.3149C18.8877 18.3036 18.9085 18.2988 19.0088 18.0923C19.0555 17.9961 19.0644 17.8763 19.0635 17.3557C19.0624 16.6496 19.043 16.5492 18.8531 16.2647L18.7214 16.0673L18.834 15.9197C19 15.7021 19.0621 15.4848 19.0442 15.1839C19.0355 15.0366 19.0056 14.8874 18.9713 14.8198C18.899 14.6776 18.7047 14.4701 18.5847 14.4071L18.4943 14.3596L18.5029 13.2312L18.5115 12.1028L18.8728 11.9468C19.3609 11.736 19.504 11.6472 19.698 11.4348C20.1059 10.9883 20.0999 10.2752 19.6844 9.81198C19.5344 9.64478 19.2116 9.48438 17.694 8.82295C14.3922 7.38397 11.1212 6.00107 10.9147 5.9568C10.6802 5.90654 10.2109 5.91361 9.99926 5.97057ZM10.6642 6.8208C10.7714 6.84852 11.1019 6.96811 11.3987 7.08656C12.3104 7.45042 17.8364 9.82821 18.8233 10.2812C19.0748 10.3967 19.1494 10.4791 19.1491 10.6412C19.1488 10.8197 19.047 10.9019 18.5578 11.1187C16.9819 11.817 13.1891 13.4456 11.4805 14.1576C10.4468 14.5884 10.5429 14.5901 9.42019 14.121C8.22887 13.6232 3.72592 11.6907 2.78156 11.2721C2.29691 11.0572 1.96855 10.8925 1.92312 10.8414C1.84284 10.7512 1.82498 10.5749 1.88483 10.4631C1.90425 10.4268 2.04772 10.3382 2.20368 10.2663C3.42607 9.70266 9.88088 6.93114 10.2378 6.81671C10.4102 6.76145 10.4355 6.76167 10.6642 6.8208ZM7.38436 14.2118C8.4501 14.6693 9.47229 15.104 9.65585 15.1778C10.0339 15.3299 10.3604 15.3781 10.7524 15.3396C11.0249 15.3128 11.1965 15.2445 13.8734 14.0973C14.7938 13.7028 15.5531 13.3801 15.5608 13.3801C15.5929 13.3801 15.6172 16.4657 15.588 16.837C15.5507 17.3101 15.5045 17.4202 15.2428 17.6595C14.9633 17.915 14.0534 18.3618 13.303 18.6118C12.4448 18.8978 11.7779 19.0071 10.7446 19.0313C9.06429 19.0706 7.93523 18.8223 6.46133 18.0895C5.98155 17.8509 5.85931 17.775 5.71012 17.6225C5.61211 17.5224 5.5124 17.4032 5.48852 17.3576C5.40343 17.195 5.38342 16.7775 5.38244 15.1416C5.38152 13.6553 5.38957 13.3801 5.43388 13.3801C5.44088 13.3801 6.31861 13.7544 7.38436 14.2118ZM18.1376 15.1482C18.2151 15.1897 18.2195 15.3013 18.1467 15.3817C18.0444 15.4949 17.9065 15.4353 17.9065 15.2779C17.9065 15.1328 18.0053 15.0774 18.1376 15.1482ZM18.145 16.7756C18.1805 16.8149 18.2047 16.9304 18.2201 17.1355L18.2429 17.4375H18.0747H17.9065V17.1169C17.9065 16.7898 17.9304 16.7177 18.0388 16.7177C18.0684 16.7177 18.1162 16.7437 18.145 16.7756Z" fill="#45474D"/>
</svg>
