<svg width="21" height="26" viewBox="0 0 21 26" fill="none" xmlns="http://www.w3.org/2000/svg">
<path d="M4.8818 5.95115L4.8818 5.95115C4.97466 5.02443 5.43348 4.08117 6.13501 3.36655C6.85162 2.63652 7.99641 2.08057 9.1123 1.91601C9.26674 1.89323 9.63798 1.8969 9.99965 1.91364C10.3621 1.93042 10.7377 1.96141 10.902 1.99854L4.8818 5.95115ZM4.8818 5.95115L4.85692 6.19948L4.67153 6.25707C4.67153 6.25707 4.67152 6.25707 4.67152 6.25707C3.60247 6.58908 2.76657 7.27323 2.27807 8.2206C2.03561 8.69078 1.94034 9.04531 1.90617 9.59994C1.84325 10.621 2.26374 11.6342 3.05165 12.3723L3.2488 12.557L3.15134 12.6866L3.23126 12.7467M4.8818 5.95115L3.23126 12.7467M3.23126 12.7467L3.15134 12.6866C2.916 12.9995 2.6588 13.5242 2.5345 13.9424M3.23126 12.7467L10.9715 23.9048L11.0426 23.9751C10.9567 24.0619 10.8297 24.0989 10.7129 24.1C10.5956 24.101 10.4677 24.0662 10.3772 23.9833C10.3624 23.9698 10.3426 23.9507 10.3255 23.9206C10.309 23.8917 10.2981 23.8584 10.2899 23.8182C10.2741 23.7402 10.2647 23.616 10.2584 23.4036C10.2456 22.9753 10.2452 22.1583 10.2452 20.5608V17.5424M2.5345 13.9424C2.5345 13.9424 2.5345 13.9424 2.53451 13.9424L2.63036 13.9709L2.5345 13.9424ZM2.5345 13.9424C2.44318 14.2494 2.42224 14.4539 2.4229 14.9717C2.42322 15.2497 2.42744 15.4274 2.44699 15.5803C2.46684 15.7354 2.50209 15.8623 2.56055 16.0394M2.56055 16.0394C2.7977 16.7584 3.14067 17.292 3.69846 17.8101L3.76652 17.7368M2.56055 16.0394C2.56055 16.0394 2.56055 16.0394 2.56055 16.0394L2.65552 16.0081M2.56055 16.0394L2.65552 16.0081M3.76652 17.7368L3.69847 17.8101C4.6014 18.6486 5.74074 19.0499 7.04149 18.9915C7.74361 18.96 8.09627 18.8831 8.686 18.6313C9.24398 18.393 9.6725 18.1082 10.0854 17.7003L10.2452 17.5424M3.76652 17.7368C4.64853 18.5559 5.76122 18.9488 7.03701 18.8916C7.72837 18.8606 8.0691 18.786 8.64673 18.5393C9.19372 18.3058 9.61158 18.0278 10.0151 17.6291L10.2452 17.4018V17.5424M3.76652 17.7368C3.22101 17.2301 2.88734 16.711 2.65552 16.0081M10.2452 17.5424L10.3452 17.4436L2.65552 16.0081M18.325 8.19416L18.4135 8.14745C18.5697 8.44326 18.6724 8.68491 18.7351 8.93865C18.7977 9.19242 18.819 9.45339 18.8179 9.78649C18.8155 10.534 18.6384 11.1234 18.2345 11.7239L18.1255 11.8859L18.3307 12.1677C19.8621 14.2711 19.0245 17.1015 16.5588 18.2242C15.3165 18.79 13.7654 18.7897 12.5282 18.2233L12.5698 18.1323L18.325 8.19416ZM18.325 8.19416L18.4135 8.14744C17.7828 6.95377 16.5149 6.17583 15.0678 6.08447L14.7172 6.06235L14.6717 5.77771C14.3771 3.93476 12.8845 2.44632 10.9021 1.99854L18.325 8.19416ZM10.6255 2.7091L10.6069 2.80736C8.97576 2.49942 7.34577 3.1181 6.42506 4.3869C6.0494 4.90462 5.83133 5.52318 5.78806 6.19916C5.77986 6.32737 5.76495 6.45525 5.74734 6.55867C5.73855 6.61027 5.72886 6.65713 5.71861 6.69554L10.6255 2.7091ZM10.6255 2.7091L10.6069 2.80736C11.1142 2.90312 11.7848 3.17385 12.1582 3.43169C13.1725 4.13221 13.7306 5.10777 13.792 6.27893C13.7993 6.41832 13.8057 6.53419 13.8245 6.62401C13.844 6.717 13.8801 6.79888 13.9589 6.85561C14.0324 6.90853 14.1289 6.92855 14.2404 6.9382C14.3538 6.94802 14.5017 6.94815 14.6899 6.94791C15.2087 6.94721 15.6155 7.0032 15.9754 7.1344C16.3347 7.26535 16.6536 7.47351 16.9935 7.78582L17.0611 7.71219M10.6255 2.7091L17.8659 16.0405M17.8659 16.0405C18.1862 15.443 18.2684 15.1278 18.2695 14.494C18.2702 14.0885 18.2454 13.8896 18.1592 13.6096M17.8659 16.0405C17.6747 16.3972 17.5601 16.5408 17.2096 16.8637L17.8659 16.0405ZM18.1592 13.6096C18.0218 13.1632 17.7288 12.641 17.4305 12.3106M18.1592 13.6096L18.0636 13.639C17.9303 13.2059 17.6443 12.6967 17.3563 12.3776L17.4305 12.3106M18.1592 13.6096L18.0636 13.639C18.146 13.9065 18.1702 14.0948 18.1695 14.4938C18.169 14.8065 18.1484 15.0344 18.0906 15.2556C18.0328 15.4772 17.9363 15.6974 17.7777 15.9932L17.7777 15.9932C17.6834 16.1692 17.6103 16.2883 17.5193 16.4024L17.3736 11.5461M17.4305 12.3106C17.1074 11.9528 17.1039 11.906 17.3736 11.5461M17.4305 12.3106L17.3563 12.3776C17.276 12.2887 17.2109 12.2141 17.165 12.1475C17.1188 12.0804 17.0857 12.0125 17.0801 11.9366C17.0743 11.8597 17.0978 11.7893 17.1352 11.7198C17.1718 11.6516 17.2266 11.5755 17.2936 11.4861L17.3736 11.5461M17.3736 11.5461C17.8191 10.9516 18.0036 10.4358 18.0024 9.78798C18.0009 8.93312 17.7231 8.32047 17.0611 7.71219M17.3736 11.5461L17.2936 11.4861C17.7281 10.9063 17.9036 10.4112 17.9024 9.78816C17.9017 9.37197 17.8338 9.01961 17.6884 8.69892C17.5428 8.37796 17.3172 8.08327 16.9935 7.78582L17.0611 7.71219M17.3736 11.5461L17.0611 7.71219M8.41937 9.80022L8.48296 9.72304C8.48296 9.72304 8.48297 9.72305 8.48297 9.72305C8.59881 9.81849 9.07393 10.212 9.53881 10.5975L10.2241 11.1657L10.2452 9.97788L10.2459 9.93739C10.2523 9.58056 10.2571 9.30984 10.2648 9.10435C10.2727 8.89256 10.2837 8.74372 10.3042 8.63869C10.3246 8.53382 10.3578 8.45361 10.4255 8.40033C10.4822 8.35563 10.554 8.33981 10.6131 8.32679C10.6179 8.32574 10.6225 8.32471 10.6271 8.32369L3.22256 11.1846C3.36501 11.3997 3.55695 11.6094 3.83392 11.8618L3.83393 11.8618C3.97618 11.9914 4.10611 12.1189 4.20107 12.2202C4.24836 12.2706 4.28822 12.3159 4.31684 12.3524C4.33099 12.3705 4.34391 12.3883 4.35378 12.4048C4.3587 12.413 4.36399 12.4226 4.36831 12.4331C4.37195 12.442 4.37851 12.4597 4.37851 12.4818C4.37851 12.5063 4.37091 12.5282 4.36627 12.5403C4.36062 12.5551 4.35321 12.5705 4.34515 12.5858C4.32896 12.6165 4.30668 12.6528 4.28069 12.6918C4.22849 12.7704 4.1574 12.8659 4.07971 12.9604C3.76852 13.3388 3.63417 13.57 3.47159 14.0058L3.3779 13.9709L3.47159 14.0058C3.42128 14.1407 3.3943 14.233 3.37885 14.3601C3.36297 14.4909 3.3591 14.6599 3.3591 14.9488C3.3591 15.234 3.36316 15.404 3.37877 15.5359C3.39397 15.6643 3.42032 15.7578 3.46842 15.8891C3.68451 16.4792 4.01403 16.9446 4.50262 17.3494L4.50263 17.3494C4.84228 17.6308 5.50312 17.9503 5.99247 18.0673C6.2017 18.1173 6.51985 18.143 6.84254 18.1421C7.16534 18.1412 7.48101 18.1139 7.68547 18.0629C8.87436 17.7663 9.76652 17.0078 10.1544 15.9766L10.1544 15.9766C10.1946 15.8696 10.2177 15.7829 10.2304 15.5213C10.2433 15.2558 10.2452 14.8192 10.2452 14.0145V12.3228L9.0535 11.3354C8.71568 11.0555 8.39842 10.7911 8.15938 10.5906C7.92335 10.3926 7.75804 10.2522 7.72949 10.2242C7.72947 10.2242 7.72945 10.2242 7.72943 10.2241L7.79953 10.1528M8.41937 9.80022C8.16069 9.58703 7.96497 9.56979 7.81275 9.74682M8.41937 9.80022C8.53504 9.89551 9.01003 10.2889 9.47498 10.6745L8.41937 9.80022ZM7.81275 9.74682L7.73694 9.68161C7.73693 9.68162 7.73693 9.68162 7.73693 9.68162L7.81275 9.74682ZM7.81275 9.74682C7.68585 9.89438 7.68123 10.0367 7.79953 10.1528M7.79953 10.1528C7.84891 10.2014 8.4419 10.6988 9.11729 11.2584L7.79953 10.1528ZM2.90643 10.4643C2.85753 10.2893 2.83175 10.0325 2.83196 9.77134L2.90643 10.4643ZM2.90643 10.4643C2.90643 10.4643 2.90643 10.4643 2.90643 10.4643L2.81012 10.4912L2.90643 10.4643ZM5.21197 7.01061C4.08213 7.26215 3.20405 8.05735 2.90735 9.08609C2.90735 9.08609 2.90735 9.0861 2.90735 9.0861L5.21197 7.01061ZM5.21197 7.01061C5.32988 6.98438 5.42662 6.95629 5.50136 6.92477C5.57314 6.8945 5.63879 6.85536 5.6773 6.79874L5.21197 7.01061ZM11.093 17.215L11.1927 17.3076L11.1932 17.1716L11.0936 17.079L11.093 17.215ZM11.3638 17.3301L11.2957 17.4033L11.2957 17.4033L11.3638 17.3301ZM17.1418 16.7901C16.6669 17.2274 16.2938 17.4425 15.6632 17.6416L15.6933 17.737L15.6632 17.6416C15.4559 17.7071 15.3379 17.7402 15.1966 17.7583C15.053 17.7767 14.883 17.78 14.5717 17.7809C14.1873 17.7819 13.9128 17.7629 13.6518 17.7055C13.3909 17.6481 13.1386 17.5513 12.7997 17.3912C12.5463 17.2716 12.262 17.0723 12.0044 16.842C11.7468 16.6116 11.5216 16.3554 11.3833 16.1254L11.1925 15.8082L11.1945 15.3359L11.1965 14.8825L12.4504 13.8499C13.0489 13.3571 13.3748 13.0861 13.5504 12.9208C13.6376 12.8386 13.6944 12.7765 13.7288 12.7217C13.7672 12.6605 13.7769 12.6097 13.7769 12.5578C13.7769 12.2266 13.4366 12.0281 13.1418 12.1723L13.1418 12.1723C13.1264 12.1799 13.106 12.1944 13.0893 12.2065C13.0694 12.2211 13.0435 12.2405 13.0129 12.2641C12.9514 12.3114 12.8687 12.3767 12.7708 12.4551C12.5748 12.6119 12.3167 12.8221 12.0437 13.048L12.0437 13.048L11.214 13.7346L11.1911 11.281L11.1662 8.61743L11.1658 8.56943L11.1281 8.53976L10.9843 8.4267C10.9843 8.42669 10.9843 8.42669 10.9843 8.42668C10.9267 8.38136 10.8712 8.34636 10.8112 8.32792L17.1418 16.7901Z" fill="#45474D" stroke="#45474D" stroke-width="0.2"/>
</svg>
