<svg width="21" height="26" viewBox="0 0 21 26" fill="none" xmlns="http://www.w3.org/2000/svg">
<path d="M2.80518 4.7527L2.80258 4.76041L2.80257 4.76856L2.79408 8.96695L2.78569 13.1161L2.05178 13.1254C1.69893 13.1299 1.49896 13.1339 1.3773 13.1437C1.25425 13.1537 1.20291 13.1701 1.15237 13.2046L1.15236 13.2046C1.1455 13.2093 1.13826 13.2138 1.1308 13.2185C1.09503 13.2409 1.05424 13.2664 1.02671 13.3263C0.99626 13.3926 0.979691 13.502 0.969085 13.7073C0.949732 14.0821 0.949834 14.8056 0.950037 16.2483C0.950059 16.4038 0.950082 16.5676 0.950082 16.7403C0.950082 16.8688 0.950072 16.9926 0.950061 17.1119C0.949927 18.6784 0.949859 19.4641 0.974801 19.9094C0.988244 20.1494 1.00908 20.2939 1.04225 20.41C1.0707 20.5096 1.10808 20.5872 1.15406 20.6826C1.16156 20.6982 1.16929 20.7143 1.17725 20.731C1.40735 21.2136 1.77771 21.587 2.26059 21.8233C2.29167 21.8385 2.31878 21.8532 2.34468 21.8673C2.4142 21.9051 2.47497 21.9381 2.58005 21.9627C2.72262 21.996 2.95172 22.0161 3.42258 22.0288C4.23249 22.0506 5.77097 22.0504 8.84568 22.0499C9.35393 22.0498 9.90415 22.0497 10.5 22.0497C11.0958 22.0497 11.6461 22.0498 12.1543 22.0499C15.229 22.0504 16.7675 22.0506 17.5774 22.0288C18.0483 22.0161 18.2774 21.996 18.4199 21.9627C18.525 21.9381 18.5858 21.9051 18.6553 21.8673C18.6812 21.8532 18.7083 21.8385 18.7394 21.8233C19.3697 21.5148 19.8126 20.9653 19.9851 20.2781C20.0172 20.1503 20.0331 20.0561 20.0412 19.5996C20.0494 19.1432 20.0499 18.3205 20.0499 16.7335C20.0499 16.5552 20.0499 16.3862 20.05 16.2261C20.0502 14.7822 20.0503 14.0581 20.0313 13.6813C20.0208 13.474 20.0045 13.3637 19.9749 13.2956C19.9487 13.2354 19.9103 13.2073 19.8754 13.1816C19.8677 13.1761 19.8603 13.1706 19.8531 13.1649C19.8311 13.1475 19.8084 13.1315 19.7739 13.1197C19.7411 13.1084 19.7001 13.1017 19.6417 13.0972C19.5253 13.0883 19.3251 13.0876 18.9512 13.0876H18.2143L18.2059 8.95301L18.1974 4.76856L18.1974 4.76041L18.1948 4.7527L18.1086 4.49697C17.8882 3.84284 17.4274 3.33881 16.7961 3.06129L16.5526 2.95423L16.5429 2.95H16.5324H10.5H4.46755H4.45705L4.44743 2.95423L4.20388 3.06129C3.57255 3.33881 3.11177 3.84284 2.89135 4.49697L2.80518 4.7527ZM16.1644 3.7847L16.1644 3.7847C16.7393 3.90502 17.2278 4.41802 17.3228 5.00184C17.3245 5.01241 17.3267 5.04682 17.3289 5.10857C17.331 5.1686 17.333 5.25103 17.3349 5.35459C17.3386 5.56165 17.3419 5.85242 17.3446 6.2158C17.35 6.94253 17.353 7.95916 17.3531 9.17629L17.3533 13.1195H14.1575H10.9617V8.43504V3.75063H13.4593C14.3255 3.75063 14.9755 3.75343 15.4232 3.75922C15.6471 3.76212 15.8201 3.76576 15.9441 3.77015C16.0704 3.77463 16.141 3.77981 16.1644 3.7847ZM17.4033 13.1195V13.1695L17.3533 13.1695L17.4033 13.1195ZM12.6033 12.755V12.805H12.6533H13.0333H13.4133H13.4633V12.755V11.1131V9.47119V9.42119H13.4133H13.0333H12.6533H12.6033V9.47119V11.1131V12.755ZM1.8436 19.9056L1.7944 19.9145L1.8436 19.9056C1.83876 19.8789 1.83386 19.8098 1.82954 19.6948C1.8253 19.5815 1.82171 19.4273 1.81883 19.2335C1.81305 18.8461 1.81008 18.3014 1.81008 17.6111V15.5468H3.42256H5.03505V18.3343V21.1217H4.0942C3.70011 21.1217 3.44384 21.1192 3.26775 21.1119C3.09138 21.1046 2.99845 21.0925 2.92969 21.0745C2.3872 20.9322 1.94308 20.454 1.8436 19.9056ZM18.1454 21.0317L18.1604 21.0794L18.1454 21.0317C17.9822 21.0829 17.8638 21.0898 16.9413 21.0898H15.9649V18.3183V15.5468H17.5774H19.1899L19.1894 17.6089C19.1891 18.7552 19.1877 19.3451 19.1654 19.6907C19.1542 19.8631 19.138 19.9721 19.1151 20.0577C19.0922 20.1428 19.0622 20.2068 19.0203 20.29C18.8552 20.618 18.4974 20.9214 18.1454 21.0317ZM10.0383 8.43504V13.1195H6.84253H3.64673V9.15671C3.64673 7.86619 3.64959 6.84784 3.65504 6.13837C3.65777 5.78361 3.66113 5.50623 3.66511 5.31073C3.6671 5.21295 3.66924 5.13587 3.67151 5.07994C3.67386 5.02211 3.67625 4.99089 3.67801 4.98146C3.78346 4.41817 4.24341 3.92822 4.79085 3.79457C4.81625 3.78837 4.87618 3.78213 4.98758 3.77682C5.09715 3.77161 5.25236 3.76742 5.46496 3.7641C5.89008 3.75748 6.54294 3.75436 7.51549 3.75334L10.0383 3.75068V8.43504ZM19.1899 14.3331V14.6816H10.5H1.81008V14.3331V13.9846H10.5H19.1899V14.3331ZM10.07 18.3343V21.1217H8.01419H5.95837V18.3343V15.5468H8.01419H10.07V18.3343ZM15.0733 18.3343V21.1217H13.0175H10.9617V18.3343V15.5468H13.0175H15.0733V18.3343Z" fill="#45474D" stroke="#45474D" stroke-width="0.1"/>
</svg>
