<svg width="28" height="28" viewBox="0 0 28 28" fill="none" xmlns="http://www.w3.org/2000/svg">
<g clip-path="url(#clip0_2052_712)">
<path fill-rule="evenodd" clip-rule="evenodd" d="M12.2855 0.969962C11.7661 1.22725 11.6822 1.41866 11.4386 2.90204L11.236 4.13612L10.6405 4.31745C10.313 4.41715 9.70667 4.65069 9.29318 4.83633L8.54131 5.17389L7.48835 4.44813C6.1758 3.54338 6.01567 3.47728 5.46993 3.61508C5.23617 3.67406 5.03633 3.83024 4.17505 4.62706C3.61493 5.14525 3.10323 5.6667 3.03789 5.78571C2.90788 6.02252 2.88267 6.43452 2.98299 6.68183C3.0181 6.76847 3.37639 7.26244 3.77917 7.77951C4.1819 8.29659 4.53303 8.7527 4.55936 8.79301C4.58799 8.83677 4.4693 9.13139 4.26561 9.52227C4.07766 9.88305 3.83326 10.4407 3.72241 10.7616C3.61164 11.0825 3.5138 11.3539 3.50503 11.3647C3.49625 11.3755 2.87838 11.4731 2.13199 11.5817C0.931462 11.7563 0.746374 11.7979 0.527491 11.942C0.0483398 12.2578 0.0276776 12.3342 0.00533505 13.8786C-0.0171942 15.4357 0.0154796 15.5963 0.426047 15.944C0.698266 16.1745 0.778549 16.1942 2.39008 16.4263L3.51032 16.5876L3.71538 17.1751C3.82822 17.4982 4.07629 18.0682 4.26679 18.4417L4.61313 19.1209L3.85597 20.0895C3.43955 20.6222 3.05855 21.1304 3.00932 21.2189C2.89207 21.4295 2.8945 21.8968 3.01405 22.133C3.13858 22.379 5.13946 24.2413 5.36587 24.3218C5.61637 24.411 6.09415 24.3982 6.30164 24.2968C6.39923 24.249 6.94167 23.8919 7.50708 23.5032L8.53515 22.7963L9.32119 23.1492C9.75354 23.3432 10.3615 23.5739 10.6721 23.6617L11.237 23.8213L11.4077 24.8758C11.6456 26.3452 11.6773 26.4623 11.9022 26.7024C12.2683 27.0933 12.4196 27.1235 14.0146 27.125C15.5294 27.1264 15.7202 27.0973 16.0403 26.8171C16.2978 26.5918 16.3591 26.397 16.5788 25.1069C16.6972 24.4118 16.8018 23.8387 16.8114 23.8332C16.8209 23.8278 17.108 23.7385 17.4493 23.6347C17.7905 23.531 18.3871 23.302 18.7749 23.1259C19.1683 22.9473 19.513 22.8246 19.5546 22.8484C19.5957 22.8718 19.9401 23.1063 20.3198 23.3693C21.7035 24.3277 21.8076 24.3842 22.1874 24.3842C22.4007 24.3842 22.6146 24.3426 22.7591 24.2728C22.8861 24.2116 23.4419 23.7323 23.9943 23.2077C25.4912 21.7858 25.4917 21.7778 24.1591 20.0719L23.411 19.1142L23.7728 18.4144C23.9719 18.0295 24.2212 17.4619 24.327 17.153L24.5195 16.5913L25.8335 16.4008C27.4116 16.1721 27.6266 16.0902 27.8821 15.6208C27.9881 15.4261 28 15.263 28 14C28 12.4977 27.9732 12.3368 27.6801 12.0776C27.4053 11.8345 27.1717 11.77 25.8696 11.5776C25.1538 11.4719 24.5534 11.3715 24.5355 11.3546C24.5175 11.3378 24.4062 11.0531 24.2881 10.7219C24.1701 10.3908 23.9246 9.83603 23.7428 9.48908L23.4121 8.85835L24.1939 7.85553C25.1628 6.61287 25.258 6.39363 25.0414 5.90286C24.9134 5.61256 23.0127 3.8149 22.6789 3.66835C22.137 3.43049 21.898 3.51777 20.5558 4.44341L19.4907 5.17798L18.8132 4.86579C18.4406 4.6941 17.8466 4.46307 17.4934 4.35239C17.1401 4.24172 16.8371 4.13811 16.8201 4.12206C16.803 4.10608 16.696 3.54338 16.5824 2.8717C16.3756 1.64975 16.3065 1.43033 16.0472 1.1727C15.7698 0.896977 15.6011 0.872649 13.9834 0.875158C12.7275 0.877083 12.4407 0.893127 12.2855 0.969962ZM15.6301 3.23563C15.7588 4.00573 15.8959 4.69316 15.9346 4.76323C16.0137 4.90611 16.0662 4.92746 16.9843 5.19034C17.5868 5.36286 18.467 5.72685 19.1691 6.09393C19.4083 6.21895 19.4839 6.23365 19.6267 6.18278C19.7208 6.14924 20.3159 5.76588 20.9493 5.33089C21.5826 4.89584 22.142 4.52508 22.1924 4.507C22.2881 4.47252 24.1414 6.15682 24.1414 6.27829C24.1414 6.31288 23.7353 6.86245 23.239 7.49954C22.7427 8.13656 22.3333 8.69798 22.3294 8.7471C22.3135 8.94505 22.355 9.06698 22.5283 9.33097C22.8353 9.79869 23.1868 10.5574 23.3938 11.1992C23.6897 12.1166 23.7244 12.1763 23.9989 12.2399C24.1286 12.27 24.8509 12.3828 25.6039 12.4907L26.9731 12.6869L26.9899 13.9371C26.9992 14.6259 26.9816 15.2109 26.9506 15.2399C26.9198 15.2689 26.2143 15.394 25.3829 15.518C24.226 15.6907 23.8464 15.7683 23.7649 15.8488C23.7062 15.9066 23.5699 16.2394 23.4618 16.5883C23.2514 17.2677 22.955 17.9232 22.5625 18.578C22.4282 18.8018 22.3206 19.0582 22.3234 19.1476C22.3268 19.2609 22.6037 19.6627 23.2349 20.4701C23.7334 21.108 24.1414 21.652 24.1414 21.6791C24.1414 21.769 22.3087 23.4508 22.2129 23.4489C22.1611 23.4478 21.5866 23.0802 20.9363 22.6319C20.2859 22.1837 19.6892 21.8006 19.6102 21.7807C19.5062 21.7545 19.2232 21.8585 18.5833 22.158C17.7422 22.5517 17.2055 22.748 16.409 22.9533C16.182 23.0118 16.0182 23.093 15.9604 23.1757C15.9103 23.2474 15.767 23.9227 15.6419 24.6765C15.5167 25.4302 15.3861 26.0798 15.3516 26.1199C15.272 26.2122 12.7191 26.2257 12.6588 26.1342C12.6375 26.102 12.5223 25.4785 12.4027 24.7486C12.2831 24.0188 12.1569 23.3529 12.1223 23.269C12.0454 23.0822 11.9786 23.0519 11.0408 22.779C10.5975 22.65 9.95406 22.3986 9.45736 22.1603C8.99725 21.9395 8.56316 21.7592 8.49271 21.7595C8.42232 21.7599 7.81067 22.1406 7.13354 22.6055C6.45642 23.0704 5.85467 23.4508 5.79629 23.4508C5.66273 23.4508 3.91485 21.8222 3.91485 21.6978C3.91485 21.6473 4.32093 21.0828 4.81726 20.4432C5.3149 19.8019 5.71968 19.2241 5.71968 19.1549C5.71968 19.0859 5.53969 18.705 5.31963 18.3084C4.95623 17.6535 4.58693 16.7603 4.41273 16.1148C4.36525 15.9388 4.2971 15.8443 4.17705 15.788C4.08419 15.7444 3.39207 15.6218 2.63902 15.5153C1.88597 15.409 1.20685 15.3007 1.12981 15.2747C0.990648 15.2279 0.989777 15.2198 0.989777 14.0081C0.989777 13.1022 1.00975 12.7738 1.06757 12.731C1.11039 12.6993 1.73349 12.5895 2.45231 12.4869C4.03384 12.2613 4.20206 12.2225 4.31315 12.0574C4.36089 11.9865 4.47316 11.6863 4.56253 11.3903C4.75689 10.7473 5.13311 9.91654 5.47266 9.38074C5.60852 9.16639 5.71968 8.92615 5.71968 8.84686C5.71968 8.70363 5.55581 8.47249 4.46706 7.07989C4.16335 6.6914 3.91485 6.33733 3.91485 6.29299C3.91485 6.20664 5.71283 4.48996 5.80326 4.48996C5.83301 4.48996 6.40744 4.86725 7.0799 5.32832C7.75229 5.78945 8.36046 6.18354 8.43134 6.20408C8.52121 6.2301 8.79511 6.12742 9.33737 5.86424C10.1475 5.47102 10.8119 5.22179 11.5215 5.04467C11.7515 4.9872 11.9856 4.89286 12.0415 4.83493C12.1115 4.76241 12.217 4.29359 12.3806 3.32822C12.5111 2.55742 12.6362 1.89916 12.6584 1.86538C12.6853 1.82471 13.1537 1.80931 14.0475 1.81976L15.3961 1.83545L15.6301 3.23563ZM13.1376 5.83291C12.1668 5.9269 10.9357 6.2707 10.0228 6.70272C8.99812 7.18764 7.76704 8.15552 7.05868 9.0332C5.33693 11.1664 4.83469 14.0112 5.7287 16.5665C6.14338 17.7518 6.84701 18.7943 7.89581 19.777C8.91616 20.7331 9.85871 21.2917 11.17 21.7172C12.2319 22.0618 12.7604 22.1383 14.0592 22.1355C15.0811 22.1333 15.2891 22.1156 15.9092 21.9786C19.2062 21.2501 21.724 18.9254 22.494 15.8991C23.0886 13.562 22.5974 11.2007 21.105 9.22293C20.6288 8.59162 19.6141 7.65443 18.9589 7.24056C17.2503 6.1612 15.1047 5.64243 13.1376 5.83291ZM15.3662 6.8593C17.4161 7.19185 19.2734 8.32926 20.4331 9.96228C23.0042 13.5827 21.6438 18.4689 17.5149 20.4438C16.1112 21.1152 14.426 21.3737 12.8902 21.1532C12.2838 21.0661 10.8852 20.6793 10.8852 20.5986C10.8852 20.578 11.2143 20.2544 11.6165 19.8797L12.3478 19.1983L13.0012 19.2905C14.4322 19.4923 15.907 19.1096 17.0965 18.2279C18.5235 17.1701 19.31 15.4082 19.095 13.7506C18.9912 12.9504 18.8276 12.5043 18.597 12.3925C18.4892 12.3403 18.3513 12.3177 18.2726 12.3395C18.1973 12.3603 17.5013 12.9692 16.726 13.6927L15.3163 15.008L14.376 14.7884C13.4941 14.5826 13.433 14.5594 13.3954 14.4155C13.3734 14.3311 13.2631 13.9339 13.1504 13.5328L12.9453 12.8035L14.3736 11.4588C15.5976 10.3065 15.8015 10.0895 15.7998 9.94198C15.7971 9.70156 15.6754 9.57583 15.3255 9.45168C14.5559 9.17865 13.1538 9.14778 12.2855 9.38476C11.2636 9.66369 10.1665 10.3422 9.51592 11.0975C9.09994 11.5805 8.61655 12.5086 8.46028 13.1244C8.31521 13.696 8.29169 14.6189 8.40713 15.2064L8.48076 15.5808L7.74015 16.2769C7.33282 16.6597 6.98026 16.9537 6.95661 16.9302C6.87216 16.8461 6.54119 15.8867 6.42866 15.3997C6.27034 14.7146 6.26847 13.2896 6.42506 12.5993C6.7714 11.0722 7.50073 9.81818 8.64282 8.78613C10.4577 7.14605 12.8708 6.45447 15.3662 6.8593ZM14.2459 10.1934C14.2459 10.2178 13.7429 10.7088 13.1281 11.2845C12.5132 11.8602 11.979 12.4018 11.9409 12.4881C11.8824 12.6202 11.9266 12.8453 12.2212 13.9172C12.4134 14.6169 12.5985 15.2208 12.6325 15.2591C12.6664 15.2974 12.7703 15.3572 12.8633 15.3918C13.0989 15.4795 15.3532 15.9831 15.5105 15.9831C15.5945 15.9831 16.0668 15.5841 16.8718 14.8328L18.1045 13.6825V14.2692C18.1045 15.9657 17.0523 17.4545 15.3973 18.1001C14.6423 18.3946 13.7023 18.4745 12.7752 18.3228C12.0417 18.2028 11.9643 18.2406 10.8517 19.2599L9.89313 20.138L9.4891 19.8678C8.94447 19.5034 8.24489 18.852 7.80544 18.3001L7.44385 17.8458L8.40751 16.9291C9.51586 15.8746 9.56341 15.791 9.41765 15.154C9.30718 14.6712 9.3093 13.8952 9.42238 13.387C9.47242 13.1623 9.64462 12.7292 9.80507 12.4245C10.0464 11.9662 10.1892 11.7839 10.6311 11.3698C11.0577 10.9699 11.2741 10.8186 11.7054 10.6183C12.0025 10.4803 12.4506 10.3202 12.7012 10.2625C13.1555 10.158 14.2459 10.1091 14.2459 10.1934Z" fill="#45474D"/>
</g>
<defs>
<clipPath id="clip0_2052_712">
<rect width="28" height="28" fill="white"/>
</clipPath>
</defs>
</svg>
