<svg width="21" height="26" viewBox="0 0 21 26" fill="none" xmlns="http://www.w3.org/2000/svg">
<path fill-rule="evenodd" clip-rule="evenodd" d="M1.29557 2.06879C1.216 2.10515 1.11697 2.18585 1.07544 2.24806C1.0063 2.35178 1 3.26327 1 13.1806V24H2.43659H3.87317V23.7326V23.4652L10.5 23.4649L17.1268 23.4646V23.7323V24H18.5634H20V13.1806C20 3.25675 19.9937 2.35183 19.9244 2.24791C19.7494 1.9854 20.256 1.99869 10.4899 2.00074C2.9691 2.00234 1.41582 2.01383 1.29557 2.06879ZM7.66159 3.06166L8.09024 3.06969V12.756V22.4424H5.03171H1.97317V12.7601C1.97317 6.34319 1.98883 3.07232 2.01956 3.06156C2.06493 3.04569 6.814 3.04579 7.66159 3.06166ZM13.7902 12.7439V22.4424H11.45H9.10976V12.7439V3.04535H11.45H13.7902V12.7439ZM18.7146 3.06205L19.028 3.06969L19.0158 4.78549L19.0037 6.50129L17.7756 6.50445C17.1002 6.50616 16.3539 6.51166 16.1173 6.51662L15.687 6.52563L15.7002 7.02455L15.7134 7.52347L17.3701 7.53627L19.0268 7.54902V9.00806V10.4671L17.3701 10.4798L15.7134 10.4927V11.0037V11.5148L17.3701 11.5276L19.0268 11.5404V12.9994V14.4585L17.3701 14.4712L15.7134 14.484V14.9951V15.5062L17.3701 15.5011L19.0268 15.4961V16.9729V18.4498L17.3701 18.4626L15.7134 18.4754L15.7002 18.9743L15.687 19.4732H17.3569H19.0268V20.9578V22.4424H16.9183H14.8098L14.8035 22.1868C14.7834 21.3585 14.7776 3.66913 14.7974 3.40005L14.8214 3.07329L15.2211 3.05932C15.6175 3.04545 18.1128 3.04745 18.7146 3.06205ZM6.47946 12.0417C6.22834 12.1882 6.21258 12.2654 6.22393 13.2915L6.23441 14.2406L6.37524 14.3745C6.57312 14.5625 6.82943 14.5594 7.03523 14.3664L7.18659 14.2245L7.20169 13.3807C7.21124 12.8481 7.19748 12.4689 7.16439 12.3521C7.07778 12.0464 6.73656 11.8918 6.47946 12.0417ZM12.1359 12.0725C11.9187 12.2117 11.8799 12.4281 11.898 13.4007L11.9134 14.2244L12.0648 14.3664C12.3512 14.6351 12.7599 14.5133 12.8616 14.1289C12.924 13.8927 12.9231 12.5895 12.8603 12.3519C12.8275 12.2276 12.7629 12.1358 12.6636 12.0723C12.4763 11.9523 12.3235 11.9524 12.1359 12.0725Z" fill="#45474D"/>
</svg>
