<svg width="21" height="26" viewBox="0 0 21 26" fill="none" xmlns="http://www.w3.org/2000/svg">
<mask id="path-1-outside-1_2052_1789" maskUnits="userSpaceOnUse" x="0" y="5" width="21" height="16" fill="black">
<rect fill="white" y="5" width="21" height="16"/>
<path fill-rule="evenodd" clip-rule="evenodd" d="M6.73929 6.01789C5.57789 6.09631 4.43054 6.51753 3.51461 7.20175C2.62288 7.86787 1.92471 8.74714 1.50289 9.73521C1.16163 10.5346 1.00017 11.3317 1 12.2179C0.999845 13.0711 1.16086 13.8649 1.49479 14.6571C1.64957 15.0243 1.99684 15.6529 2.13054 15.8079C2.16761 15.8509 2.24819 15.9519 2.30962 16.0325C3.02227 16.9669 4.03041 17.6863 5.17968 18.0803C5.58746 18.2201 6.12148 18.3325 6.59369 18.3778C6.74838 18.3926 6.84886 18.4123 6.89394 18.4367C6.9562 18.4703 7.01305 18.4732 7.59405 18.4732H8.2264L8.23904 18.6813C8.246 18.7957 8.25169 19.0888 8.25169 19.3326C8.25169 19.76 8.25324 19.778 8.29531 19.8403C8.35228 19.9246 8.42305 19.9761 8.50524 19.9931C8.54176 20.0007 9.12723 20.0023 9.80631 19.9967C11.0151 19.9867 11.0422 19.9857 11.0945 19.9463C11.124 19.9241 11.166 19.8818 11.188 19.8521C11.2272 19.7993 11.2281 19.7747 11.2333 18.6797L11.2386 17.5612L13.3531 17.5468C14.516 17.5389 15.4734 17.5383 15.4806 17.5456C15.4878 17.5528 15.4981 18.0582 15.5034 18.6687C15.5129 19.7515 15.5141 19.78 15.5531 19.8326C15.6098 19.909 15.6801 19.9576 15.757 19.9737C15.7935 19.9813 16.379 19.9829 17.0581 19.9773C18.2724 19.9672 18.2937 19.9663 18.3475 19.9262C18.3776 19.9037 18.4218 19.8563 18.4458 19.8208C18.4889 19.757 18.4894 19.7481 18.4894 19.1059V18.4557L19.1356 18.4498L19.7818 18.444L19.8597 18.392C20.0126 18.29 20.0032 18.4308 19.9974 16.3314L19.9921 14.4606L19.9475 14.3883C19.923 14.3486 19.8708 14.2961 19.8315 14.2716C19.7603 14.2273 19.7574 14.2272 19.115 14.2331L18.4701 14.2391V13.6023C18.4701 12.9035 18.4668 12.8801 18.3555 12.7858C18.2434 12.6908 18.2221 12.6896 16.9149 12.7048C15.7149 12.7187 15.6932 12.7197 15.6332 12.7604C15.5997 12.7831 15.5524 12.8314 15.5281 12.8677L15.484 12.9335V14.0414V15.1492L14.025 15.1578C13.2225 15.1625 12.5633 15.1646 12.5601 15.1624C12.557 15.1602 12.6021 15.0717 12.6605 14.9657C12.9194 14.4959 13.1623 13.7083 13.253 13.0449C13.4852 11.3454 12.9948 9.60737 11.9055 8.26945C11.6769 7.9886 11.475 7.77723 11.2411 7.5739C10.1357 6.61287 8.89374 6.09808 7.48128 6.01549C7.12061 5.9944 7.08571 5.99451 6.73929 6.01789ZM6.74575 6.89901C6.32034 7.9699 5.67619 8.90804 4.71039 9.86334C4.09874 10.4684 3.49214 10.9308 2.78765 11.3292C2.4074 11.5443 1.69361 11.8755 1.66735 11.849C1.63899 11.8204 1.73343 11.1854 1.81623 10.8482C2.29168 8.91151 3.79776 7.36878 5.71164 6.85801C6.04372 6.76938 6.52534 6.6877 6.75222 6.68153L6.83302 6.67934L6.74575 6.89901ZM7.98992 6.73118C8.55655 6.81724 9.10367 6.99096 9.60956 7.24543C9.82939 7.35601 10.1247 7.52946 10.1425 7.55848C10.1571 7.58226 9.93213 8.15112 9.77405 8.49023C8.6209 10.964 6.53863 13.1612 4.11199 14.4648C3.64627 14.715 3.05676 14.9781 2.6527 15.1162L2.49254 15.171L2.40412 15.0208C2.01259 14.3558 1.75009 13.5231 1.66892 12.6886C1.65987 12.5954 1.66258 12.5568 1.67819 12.5568C1.72547 12.5568 2.26601 12.3306 2.56147 12.1873C3.91609 11.5299 5.09264 10.567 6.11587 9.27835C6.67329 8.57632 7.1826 7.65802 7.4581 6.85828L7.52091 6.67598L7.65846 6.68885C7.73412 6.69594 7.88328 6.71498 7.98992 6.73118ZM11.1117 8.36136C11.5818 8.85182 11.9393 9.39426 12.205 10.0206L12.2841 10.2071L12.1905 10.4203C11.8824 11.1221 11.4061 11.9366 10.9352 12.5667L10.8306 12.7066L10.0712 12.7196C9.6535 12.7267 9.12067 12.7325 8.88709 12.7325C8.44905 12.7325 8.42115 12.7368 8.33225 12.8179C8.22679 12.9142 8.22543 12.9248 8.23038 13.6151L8.23495 14.2536L7.58893 14.2595C6.8623 14.266 6.86176 14.2662 6.76578 14.4122L6.71488 14.4897L6.71843 15.454L6.72197 16.4184L6.51251 16.5356C6.0857 16.7744 5.61467 17 5.15546 17.1854L4.91922 17.2809L4.79675 17.2249C4.30325 16.9993 3.70459 16.5815 3.30732 16.1854C3.13064 16.0093 2.89172 15.7414 2.90221 15.7312C2.90639 15.7272 3.05379 15.6668 3.22976 15.597C5.79887 14.5787 8.24878 12.4529 9.74956 9.93967C10.0722 9.39944 10.4035 8.73146 10.6083 8.20827L10.7015 7.97007L10.8096 8.0646C10.8691 8.11658 11.005 8.25012 11.1117 8.36136ZM12.5917 11.3608C12.6642 11.8425 12.6701 12.5644 12.6048 12.9863C12.4868 13.7488 12.2377 14.4573 11.884 15.0366L11.8065 15.1635L11.5124 15.1689L11.2183 15.1743V14.2311V13.2879L11.4267 13.0042C11.8352 12.4483 12.1581 11.9407 12.4102 11.4582C12.4817 11.3214 12.5467 11.2094 12.5545 11.2094C12.5624 11.2094 12.5791 11.2776 12.5917 11.3608ZM17.8302 16.3449V19.3324H16.9867H16.1433L16.1433 17.2382C16.1433 16.0864 16.1375 14.742 16.1304 14.2507L16.1176 13.3573H16.9739H17.8302V16.3449ZM10.5659 13.4794C10.5726 13.5358 10.5782 14.8801 10.5783 16.4669L10.5784 19.3519H9.735H8.89155V17.7735C8.89155 16.9054 8.88575 15.561 8.87867 14.786L8.86578 13.3769H9.70971H10.5536L10.5659 13.4794ZM19.3426 16.3351V17.7898H18.916H18.4894L18.4894 16.6719C18.4893 16.0571 18.4836 15.4025 18.4766 15.2172L18.4639 14.8804H18.9033H19.3426V16.3351ZM8.2323 16.3742V17.8289H7.80884H7.38537L7.37258 17.2985C7.36552 17.0068 7.35976 16.3522 7.35976 15.8438V14.9195H7.79603H8.2323V16.3742ZM15.484 16.342V16.8664L15.3357 16.879C15.2541 16.8859 14.2987 16.8916 13.2125 16.8916H11.2377V16.3546V15.8177H13.3609H15.484V16.342ZM6.7115 17.7267C6.69169 17.7466 5.93072 17.6321 5.88211 17.6018C5.87404 17.5968 6.05706 17.4977 6.28883 17.3816L6.71021 17.1704L6.7156 17.4438C6.71856 17.5941 6.71672 17.7214 6.7115 17.7267Z"/>
</mask>
<path fill-rule="evenodd" clip-rule="evenodd" d="M6.73929 6.01789C5.57789 6.09631 4.43054 6.51753 3.51461 7.20175C2.62288 7.86787 1.92471 8.74714 1.50289 9.73521C1.16163 10.5346 1.00017 11.3317 1 12.2179C0.999845 13.0711 1.16086 13.8649 1.49479 14.6571C1.64957 15.0243 1.99684 15.6529 2.13054 15.8079C2.16761 15.8509 2.24819 15.9519 2.30962 16.0325C3.02227 16.9669 4.03041 17.6863 5.17968 18.0803C5.58746 18.2201 6.12148 18.3325 6.59369 18.3778C6.74838 18.3926 6.84886 18.4123 6.89394 18.4367C6.9562 18.4703 7.01305 18.4732 7.59405 18.4732H8.2264L8.23904 18.6813C8.246 18.7957 8.25169 19.0888 8.25169 19.3326C8.25169 19.76 8.25324 19.778 8.29531 19.8403C8.35228 19.9246 8.42305 19.9761 8.50524 19.9931C8.54176 20.0007 9.12723 20.0023 9.80631 19.9967C11.0151 19.9867 11.0422 19.9857 11.0945 19.9463C11.124 19.9241 11.166 19.8818 11.188 19.8521C11.2272 19.7993 11.2281 19.7747 11.2333 18.6797L11.2386 17.5612L13.3531 17.5468C14.516 17.5389 15.4734 17.5383 15.4806 17.5456C15.4878 17.5528 15.4981 18.0582 15.5034 18.6687C15.5129 19.7515 15.5141 19.78 15.5531 19.8326C15.6098 19.909 15.6801 19.9576 15.757 19.9737C15.7935 19.9813 16.379 19.9829 17.0581 19.9773C18.2724 19.9672 18.2937 19.9663 18.3475 19.9262C18.3776 19.9037 18.4218 19.8563 18.4458 19.8208C18.4889 19.757 18.4894 19.7481 18.4894 19.1059V18.4557L19.1356 18.4498L19.7818 18.444L19.8597 18.392C20.0126 18.29 20.0032 18.4308 19.9974 16.3314L19.9921 14.4606L19.9475 14.3883C19.923 14.3486 19.8708 14.2961 19.8315 14.2716C19.7603 14.2273 19.7574 14.2272 19.115 14.2331L18.4701 14.2391V13.6023C18.4701 12.9035 18.4668 12.8801 18.3555 12.7858C18.2434 12.6908 18.2221 12.6896 16.9149 12.7048C15.7149 12.7187 15.6932 12.7197 15.6332 12.7604C15.5997 12.7831 15.5524 12.8314 15.5281 12.8677L15.484 12.9335V14.0414V15.1492L14.025 15.1578C13.2225 15.1625 12.5633 15.1646 12.5601 15.1624C12.557 15.1602 12.6021 15.0717 12.6605 14.9657C12.9194 14.4959 13.1623 13.7083 13.253 13.0449C13.4852 11.3454 12.9948 9.60737 11.9055 8.26945C11.6769 7.9886 11.475 7.77723 11.2411 7.5739C10.1357 6.61287 8.89374 6.09808 7.48128 6.01549C7.12061 5.9944 7.08571 5.99451 6.73929 6.01789ZM6.74575 6.89901C6.32034 7.9699 5.67619 8.90804 4.71039 9.86334C4.09874 10.4684 3.49214 10.9308 2.78765 11.3292C2.4074 11.5443 1.69361 11.8755 1.66735 11.849C1.63899 11.8204 1.73343 11.1854 1.81623 10.8482C2.29168 8.91151 3.79776 7.36878 5.71164 6.85801C6.04372 6.76938 6.52534 6.6877 6.75222 6.68153L6.83302 6.67934L6.74575 6.89901ZM7.98992 6.73118C8.55655 6.81724 9.10367 6.99096 9.60956 7.24543C9.82939 7.35601 10.1247 7.52946 10.1425 7.55848C10.1571 7.58226 9.93213 8.15112 9.77405 8.49023C8.6209 10.964 6.53863 13.1612 4.11199 14.4648C3.64627 14.715 3.05676 14.9781 2.6527 15.1162L2.49254 15.171L2.40412 15.0208C2.01259 14.3558 1.75009 13.5231 1.66892 12.6886C1.65987 12.5954 1.66258 12.5568 1.67819 12.5568C1.72547 12.5568 2.26601 12.3306 2.56147 12.1873C3.91609 11.5299 5.09264 10.567 6.11587 9.27835C6.67329 8.57632 7.1826 7.65802 7.4581 6.85828L7.52091 6.67598L7.65846 6.68885C7.73412 6.69594 7.88328 6.71498 7.98992 6.73118ZM11.1117 8.36136C11.5818 8.85182 11.9393 9.39426 12.205 10.0206L12.2841 10.2071L12.1905 10.4203C11.8824 11.1221 11.4061 11.9366 10.9352 12.5667L10.8306 12.7066L10.0712 12.7196C9.6535 12.7267 9.12067 12.7325 8.88709 12.7325C8.44905 12.7325 8.42115 12.7368 8.33225 12.8179C8.22679 12.9142 8.22543 12.9248 8.23038 13.6151L8.23495 14.2536L7.58893 14.2595C6.8623 14.266 6.86176 14.2662 6.76578 14.4122L6.71488 14.4897L6.71843 15.454L6.72197 16.4184L6.51251 16.5356C6.0857 16.7744 5.61467 17 5.15546 17.1854L4.91922 17.2809L4.79675 17.2249C4.30325 16.9993 3.70459 16.5815 3.30732 16.1854C3.13064 16.0093 2.89172 15.7414 2.90221 15.7312C2.90639 15.7272 3.05379 15.6668 3.22976 15.597C5.79887 14.5787 8.24878 12.4529 9.74956 9.93967C10.0722 9.39944 10.4035 8.73146 10.6083 8.20827L10.7015 7.97007L10.8096 8.0646C10.8691 8.11658 11.005 8.25012 11.1117 8.36136ZM12.5917 11.3608C12.6642 11.8425 12.6701 12.5644 12.6048 12.9863C12.4868 13.7488 12.2377 14.4573 11.884 15.0366L11.8065 15.1635L11.5124 15.1689L11.2183 15.1743V14.2311V13.2879L11.4267 13.0042C11.8352 12.4483 12.1581 11.9407 12.4102 11.4582C12.4817 11.3214 12.5467 11.2094 12.5545 11.2094C12.5624 11.2094 12.5791 11.2776 12.5917 11.3608ZM17.8302 16.3449V19.3324H16.9867H16.1433L16.1433 17.2382C16.1433 16.0864 16.1375 14.742 16.1304 14.2507L16.1176 13.3573H16.9739H17.8302V16.3449ZM10.5659 13.4794C10.5726 13.5358 10.5782 14.8801 10.5783 16.4669L10.5784 19.3519H9.735H8.89155V17.7735C8.89155 16.9054 8.88575 15.561 8.87867 14.786L8.86578 13.3769H9.70971H10.5536L10.5659 13.4794ZM19.3426 16.3351V17.7898H18.916H18.4894L18.4894 16.6719C18.4893 16.0571 18.4836 15.4025 18.4766 15.2172L18.4639 14.8804H18.9033H19.3426V16.3351ZM8.2323 16.3742V17.8289H7.80884H7.38537L7.37258 17.2985C7.36552 17.0068 7.35976 16.3522 7.35976 15.8438V14.9195H7.79603H8.2323V16.3742ZM15.484 16.342V16.8664L15.3357 16.879C15.2541 16.8859 14.2987 16.8916 13.2125 16.8916H11.2377V16.3546V15.8177H13.3609H15.484V16.342ZM6.7115 17.7267C6.69169 17.7466 5.93072 17.6321 5.88211 17.6018C5.87404 17.5968 6.05706 17.4977 6.28883 17.3816L6.71021 17.1704L6.7156 17.4438C6.71856 17.5941 6.71672 17.7214 6.7115 17.7267Z" fill="#45474D"/>
<path fill-rule="evenodd" clip-rule="evenodd" d="M6.73929 6.01789C5.57789 6.09631 4.43054 6.51753 3.51461 7.20175C2.62288 7.86787 1.92471 8.74714 1.50289 9.73521C1.16163 10.5346 1.00017 11.3317 1 12.2179C0.999845 13.0711 1.16086 13.8649 1.49479 14.6571C1.64957 15.0243 1.99684 15.6529 2.13054 15.8079C2.16761 15.8509 2.24819 15.9519 2.30962 16.0325C3.02227 16.9669 4.03041 17.6863 5.17968 18.0803C5.58746 18.2201 6.12148 18.3325 6.59369 18.3778C6.74838 18.3926 6.84886 18.4123 6.89394 18.4367C6.9562 18.4703 7.01305 18.4732 7.59405 18.4732H8.2264L8.23904 18.6813C8.246 18.7957 8.25169 19.0888 8.25169 19.3326C8.25169 19.76 8.25324 19.778 8.29531 19.8403C8.35228 19.9246 8.42305 19.9761 8.50524 19.9931C8.54176 20.0007 9.12723 20.0023 9.80631 19.9967C11.0151 19.9867 11.0422 19.9857 11.0945 19.9463C11.124 19.9241 11.166 19.8818 11.188 19.8521C11.2272 19.7993 11.2281 19.7747 11.2333 18.6797L11.2386 17.5612L13.3531 17.5468C14.516 17.5389 15.4734 17.5383 15.4806 17.5456C15.4878 17.5528 15.4981 18.0582 15.5034 18.6687C15.5129 19.7515 15.5141 19.78 15.5531 19.8326C15.6098 19.909 15.6801 19.9576 15.757 19.9737C15.7935 19.9813 16.379 19.9829 17.0581 19.9773C18.2724 19.9672 18.2937 19.9663 18.3475 19.9262C18.3776 19.9037 18.4218 19.8563 18.4458 19.8208C18.4889 19.757 18.4894 19.7481 18.4894 19.1059V18.4557L19.1356 18.4498L19.7818 18.444L19.8597 18.392C20.0126 18.29 20.0032 18.4308 19.9974 16.3314L19.9921 14.4606L19.9475 14.3883C19.923 14.3486 19.8708 14.2961 19.8315 14.2716C19.7603 14.2273 19.7574 14.2272 19.115 14.2331L18.4701 14.2391V13.6023C18.4701 12.9035 18.4668 12.8801 18.3555 12.7858C18.2434 12.6908 18.2221 12.6896 16.9149 12.7048C15.7149 12.7187 15.6932 12.7197 15.6332 12.7604C15.5997 12.7831 15.5524 12.8314 15.5281 12.8677L15.484 12.9335V14.0414V15.1492L14.025 15.1578C13.2225 15.1625 12.5633 15.1646 12.5601 15.1624C12.557 15.1602 12.6021 15.0717 12.6605 14.9657C12.9194 14.4959 13.1623 13.7083 13.253 13.0449C13.4852 11.3454 12.9948 9.60737 11.9055 8.26945C11.6769 7.9886 11.475 7.77723 11.2411 7.5739C10.1357 6.61287 8.89374 6.09808 7.48128 6.01549C7.12061 5.9944 7.08571 5.99451 6.73929 6.01789ZM6.74575 6.89901C6.32034 7.9699 5.67619 8.90804 4.71039 9.86334C4.09874 10.4684 3.49214 10.9308 2.78765 11.3292C2.4074 11.5443 1.69361 11.8755 1.66735 11.849C1.63899 11.8204 1.73343 11.1854 1.81623 10.8482C2.29168 8.91151 3.79776 7.36878 5.71164 6.85801C6.04372 6.76938 6.52534 6.6877 6.75222 6.68153L6.83302 6.67934L6.74575 6.89901ZM7.98992 6.73118C8.55655 6.81724 9.10367 6.99096 9.60956 7.24543C9.82939 7.35601 10.1247 7.52946 10.1425 7.55848C10.1571 7.58226 9.93213 8.15112 9.77405 8.49023C8.6209 10.964 6.53863 13.1612 4.11199 14.4648C3.64627 14.715 3.05676 14.9781 2.6527 15.1162L2.49254 15.171L2.40412 15.0208C2.01259 14.3558 1.75009 13.5231 1.66892 12.6886C1.65987 12.5954 1.66258 12.5568 1.67819 12.5568C1.72547 12.5568 2.26601 12.3306 2.56147 12.1873C3.91609 11.5299 5.09264 10.567 6.11587 9.27835C6.67329 8.57632 7.1826 7.65802 7.4581 6.85828L7.52091 6.67598L7.65846 6.68885C7.73412 6.69594 7.88328 6.71498 7.98992 6.73118ZM11.1117 8.36136C11.5818 8.85182 11.9393 9.39426 12.205 10.0206L12.2841 10.2071L12.1905 10.4203C11.8824 11.1221 11.4061 11.9366 10.9352 12.5667L10.8306 12.7066L10.0712 12.7196C9.6535 12.7267 9.12067 12.7325 8.88709 12.7325C8.44905 12.7325 8.42115 12.7368 8.33225 12.8179C8.22679 12.9142 8.22543 12.9248 8.23038 13.6151L8.23495 14.2536L7.58893 14.2595C6.8623 14.266 6.86176 14.2662 6.76578 14.4122L6.71488 14.4897L6.71843 15.454L6.72197 16.4184L6.51251 16.5356C6.0857 16.7744 5.61467 17 5.15546 17.1854L4.91922 17.2809L4.79675 17.2249C4.30325 16.9993 3.70459 16.5815 3.30732 16.1854C3.13064 16.0093 2.89172 15.7414 2.90221 15.7312C2.90639 15.7272 3.05379 15.6668 3.22976 15.597C5.79887 14.5787 8.24878 12.4529 9.74956 9.93967C10.0722 9.39944 10.4035 8.73146 10.6083 8.20827L10.7015 7.97007L10.8096 8.0646C10.8691 8.11658 11.005 8.25012 11.1117 8.36136ZM12.5917 11.3608C12.6642 11.8425 12.6701 12.5644 12.6048 12.9863C12.4868 13.7488 12.2377 14.4573 11.884 15.0366L11.8065 15.1635L11.5124 15.1689L11.2183 15.1743V14.2311V13.2879L11.4267 13.0042C11.8352 12.4483 12.1581 11.9407 12.4102 11.4582C12.4817 11.3214 12.5467 11.2094 12.5545 11.2094C12.5624 11.2094 12.5791 11.2776 12.5917 11.3608ZM17.8302 16.3449V19.3324H16.9867H16.1433L16.1433 17.2382C16.1433 16.0864 16.1375 14.742 16.1304 14.2507L16.1176 13.3573H16.9739H17.8302V16.3449ZM10.5659 13.4794C10.5726 13.5358 10.5782 14.8801 10.5783 16.4669L10.5784 19.3519H9.735H8.89155V17.7735C8.89155 16.9054 8.88575 15.561 8.87867 14.786L8.86578 13.3769H9.70971H10.5536L10.5659 13.4794ZM19.3426 16.3351V17.7898H18.916H18.4894L18.4894 16.6719C18.4893 16.0571 18.4836 15.4025 18.4766 15.2172L18.4639 14.8804H18.9033H19.3426V16.3351ZM8.2323 16.3742V17.8289H7.80884H7.38537L7.37258 17.2985C7.36552 17.0068 7.35976 16.3522 7.35976 15.8438V14.9195H7.79603H8.2323V16.3742ZM15.484 16.342V16.8664L15.3357 16.879C15.2541 16.8859 14.2987 16.8916 13.2125 16.8916H11.2377V16.3546V15.8177H13.3609H15.484V16.342ZM6.7115 17.7267C6.69169 17.7466 5.93072 17.6321 5.88211 17.6018C5.87404 17.5968 6.05706 17.4977 6.28883 17.3816L6.71021 17.1704L6.7156 17.4438C6.71856 17.5941 6.71672 17.7214 6.7115 17.7267Z" stroke="#45474D" stroke-width="0.4" mask="url(#path-1-outside-1_2052_1789)"/>
</svg>
