<svg width="21" height="26" viewBox="0 0 21 26" fill="none" xmlns="http://www.w3.org/2000/svg">
<path fill-rule="evenodd" clip-rule="evenodd" d="M8.79158 1.98924C7.86469 2.18934 6.90991 2.67979 6.2933 3.2725C5.53496 4.00149 5.10182 4.85393 4.96296 5.89068L4.92326 6.18702L4.57989 6.30814C3.70624 6.6163 3.04156 7.12073 2.56532 7.83708C2.34467 8.16891 2.17609 8.53117 2.09008 8.85822C2.00342 9.18769 1.97206 9.8826 2.02814 10.231C2.14774 10.9743 2.51391 11.6555 3.09846 12.2221C3.22977 12.3494 3.33719 12.4616 3.33719 12.4714C3.33719 12.4813 3.25397 12.6131 3.15226 12.7645C2.93839 13.0827 2.76228 13.4473 2.63177 13.8422C2.54537 14.1035 2.53906 14.1611 2.52686 14.8004C2.51433 15.4574 2.51685 15.4909 2.60021 15.7827C2.79463 16.4631 3.1138 17.0166 3.59309 17.5044C4.56511 18.4939 5.79907 18.9381 7.24985 18.8209C7.79153 18.7771 8.07807 18.7115 8.54807 18.5237C9.13711 18.2884 9.57869 18.0009 10.0494 17.5462L10.3028 17.3014L10.3056 19.9021C10.3071 21.3325 10.3185 22.7864 10.3309 23.133C10.3517 23.7145 10.3587 23.7685 10.4225 23.8324C10.5073 23.9173 10.7542 23.9513 10.8867 23.8964C11.0899 23.8121 11.0834 23.9278 11.1152 19.8389L11.1367 17.0767L11.3984 17.3118C12.0373 17.886 12.783 18.2502 13.6548 18.4138C14.097 18.4968 15.0003 18.498 15.4208 18.4161C16.0664 18.2903 16.672 18.0435 17.2031 17.6897C17.5224 17.4769 18.1306 16.8715 18.3384 16.5597C18.6546 16.0851 18.8483 15.6062 18.9542 15.037C19.0344 14.606 19.0066 13.906 18.8919 13.469C18.7844 13.0595 18.5172 12.5051 18.2386 12.1142L18.0226 11.811L18.2048 11.531C18.5839 10.9487 18.7179 10.461 18.7171 9.66694C18.7164 9.04925 18.6636 8.80092 18.4289 8.31266C18.2192 7.87647 18.0126 7.58066 17.6936 7.25986C16.9966 6.55906 16.0611 6.15211 15.0085 6.09183L14.6534 6.07146L14.6332 5.95365C14.5216 5.30298 14.3917 4.8907 14.156 4.43945C13.5599 3.29807 12.3898 2.39468 11.0713 2.058C10.5028 1.91281 9.31204 1.87689 8.79158 1.98924ZM10.5342 2.66325C12.0348 2.92013 13.2669 3.93312 13.6822 5.25164C13.7805 5.56363 13.8237 5.80492 13.8657 6.27514C13.8925 6.57642 13.9059 6.62603 13.9804 6.70058C14.0629 6.78323 14.0768 6.78539 14.661 6.80628C14.9889 6.81801 15.3529 6.84459 15.4698 6.86535C16.1487 6.98592 16.6904 7.29339 17.2238 7.86089C17.7456 8.41604 17.956 8.95324 17.9547 9.72713C17.9536 10.3221 17.8076 10.7722 17.4455 11.2963C17.0774 11.8291 17.0738 11.8513 17.3092 12.1395C17.7155 12.6371 17.9438 13.0274 18.108 13.5055C18.1856 13.7313 18.197 13.8209 18.209 14.3003C18.2244 14.9148 18.189 15.1509 18.0203 15.5566C17.7127 16.2966 17.1141 16.95 16.3855 17.3414C16.0977 17.4959 15.5477 17.6857 15.2278 17.7408C14.8798 17.8007 13.8859 17.7631 13.566 17.6779C13.1873 17.5771 12.7254 17.3726 12.4044 17.1637C12.0189 16.9129 11.509 16.3978 11.2892 16.0371L11.1204 15.7602V15.2644V14.7685L12.1803 13.8951C12.7633 13.4147 13.3406 12.9284 13.4632 12.8144C13.6684 12.6234 13.6861 12.5965 13.6861 12.4732C13.6861 12.2583 13.4739 12.0907 13.255 12.1325C13.1781 12.1473 12.6418 12.5676 11.7321 13.3263C11.43 13.5782 11.1737 13.7752 11.1626 13.7641C11.1515 13.753 11.131 12.5761 11.1169 11.1488L11.0914 8.55363L10.9732 8.45029C10.9082 8.39344 10.8202 8.3382 10.7776 8.3275C10.6509 8.29567 10.4567 8.37769 10.4055 8.4847C10.3534 8.59364 10.3075 9.54474 10.3046 10.5756C10.3036 10.9313 10.2918 11.2217 10.2783 11.221C10.2648 11.2203 9.82023 10.8594 9.29036 10.4189C8.66577 9.89966 8.27609 9.59854 8.1823 9.56268C8.04387 9.50974 8.03255 9.5101 7.9194 9.57084C7.77289 9.64946 7.66766 9.8324 7.6984 9.95506C7.72325 10.0541 7.9488 10.2521 9.36623 11.4188L10.3011 12.1883L10.2938 13.9892L10.2865 15.7902L10.1829 16.0286C10.0128 16.4205 9.78443 16.7538 9.47022 17.0692C9.04015 17.5009 8.58944 17.775 7.99494 17.9664C7.57835 18.1005 7.2039 18.1435 6.64015 18.1218C6.09699 18.1008 5.83426 18.043 5.36835 17.8418C4.49489 17.4646 3.89889 16.9064 3.53174 16.122C3.34027 15.7129 3.30554 15.5188 3.30498 14.8556C3.30462 14.4449 3.31878 14.2257 3.35462 14.0861C3.43788 13.7622 3.70585 13.2631 4.02208 12.8432C4.18478 12.627 4.31801 12.4309 4.3181 12.4073C4.3182 12.3837 4.07911 12.1253 3.78685 11.8331C3.12849 11.1749 2.95153 10.8919 2.82507 10.2949C2.75156 9.94809 2.78043 9.18606 2.87798 8.89745C3.0309 8.44511 3.3352 7.9749 3.67808 7.66111C4.08121 7.29221 4.52194 7.05822 5.11948 6.89581C5.31733 6.84204 5.51175 6.77685 5.55151 6.75091C5.64239 6.69161 5.67948 6.55186 5.72484 6.09779C5.78291 5.51644 5.86984 5.20337 6.10314 4.73546C6.63315 3.67237 7.75883 2.87272 9.02658 2.65877C9.38748 2.59783 10.1655 2.60015 10.5342 2.66325Z" fill="#45474D"/>
</svg>
