<svg width="24" height="24" viewBox="0 0 24 24" fill="none" xmlns="http://www.w3.org/2000/svg">
<path fill-rule="evenodd" clip-rule="evenodd" d="M10.6644 0.0329453C8.78738 0.258291 6.9247 0.937048 5.40491 1.94958C4.62011 2.47238 4.14009 2.86724 3.4667 3.54388C1.5779 5.44175 0.372299 7.94579 0.0625174 10.6141C-0.0485108 11.5706 -0.00771918 13.0912 0.153666 14.0095C0.831135 17.8646 3.23503 21.0737 6.7259 22.7832C7.83806 23.3278 8.81509 23.6451 10.0664 23.8681C10.7739 23.9942 12.4568 24.0419 13.2317 23.9579C15.19 23.7455 17.0272 23.0799 18.6679 21.9883C21.4394 20.1444 23.2648 17.3155 23.8692 13.9276C24.0095 13.1412 24.0441 11.4593 23.9379 10.5902C23.5998 7.8246 22.2844 5.18816 20.2936 3.28546C18.5954 1.66254 16.3905 0.556405 14.0168 0.136727C13.4355 0.0339306 13.1704 0.0144129 12.1882 0.00221427C11.5564 -0.00566789 10.8707 0.00817281 10.6644 0.0329453ZM13.7589 1.3373C18.4023 2.13326 21.9113 5.68929 22.6756 10.3734C22.7945 11.1018 22.7945 12.8823 22.6756 13.6107C22.281 16.0292 21.1499 18.191 19.4239 19.8257C17.8194 21.3452 15.8621 22.3052 13.6183 22.673C12.8907 22.7924 11.1627 22.7931 10.4065 22.6745C6.11825 22.0018 2.68368 18.9267 1.57171 14.764C1.31079 13.7874 1.24407 13.2301 1.24247 12.0155C1.24083 10.7709 1.29349 10.3121 1.55469 9.2943C2.52886 5.49857 5.50557 2.51963 9.30468 1.53853C9.78415 1.41472 10.3193 1.32074 11.0629 1.22977C11.5037 1.17586 13.2155 1.24412 13.7589 1.3373ZM11.041 4.15241C10.4746 4.4843 9.98093 4.80128 9.94413 4.85673C9.89461 4.93133 9.88964 4.98472 9.92504 5.06158C9.98196 5.18525 12.0594 6.38456 12.1985 6.37405C12.3837 6.36011 12.4227 6.27416 12.4227 5.88024V5.50387L12.7157 5.53127C14.6011 5.70754 16.3817 6.77749 17.4166 8.35594C18.1617 9.49243 18.4907 10.6173 18.4868 12.0155C18.4845 12.8257 18.4027 13.3507 18.1654 14.0782C17.906 14.8733 17.4111 15.7288 16.8378 16.3729C16.5014 16.7509 16.4408 16.9385 16.5749 17.1876C16.7252 17.467 17.01 17.5522 17.2828 17.3993C17.5663 17.2405 18.2733 16.3269 18.6717 15.6047C19.0465 14.9253 19.3943 13.8477 19.5047 13.0242C19.5341 12.8049 19.5573 12.3088 19.5561 11.9217C19.545 8.06599 16.7377 4.92336 12.9065 4.47773L12.4227 4.42143V4.05787C12.4227 3.66446 12.3647 3.546 12.1732 3.54792C12.117 3.54848 11.6075 3.82051 11.041 4.15241ZM6.70963 6.562C6.55022 6.63866 5.8937 7.44203 5.58861 7.93368C4.5134 9.6664 4.17056 11.7129 4.61974 13.7169C4.83922 14.6961 5.24127 15.6098 5.80138 16.4023C6.19711 16.9623 7.02143 17.7912 7.55941 18.1701C8.61099 18.9108 9.97409 19.4165 11.2153 19.5265L11.5787 19.5587V19.9417C11.5787 20.3575 11.6164 20.4372 11.813 20.4372C11.9386 20.4372 13.8692 19.3372 14.038 19.1695C14.2002 19.0083 14.0949 18.8551 13.6414 18.593C12.1596 17.7367 11.8234 17.5664 11.7214 17.6211C11.5749 17.6995 11.5208 17.8884 11.5566 18.1968L11.5879 18.4667L11.4544 18.4665C11.1644 18.4661 10.422 18.3164 9.94642 18.1623C8.99753 17.855 8.22994 17.3975 7.50976 16.71C6.4917 15.7381 5.84414 14.5291 5.59846 13.1415C5.48963 12.5271 5.48696 11.4678 5.59278 10.879C5.80631 9.69047 6.3817 8.48994 7.14188 7.64688C7.43211 7.32502 7.49954 7.2112 7.49954 7.043C7.49954 6.65119 7.06907 6.38906 6.70963 6.562Z" fill="#45474D"/>
</svg>
