<svg width="24" height="24" viewBox="0 0 24 24" fill="none" xmlns="http://www.w3.org/2000/svg">
<g clip-path="url(#clip0_2052_978)">
<path fill-rule="evenodd" clip-rule="evenodd" d="M1.8227 19.8844C1.67193 19.8208 1.45532 19.6638 1.34125 19.5354C0.743997 18.8627 0.954754 17.8925 1.78573 17.4894L2.14583 17.3148H12.5H22.8542L23.2143 17.4894C24.0452 17.8925 24.256 18.8627 23.6587 19.5354C23.5447 19.6638 23.3281 19.8208 23.1773 19.8844C22.9144 19.9952 22.476 20 12.5 20C2.52398 20 2.08557 19.9952 1.8227 19.8844ZM4.96681 13.3147C4.61795 13.2372 4.21193 12.938 4.03268 12.6265C3.89815 12.3927 3.87485 12.2754 3.89451 11.9319C3.92394 11.4189 4.1382 11.0867 4.60354 10.8327L4.92486 10.6574H12.5H20.0751L20.3965 10.8327C20.5732 10.9292 20.8005 11.124 20.9015 11.2657C21.0612 11.4899 21.0851 11.5856 21.0851 12.0014C21.0851 12.4172 21.0612 12.5128 20.9015 12.737C20.8005 12.8787 20.5732 13.0736 20.3965 13.17L20.0751 13.3454L12.6347 13.3552C8.54241 13.3607 5.09185 13.3424 4.96681 13.3147ZM7.61448 6.57007C7.04193 6.32865 6.65536 5.67854 6.75172 5.11913C6.81447 4.75507 7.15573 4.31687 7.51098 4.14421L7.80779 4H12.5H17.1922L17.489 4.14421C17.8509 4.32006 18.1899 4.76188 18.2502 5.13626C18.3138 5.53095 18.1486 5.98334 17.8383 6.26408C17.348 6.70759 17.5945 6.68809 12.4853 6.68659C8.1644 6.68527 7.87115 6.67827 7.61448 6.57007Z" fill="#45474D"/>
</g>
<defs>
<clipPath id="clip0_2052_978">
<rect width="24" height="24" fill="white" transform="matrix(-4.37114e-08 -1 -1 4.37114e-08 24 24)"/>
</clipPath>
</defs>
</svg>
