<svg width="23" height="16" viewBox="0 0 23 16" fill="none" xmlns="http://www.w3.org/2000/svg">
<path fill-rule="evenodd" clip-rule="evenodd" d="M22.1773 0.115582C22.3281 0.179156 22.5447 0.336245 22.6587 0.464642C23.256 1.13732 23.0452 2.10755 22.2143 2.51056L21.8542 2.68521L11.5 2.68521L1.14584 2.68521L0.785732 2.51056C-0.0452424 2.10755 -0.256001 1.13732 0.341257 0.464642C0.45532 0.336244 0.671936 0.179155 0.822697 0.115582C1.08557 0.00475006 1.52399 -6.82647e-07 11.5 -3.65545e-07C21.476 -4.84421e-08 21.9144 0.00475072 22.1773 0.115582ZM19.0332 6.68534C19.382 6.76285 19.7881 7.06196 19.9673 7.37352C20.1019 7.60731 20.1251 7.72458 20.1055 8.06807C20.0761 8.5811 19.8618 8.91334 19.3965 9.16726L19.0751 9.34261L11.5 9.34261L3.92487 9.3426L3.60355 9.16726C3.42679 9.07081 3.19954 8.87596 3.09854 8.73425C2.93875 8.51009 2.91485 8.41445 2.91485 7.99862C2.91485 7.5828 2.93875 7.48716 3.09854 7.263C3.19954 7.12129 3.42679 6.92644 3.60355 6.82999L3.92487 6.65464L11.3653 6.64477C15.4576 6.63933 18.9081 6.65758 19.0332 6.68534ZM16.3855 13.4299C16.9581 13.6713 17.3446 14.3215 17.2483 14.8809C17.1855 15.2449 16.8443 15.6831 16.489 15.8558L16.1922 16L11.5 16L6.80779 16L6.51099 15.8558C6.14913 15.6799 5.8101 15.2381 5.74977 14.8637C5.6862 14.469 5.85144 14.0167 6.16172 13.7359C6.65198 13.2924 6.40547 13.3119 11.5147 13.3134C15.8356 13.3147 16.1288 13.3217 16.3855 13.4299Z" fill="#7AC5CD"/>
</svg>
