<svg width="86" height="86" viewBox="0 0 86 86" fill="none" xmlns="http://www.w3.org/2000/svg">
<circle cx="43" cy="43" r="43" fill="#7AC5CD"/>
<circle cx="43" cy="43" r="42.5" stroke="white" stroke-opacity="0.3"/>
<g clip-path="url(#clip0_2052_2943)">
<path d="M37.8731 55.0022C37.6516 55.0022 37.4249 54.9217 37.255 54.7653C36.915 54.4526 36.915 53.9409 37.255 53.6282L48.8907 42.9205L37.4249 32.3739C37.085 32.0611 37.085 31.5494 37.4249 31.2367C37.7649 30.924 38.3212 30.924 38.6611 31.2367L50.745 42.3519C51.085 42.6646 51.085 43.1763 50.745 43.489L38.4912 54.7653C38.3212 54.9216 38.0946 55.0022 37.8731 55.0022L37.8731 55.0022Z" fill="white"/>
</g>
<defs>
<clipPath id="clip0_2052_2943">
<rect width="24" height="24" fill="white" transform="translate(31 31)"/>
</clipPath>
</defs>
</svg>
