<svg width="66" height="65" viewBox="0 0 66 65" fill="none" xmlns="http://www.w3.org/2000/svg">
<path d="M0 32.5C0 50.4493 14.5507 65 32.5 65H54C60.6274 65 66 59.6274 66 53V12C66 5.37259 60.6274 0 54 0H32.5C14.5507 0 0 14.5507 0 32.5Z" fill="#7AC5CD"/>
<path d="M0.5 32.5C0.5 50.1731 14.8269 64.5 32.5 64.5H54C60.3513 64.5 65.5 59.3513 65.5 53V12C65.5 5.64873 60.3513 0.5 54 0.5H32.5C14.8269 0.5 0.5 14.8269 0.5 32.5Z" stroke="black" stroke-opacity="0.1"/>
<path d="M32.6764 39.8529C37.7444 39.8529 41.8529 35.7444 41.8529 30.6764C41.8529 25.6084 37.7444 21.5 32.6764 21.5C27.6084 21.5 23.5 25.6084 23.5 30.6764C23.5 35.7444 27.6084 39.8529 32.6764 39.8529Z" stroke="white" stroke-linecap="round" stroke-linejoin="round"/>
<path d="M44.1474 42.1474L39.1577 37.1577" stroke="white" stroke-linecap="round" stroke-linejoin="round"/>
</svg>
