<svg width="36" height="36" viewBox="0 0 36 36" fill="none" xmlns="http://www.w3.org/2000/svg">
<path d="M18 1.5C21.5804 1.5 25.0142 2.92232 27.5459 5.45406C30.0777 7.9858 31.5 11.4196 31.5 15C31.5 20.589 27.24 26.445 18.9 32.7C18.6404 32.8947 18.3246 33 18 33C17.6754 33 17.3596 32.8947 17.1 32.7C8.76 26.445 4.5 20.589 4.5 15C4.5 11.4196 5.92232 7.9858 8.45406 5.45406C10.9858 2.92232 14.4196 1.5 18 1.5ZM18 10.5C16.8065 10.5 15.6619 10.9741 14.818 11.818C13.9741 12.6619 13.5 13.8065 13.5 15C13.5 16.1935 13.9741 17.3381 14.818 18.182C15.6619 19.0259 16.8065 19.5 18 19.5C19.1935 19.5 20.3381 19.0259 21.182 18.182C22.0259 17.3381 22.5 16.1935 22.5 15C22.5 13.8065 22.0259 12.6619 21.182 11.818C20.3381 10.9741 19.1935 10.5 18 10.5Z" fill="#45474D"/>
</svg>
