<svg width="36" height="36" viewBox="0 0 36 36" fill="none" xmlns="http://www.w3.org/2000/svg">
<path d="M17.9993 12.6078C15.014 12.6078 12.6072 15.0378 12.6072 18C12.6072 20.9623 15.0371 23.3923 17.9993 23.3923C20.9614 23.3923 23.3913 20.9623 23.3913 18C23.3913 15.0378 20.9614 12.6078 17.9993 12.6078ZM34.1985 18C34.1985 15.7552 34.1985 13.5566 34.0828 11.3118C33.9671 8.71976 33.3654 6.40548 31.4678 4.53091C29.5702 2.63319 27.2791 2.03148 24.6873 1.91576C22.4425 1.80005 20.244 1.80005 17.9993 1.80005C15.7545 1.80005 13.556 1.80005 11.3113 1.91576C8.71939 2.03148 6.40521 2.63319 4.53072 4.53091C2.63309 6.42862 2.03141 8.71976 1.9157 11.3118C1.79999 13.5566 1.79999 15.7552 1.79999 18C1.79999 20.2449 1.79999 22.4435 1.9157 24.6883C2.03141 27.2803 2.63309 29.5946 4.53072 31.4692C6.42835 33.3669 8.71939 33.9686 11.3113 34.0843C13.556 34.2001 15.7545 34.2001 17.9993 34.2001C20.244 34.2001 22.4425 34.2001 24.6873 34.0843C27.2791 33.9686 29.5933 33.3669 31.4678 31.4692C33.3654 29.5715 33.9671 27.2803 34.0828 24.6883C34.2217 22.4666 34.1985 20.2449 34.1985 18ZM17.9993 26.3083C13.394 26.3083 9.69135 22.6055 9.69135 18C9.69135 13.3946 13.394 9.69176 17.9993 9.69176C22.6045 9.69176 26.3072 13.3946 26.3072 18C26.3072 22.6055 22.6045 26.3083 17.9993 26.3083ZM26.6543 11.2886C25.5898 11.2886 24.7104 10.4323 24.7104 9.34462C24.7104 8.25691 25.5666 7.40062 26.6543 7.40062C27.742 7.40062 28.5982 8.25691 28.5982 9.34462C28.6041 9.59812 28.5578 9.85012 28.4623 10.085C28.3667 10.3199 28.224 10.5326 28.0428 10.71C27.8654 10.8912 27.6527 11.034 27.4178 11.1295C27.1829 11.2251 26.9309 11.2713 26.6775 11.2655L26.6543 11.2886Z" fill="#7AC5CD"/>
</svg>
