<svg width="36" height="36" viewBox="0 0 36 36" fill="none" xmlns="http://www.w3.org/2000/svg">
<path d="M32.418 1.80005H3.58199C3.10937 1.80005 2.65611 1.98779 2.32192 2.32198C1.98773 2.65617 1.79999 3.10943 1.79999 3.58205V32.4181C1.79999 32.8907 1.98773 33.3439 2.32192 33.6781C2.65611 34.0123 3.10937 34.2001 3.58199 34.2001H19.1016V21.6451H14.8896V16.7851H19.1016V13.14C19.0143 12.2843 19.1154 11.4198 19.3976 10.6072C19.6798 9.79466 20.1364 9.05367 20.7353 8.43624C21.3342 7.8188 22.061 7.33987 22.8646 7.03303C23.6682 6.7262 24.5292 6.5989 25.3872 6.66005C26.6481 6.65229 27.9084 6.7172 29.1618 6.85445V11.2284H26.586C24.5448 11.2284 24.156 12.2004 24.156 13.6098V16.7365H29.016L28.3842 21.5965H24.156V34.2001H32.418C32.652 34.2001 32.8837 34.154 33.0999 34.0644C33.3161 33.9748 33.5126 33.8436 33.6781 33.6781C33.8435 33.5126 33.9748 33.3162 34.0643 33.1C34.1539 32.8838 34.2 32.6521 34.2 32.4181V3.58205C34.2 3.34803 34.1539 3.11631 34.0643 2.90011C33.9748 2.6839 33.8435 2.48746 33.6781 2.32198C33.5126 2.15651 33.3161 2.02525 33.0999 1.9357C32.8837 1.84614 32.652 1.80005 32.418 1.80005Z" fill="#7AC5CD"/>
</svg>
