<svg width="36" height="36" viewBox="0 0 36 36" fill="none" xmlns="http://www.w3.org/2000/svg">
<path d="M30.6 1.80005C31.5548 1.80005 32.4704 2.17933 33.1456 2.85446C33.8207 3.5296 34.2 4.44527 34.2 5.40005V30.6C34.2 31.5548 33.8207 32.4705 33.1456 33.1456C32.4704 33.8208 31.5548 34.2001 30.6 34.2001H5.39999C4.44521 34.2001 3.52953 33.8208 2.8544 33.1456C2.17927 32.4705 1.79999 31.5548 1.79999 30.6V5.40005C1.79999 4.44527 2.17927 3.5296 2.8544 2.85446C3.52953 2.17933 4.44521 1.80005 5.39999 1.80005H30.6ZM29.7 29.7001V20.16C29.7 18.6038 29.0818 17.1112 27.9813 16.0107C26.8808 14.9103 25.3883 14.292 23.832 14.292C22.302 14.292 20.52 15.228 19.656 16.632V14.634H14.634V29.7001H19.656V20.826C19.656 19.44 20.772 18.306 22.158 18.306C22.8263 18.306 23.4673 18.5715 23.9399 19.0441C24.4125 19.5167 24.678 20.1577 24.678 20.826V29.7001H29.7ZM8.78399 11.8081C9.586 11.8081 10.3552 11.4895 10.9223 10.9223C11.4894 10.3552 11.808 9.58606 11.808 8.78405C11.808 7.11005 10.458 5.74205 8.78399 5.74205C7.9772 5.74205 7.20345 6.06254 6.63297 6.63303C6.06248 7.20352 5.74199 7.97726 5.74199 8.78405C5.74199 10.458 7.10999 11.8081 8.78399 11.8081ZM11.286 29.7001V14.634H6.29999V29.7001H11.286Z" fill="#7AC5CD"/>
</svg>
