<svg width="36" height="36" viewBox="0 0 36 36" fill="none" xmlns="http://www.w3.org/2000/svg">
<g clip-path="url(#clip0_96_968)">
<path d="M18 0C27.9414 0 36 8.05859 36 18C36 27.9414 27.9414 36 18 36C14.819 36.0051 11.694 35.1633 8.94602 33.561L0.00722532 36L2.44082 27.0576C0.837192 24.3088 -0.00528907 21.1824 2.49844e-05 18C2.49844e-05 8.05859 8.05862 0 18 0ZM11.8656 9.53999L11.5056 9.55439C11.2726 9.56859 11.0448 9.62982 10.836 9.73439C10.6408 9.84497 10.4625 9.9832 10.3068 10.1448C10.0908 10.3482 9.96842 10.5246 9.83702 10.6956C9.17124 11.5612 8.81277 12.624 8.81822 13.716C8.82182 14.598 9.05222 15.4566 9.41222 16.2594C10.1484 17.883 11.3598 19.602 12.9582 21.195C13.3434 21.5784 13.7214 21.9636 14.1282 22.3218C16.1143 24.0704 18.4811 25.3315 21.0402 26.0046L22.0626 26.1612C22.3956 26.1792 22.7286 26.154 23.0634 26.1378C23.5876 26.1107 24.0995 25.9688 24.5628 25.722C24.7985 25.6006 25.0286 25.4684 25.2522 25.326C25.2522 25.326 25.3296 25.2756 25.4772 25.164C25.7202 24.984 25.8696 24.8562 26.0712 24.6456C26.2206 24.4908 26.3502 24.309 26.4492 24.102C26.5896 23.8086 26.73 23.2488 26.7876 22.7826C26.8308 22.4262 26.8182 22.2318 26.8128 22.1112C26.8056 21.9186 26.6454 21.7188 26.4708 21.6342L25.4232 21.1644C25.4232 21.1644 23.8572 20.4822 22.8996 20.0466C22.7994 20.0028 22.692 19.9778 22.5828 19.9728C22.4597 19.9601 22.3352 19.974 22.2179 20.0134C22.1005 20.0529 21.9929 20.1169 21.9024 20.2014C21.8934 20.1978 21.7728 20.3004 20.4714 21.8772C20.3967 21.9776 20.2938 22.0534 20.1759 22.0951C20.0579 22.1368 19.9302 22.1424 19.809 22.1112C19.6918 22.0797 19.5769 22.04 19.4652 21.9924C19.242 21.8988 19.1646 21.8628 19.0116 21.798C17.9785 21.3472 17.0221 20.7381 16.1766 19.9926C15.9498 19.7946 15.7392 19.5786 15.5232 19.3698C14.8151 18.6916 14.1979 17.9244 13.6872 17.0874L13.581 16.9164C13.5047 16.8015 13.4431 16.6775 13.3974 16.5474C13.329 16.2828 13.5072 16.0704 13.5072 16.0704C13.5072 16.0704 13.9446 15.5916 14.148 15.3324C14.346 15.0804 14.5134 14.8356 14.6214 14.661C14.8338 14.319 14.9004 13.968 14.7888 13.6962C14.2848 12.465 13.7628 11.2392 13.2264 10.0224C13.1202 9.78119 12.8052 9.60839 12.519 9.57419C12.4218 9.56339 12.3246 9.55259 12.2274 9.54539C11.9857 9.53338 11.7435 9.53579 11.502 9.55259L11.8656 9.53999Z" fill="#7AC5CD"/>
</g>
<defs>
<clipPath id="clip0_96_968">
<rect width="36" height="36" fill="white"/>
</clipPath>
</defs>
</svg>
