<svg width="24" height="24" viewBox="0 0 24 24" fill="none" xmlns="http://www.w3.org/2000/svg">
<path fill-rule="evenodd" clip-rule="evenodd" d="M3.89428 2.0606C3.76564 2.0917 3.52831 2.18191 3.36689 2.26106C2.95685 2.46215 2.46353 2.95552 2.26308 3.36496C1.98091 3.94123 2.00028 3.30577 2.00028 11.9992C2.00028 20.6927 1.98091 20.0572 2.26308 20.6335C2.46353 21.043 2.95697 21.5364 3.36642 21.7369C3.94264 22.0191 3.30723 21.9997 12 21.9997C20.6928 21.9997 20.0574 22.0191 20.6336 21.7369C20.8554 21.6283 21.0076 21.5124 21.26 21.26C21.5124 21.0075 21.6283 20.8553 21.7369 20.6335C22.0191 20.0572 21.9997 20.6927 21.9997 11.9992C21.9997 3.30577 22.0191 3.94123 21.7369 3.36496C21.5365 2.95548 21.043 2.462 20.6336 2.26153C20.057 1.97918 20.6963 1.9984 11.9805 2.00137C5.26753 2.00368 4.09426 2.01227 3.89428 2.0606ZM19.0036 4.53937C19.2099 4.59665 19.4132 4.78692 19.462 4.96835C19.4888 5.06798 19.4989 6.10358 19.4919 8.02195C19.4814 10.8455 19.479 10.9284 19.403 11.0545C19.1668 11.4464 18.5975 11.4503 18.3553 11.0616L18.2701 10.9248L18.2847 8.78579C18.293 7.58422 18.2845 6.64676 18.2654 6.64676C18.2466 6.64676 17.2818 7.59625 16.1212 8.75676L14.0111 10.8668L13.5822 10.4365L13.1533 10.0061L15.2818 7.87716L17.4104 5.74817L15.3205 5.74794C14.0071 5.74782 13.1767 5.73278 13.0857 5.7075C12.776 5.62147 12.5801 5.2788 12.6636 4.96886C12.7133 4.78402 12.8958 4.59059 13.0671 4.54102C13.2469 4.48898 18.8166 4.48745 19.0036 4.53937ZM5.45645 12.7421C5.52091 12.7818 5.60881 12.8726 5.65178 12.9439C5.72788 13.0703 5.72952 13.1292 5.71526 15.2126C5.70702 16.4142 5.71554 17.3517 5.73464 17.3517C5.75339 17.3517 6.71824 16.4022 7.87881 15.2417L9.98888 13.1317L10.4178 13.562L10.8467 13.9923L8.71947 16.12L6.59218 18.2477L8.75893 18.2587C10.846 18.2694 10.9305 18.2727 11.0553 18.3479C11.4473 18.5841 11.4511 19.1535 11.0624 19.3957L10.9257 19.4809L8.04258 19.4917C6.08971 19.4989 5.10958 19.489 5.00469 19.4607C4.79795 19.4051 4.58864 19.2149 4.53957 19.0382C4.48484 18.8412 4.48527 13.2821 4.54 13.085C4.58899 12.9086 4.77311 12.7165 4.94136 12.6662C5.09919 12.619 5.30593 12.6494 5.45645 12.7421Z" fill="#7AC5CD"/>
</svg>
