<svg width="24" height="24" viewBox="0 0 24 24" fill="none" xmlns="http://www.w3.org/2000/svg">
<g clip-path="url(#clip0_96_1167)">
<path fill-rule="evenodd" clip-rule="evenodd" d="M1.8227 4.11558C1.67193 4.17916 1.45532 4.33625 1.34125 4.46464C0.743997 5.13732 0.954754 6.10755 1.78573 6.51056L2.14583 6.68521H12.5H22.8542L23.2143 6.51056C24.0452 6.10755 24.256 5.13732 23.6587 4.46464C23.5447 4.33625 23.3281 4.17916 23.1773 4.11558C22.9144 4.00475 22.476 4 12.5 4C2.52398 4 2.08557 4.00475 1.8227 4.11558ZM4.96681 10.6853C4.61795 10.7628 4.21193 11.062 4.03268 11.3735C3.89815 11.6073 3.87485 11.7246 3.89451 12.0681C3.92394 12.5811 4.1382 12.9133 4.60354 13.1673L4.92486 13.3426H12.5H20.0751L20.3965 13.1673C20.5732 13.0708 20.8005 12.876 20.9015 12.7343C21.0612 12.5101 21.0851 12.4144 21.0851 11.9986C21.0851 11.5828 21.0612 11.4872 20.9015 11.263C20.8005 11.1213 20.5732 10.9264 20.3965 10.83L20.0751 10.6546L12.6347 10.6448C8.54241 10.6393 5.09185 10.6576 4.96681 10.6853ZM7.61448 17.4299C7.04193 17.6713 6.65536 18.3215 6.75172 18.8809C6.81447 19.2449 7.15573 19.6831 7.51098 19.8558L7.80779 20H12.5H17.1922L17.489 19.8558C17.8509 19.6799 18.1899 19.2381 18.2502 18.8637C18.3138 18.469 18.1486 18.0167 17.8383 17.7359C17.348 17.2924 17.5945 17.3119 12.4853 17.3134C8.1644 17.3147 7.87115 17.3217 7.61448 17.4299Z" fill="#7AC5CD"/>
</g>
<defs>
<clipPath id="clip0_96_1167">
<rect width="24" height="24" fill="white" transform="translate(24) rotate(90)"/>
</clipPath>
</defs>
</svg>
