<svg width="36" height="36" viewBox="0 0 36 36" fill="none" xmlns="http://www.w3.org/2000/svg">
<circle cx="18" cy="18" r="18" fill="white"/>
<circle cx="18" cy="18" r="17.5" stroke="black" stroke-opacity="0.1"/>
<path d="M24.4 15.8984V21.6C24.4 22.1304 24.1893 22.6391 23.8142 23.0142C23.4391 23.3892 22.9304 23.6 22.4 23.6H13.6C13.0696 23.6 12.5609 23.3892 12.1858 23.0142C11.8107 22.6391 11.6 22.1304 11.6 21.6V15.8984L17.7968 19.5448C17.8584 19.5811 17.9285 19.6002 18 19.6002C18.0715 19.6002 18.1416 19.5811 18.2032 19.5448L24.4 15.8984ZM22.4 13.2C22.8921 13.1999 23.367 13.3812 23.7338 13.7093C24.1005 14.0374 24.3335 14.4893 24.388 14.9784L18 18.736L11.612 14.9784C11.6665 14.4893 11.8995 14.0374 12.2662 13.7093C12.633 13.3812 13.1079 13.1999 13.6 13.2H22.4Z" fill="#7AC5CD"/>
</svg>
