<svg width="24" height="24" viewBox="0 0 24 24" fill="none" xmlns="http://www.w3.org/2000/svg">
<path fill-rule="evenodd" clip-rule="evenodd" d="M5.15711 4.02386C4.57226 4.09061 4.09065 4.4075 3.84864 4.8848C3.63474 5.30662 3.61031 5.54202 3.58538 7.42016L3.56181 9.19414H4.11035H4.65885L4.67309 7.39727C4.68869 5.42606 4.69779 5.3573 4.96583 5.1805C5.16048 5.05213 5.88214 5.06 6.06018 5.19249C6.24755 5.33185 6.31434 5.50563 6.35079 5.94842C6.38796 6.39995 6.43319 6.50872 6.63534 6.63274C6.90152 6.79604 7.20827 6.71354 7.37198 6.43469C7.43959 6.31951 7.44819 6.23244 7.42476 5.89989C7.3263 4.50442 6.55285 3.86455 5.15711 4.02386ZM2.57638 9.77257C2.28459 9.91888 2.09595 10.1648 2.0226 10.4944C1.92164 10.9484 2.16766 11.4584 2.58593 11.6621L2.78231 11.7578L11.993 11.7568C20.8685 11.7559 21.2103 11.7527 21.3856 11.6708C22.0609 11.3556 22.2122 10.4526 21.6756 9.9404C21.3486 9.62823 22.1437 9.65194 12.0004 9.65194H2.81698L2.57638 9.77257ZM3.32644 12.5419C3.59197 13.9441 4.26623 15.3929 5.16667 16.4961C5.4731 16.8716 6.13476 17.5334 6.46832 17.7982L6.70232 17.9839H11.99H17.2776L17.4661 17.8373C17.7663 17.6039 18.5277 16.8457 18.8132 16.4961C19.7134 15.3936 20.388 13.9442 20.6536 12.5419L20.7153 12.2156H11.99H3.26465L3.32644 12.5419ZM7.48555 19.1971V20L8.49791 19.9877L9.51028 19.9754V19.1971V18.4188L8.49791 18.4065L7.48555 18.3942V19.1971ZM14.4671 18.455C14.4547 18.4875 14.4502 18.8429 14.4572 19.2447L14.4697 19.9754L15.4821 19.9877L16.4944 20V19.198V18.396H15.492C14.7154 18.396 14.4846 18.4093 14.4671 18.455Z" fill="#7AC5CD"/>
</svg>
