<svg width="36" height="36" viewBox="0 0 36 36" fill="none" xmlns="http://www.w3.org/2000/svg">
<circle cx="18" cy="18" r="18" fill="white"/>
<circle cx="18" cy="18" r="17.5" stroke="black" stroke-opacity="0.1"/>
<path d="M14.4133 17.1933C15.3733 19.08 16.92 20.62 18.8067 21.5867L20.2733 20.12C20.4533 19.94 20.72 19.88 20.9533 19.96C21.7 20.2067 22.5067 20.34 23.3333 20.34C23.7 20.34 24 20.64 24 21.0067V23.3333C24 23.7 23.7 24 23.3333 24C17.0733 24 12 18.9267 12 12.6667C12 12.3 12.3 12 12.6667 12H15C15.3667 12 15.6667 12.3 15.6667 12.6667C15.6667 13.5 15.8 14.3 16.0467 15.0467C16.12 15.28 16.0667 15.54 15.88 15.7267L14.4133 17.1933Z" fill="#7AC5CD"/>
</svg>
