<svg width="36" height="36" viewBox="0 0 36 36" fill="none" xmlns="http://www.w3.org/2000/svg">
<circle cx="18" cy="18" r="18" fill="white"/>
<circle cx="18" cy="18" r="17.5" stroke="black" stroke-opacity="0.1"/>
<path d="M18.0007 11.3334C21.6827 11.3334 24.6673 14.318 24.6673 18C24.6673 21.682 21.6827 24.6667 18.0007 24.6667C16.8225 24.6686 15.6651 24.3568 14.6473 23.7634L11.3367 24.6667L12.238 21.3547C11.6441 20.3366 11.332 19.1787 11.334 18C11.334 14.318 14.3187 11.3334 18.0007 11.3334ZM15.7287 14.8667L15.5953 14.872C15.509 14.8773 15.4246 14.9 15.3473 14.9387C15.275 14.9797 15.209 15.0309 15.1513 15.0907C15.0713 15.166 15.026 15.2314 14.9773 15.2947C14.7307 15.6153 14.598 16.0089 14.6 16.4134C14.6013 16.74 14.6867 17.058 14.82 17.3554C15.0927 17.9567 15.5413 18.5934 16.1333 19.1834C16.276 19.3254 16.416 19.468 16.5667 19.6007C17.3023 20.2484 18.1788 20.7154 19.1267 20.9647L19.5053 21.0227C19.6287 21.0294 19.752 21.02 19.876 21.014C20.0702 21.004 20.2597 20.9514 20.4313 20.86C20.5186 20.8151 20.6038 20.7661 20.6867 20.7134C20.6867 20.7134 20.7153 20.6947 20.77 20.6534C20.86 20.5867 20.9153 20.5394 20.99 20.4614C21.0453 20.404 21.0933 20.3367 21.13 20.26C21.182 20.1514 21.234 19.944 21.2553 19.7714C21.2713 19.6394 21.2667 19.5674 21.2647 19.5227C21.262 19.4514 21.2027 19.3774 21.138 19.346L20.75 19.172C20.75 19.172 20.17 18.9194 19.8153 18.758C19.7782 18.7418 19.7384 18.7326 19.698 18.7307C19.6524 18.726 19.6063 18.7312 19.5628 18.7458C19.5194 18.7604 19.4795 18.7841 19.446 18.8154C19.4427 18.814 19.398 18.852 18.916 19.436C18.8883 19.4732 18.8502 19.5013 18.8065 19.5167C18.7628 19.5322 18.7155 19.5343 18.6707 19.5227C18.6272 19.5111 18.5847 19.4964 18.5433 19.4787C18.4607 19.444 18.432 19.4307 18.3753 19.4067C17.9927 19.2397 17.6385 19.0141 17.3253 18.738C17.2413 18.6647 17.1633 18.5847 17.0833 18.5074C16.8211 18.2562 16.5925 17.972 16.4033 17.662L16.364 17.5987C16.3357 17.5562 16.3129 17.5102 16.296 17.462C16.2707 17.364 16.3367 17.2854 16.3367 17.2854C16.3367 17.2854 16.4987 17.108 16.574 17.012C16.6473 16.9187 16.7093 16.828 16.7493 16.7634C16.828 16.6367 16.8527 16.5067 16.8113 16.406C16.6247 15.95 16.4313 15.496 16.2327 15.0454C16.1933 14.956 16.0767 14.892 15.9707 14.8794C15.9347 14.8754 15.8987 14.8714 15.8627 14.8687C15.7731 14.8643 15.6834 14.8652 15.594 14.8714L15.7287 14.8667Z" fill="#7AC5CD"/>
</svg>
