<svg width="36" height="36" viewBox="0 0 36 36" fill="none" xmlns="http://www.w3.org/2000/svg">
<path d="M18 1C14.6377 1 11.3509 1.99703 8.55531 3.86502C5.75968 5.733 3.58074 8.38804 2.29406 11.4944C1.00737 14.6007 0.670709 18.0189 1.32666 21.3165C1.98261 24.6142 3.6017 27.6433 5.97919 30.0208C8.35668 32.3983 11.3858 34.0174 14.6835 34.6733C17.9811 35.3293 21.3993 34.9926 24.5056 33.7059C27.612 32.4193 30.267 30.2403 32.135 27.4447C34.003 24.6491 35 21.3623 35 18C34.9955 13.4927 33.203 9.1713 30.0158 5.98415C26.8287 2.79701 22.5073 1.0045 18 1ZM28.0963 14.1121V15.2103C28.0963 15.2943 28.0795 15.3776 28.0469 15.455C28.0142 15.5324 27.9663 15.6026 27.9061 15.6612C27.8459 15.7198 27.7745 15.7658 27.6962 15.7964C27.6179 15.827 27.5343 15.8416 27.4503 15.8393C25.6555 15.7121 23.9384 15.0567 22.5152 13.9557V21.9933C22.515 22.8829 22.3375 23.7635 21.9931 24.5837C21.6486 25.4039 21.1442 26.1473 20.5092 26.7703C19.8685 27.4089 19.1072 27.9136 18.2696 28.2551C17.4319 28.5966 16.5347 28.768 15.6302 28.7593C13.8111 28.7561 12.0652 28.0424 10.7648 26.7703C9.93757 25.9363 9.34172 24.9013 9.0359 23.7671C8.73007 22.6329 8.7248 21.4386 9.02061 20.3018C9.29091 19.2104 9.83661 18.2074 10.6067 17.3897C11.181 16.6877 11.9049 16.123 12.7256 15.7368C13.5462 15.3506 14.4428 15.1527 15.3497 15.1576H16.7437V18.0527C16.7443 18.1368 16.727 18.22 16.6929 18.2969C16.6588 18.3737 16.6087 18.4425 16.546 18.4984C16.4833 18.5544 16.4093 18.5964 16.3291 18.6215C16.2488 18.6467 16.1642 18.6544 16.0807 18.6443C15.2713 18.4012 14.3992 18.4818 13.6481 18.8692C12.897 19.2566 12.3256 19.9205 12.0545 20.7209C11.7834 21.5214 11.8336 22.3958 12.1946 23.1599C12.5556 23.924 13.1992 24.5181 13.9897 24.817C14.4487 25.0805 14.9621 25.2352 15.4891 25.2709C15.8971 25.2879 16.3051 25.2369 16.6927 25.1145C17.34 24.8966 17.9032 24.482 18.3033 23.9285C18.7035 23.375 18.9208 22.7103 18.9248 22.0273V7.3818C18.9246 7.30151 18.9402 7.22197 18.9708 7.14772C19.0013 7.07348 19.0463 7.006 19.103 6.94915C19.1596 6.8923 19.227 6.84719 19.3012 6.81642C19.3753 6.78564 19.4548 6.7698 19.5351 6.7698H21.9406C22.097 6.76958 22.2476 6.82943 22.3611 6.93698C22.4747 7.04454 22.5426 7.1916 22.5509 7.3478C22.6389 8.09781 22.8772 8.82237 23.2517 9.47813C23.6262 10.1339 24.1291 10.7074 24.7303 11.1643C25.5431 11.7744 26.5084 12.1485 27.52 12.2455C27.6715 12.2585 27.8132 12.3259 27.9189 12.4353C28.0245 12.5447 28.0869 12.6886 28.0946 12.8405L28.0963 14.1121Z" fill="#7AC5CD"/>
</svg>
