<svg width="80" height="80" viewBox="0 0 80 80" fill="none" xmlns="http://www.w3.org/2000/svg">
<circle cx="40" cy="40" r="40" fill="white"/>
<circle cx="40" cy="40" r="39" stroke="black" stroke-opacity="0.1" stroke-width="2"/>
<path d="M31.9301 38.185C34.0901 42.43 37.5701 45.895 41.8151 48.07L45.1151 44.77C45.5201 44.365 46.1201 44.23 46.6451 44.41C48.3251 44.965 50.1401 45.265 52.0001 45.265C52.8251 45.265 53.5001 45.94 53.5001 46.765V52C53.5001 52.825 52.8251 53.5 52.0001 53.5C37.9151 53.5 26.5001 42.085 26.5001 28C26.5001 27.175 27.1751 26.5 28.0001 26.5H33.2501C34.0751 26.5 34.7501 27.175 34.7501 28C34.7501 29.875 35.0501 31.675 35.6051 33.355C35.7701 33.88 35.6501 34.465 35.2301 34.885L31.9301 38.185Z" fill="#7AC5CD"/>
</svg>
