<svg width="56" height="56" viewBox="0 0 56 56" fill="none" xmlns="http://www.w3.org/2000/svg">
<circle cx="28" cy="28" r="28" fill="white"/>
<circle cx="28" cy="28" r="27.3063" stroke="#45474D" stroke-opacity="0.1" stroke-width="1.38746"/>
<path d="M37.5984 24.8476V33.4C37.5984 34.1957 37.2824 34.9588 36.7198 35.5214C36.1571 36.084 35.3941 36.4 34.5984 36.4H21.3984C20.6028 36.4 19.8397 36.084 19.2771 35.5214C18.7145 34.9588 18.3984 34.1957 18.3984 33.4V24.8476L27.6936 30.3172C27.786 30.3717 27.8912 30.4004 27.9984 30.4004C28.1056 30.4004 28.2109 30.3717 28.3032 30.3172L37.5984 24.8476ZM34.5984 20.8C35.3366 20.7999 36.0489 21.072 36.5991 21.5641C37.1492 22.0563 37.4986 22.734 37.5804 23.4676L27.9984 29.104L18.4164 23.4676C18.4982 22.734 18.8476 22.0563 19.3978 21.5641C19.948 21.072 20.6603 20.7999 21.3984 20.8H34.5984Z" fill="#7AC5CD"/>
</svg>
