<svg width="163" height="163" viewBox="0 0 163 163" fill="none" xmlns="http://www.w3.org/2000/svg">
<circle cx="81.5" cy="81.5" r="81.5" fill="url(#paint0_linear_2055_5486)"/>
<circle cx="81.5" cy="81.5" r="81" stroke="black" stroke-opacity="0.1"/>
<path d="M103.207 59.5329C104.296 58.5388 105.745 57.9893 107.248 58.0002C108.751 58.0111 110.191 58.5816 111.263 59.5913C112.336 60.6011 112.958 61.971 112.998 63.4122C113.038 64.8533 112.492 66.2529 111.476 67.3156L80.6405 104.302C80.1102 104.85 79.4703 105.29 78.7589 105.595C78.0475 105.9 77.2792 106.064 76.5 106.078C75.7209 106.092 74.9468 105.955 74.2241 105.675C73.5014 105.396 72.8449 104.979 72.2939 104.45L51.8448 84.8379C51.2753 84.329 50.8186 83.7153 50.5018 83.0333C50.185 82.3514 50.0146 81.6153 50.0009 80.8689C49.9872 80.1225 50.1303 79.381 50.4219 78.6888C50.7134 77.9966 51.1473 77.3678 51.6977 76.8399C52.2481 76.312 52.9037 75.8959 53.6254 75.6163C54.3472 75.3367 55.1202 75.1994 55.8985 75.2126C56.6767 75.2257 57.4443 75.3891 58.1553 75.693C58.8663 75.9968 59.5062 76.4349 60.0368 76.981L76.2199 92.4947L103.06 59.6959C103.109 59.6389 103.152 59.5844 103.207 59.5329Z" fill="white"/>
<defs>
<linearGradient id="paint0_linear_2055_5486" x1="-43" y1="163" x2="225" y2="-23" gradientUnits="userSpaceOnUse">
<stop offset="0.00729926" stop-color="#ECD087"/>
<stop offset="0.562044" stop-color="#FBE8A3"/>
<stop offset="1" stop-color="#ECD087"/>
</linearGradient>
</defs>
</svg>
