<svg width="36" height="36" viewBox="0 0 36 36" fill="none" xmlns="http://www.w3.org/2000/svg">
<circle cx="18" cy="18" r="18" fill="#7AC5CD"/>
<circle cx="18" cy="18" r="17.5" stroke="#45474D" stroke-opacity="0.1"/>
<g clip-path="url(#clip0_4048_380)">
<path fill-rule="evenodd" clip-rule="evenodd" d="M17.6985 10.0777C17.6243 10.1207 17.5284 10.2184 17.4855 10.2949L17.4074 10.4338V15.4099V20.386L15.3241 18.3067C13.3562 16.3428 13.2315 16.2257 13.0741 16.1942C12.5899 16.0974 12.2471 16.4402 12.3436 16.9247C12.3751 17.0827 12.5098 17.2247 14.9384 19.6608C16.3473 21.074 17.5741 22.2784 17.6647 22.3371C17.7856 22.4156 17.8746 22.444 18 22.444C18.1254 22.444 18.2144 22.4156 18.3353 22.3371C18.4259 22.2784 19.6527 21.074 21.0616 19.6608C23.4902 17.2247 23.6249 17.0827 23.6564 16.9247C23.7529 16.4402 23.4101 16.0974 22.9259 16.1942C22.7685 16.2257 22.6438 16.3428 20.6759 18.3067L18.5926 20.386V15.4099V10.4338L18.5141 10.2943C18.358 10.0164 17.9781 9.91555 17.6985 10.0777ZM10.2911 19.8569C10.2169 19.8999 10.121 19.9976 10.0781 20.074C10.0007 20.2118 10 20.2357 10 22.8885C10 25.5449 10.0006 25.5649 10.0784 25.7035C10.1216 25.7803 10.2197 25.8784 10.2964 25.9215L10.436 26H18.0088H25.5816L25.7066 25.9158C25.7753 25.8695 25.8695 25.7753 25.9158 25.7066L26 25.5816V22.8973C26 20.2318 25.9994 20.212 25.9216 20.0734C25.7026 19.6838 25.1122 19.6838 24.8933 20.0734C24.8157 20.2114 24.8148 20.2389 24.8148 22.5138V24.8147H18H11.1852V22.5138C11.1852 20.2389 11.1843 20.2114 11.1067 20.0734C10.9506 19.7955 10.5707 19.6947 10.2911 19.8569Z" fill="white"/>
</g>
<defs>
<clipPath id="clip0_4048_380">
<rect width="16" height="16" fill="white" transform="translate(10 10)"/>
</clipPath>
</defs>
</svg>
